<svg xmlns="http://www.w3.org/2000/svg" xmlns:xlink="http://www.w3.org/1999/xlink" width="500" zoomAndPan="magnify" viewBox="0 0 375 374.999991" height="500" preserveAspectRatio="xMidYMid meet" version="1.0"><defs><g/><clipPath id="537c019d78"><path d="M 128.960938 55.890625 L 302.304688 55.890625 L 302.304688 91.359375 L 128.960938 91.359375 Z M 128.960938 55.890625 " clip-rule="nonzero"/></clipPath><clipPath id="d8a95c6e89"><path d="M 128.960938 105.695312 L 314.300781 105.695312 L 314.300781 136.367188 L 128.960938 136.367188 Z M 128.960938 105.695312 " clip-rule="nonzero"/></clipPath><clipPath id="6fc48e3cc7"><path d="M 18 56 L 123.664062 56 L 123.664062 137.695312 L 18 137.695312 Z M 18 56 " clip-rule="nonzero"/></clipPath></defs><rect x="-37.5" width="450" fill="#ffffff" y="-37.499999" height="449.999989" fill-opacity="1"/><rect x="-37.5" width="450" fill="#ffffff" y="-37.499999" height="449.999989" fill-opacity="1"/><g clip-path="url(#537c019d78)"><path fill="#e4b628" d="M 128.960938 55.890625 L 302.292969 55.890625 L 302.292969 91.359375 L 128.960938 91.359375 Z M 128.960938 55.890625 " fill-opacity="1" fill-rule="nonzero"/></g><g clip-path="url(#d8a95c6e89)"><path fill="#e4b628" d="M 128.960938 105.695312 L 314.300781 105.695312 L 314.300781 136.367188 L 128.960938 136.367188 Z M 128.960938 105.695312 " fill-opacity="1" fill-rule="nonzero"/></g><g clip-path="url(#6fc48e3cc7)"><path fill="#e4b628" d="M 65.429688 73.660156 C 66.460938 71.644531 67.1875 70.039062 68.070312 68.53125 C 71.523438 62.65625 76.21875 58.265625 83.171875 57.128906 C 88.839844 56.203125 94.328125 57.164062 99.4375 59.871094 C 106.1875 63.445312 110.066406 69.191406 111.601562 76.535156 C 112.824219 82.394531 112.160156 88.171875 110.28125 93.824219 C 110.070312 94.460938 109.785156 95.070312 109.496094 95.789062 C 101.238281 95.789062 93.03125 95.789062 84.527344 95.789062 C 83.941406 94.703125 83.25 93.464844 82.601562 92.203125 C 81.667969 90.394531 80.738281 88.589844 79.871094 86.75 C 79.128906 85.1875 78.105469 83.9375 76.25 84.058594 C 74.445312 84.171875 73.5 85.394531 72.898438 87.074219 C 71.238281 91.699219 69.460938 96.277344 67.722656 100.875 C 67.574219 101.265625 67.398438 101.648438 67.101562 102.359375 C 66.746094 101.671875 66.441406 101.238281 66.28125 100.757812 C 64.191406 94.492188 62.121094 88.21875 60.046875 81.949219 C 59.914062 81.546875 59.820312 81.132812 59.664062 80.742188 C 59.082031 79.285156 58.074219 78.28125 56.453125 78.265625 C 54.867188 78.253906 53.742188 79.085938 53.140625 80.582031 C 51.617188 84.355469 50.09375 88.125 48.5625 91.890625 C 48.054688 93.140625 47.511719 94.382812 46.867188 95.914062 C 45.910156 95.914062 44.914062 95.910156 43.917969 95.914062 C 41.460938 95.917969 39 95.855469 36.542969 95.953125 C 34.585938 96.035156 33.359375 97.367188 33.316406 99.195312 C 33.273438 100.925781 34.34375 102.28125 36.085938 102.636719 C 36.578125 102.734375 37.097656 102.722656 37.605469 102.722656 C 41.25 102.730469 44.898438 102.675781 48.542969 102.746094 C 50.710938 102.785156 52.03125 101.839844 52.789062 99.84375 C 53.746094 97.316406 54.808594 94.832031 56.019531 91.855469 C 56.546875 93.355469 56.941406 94.414062 57.296875 95.480469 C 59.316406 101.59375 61.335938 107.703125 63.339844 113.820312 C 63.851562 115.386719 64.683594 116.542969 66.503906 116.644531 C 68.285156 116.742188 69.382812 116.050781 70.132812 114.109375 C 71.535156 110.476562 72.871094 106.816406 74.238281 103.167969 C 75.066406 100.949219 75.898438 98.734375 76.867188 96.144531 C 77.550781 97.480469 78.171875 98.457031 78.570312 99.519531 C 79.476562 101.917969 81.117188 102.785156 83.675781 102.765625 C 95.292969 102.675781 106.910156 102.726562 118.527344 102.726562 C 119.371094 102.726562 120.230469 102.679688 121.066406 102.792969 C 122.375 102.964844 123.292969 104.007812 123.304688 105.171875 C 123.3125 106.320312 122.402344 107.382812 121.105469 107.601562 C 120.445312 107.714844 119.753906 107.667969 119.078125 107.667969 C 114.246094 107.675781 109.410156 107.695312 104.578125 107.664062 C 103.492188 107.65625 102.695312 107.898438 101.96875 108.828125 C 94.292969 118.640625 84.652344 126.195312 74.183594 132.773438 C 71.816406 134.261719 69.351562 135.585938 66.949219 137.015625 C 65.996094 137.582031 65.132812 137.660156 64.113281 137.089844 C 51.210938 129.902344 39.292969 121.464844 29.839844 109.941406 C 24.890625 103.90625 21.066406 97.25 19.488281 89.511719 C 17.949219 81.945312 18.566406 74.605469 22.761719 67.945312 C 27.035156 61.164062 33.496094 57.792969 41.339844 56.96875 C 51.066406 55.941406 57.980469 60.292969 62.839844 68.4375 C 63.3125 69.238281 63.714844 70.085938 64.128906 70.917969 C 64.5 71.667969 64.847656 72.429688 65.429688 73.660156 Z M 65.429688 73.660156 " fill-opacity="1" fill-rule="nonzero"/></g><g fill="#45433f" fill-opacity="1"><g transform="translate(138.06102, 84.630259)"><g><path d="M 11.5 -25.46875 C 14.34375 -25.46875 16.519531 -24.753906 18.03125 -23.328125 C 19.539062 -21.910156 20.4375 -20.003906 20.71875 -17.609375 L 15.625 -17.609375 C 15.476562 -18.910156 15.039062 -19.921875 14.3125 -20.640625 C 13.59375 -21.367188 12.597656 -21.734375 11.328125 -21.734375 C 10.285156 -21.734375 9.4375 -21.476562 8.78125 -20.96875 C 8.132812 -20.46875 7.8125 -19.734375 7.8125 -18.765625 C 7.8125 -17.710938 8.203125 -16.882812 8.984375 -16.28125 C 9.773438 -15.675781 11.15625 -15.144531 13.125 -14.6875 C 15.851562 -14.0625 17.863281 -13.109375 19.15625 -11.828125 C 20.445312 -10.546875 21.09375 -8.894531 21.09375 -6.875 C 21.09375 -4.601562 20.195312 -2.804688 18.40625 -1.484375 C 16.625 -0.160156 14.441406 0.5 11.859375 0.5 C 8.828125 0.5 6.40625 -0.164062 4.59375 -1.5 C 2.78125 -2.84375 1.753906 -4.800781 1.515625 -7.375 L 6.625 -7.375 C 6.882812 -6.050781 7.484375 -5.023438 8.421875 -4.296875 C 9.367188 -3.578125 10.492188 -3.21875 11.796875 -3.21875 C 12.953125 -3.21875 13.921875 -3.503906 14.703125 -4.078125 C 15.484375 -4.660156 15.875 -5.421875 15.875 -6.359375 C 15.875 -7.421875 15.492188 -8.273438 14.734375 -8.921875 C 13.972656 -9.578125 12.691406 -10.125 10.890625 -10.5625 C 8.085938 -11.238281 6 -12.132812 4.625 -13.25 C 3.25 -14.375 2.5625 -16.007812 2.5625 -18.15625 C 2.5625 -20.375 3.429688 -22.144531 5.171875 -23.46875 C 6.910156 -24.800781 9.019531 -25.46875 11.5 -25.46875 Z M 11.5 -25.46875 "/></g></g></g><g fill="#45433f" fill-opacity="1"><g transform="translate(160.052886, 84.630259)"><g><path d="M 13.453125 0 L 13.09375 -2.828125 L 12.15625 -0.765625 C 10.894531 0.078125 9.300781 0.5 7.375 0.5 C 5.613281 0.5 4.140625 0.0078125 2.953125 -0.96875 C 1.773438 -1.957031 1.1875 -3.332031 1.1875 -5.09375 C 1.1875 -7.21875 2.082031 -8.851562 3.875 -10 C 5.675781 -11.144531 8.316406 -11.71875 11.796875 -11.71875 L 13.015625 -11.71875 L 13.015625 -12.125 C 13.015625 -12.894531 12.992188 -13.492188 12.953125 -13.921875 C 12.785156 -15.460938 11.796875 -16.234375 9.984375 -16.234375 C 7.984375 -16.234375 6.910156 -15.148438 6.765625 -12.984375 L 1.921875 -12.953125 C 1.992188 -15.066406 2.796875 -16.726562 4.328125 -17.9375 C 5.859375 -19.144531 7.804688 -19.75 10.171875 -19.75 C 14.960938 -19.75 17.53125 -17.859375 17.875 -14.078125 C 17.945312 -13.160156 17.984375 -12.171875 17.984375 -11.109375 L 17.984375 -4.890625 C 17.984375 -3.410156 18.101562 -1.78125 18.34375 0 Z M 9.296875 -3 C 10.359375 -3 11.242188 -3.359375 11.953125 -4.078125 C 12.660156 -4.804688 13.015625 -5.8125 13.015625 -7.09375 L 13.015625 -8.640625 C 8.578125 -8.953125 6.359375 -7.90625 6.359375 -5.5 C 6.359375 -3.832031 7.335938 -3 9.296875 -3 Z M 9.296875 -3 "/></g></g></g><g fill="#45433f" fill-opacity="1"><g transform="translate(180.380891, 84.630259)"><g><path d="M 12.1875 -20.796875 L 9.375 -20.796875 L 12.1875 -25.0625 L 16.671875 -25.0625 Z M 20.046875 -19.25 L 20.046875 0 L 15.046875 0 L 15.046875 -3.25 L 13.5625 -0.796875 C 12.257812 0.0664062 10.71875 0.5 8.9375 0.5 C 7.03125 0.5 5.476562 0.0351562 4.28125 -0.890625 C 3.09375 -1.816406 2.378906 -2.976562 2.140625 -4.375 C 2.015625 -5.195312 1.953125 -6.367188 1.953125 -7.890625 L 1.953125 -19.25 L 6.9375 -19.25 L 6.9375 -8.9375 C 6.9375 -8.039062 6.988281 -7.160156 7.09375 -6.296875 C 7.351562 -4.117188 8.59375 -3.03125 10.8125 -3.03125 C 12.113281 -3.03125 13.144531 -3.570312 13.90625 -4.65625 C 14.664062 -5.75 15.046875 -7.34375 15.046875 -9.4375 L 15.046875 -19.25 Z M 20.046875 -19.25 "/></g></g></g><g fill="#45433f" fill-opacity="1"><g transform="translate(202.734464, 84.630259)"><g><path d="M 20.984375 -26.59375 L 20.984375 0 L 15.984375 0 L 15.984375 -2.96875 L 14.546875 -0.828125 C 13.390625 0.0546875 11.722656 0.5 9.546875 0.5 C 6.898438 0.5 4.8125 -0.398438 3.28125 -2.203125 C 1.75 -4.015625 0.984375 -6.367188 0.984375 -9.265625 C 0.984375 -12.585938 1.859375 -15.164062 3.609375 -17 C 5.367188 -18.832031 7.566406 -19.75 10.203125 -19.75 C 12.179688 -19.75 13.6875 -19.390625 14.71875 -18.671875 L 15.984375 -16.671875 L 15.984375 -26.59375 Z M 11 -3 C 12.488281 -3 13.691406 -3.507812 14.609375 -4.53125 C 15.523438 -5.5625 15.984375 -7.1875 15.984375 -9.40625 L 15.984375 -10.34375 C 15.984375 -12.34375 15.515625 -13.820312 14.578125 -14.78125 C 13.640625 -15.75 12.503906 -16.234375 11.171875 -16.234375 C 9.679688 -16.234375 8.472656 -15.660156 7.546875 -14.515625 C 6.617188 -13.378906 6.15625 -11.734375 6.15625 -9.578125 C 6.15625 -7.609375 6.59375 -6.019531 7.46875 -4.8125 C 8.351562 -3.601562 9.53125 -3 11 -3 Z M 11 -3 "/></g></g></g><g fill="#45433f" fill-opacity="1"><g transform="translate(226.064647, 84.630259)"><g><path d="M 19.75 -10.015625 C 19.75 -9.316406 19.722656 -8.75 19.671875 -8.3125 L 6 -8.3125 C 6.289062 -4.769531 7.773438 -3 10.453125 -3 C 11.535156 -3 12.429688 -3.285156 13.140625 -3.859375 C 13.859375 -4.441406 14.300781 -5.238281 14.46875 -6.25 L 19.453125 -6.25 C 18.972656 -4.0625 17.921875 -2.390625 16.296875 -1.234375 C 14.671875 -0.078125 12.6875 0.5 10.34375 0.5 C 7.570312 0.5 5.316406 -0.359375 3.578125 -2.078125 C 1.847656 -3.804688 0.984375 -6.296875 0.984375 -9.546875 C 0.984375 -12.535156 1.878906 -14.984375 3.671875 -16.890625 C 5.460938 -18.796875 7.820312 -19.75 10.75 -19.75 C 13.5625 -19.75 15.765625 -18.816406 17.359375 -16.953125 C 18.953125 -15.097656 19.75 -12.785156 19.75 -10.015625 Z M 10.53125 -16.234375 C 8.039062 -16.234375 6.582031 -14.679688 6.15625 -11.578125 L 14.609375 -11.578125 C 14.273438 -14.679688 12.914062 -16.234375 10.53125 -16.234375 Z M 10.53125 -16.234375 "/></g></g></g><g fill="#45433f" fill-opacity="1"><g transform="translate(246.974857, 84.630259)"><g/></g></g><g fill="#45433f" fill-opacity="1"><g transform="translate(253.991998, 84.630259)"><g/></g></g><g fill="#45433f" fill-opacity="1"><g transform="translate(261.009138, 84.630259)"><g/></g></g><g fill="#45433f" fill-opacity="1"><g transform="translate(268.026278, 84.630259)"><g/></g></g><g fill="#45433f" fill-opacity="1"><g transform="translate(275.045601, 84.630259)"><g><path d="M 19.75 -10.015625 C 19.75 -9.316406 19.722656 -8.75 19.671875 -8.3125 L 6 -8.3125 C 6.289062 -4.769531 7.773438 -3 10.453125 -3 C 11.535156 -3 12.429688 -3.285156 13.140625 -3.859375 C 13.859375 -4.441406 14.300781 -5.238281 14.46875 -6.25 L 19.453125 -6.25 C 18.972656 -4.0625 17.921875 -2.390625 16.296875 -1.234375 C 14.671875 -0.078125 12.6875 0.5 10.34375 0.5 C 7.570312 0.5 5.316406 -0.359375 3.578125 -2.078125 C 1.847656 -3.804688 0.984375 -6.296875 0.984375 -9.546875 C 0.984375 -12.535156 1.878906 -14.984375 3.671875 -16.890625 C 5.460938 -18.796875 7.820312 -19.75 10.75 -19.75 C 13.5625 -19.75 15.765625 -18.816406 17.359375 -16.953125 C 18.953125 -15.097656 19.75 -12.785156 19.75 -10.015625 Z M 10.53125 -16.234375 C 8.039062 -16.234375 6.582031 -14.679688 6.15625 -11.578125 L 14.609375 -11.578125 C 14.273438 -14.679688 12.914062 -16.234375 10.53125 -16.234375 Z M 10.53125 -16.234375 "/></g></g></g><g fill="#45433f" fill-opacity="1"><g transform="translate(26.157189, 195.619206)"><g><path d="M 8.296875 0.28125 C 6.160156 0.28125 4.445312 -0.351562 3.15625 -1.625 C 1.863281 -2.894531 1.21875 -4.597656 1.21875 -6.734375 L 1.21875 -18.28125 C 1.21875 -20.394531 1.863281 -22.078125 3.15625 -23.328125 C 4.445312 -24.585938 6.160156 -25.21875 8.296875 -25.21875 C 10.460938 -25.21875 12.191406 -24.585938 13.484375 -23.328125 C 14.773438 -22.078125 15.421875 -20.394531 15.421875 -18.28125 L 15.421875 -17.890625 C 15.421875 -17.765625 15.378906 -17.660156 15.296875 -17.578125 C 15.210938 -17.492188 15.113281 -17.453125 15 -17.453125 L 10.828125 -17.28125 C 10.546875 -17.28125 10.40625 -17.410156 10.40625 -17.671875 L 10.40625 -18.59375 C 10.40625 -19.28125 10.210938 -19.835938 9.828125 -20.265625 C 9.453125 -20.691406 8.941406 -20.90625 8.296875 -20.90625 C 7.679688 -20.90625 7.179688 -20.691406 6.796875 -20.265625 C 6.421875 -19.835938 6.234375 -19.28125 6.234375 -18.59375 L 6.234375 -6.3125 C 6.234375 -5.613281 6.421875 -5.054688 6.796875 -4.640625 C 7.179688 -4.234375 7.679688 -4.03125 8.296875 -4.03125 C 8.941406 -4.03125 9.453125 -4.234375 9.828125 -4.640625 C 10.210938 -5.054688 10.40625 -5.613281 10.40625 -6.3125 L 10.40625 -7.265625 C 10.40625 -7.390625 10.445312 -7.488281 10.53125 -7.5625 C 10.613281 -7.644531 10.710938 -7.6875 10.828125 -7.6875 L 15 -7.515625 C 15.113281 -7.515625 15.210938 -7.472656 15.296875 -7.390625 C 15.378906 -7.304688 15.421875 -7.207031 15.421875 -7.09375 L 15.421875 -6.734375 C 15.421875 -4.597656 14.765625 -2.894531 13.453125 -1.625 C 12.148438 -0.351562 10.429688 0.28125 8.296875 0.28125 Z M 8.296875 0.28125 "/></g></g></g><g fill="#45433f" fill-opacity="1"><g transform="translate(42.681758, 195.619206)"><g><path d="M 2 0 C 1.875 0 1.769531 -0.0390625 1.6875 -0.125 C 1.601562 -0.207031 1.5625 -0.304688 1.5625 -0.421875 L 1.5625 -24.515625 C 1.5625 -24.628906 1.601562 -24.726562 1.6875 -24.8125 C 1.769531 -24.894531 1.875 -24.9375 2 -24.9375 L 6.15625 -24.9375 C 6.28125 -24.9375 6.382812 -24.894531 6.46875 -24.8125 C 6.550781 -24.726562 6.59375 -24.628906 6.59375 -24.515625 L 6.59375 -4.484375 C 6.59375 -4.367188 6.648438 -4.3125 6.765625 -4.3125 L 14.25 -4.3125 C 14.363281 -4.3125 14.460938 -4.269531 14.546875 -4.1875 C 14.628906 -4.101562 14.671875 -4.003906 14.671875 -3.890625 L 14.671875 -0.421875 C 14.671875 -0.304688 14.628906 -0.207031 14.546875 -0.125 C 14.460938 -0.0390625 14.363281 0 14.25 0 Z M 2 0 "/></g></g></g><g fill="#45433f" fill-opacity="1"><g transform="translate(57.853018, 195.619206)"><g><path d="M 2 0 C 1.875 0 1.769531 -0.0390625 1.6875 -0.125 C 1.601562 -0.207031 1.5625 -0.304688 1.5625 -0.421875 L 1.5625 -24.515625 C 1.5625 -24.628906 1.601562 -24.726562 1.6875 -24.8125 C 1.769531 -24.894531 1.875 -24.9375 2 -24.9375 L 6.15625 -24.9375 C 6.28125 -24.9375 6.382812 -24.894531 6.46875 -24.8125 C 6.550781 -24.726562 6.59375 -24.628906 6.59375 -24.515625 L 6.59375 -0.421875 C 6.59375 -0.304688 6.550781 -0.207031 6.46875 -0.125 C 6.382812 -0.0390625 6.28125 0 6.15625 0 Z M 2 0 "/></g></g></g><g fill="#45433f" fill-opacity="1"><g transform="translate(66.044081, 195.619206)"><g><path d="M 11.75 -24.515625 C 11.75 -24.628906 11.789062 -24.726562 11.875 -24.8125 C 11.957031 -24.894531 12.0625 -24.9375 12.1875 -24.9375 L 16.3125 -24.9375 C 16.4375 -24.9375 16.539062 -24.894531 16.625 -24.8125 C 16.707031 -24.726562 16.75 -24.628906 16.75 -24.515625 L 16.75 -0.421875 C 16.75 -0.304688 16.707031 -0.207031 16.625 -0.125 C 16.539062 -0.0390625 16.4375 0 16.3125 0 L 11.609375 0 C 11.367188 0 11.21875 -0.117188 11.15625 -0.359375 L 6.734375 -14.140625 C 6.710938 -14.210938 6.671875 -14.242188 6.609375 -14.234375 C 6.546875 -14.222656 6.515625 -14.179688 6.515625 -14.109375 L 6.5625 -0.421875 C 6.5625 -0.304688 6.519531 -0.207031 6.4375 -0.125 C 6.351562 -0.0390625 6.25 0 6.125 0 L 2 0 C 1.875 0 1.769531 -0.0390625 1.6875 -0.125 C 1.601562 -0.207031 1.5625 -0.304688 1.5625 -0.421875 L 1.5625 -24.515625 C 1.5625 -24.628906 1.601562 -24.726562 1.6875 -24.8125 C 1.769531 -24.894531 1.875 -24.9375 2 -24.9375 L 6.65625 -24.9375 C 6.894531 -24.9375 7.050781 -24.816406 7.125 -24.578125 L 11.578125 -10.796875 C 11.597656 -10.722656 11.640625 -10.691406 11.703125 -10.703125 C 11.765625 -10.710938 11.796875 -10.753906 11.796875 -10.828125 Z M 11.75 -24.515625 "/></g></g></g><g fill="#45433f" fill-opacity="1"><g transform="translate(84.349316, 195.619206)"><g><path d="M 2 0 C 1.875 0 1.769531 -0.0390625 1.6875 -0.125 C 1.601562 -0.207031 1.5625 -0.304688 1.5625 -0.421875 L 1.5625 -24.515625 C 1.5625 -24.628906 1.601562 -24.726562 1.6875 -24.8125 C 1.769531 -24.894531 1.875 -24.9375 2 -24.9375 L 6.15625 -24.9375 C 6.28125 -24.9375 6.382812 -24.894531 6.46875 -24.8125 C 6.550781 -24.726562 6.59375 -24.628906 6.59375 -24.515625 L 6.59375 -0.421875 C 6.59375 -0.304688 6.550781 -0.207031 6.46875 -0.125 C 6.382812 -0.0390625 6.28125 0 6.15625 0 Z M 2.140625 -27.140625 C 1.972656 -27.140625 1.851562 -27.1875 1.78125 -27.28125 C 1.707031 -27.382812 1.71875 -27.503906 1.8125 -27.640625 L 3.921875 -31.28125 C 4.015625 -31.46875 4.191406 -31.5625 4.453125 -31.5625 L 7.765625 -31.5625 C 8.003906 -31.5625 8.125 -31.476562 8.125 -31.3125 C 8.125 -31.238281 8.085938 -31.144531 8.015625 -31.03125 L 5.265625 -27.390625 C 5.128906 -27.222656 4.960938 -27.140625 4.765625 -27.140625 Z M 2.140625 -27.140625 "/></g></g></g><g fill="#45433f" fill-opacity="1"><g transform="translate(92.540378, 195.619206)"><g><path d="M 8.296875 0.28125 C 6.160156 0.28125 4.445312 -0.351562 3.15625 -1.625 C 1.863281 -2.894531 1.21875 -4.597656 1.21875 -6.734375 L 1.21875 -18.28125 C 1.21875 -20.394531 1.863281 -22.078125 3.15625 -23.328125 C 4.445312 -24.585938 6.160156 -25.21875 8.296875 -25.21875 C 10.460938 -25.21875 12.191406 -24.585938 13.484375 -23.328125 C 14.773438 -22.078125 15.421875 -20.394531 15.421875 -18.28125 L 15.421875 -17.890625 C 15.421875 -17.765625 15.378906 -17.660156 15.296875 -17.578125 C 15.210938 -17.492188 15.113281 -17.453125 15 -17.453125 L 10.828125 -17.28125 C 10.546875 -17.28125 10.40625 -17.410156 10.40625 -17.671875 L 10.40625 -18.59375 C 10.40625 -19.28125 10.210938 -19.835938 9.828125 -20.265625 C 9.453125 -20.691406 8.941406 -20.90625 8.296875 -20.90625 C 7.679688 -20.90625 7.179688 -20.691406 6.796875 -20.265625 C 6.421875 -19.835938 6.234375 -19.28125 6.234375 -18.59375 L 6.234375 -6.3125 C 6.234375 -5.613281 6.421875 -5.054688 6.796875 -4.640625 C 7.179688 -4.234375 7.679688 -4.03125 8.296875 -4.03125 C 8.941406 -4.03125 9.453125 -4.234375 9.828125 -4.640625 C 10.210938 -5.054688 10.40625 -5.613281 10.40625 -6.3125 L 10.40625 -7.265625 C 10.40625 -7.390625 10.445312 -7.488281 10.53125 -7.5625 C 10.613281 -7.644531 10.710938 -7.6875 10.828125 -7.6875 L 15 -7.515625 C 15.113281 -7.515625 15.210938 -7.472656 15.296875 -7.390625 C 15.378906 -7.304688 15.421875 -7.207031 15.421875 -7.09375 L 15.421875 -6.734375 C 15.421875 -4.597656 14.765625 -2.894531 13.453125 -1.625 C 12.148438 -0.351562 10.429688 0.28125 8.296875 0.28125 Z M 8.296875 0.28125 "/></g></g></g><g fill="#45433f" fill-opacity="1"><g transform="translate(109.064948, 195.619206)"><g><path d="M 12.046875 0 C 11.753906 0 11.597656 -0.128906 11.578125 -0.390625 L 11.015625 -3.8125 C 11.015625 -3.925781 10.941406 -3.984375 10.796875 -3.984375 L 6.265625 -3.984375 C 6.128906 -3.984375 6.0625 -3.925781 6.0625 -3.8125 L 5.484375 -0.390625 C 5.460938 -0.128906 5.304688 0 5.015625 0 L 0.859375 0 C 0.546875 0 0.425781 -0.15625 0.5 -0.46875 L 5.734375 -24.546875 C 5.785156 -24.804688 5.941406 -24.9375 6.203125 -24.9375 L 11.015625 -24.9375 C 11.273438 -24.9375 11.425781 -24.804688 11.46875 -24.546875 L 16.671875 -0.46875 L 16.703125 -0.328125 C 16.703125 -0.109375 16.570312 0 16.3125 0 Z M 6.765625 -8.046875 C 6.765625 -7.929688 6.8125 -7.875 6.90625 -7.875 L 10.125 -7.875 C 10.238281 -7.875 10.285156 -7.929688 10.265625 -8.046875 L 8.578125 -17.78125 C 8.554688 -17.851562 8.519531 -17.890625 8.46875 -17.890625 C 8.425781 -17.890625 8.394531 -17.851562 8.375 -17.78125 Z M 6.765625 -8.046875 "/></g></g></g><g fill="#45433f" fill-opacity="1"><g transform="translate(126.230558, 195.619206)"><g><path d="M 7.984375 0.28125 C 6.597656 0.28125 5.382812 0.0078125 4.34375 -0.53125 C 3.300781 -1.082031 2.492188 -1.847656 1.921875 -2.828125 C 1.347656 -3.816406 1.0625 -4.953125 1.0625 -6.234375 L 1.0625 -7.265625 C 1.0625 -7.390625 1.101562 -7.488281 1.1875 -7.5625 C 1.269531 -7.644531 1.375 -7.6875 1.5 -7.6875 L 5.59375 -7.6875 C 5.707031 -7.6875 5.804688 -7.644531 5.890625 -7.5625 C 5.972656 -7.488281 6.015625 -7.390625 6.015625 -7.265625 L 6.015625 -6.484375 C 6.015625 -5.742188 6.203125 -5.148438 6.578125 -4.703125 C 6.960938 -4.253906 7.441406 -4.03125 8.015625 -4.03125 C 8.585938 -4.03125 9.0625 -4.242188 9.4375 -4.671875 C 9.820312 -5.097656 10.015625 -5.65625 10.015625 -6.34375 C 10.015625 -7.050781 9.773438 -7.660156 9.296875 -8.171875 C 8.816406 -8.679688 7.890625 -9.4375 6.515625 -10.4375 C 5.328125 -11.289062 4.363281 -12.050781 3.625 -12.71875 C 2.894531 -13.382812 2.269531 -14.203125 1.75 -15.171875 C 1.226562 -16.148438 0.96875 -17.28125 0.96875 -18.5625 C 0.96875 -20.582031 1.59375 -22.195312 2.84375 -23.40625 C 4.101562 -24.613281 5.769531 -25.21875 7.84375 -25.21875 C 9.925781 -25.21875 11.601562 -24.585938 12.875 -23.328125 C 14.144531 -22.078125 14.78125 -20.425781 14.78125 -18.375 L 14.78125 -17.53125 C 14.78125 -17.40625 14.738281 -17.300781 14.65625 -17.21875 C 14.570312 -17.132812 14.472656 -17.09375 14.359375 -17.09375 L 10.265625 -17.09375 C 10.140625 -17.09375 10.035156 -17.132812 9.953125 -17.21875 C 9.867188 -17.300781 9.828125 -17.40625 9.828125 -17.53125 L 9.828125 -18.484375 C 9.828125 -19.222656 9.644531 -19.8125 9.28125 -20.25 C 8.914062 -20.6875 8.4375 -20.90625 7.84375 -20.90625 C 7.269531 -20.90625 6.800781 -20.695312 6.4375 -20.28125 C 6.082031 -19.875 5.90625 -19.300781 5.90625 -18.5625 C 5.90625 -17.84375 6.128906 -17.210938 6.578125 -16.671875 C 7.035156 -16.128906 7.929688 -15.367188 9.265625 -14.390625 C 10.734375 -13.296875 11.84375 -12.410156 12.59375 -11.734375 C 13.34375 -11.054688 13.925781 -10.304688 14.34375 -9.484375 C 14.757812 -8.671875 14.96875 -7.695312 14.96875 -6.5625 C 14.96875 -4.46875 14.320312 -2.800781 13.03125 -1.5625 C 11.75 -0.332031 10.066406 0.28125 7.984375 0.28125 Z M 7.984375 0.28125 "/></g></g></g><g fill="#45433f" fill-opacity="1"><g transform="translate(26.157189, 245.119203)"><g><path d="M 14.609375 -21.046875 C 14.609375 -20.929688 14.566406 -20.832031 14.484375 -20.75 C 14.398438 -20.664062 14.296875 -20.625 14.171875 -20.625 L 6.765625 -20.625 C 6.648438 -20.625 6.59375 -20.566406 6.59375 -20.453125 L 6.59375 -14.8125 C 6.59375 -14.695312 6.648438 -14.640625 6.765625 -14.640625 L 11.015625 -14.640625 C 11.128906 -14.640625 11.226562 -14.597656 11.3125 -14.515625 C 11.394531 -14.429688 11.4375 -14.332031 11.4375 -14.21875 L 11.4375 -10.765625 C 11.4375 -10.640625 11.394531 -10.535156 11.3125 -10.453125 C 11.226562 -10.367188 11.128906 -10.328125 11.015625 -10.328125 L 6.765625 -10.328125 C 6.648438 -10.328125 6.59375 -10.269531 6.59375 -10.15625 L 6.59375 -0.421875 C 6.59375 -0.304688 6.550781 -0.207031 6.46875 -0.125 C 6.382812 -0.0390625 6.28125 0 6.15625 0 L 2 0 C 1.875 0 1.769531 -0.0390625 1.6875 -0.125 C 1.601562 -0.207031 1.5625 -0.304688 1.5625 -0.421875 L 1.5625 -24.515625 C 1.5625 -24.628906 1.601562 -24.726562 1.6875 -24.8125 C 1.769531 -24.894531 1.875 -24.9375 2 -24.9375 L 14.171875 -24.9375 C 14.296875 -24.9375 14.398438 -24.894531 14.484375 -24.8125 C 14.566406 -24.726562 14.609375 -24.628906 14.609375 -24.515625 Z M 14.609375 -21.046875 "/></g></g></g><g fill="#45433f" fill-opacity="1"><g transform="translate(41.15039, 245.119203)"><g><path d="M 12.046875 0 C 11.753906 0 11.597656 -0.128906 11.578125 -0.390625 L 11.015625 -3.8125 C 11.015625 -3.925781 10.941406 -3.984375 10.796875 -3.984375 L 6.265625 -3.984375 C 6.128906 -3.984375 6.0625 -3.925781 6.0625 -3.8125 L 5.484375 -0.390625 C 5.460938 -0.128906 5.304688 0 5.015625 0 L 0.859375 0 C 0.546875 0 0.425781 -0.15625 0.5 -0.46875 L 5.734375 -24.546875 C 5.785156 -24.804688 5.941406 -24.9375 6.203125 -24.9375 L 11.015625 -24.9375 C 11.273438 -24.9375 11.425781 -24.804688 11.46875 -24.546875 L 16.671875 -0.46875 L 16.703125 -0.328125 C 16.703125 -0.109375 16.570312 0 16.3125 0 Z M 6.765625 -8.046875 C 6.765625 -7.929688 6.8125 -7.875 6.90625 -7.875 L 10.125 -7.875 C 10.238281 -7.875 10.285156 -7.929688 10.265625 -8.046875 L 8.578125 -17.78125 C 8.554688 -17.851562 8.519531 -17.890625 8.46875 -17.890625 C 8.425781 -17.890625 8.394531 -17.851562 8.375 -17.78125 Z M 6.765625 -8.046875 "/></g></g></g><g fill="#45433f" fill-opacity="1"><g transform="translate(58.316, 245.119203)"><g><path d="M 11.40625 0 C 11.144531 0 10.976562 -0.117188 10.90625 -0.359375 L 8.15625 -10.1875 C 8.113281 -10.28125 8.054688 -10.328125 7.984375 -10.328125 L 6.765625 -10.328125 C 6.648438 -10.328125 6.59375 -10.269531 6.59375 -10.15625 L 6.59375 -0.421875 C 6.59375 -0.304688 6.550781 -0.207031 6.46875 -0.125 C 6.382812 -0.0390625 6.28125 0 6.15625 0 L 2 0 C 1.875 0 1.769531 -0.0390625 1.6875 -0.125 C 1.601562 -0.207031 1.5625 -0.304688 1.5625 -0.421875 L 1.5625 -24.515625 C 1.5625 -24.628906 1.601562 -24.726562 1.6875 -24.8125 C 1.769531 -24.894531 1.875 -24.9375 2 -24.9375 L 9.1875 -24.9375 C 10.5 -24.9375 11.664062 -24.617188 12.6875 -23.984375 C 13.707031 -23.359375 14.492188 -22.472656 15.046875 -21.328125 C 15.609375 -20.191406 15.890625 -18.890625 15.890625 -17.421875 C 15.890625 -16.015625 15.617188 -14.773438 15.078125 -13.703125 C 14.546875 -12.640625 13.804688 -11.8125 12.859375 -11.21875 C 12.816406 -11.195312 12.78125 -11.164062 12.75 -11.125 C 12.726562 -11.09375 12.726562 -11.054688 12.75 -11.015625 L 16.03125 -0.5 L 16.0625 -0.359375 C 16.0625 -0.117188 15.929688 0 15.671875 0 Z M 6.765625 -20.625 C 6.648438 -20.625 6.59375 -20.566406 6.59375 -20.453125 L 6.59375 -14.359375 C 6.59375 -14.234375 6.648438 -14.171875 6.765625 -14.171875 L 8.375 -14.171875 C 9.101562 -14.171875 9.695312 -14.460938 10.15625 -15.046875 C 10.625 -15.628906 10.859375 -16.410156 10.859375 -17.390625 C 10.859375 -18.378906 10.625 -19.164062 10.15625 -19.75 C 9.695312 -20.332031 9.101562 -20.625 8.375 -20.625 Z M 6.765625 -20.625 "/></g></g></g><g fill="#45433f" fill-opacity="1"><g transform="translate(75.089867, 245.119203)"><g><path d="M 12.96875 -24.65625 C 13.0625 -24.84375 13.238281 -24.9375 13.5 -24.9375 L 17.640625 -24.9375 C 17.753906 -24.9375 17.851562 -24.894531 17.9375 -24.8125 C 18.019531 -24.726562 18.0625 -24.628906 18.0625 -24.515625 L 18.0625 -0.421875 C 18.0625 -0.304688 18.019531 -0.207031 17.9375 -0.125 C 17.851562 -0.0390625 17.753906 0 17.640625 0 L 13.46875 0 C 13.34375 0 13.238281 -0.0390625 13.15625 -0.125 C 13.070312 -0.207031 13.03125 -0.304688 13.03125 -0.421875 L 13.03125 -16.421875 C 13.03125 -16.515625 13.003906 -16.5625 12.953125 -16.5625 C 12.910156 -16.5625 12.867188 -16.523438 12.828125 -16.453125 L 10.046875 -11.546875 C 9.929688 -11.347656 9.835938 -11.25 9.765625 -11.25 C 9.691406 -11.25 9.59375 -11.347656 9.46875 -11.546875 L 6.703125 -16.453125 C 6.648438 -16.523438 6.597656 -16.5625 6.546875 -16.5625 C 6.503906 -16.5625 6.484375 -16.515625 6.484375 -16.421875 L 6.484375 -0.421875 C 6.484375 -0.304688 6.441406 -0.207031 6.359375 -0.125 C 6.273438 -0.0390625 6.175781 0 6.0625 0 L 1.890625 0 C 1.765625 0 1.660156 -0.0390625 1.578125 -0.125 C 1.492188 -0.207031 1.453125 -0.304688 1.453125 -0.421875 L 1.453125 -24.515625 C 1.453125 -24.628906 1.492188 -24.726562 1.578125 -24.8125 C 1.660156 -24.894531 1.765625 -24.9375 1.890625 -24.9375 L 5.984375 -24.9375 C 6.222656 -24.9375 6.398438 -24.84375 6.515625 -24.65625 L 9.6875 -18.984375 C 9.757812 -18.890625 9.832031 -18.890625 9.90625 -18.984375 Z M 12.96875 -24.65625 "/></g></g></g><g fill="#45433f" fill-opacity="1"><g transform="translate(94.605957, 245.119203)"><g><path d="M 12.046875 0 C 11.753906 0 11.597656 -0.128906 11.578125 -0.390625 L 11.015625 -3.8125 C 11.015625 -3.925781 10.941406 -3.984375 10.796875 -3.984375 L 6.265625 -3.984375 C 6.128906 -3.984375 6.0625 -3.925781 6.0625 -3.8125 L 5.484375 -0.390625 C 5.460938 -0.128906 5.304688 0 5.015625 0 L 0.859375 0 C 0.546875 0 0.425781 -0.15625 0.5 -0.46875 L 5.734375 -24.546875 C 5.785156 -24.804688 5.941406 -24.9375 6.203125 -24.9375 L 11.015625 -24.9375 C 11.273438 -24.9375 11.425781 -24.804688 11.46875 -24.546875 L 16.671875 -0.46875 L 16.703125 -0.328125 C 16.703125 -0.109375 16.570312 0 16.3125 0 Z M 6.765625 -8.046875 C 6.765625 -7.929688 6.8125 -7.875 6.90625 -7.875 L 10.125 -7.875 C 10.238281 -7.875 10.285156 -7.929688 10.265625 -8.046875 L 8.578125 -17.78125 C 8.554688 -17.851562 8.519531 -17.890625 8.46875 -17.890625 C 8.425781 -17.890625 8.394531 -17.851562 8.375 -17.78125 Z M 6.671875 -27.140625 C 6.503906 -27.140625 6.382812 -27.1875 6.3125 -27.28125 C 6.238281 -27.382812 6.25 -27.503906 6.34375 -27.640625 L 8.453125 -31.28125 C 8.546875 -31.46875 8.722656 -31.5625 8.984375 -31.5625 L 12.296875 -31.5625 C 12.535156 -31.5625 12.65625 -31.476562 12.65625 -31.3125 C 12.65625 -31.238281 12.617188 -31.144531 12.546875 -31.03125 L 9.796875 -27.390625 C 9.660156 -27.222656 9.492188 -27.140625 9.296875 -27.140625 Z M 6.671875 -27.140625 "/></g></g></g><g fill="#45433f" fill-opacity="1"><g transform="translate(111.771567, 245.119203)"><g><path d="M 8.296875 0.28125 C 6.160156 0.28125 4.445312 -0.351562 3.15625 -1.625 C 1.863281 -2.894531 1.21875 -4.597656 1.21875 -6.734375 L 1.21875 -18.28125 C 1.21875 -20.394531 1.863281 -22.078125 3.15625 -23.328125 C 4.445312 -24.585938 6.160156 -25.21875 8.296875 -25.21875 C 10.460938 -25.21875 12.191406 -24.585938 13.484375 -23.328125 C 14.773438 -22.078125 15.421875 -20.394531 15.421875 -18.28125 L 15.421875 -17.890625 C 15.421875 -17.765625 15.378906 -17.660156 15.296875 -17.578125 C 15.210938 -17.492188 15.113281 -17.453125 15 -17.453125 L 10.828125 -17.28125 C 10.546875 -17.28125 10.40625 -17.410156 10.40625 -17.671875 L 10.40625 -18.59375 C 10.40625 -19.28125 10.210938 -19.835938 9.828125 -20.265625 C 9.453125 -20.691406 8.941406 -20.90625 8.296875 -20.90625 C 7.679688 -20.90625 7.179688 -20.691406 6.796875 -20.265625 C 6.421875 -19.835938 6.234375 -19.28125 6.234375 -18.59375 L 6.234375 -6.3125 C 6.234375 -5.613281 6.421875 -5.054688 6.796875 -4.640625 C 7.179688 -4.234375 7.679688 -4.03125 8.296875 -4.03125 C 8.941406 -4.03125 9.453125 -4.234375 9.828125 -4.640625 C 10.210938 -5.054688 10.40625 -5.613281 10.40625 -6.3125 L 10.40625 -7.265625 C 10.40625 -7.390625 10.445312 -7.488281 10.53125 -7.5625 C 10.613281 -7.644531 10.710938 -7.6875 10.828125 -7.6875 L 15 -7.515625 C 15.113281 -7.515625 15.210938 -7.472656 15.296875 -7.390625 C 15.378906 -7.304688 15.421875 -7.207031 15.421875 -7.09375 L 15.421875 -6.734375 C 15.421875 -4.597656 14.765625 -2.894531 13.453125 -1.625 C 12.148438 -0.351562 10.429688 0.28125 8.296875 0.28125 Z M 8.296875 0.28125 "/></g></g></g><g fill="#45433f" fill-opacity="1"><g transform="translate(128.296137, 245.119203)"><g><path d="M 2 0 C 1.875 0 1.769531 -0.0390625 1.6875 -0.125 C 1.601562 -0.207031 1.5625 -0.304688 1.5625 -0.421875 L 1.5625 -24.515625 C 1.5625 -24.628906 1.601562 -24.726562 1.6875 -24.8125 C 1.769531 -24.894531 1.875 -24.9375 2 -24.9375 L 6.15625 -24.9375 C 6.28125 -24.9375 6.382812 -24.894531 6.46875 -24.8125 C 6.550781 -24.726562 6.59375 -24.628906 6.59375 -24.515625 L 6.59375 -0.421875 C 6.59375 -0.304688 6.550781 -0.207031 6.46875 -0.125 C 6.382812 -0.0390625 6.28125 0 6.15625 0 Z M 2 0 "/></g></g></g><g fill="#45433f" fill-opacity="1"><g transform="translate(136.487199, 245.119203)"><g><path d="M 12.046875 0 C 11.753906 0 11.597656 -0.128906 11.578125 -0.390625 L 11.015625 -3.8125 C 11.015625 -3.925781 10.941406 -3.984375 10.796875 -3.984375 L 6.265625 -3.984375 C 6.128906 -3.984375 6.0625 -3.925781 6.0625 -3.8125 L 5.484375 -0.390625 C 5.460938 -0.128906 5.304688 0 5.015625 0 L 0.859375 0 C 0.546875 0 0.425781 -0.15625 0.5 -0.46875 L 5.734375 -24.546875 C 5.785156 -24.804688 5.941406 -24.9375 6.203125 -24.9375 L 11.015625 -24.9375 C 11.273438 -24.9375 11.425781 -24.804688 11.46875 -24.546875 L 16.671875 -0.46875 L 16.703125 -0.328125 C 16.703125 -0.109375 16.570312 0 16.3125 0 Z M 6.765625 -8.046875 C 6.765625 -7.929688 6.8125 -7.875 6.90625 -7.875 L 10.125 -7.875 C 10.238281 -7.875 10.285156 -7.929688 10.265625 -8.046875 L 8.578125 -17.78125 C 8.554688 -17.851562 8.519531 -17.890625 8.46875 -17.890625 C 8.425781 -17.890625 8.394531 -17.851562 8.375 -17.78125 Z M 6.765625 -8.046875 "/></g></g></g><g fill="#45433f" fill-opacity="1"><g transform="translate(153.652809, 245.119203)"><g><path d="M 7.984375 0.28125 C 6.597656 0.28125 5.382812 0.0078125 4.34375 -0.53125 C 3.300781 -1.082031 2.492188 -1.847656 1.921875 -2.828125 C 1.347656 -3.816406 1.0625 -4.953125 1.0625 -6.234375 L 1.0625 -7.265625 C 1.0625 -7.390625 1.101562 -7.488281 1.1875 -7.5625 C 1.269531 -7.644531 1.375 -7.6875 1.5 -7.6875 L 5.59375 -7.6875 C 5.707031 -7.6875 5.804688 -7.644531 5.890625 -7.5625 C 5.972656 -7.488281 6.015625 -7.390625 6.015625 -7.265625 L 6.015625 -6.484375 C 6.015625 -5.742188 6.203125 -5.148438 6.578125 -4.703125 C 6.960938 -4.253906 7.441406 -4.03125 8.015625 -4.03125 C 8.585938 -4.03125 9.0625 -4.242188 9.4375 -4.671875 C 9.820312 -5.097656 10.015625 -5.65625 10.015625 -6.34375 C 10.015625 -7.050781 9.773438 -7.660156 9.296875 -8.171875 C 8.816406 -8.679688 7.890625 -9.4375 6.515625 -10.4375 C 5.328125 -11.289062 4.363281 -12.050781 3.625 -12.71875 C 2.894531 -13.382812 2.269531 -14.203125 1.75 -15.171875 C 1.226562 -16.148438 0.96875 -17.28125 0.96875 -18.5625 C 0.96875 -20.582031 1.59375 -22.195312 2.84375 -23.40625 C 4.101562 -24.613281 5.769531 -25.21875 7.84375 -25.21875 C 9.925781 -25.21875 11.601562 -24.585938 12.875 -23.328125 C 14.144531 -22.078125 14.78125 -20.425781 14.78125 -18.375 L 14.78125 -17.53125 C 14.78125 -17.40625 14.738281 -17.300781 14.65625 -17.21875 C 14.570312 -17.132812 14.472656 -17.09375 14.359375 -17.09375 L 10.265625 -17.09375 C 10.140625 -17.09375 10.035156 -17.132812 9.953125 -17.21875 C 9.867188 -17.300781 9.828125 -17.40625 9.828125 -17.53125 L 9.828125 -18.484375 C 9.828125 -19.222656 9.644531 -19.8125 9.28125 -20.25 C 8.914062 -20.6875 8.4375 -20.90625 7.84375 -20.90625 C 7.269531 -20.90625 6.800781 -20.695312 6.4375 -20.28125 C 6.082031 -19.875 5.90625 -19.300781 5.90625 -18.5625 C 5.90625 -17.84375 6.128906 -17.210938 6.578125 -16.671875 C 7.035156 -16.128906 7.929688 -15.367188 9.265625 -14.390625 C 10.734375 -13.296875 11.84375 -12.410156 12.59375 -11.734375 C 13.34375 -11.054688 13.925781 -10.304688 14.34375 -9.484375 C 14.757812 -8.671875 14.96875 -7.695312 14.96875 -6.5625 C 14.96875 -4.46875 14.320312 -2.800781 13.03125 -1.5625 C 11.75 -0.332031 10.066406 0.28125 7.984375 0.28125 Z M 7.984375 0.28125 "/></g></g></g><g fill="#45433f" fill-opacity="1"><g transform="translate(26.157189, 294.6192)"><g><path d="M 11.75 -24.515625 C 11.75 -24.628906 11.789062 -24.726562 11.875 -24.8125 C 11.957031 -24.894531 12.0625 -24.9375 12.1875 -24.9375 L 16.3125 -24.9375 C 16.4375 -24.9375 16.539062 -24.894531 16.625 -24.8125 C 16.707031 -24.726562 16.75 -24.628906 16.75 -24.515625 L 16.75 -0.421875 C 16.75 -0.304688 16.707031 -0.207031 16.625 -0.125 C 16.539062 -0.0390625 16.4375 0 16.3125 0 L 11.609375 0 C 11.367188 0 11.21875 -0.117188 11.15625 -0.359375 L 6.734375 -14.140625 C 6.710938 -14.210938 6.671875 -14.242188 6.609375 -14.234375 C 6.546875 -14.222656 6.515625 -14.179688 6.515625 -14.109375 L 6.5625 -0.421875 C 6.5625 -0.304688 6.519531 -0.207031 6.4375 -0.125 C 6.351562 -0.0390625 6.25 0 6.125 0 L 2 0 C 1.875 0 1.769531 -0.0390625 1.6875 -0.125 C 1.601562 -0.207031 1.5625 -0.304688 1.5625 -0.421875 L 1.5625 -24.515625 C 1.5625 -24.628906 1.601562 -24.726562 1.6875 -24.8125 C 1.769531 -24.894531 1.875 -24.9375 2 -24.9375 L 6.65625 -24.9375 C 6.894531 -24.9375 7.050781 -24.816406 7.125 -24.578125 L 11.578125 -10.796875 C 11.597656 -10.722656 11.640625 -10.691406 11.703125 -10.703125 C 11.765625 -10.710938 11.796875 -10.753906 11.796875 -10.828125 Z M 11.75 -24.515625 "/></g></g></g><g fill="#45433f" fill-opacity="1"><g transform="translate(44.462424, 294.6192)"><g><path d="M 8.546875 0.28125 C 6.410156 0.28125 4.691406 -0.382812 3.390625 -1.71875 C 2.097656 -3.0625 1.453125 -4.851562 1.453125 -7.09375 L 1.453125 -24.515625 C 1.453125 -24.628906 1.492188 -24.726562 1.578125 -24.8125 C 1.660156 -24.894531 1.765625 -24.9375 1.890625 -24.9375 L 6.0625 -24.9375 C 6.175781 -24.9375 6.273438 -24.894531 6.359375 -24.8125 C 6.441406 -24.726562 6.484375 -24.628906 6.484375 -24.515625 L 6.484375 -6.59375 C 6.484375 -5.832031 6.671875 -5.210938 7.046875 -4.734375 C 7.429688 -4.265625 7.929688 -4.03125 8.546875 -4.03125 C 9.160156 -4.03125 9.648438 -4.265625 10.015625 -4.734375 C 10.390625 -5.210938 10.578125 -5.832031 10.578125 -6.59375 L 10.578125 -24.515625 C 10.578125 -24.628906 10.617188 -24.726562 10.703125 -24.8125 C 10.785156 -24.894531 10.890625 -24.9375 11.015625 -24.9375 L 15.171875 -24.9375 C 15.296875 -24.9375 15.398438 -24.894531 15.484375 -24.8125 C 15.566406 -24.726562 15.609375 -24.628906 15.609375 -24.515625 L 15.609375 -7.09375 C 15.609375 -4.851562 14.957031 -3.0625 13.65625 -1.71875 C 12.363281 -0.382812 10.660156 0.28125 8.546875 0.28125 Z M 8.546875 0.28125 "/></g></g></g><g fill="#45433f" fill-opacity="1"><g transform="translate(61.521192, 294.6192)"><g><path d="M 15.390625 -24.9375 C 15.503906 -24.9375 15.601562 -24.894531 15.6875 -24.8125 C 15.769531 -24.726562 15.8125 -24.628906 15.8125 -24.515625 L 15.8125 -21.046875 C 15.8125 -20.929688 15.769531 -20.832031 15.6875 -20.75 C 15.601562 -20.664062 15.503906 -20.625 15.390625 -20.625 L 10.9375 -20.625 C 10.820312 -20.625 10.765625 -20.566406 10.765625 -20.453125 L 10.765625 -0.421875 C 10.765625 -0.304688 10.722656 -0.207031 10.640625 -0.125 C 10.554688 -0.0390625 10.453125 0 10.328125 0 L 6.15625 0 C 6.039062 0 5.941406 -0.0390625 5.859375 -0.125 C 5.773438 -0.207031 5.734375 -0.304688 5.734375 -0.421875 L 5.734375 -20.453125 C 5.734375 -20.566406 5.675781 -20.625 5.5625 -20.625 L 1.28125 -20.625 C 1.164062 -20.625 1.066406 -20.664062 0.984375 -20.75 C 0.898438 -20.832031 0.859375 -20.929688 0.859375 -21.046875 L 0.859375 -24.515625 C 0.859375 -24.628906 0.898438 -24.726562 0.984375 -24.8125 C 1.066406 -24.894531 1.164062 -24.9375 1.28125 -24.9375 Z M 15.390625 -24.9375 "/></g></g></g><g fill="#45433f" fill-opacity="1"><g transform="translate(78.188218, 294.6192)"><g><path d="M 11.40625 0 C 11.144531 0 10.976562 -0.117188 10.90625 -0.359375 L 8.15625 -10.1875 C 8.113281 -10.28125 8.054688 -10.328125 7.984375 -10.328125 L 6.765625 -10.328125 C 6.648438 -10.328125 6.59375 -10.269531 6.59375 -10.15625 L 6.59375 -0.421875 C 6.59375 -0.304688 6.550781 -0.207031 6.46875 -0.125 C 6.382812 -0.0390625 6.28125 0 6.15625 0 L 2 0 C 1.875 0 1.769531 -0.0390625 1.6875 -0.125 C 1.601562 -0.207031 1.5625 -0.304688 1.5625 -0.421875 L 1.5625 -24.515625 C 1.5625 -24.628906 1.601562 -24.726562 1.6875 -24.8125 C 1.769531 -24.894531 1.875 -24.9375 2 -24.9375 L 9.1875 -24.9375 C 10.5 -24.9375 11.664062 -24.617188 12.6875 -23.984375 C 13.707031 -23.359375 14.492188 -22.472656 15.046875 -21.328125 C 15.609375 -20.191406 15.890625 -18.890625 15.890625 -17.421875 C 15.890625 -16.015625 15.617188 -14.773438 15.078125 -13.703125 C 14.546875 -12.640625 13.804688 -11.8125 12.859375 -11.21875 C 12.816406 -11.195312 12.78125 -11.164062 12.75 -11.125 C 12.726562 -11.09375 12.726562 -11.054688 12.75 -11.015625 L 16.03125 -0.5 L 16.0625 -0.359375 C 16.0625 -0.117188 15.929688 0 15.671875 0 Z M 6.765625 -20.625 C 6.648438 -20.625 6.59375 -20.566406 6.59375 -20.453125 L 6.59375 -14.359375 C 6.59375 -14.234375 6.648438 -14.171875 6.765625 -14.171875 L 8.375 -14.171875 C 9.101562 -14.171875 9.695312 -14.460938 10.15625 -15.046875 C 10.625 -15.628906 10.859375 -16.410156 10.859375 -17.390625 C 10.859375 -18.378906 10.625 -19.164062 10.15625 -19.75 C 9.695312 -20.332031 9.101562 -20.625 8.375 -20.625 Z M 6.765625 -20.625 "/></g></g></g><g fill="#45433f" fill-opacity="1"><g transform="translate(94.962085, 294.6192)"><g><path d="M 2 0 C 1.875 0 1.769531 -0.0390625 1.6875 -0.125 C 1.601562 -0.207031 1.5625 -0.304688 1.5625 -0.421875 L 1.5625 -24.515625 C 1.5625 -24.628906 1.601562 -24.726562 1.6875 -24.8125 C 1.769531 -24.894531 1.875 -24.9375 2 -24.9375 L 6.15625 -24.9375 C 6.28125 -24.9375 6.382812 -24.894531 6.46875 -24.8125 C 6.550781 -24.726562 6.59375 -24.628906 6.59375 -24.515625 L 6.59375 -0.421875 C 6.59375 -0.304688 6.550781 -0.207031 6.46875 -0.125 C 6.382812 -0.0390625 6.28125 0 6.15625 0 Z M 2 0 "/></g></g></g><g fill="#45433f" fill-opacity="1"><g transform="translate(103.153147, 294.6192)"><g><path d="M 8.296875 0.28125 C 6.160156 0.28125 4.445312 -0.351562 3.15625 -1.625 C 1.863281 -2.894531 1.21875 -4.597656 1.21875 -6.734375 L 1.21875 -18.28125 C 1.21875 -20.394531 1.863281 -22.078125 3.15625 -23.328125 C 4.445312 -24.585938 6.160156 -25.21875 8.296875 -25.21875 C 10.460938 -25.21875 12.191406 -24.585938 13.484375 -23.328125 C 14.773438 -22.078125 15.421875 -20.394531 15.421875 -18.28125 L 15.421875 -17.890625 C 15.421875 -17.765625 15.378906 -17.660156 15.296875 -17.578125 C 15.210938 -17.492188 15.113281 -17.453125 15 -17.453125 L 10.828125 -17.28125 C 10.546875 -17.28125 10.40625 -17.410156 10.40625 -17.671875 L 10.40625 -18.59375 C 10.40625 -19.28125 10.210938 -19.835938 9.828125 -20.265625 C 9.453125 -20.691406 8.941406 -20.90625 8.296875 -20.90625 C 7.679688 -20.90625 7.179688 -20.691406 6.796875 -20.265625 C 6.421875 -19.835938 6.234375 -19.28125 6.234375 -18.59375 L 6.234375 -6.3125 C 6.234375 -5.613281 6.421875 -5.054688 6.796875 -4.640625 C 7.179688 -4.234375 7.679688 -4.03125 8.296875 -4.03125 C 8.941406 -4.03125 9.453125 -4.234375 9.828125 -4.640625 C 10.210938 -5.054688 10.40625 -5.613281 10.40625 -6.3125 L 10.40625 -7.265625 C 10.40625 -7.390625 10.445312 -7.488281 10.53125 -7.5625 C 10.613281 -7.644531 10.710938 -7.6875 10.828125 -7.6875 L 15 -7.515625 C 15.113281 -7.515625 15.210938 -7.472656 15.296875 -7.390625 C 15.378906 -7.304688 15.421875 -7.207031 15.421875 -7.09375 L 15.421875 -6.734375 C 15.421875 -4.597656 14.765625 -2.894531 13.453125 -1.625 C 12.148438 -0.351562 10.429688 0.28125 8.296875 0.28125 Z M 8.296875 0.28125 "/></g></g></g><g fill="#45433f" fill-opacity="1"><g transform="translate(119.677717, 294.6192)"><g><path d="M 2 0 C 1.875 0 1.769531 -0.0390625 1.6875 -0.125 C 1.601562 -0.207031 1.5625 -0.304688 1.5625 -0.421875 L 1.5625 -24.515625 C 1.5625 -24.628906 1.601562 -24.726562 1.6875 -24.8125 C 1.769531 -24.894531 1.875 -24.9375 2 -24.9375 L 6.15625 -24.9375 C 6.28125 -24.9375 6.382812 -24.894531 6.46875 -24.8125 C 6.550781 -24.726562 6.59375 -24.628906 6.59375 -24.515625 L 6.59375 -0.421875 C 6.59375 -0.304688 6.550781 -0.207031 6.46875 -0.125 C 6.382812 -0.0390625 6.28125 0 6.15625 0 Z M 2 0 "/></g></g></g><g fill="#45433f" fill-opacity="1"><g transform="translate(127.868779, 294.6192)"><g><path d="M 8.40625 0.28125 C 6.21875 0.28125 4.472656 -0.359375 3.171875 -1.640625 C 1.867188 -2.921875 1.21875 -4.628906 1.21875 -6.765625 L 1.21875 -18.171875 C 1.21875 -20.304688 1.867188 -22.015625 3.171875 -23.296875 C 4.472656 -24.578125 6.21875 -25.21875 8.40625 -25.21875 C 10.59375 -25.21875 12.34375 -24.578125 13.65625 -23.296875 C 14.976562 -22.015625 15.640625 -20.304688 15.640625 -18.171875 L 15.640625 -6.765625 C 15.640625 -4.628906 14.976562 -2.921875 13.65625 -1.640625 C 12.34375 -0.359375 10.59375 0.28125 8.40625 0.28125 Z M 8.40625 -4.03125 C 9.070312 -4.03125 9.601562 -4.257812 10 -4.71875 C 10.40625 -5.1875 10.609375 -5.800781 10.609375 -6.5625 L 10.609375 -18.375 C 10.609375 -19.132812 10.40625 -19.742188 10 -20.203125 C 9.601562 -20.671875 9.070312 -20.90625 8.40625 -20.90625 C 7.738281 -20.90625 7.207031 -20.671875 6.8125 -20.203125 C 6.425781 -19.742188 6.234375 -19.132812 6.234375 -18.375 L 6.234375 -6.5625 C 6.234375 -5.800781 6.425781 -5.1875 6.8125 -4.71875 C 7.207031 -4.257812 7.738281 -4.03125 8.40625 -4.03125 Z M 8.40625 -4.03125 "/></g></g></g><g fill="#45433f" fill-opacity="1"><g transform="translate(144.713864, 294.6192)"><g><path d="M 11.75 -24.515625 C 11.75 -24.628906 11.789062 -24.726562 11.875 -24.8125 C 11.957031 -24.894531 12.0625 -24.9375 12.1875 -24.9375 L 16.3125 -24.9375 C 16.4375 -24.9375 16.539062 -24.894531 16.625 -24.8125 C 16.707031 -24.726562 16.75 -24.628906 16.75 -24.515625 L 16.75 -0.421875 C 16.75 -0.304688 16.707031 -0.207031 16.625 -0.125 C 16.539062 -0.0390625 16.4375 0 16.3125 0 L 11.609375 0 C 11.367188 0 11.21875 -0.117188 11.15625 -0.359375 L 6.734375 -14.140625 C 6.710938 -14.210938 6.671875 -14.242188 6.609375 -14.234375 C 6.546875 -14.222656 6.515625 -14.179688 6.515625 -14.109375 L 6.5625 -0.421875 C 6.5625 -0.304688 6.519531 -0.207031 6.4375 -0.125 C 6.351562 -0.0390625 6.25 0 6.125 0 L 2 0 C 1.875 0 1.769531 -0.0390625 1.6875 -0.125 C 1.601562 -0.207031 1.5625 -0.304688 1.5625 -0.421875 L 1.5625 -24.515625 C 1.5625 -24.628906 1.601562 -24.726562 1.6875 -24.8125 C 1.769531 -24.894531 1.875 -24.9375 2 -24.9375 L 6.65625 -24.9375 C 6.894531 -24.9375 7.050781 -24.816406 7.125 -24.578125 L 11.578125 -10.796875 C 11.597656 -10.722656 11.640625 -10.691406 11.703125 -10.703125 C 11.765625 -10.710938 11.796875 -10.753906 11.796875 -10.828125 Z M 11.75 -24.515625 "/></g></g></g><g fill="#45433f" fill-opacity="1"><g transform="translate(163.019099, 294.6192)"><g><path d="M 2 0 C 1.875 0 1.769531 -0.0390625 1.6875 -0.125 C 1.601562 -0.207031 1.5625 -0.304688 1.5625 -0.421875 L 1.5625 -24.515625 C 1.5625 -24.628906 1.601562 -24.726562 1.6875 -24.8125 C 1.769531 -24.894531 1.875 -24.9375 2 -24.9375 L 6.15625 -24.9375 C 6.28125 -24.9375 6.382812 -24.894531 6.46875 -24.8125 C 6.550781 -24.726562 6.59375 -24.628906 6.59375 -24.515625 L 6.59375 -0.421875 C 6.59375 -0.304688 6.550781 -0.207031 6.46875 -0.125 C 6.382812 -0.0390625 6.28125 0 6.15625 0 Z M 2 0 "/></g></g></g><g fill="#45433f" fill-opacity="1"><g transform="translate(171.210161, 294.6192)"><g><path d="M 7.984375 0.28125 C 6.597656 0.28125 5.382812 0.0078125 4.34375 -0.53125 C 3.300781 -1.082031 2.492188 -1.847656 1.921875 -2.828125 C 1.347656 -3.816406 1.0625 -4.953125 1.0625 -6.234375 L 1.0625 -7.265625 C 1.0625 -7.390625 1.101562 -7.488281 1.1875 -7.5625 C 1.269531 -7.644531 1.375 -7.6875 1.5 -7.6875 L 5.59375 -7.6875 C 5.707031 -7.6875 5.804688 -7.644531 5.890625 -7.5625 C 5.972656 -7.488281 6.015625 -7.390625 6.015625 -7.265625 L 6.015625 -6.484375 C 6.015625 -5.742188 6.203125 -5.148438 6.578125 -4.703125 C 6.960938 -4.253906 7.441406 -4.03125 8.015625 -4.03125 C 8.585938 -4.03125 9.0625 -4.242188 9.4375 -4.671875 C 9.820312 -5.097656 10.015625 -5.65625 10.015625 -6.34375 C 10.015625 -7.050781 9.773438 -7.660156 9.296875 -8.171875 C 8.816406 -8.679688 7.890625 -9.4375 6.515625 -10.4375 C 5.328125 -11.289062 4.363281 -12.050781 3.625 -12.71875 C 2.894531 -13.382812 2.269531 -14.203125 1.75 -15.171875 C 1.226562 -16.148438 0.96875 -17.28125 0.96875 -18.5625 C 0.96875 -20.582031 1.59375 -22.195312 2.84375 -23.40625 C 4.101562 -24.613281 5.769531 -25.21875 7.84375 -25.21875 C 9.925781 -25.21875 11.601562 -24.585938 12.875 -23.328125 C 14.144531 -22.078125 14.78125 -20.425781 14.78125 -18.375 L 14.78125 -17.53125 C 14.78125 -17.40625 14.738281 -17.300781 14.65625 -17.21875 C 14.570312 -17.132812 14.472656 -17.09375 14.359375 -17.09375 L 10.265625 -17.09375 C 10.140625 -17.09375 10.035156 -17.132812 9.953125 -17.21875 C 9.867188 -17.300781 9.828125 -17.40625 9.828125 -17.53125 L 9.828125 -18.484375 C 9.828125 -19.222656 9.644531 -19.8125 9.28125 -20.25 C 8.914062 -20.6875 8.4375 -20.90625 7.84375 -20.90625 C 7.269531 -20.90625 6.800781 -20.695312 6.4375 -20.28125 C 6.082031 -19.875 5.90625 -19.300781 5.90625 -18.5625 C 5.90625 -17.84375 6.128906 -17.210938 6.578125 -16.671875 C 7.035156 -16.128906 7.929688 -15.367188 9.265625 -14.390625 C 10.734375 -13.296875 11.84375 -12.410156 12.59375 -11.734375 C 13.34375 -11.054688 13.925781 -10.304688 14.34375 -9.484375 C 14.757812 -8.671875 14.96875 -7.695312 14.96875 -6.5625 C 14.96875 -4.46875 14.320312 -2.800781 13.03125 -1.5625 C 11.75 -0.332031 10.066406 0.28125 7.984375 0.28125 Z M 7.984375 0.28125 "/></g></g></g><g fill="#45433f" fill-opacity="1"><g transform="translate(187.022462, 294.6192)"><g><path d="M 15.390625 -24.9375 C 15.503906 -24.9375 15.601562 -24.894531 15.6875 -24.8125 C 15.769531 -24.726562 15.8125 -24.628906 15.8125 -24.515625 L 15.8125 -21.046875 C 15.8125 -20.929688 15.769531 -20.832031 15.6875 -20.75 C 15.601562 -20.664062 15.503906 -20.625 15.390625 -20.625 L 10.9375 -20.625 C 10.820312 -20.625 10.765625 -20.566406 10.765625 -20.453125 L 10.765625 -0.421875 C 10.765625 -0.304688 10.722656 -0.207031 10.640625 -0.125 C 10.554688 -0.0390625 10.453125 0 10.328125 0 L 6.15625 0 C 6.039062 0 5.941406 -0.0390625 5.859375 -0.125 C 5.773438 -0.207031 5.734375 -0.304688 5.734375 -0.421875 L 5.734375 -20.453125 C 5.734375 -20.566406 5.675781 -20.625 5.5625 -20.625 L 1.28125 -20.625 C 1.164062 -20.625 1.066406 -20.664062 0.984375 -20.75 C 0.898438 -20.832031 0.859375 -20.929688 0.859375 -21.046875 L 0.859375 -24.515625 C 0.859375 -24.628906 0.898438 -24.726562 0.984375 -24.8125 C 1.066406 -24.894531 1.164062 -24.9375 1.28125 -24.9375 Z M 15.390625 -24.9375 "/></g></g></g><g fill="#45433f" fill-opacity="1"><g transform="translate(203.689488, 294.6192)"><g><path d="M 12.046875 0 C 11.753906 0 11.597656 -0.128906 11.578125 -0.390625 L 11.015625 -3.8125 C 11.015625 -3.925781 10.941406 -3.984375 10.796875 -3.984375 L 6.265625 -3.984375 C 6.128906 -3.984375 6.0625 -3.925781 6.0625 -3.8125 L 5.484375 -0.390625 C 5.460938 -0.128906 5.304688 0 5.015625 0 L 0.859375 0 C 0.546875 0 0.425781 -0.15625 0.5 -0.46875 L 5.734375 -24.546875 C 5.785156 -24.804688 5.941406 -24.9375 6.203125 -24.9375 L 11.015625 -24.9375 C 11.273438 -24.9375 11.425781 -24.804688 11.46875 -24.546875 L 16.671875 -0.46875 L 16.703125 -0.328125 C 16.703125 -0.109375 16.570312 0 16.3125 0 Z M 6.765625 -8.046875 C 6.765625 -7.929688 6.8125 -7.875 6.90625 -7.875 L 10.125 -7.875 C 10.238281 -7.875 10.285156 -7.929688 10.265625 -8.046875 L 8.578125 -17.78125 C 8.554688 -17.851562 8.519531 -17.890625 8.46875 -17.890625 C 8.425781 -17.890625 8.394531 -17.851562 8.375 -17.78125 Z M 6.765625 -8.046875 "/></g></g></g><g fill="#45433f" fill-opacity="1"><g transform="translate(220.855098, 294.6192)"><g><path d="M 7.984375 0.28125 C 6.597656 0.28125 5.382812 0.0078125 4.34375 -0.53125 C 3.300781 -1.082031 2.492188 -1.847656 1.921875 -2.828125 C 1.347656 -3.816406 1.0625 -4.953125 1.0625 -6.234375 L 1.0625 -7.265625 C 1.0625 -7.390625 1.101562 -7.488281 1.1875 -7.5625 C 1.269531 -7.644531 1.375 -7.6875 1.5 -7.6875 L 5.59375 -7.6875 C 5.707031 -7.6875 5.804688 -7.644531 5.890625 -7.5625 C 5.972656 -7.488281 6.015625 -7.390625 6.015625 -7.265625 L 6.015625 -6.484375 C 6.015625 -5.742188 6.203125 -5.148438 6.578125 -4.703125 C 6.960938 -4.253906 7.441406 -4.03125 8.015625 -4.03125 C 8.585938 -4.03125 9.0625 -4.242188 9.4375 -4.671875 C 9.820312 -5.097656 10.015625 -5.65625 10.015625 -6.34375 C 10.015625 -7.050781 9.773438 -7.660156 9.296875 -8.171875 C 8.816406 -8.679688 7.890625 -9.4375 6.515625 -10.4375 C 5.328125 -11.289062 4.363281 -12.050781 3.625 -12.71875 C 2.894531 -13.382812 2.269531 -14.203125 1.75 -15.171875 C 1.226562 -16.148438 0.96875 -17.28125 0.96875 -18.5625 C 0.96875 -20.582031 1.59375 -22.195312 2.84375 -23.40625 C 4.101562 -24.613281 5.769531 -25.21875 7.84375 -25.21875 C 9.925781 -25.21875 11.601562 -24.585938 12.875 -23.328125 C 14.144531 -22.078125 14.78125 -20.425781 14.78125 -18.375 L 14.78125 -17.53125 C 14.78125 -17.40625 14.738281 -17.300781 14.65625 -17.21875 C 14.570312 -17.132812 14.472656 -17.09375 14.359375 -17.09375 L 10.265625 -17.09375 C 10.140625 -17.09375 10.035156 -17.132812 9.953125 -17.21875 C 9.867188 -17.300781 9.828125 -17.40625 9.828125 -17.53125 L 9.828125 -18.484375 C 9.828125 -19.222656 9.644531 -19.8125 9.28125 -20.25 C 8.914062 -20.6875 8.4375 -20.90625 7.84375 -20.90625 C 7.269531 -20.90625 6.800781 -20.695312 6.4375 -20.28125 C 6.082031 -19.875 5.90625 -19.300781 5.90625 -18.5625 C 5.90625 -17.84375 6.128906 -17.210938 6.578125 -16.671875 C 7.035156 -16.128906 7.929688 -15.367188 9.265625 -14.390625 C 10.734375 -13.296875 11.84375 -12.410156 12.59375 -11.734375 C 13.34375 -11.054688 13.925781 -10.304688 14.34375 -9.484375 C 14.757812 -8.671875 14.96875 -7.695312 14.96875 -6.5625 C 14.96875 -4.46875 14.320312 -2.800781 13.03125 -1.5625 C 11.75 -0.332031 10.066406 0.28125 7.984375 0.28125 Z M 7.984375 0.28125 "/></g></g></g><g fill="#45433f" fill-opacity="1"><g transform="translate(26.157189, 344.119197)"><g><path d="M 2 0 C 1.875 0 1.769531 -0.0390625 1.6875 -0.125 C 1.601562 -0.207031 1.5625 -0.304688 1.5625 -0.421875 L 1.5625 -24.515625 C 1.5625 -24.628906 1.601562 -24.726562 1.6875 -24.8125 C 1.769531 -24.894531 1.875 -24.9375 2 -24.9375 L 8.4375 -24.9375 C 10.601562 -24.9375 12.335938 -24.304688 13.640625 -23.046875 C 14.953125 -21.785156 15.609375 -20.113281 15.609375 -18.03125 L 15.609375 -6.90625 C 15.609375 -4.820312 14.953125 -3.148438 13.640625 -1.890625 C 12.335938 -0.628906 10.601562 0 8.4375 0 Z M 6.59375 -4.484375 C 6.59375 -4.367188 6.648438 -4.3125 6.765625 -4.3125 L 8.375 -4.34375 C 9.007812 -4.363281 9.53125 -4.632812 9.9375 -5.15625 C 10.34375 -5.6875 10.554688 -6.378906 10.578125 -7.234375 L 10.578125 -17.703125 C 10.578125 -18.609375 10.375 -19.320312 9.96875 -19.84375 C 9.570312 -20.363281 9.03125 -20.625 8.34375 -20.625 L 6.765625 -20.625 C 6.648438 -20.625 6.59375 -20.566406 6.59375 -20.453125 Z M 6.59375 -4.484375 "/></g></g></g><g fill="#45433f" fill-opacity="1"><g transform="translate(43.109115, 344.119197)"><g><path d="M 14.640625 -21.046875 C 14.640625 -20.929688 14.597656 -20.832031 14.515625 -20.75 C 14.429688 -20.664062 14.332031 -20.625 14.21875 -20.625 L 6.765625 -20.625 C 6.648438 -20.625 6.59375 -20.566406 6.59375 -20.453125 L 6.59375 -14.8125 C 6.59375 -14.695312 6.648438 -14.640625 6.765625 -14.640625 L 11.046875 -14.640625 C 11.160156 -14.640625 11.257812 -14.597656 11.34375 -14.515625 C 11.425781 -14.429688 11.46875 -14.332031 11.46875 -14.21875 L 11.46875 -10.765625 C 11.46875 -10.640625 11.425781 -10.535156 11.34375 -10.453125 C 11.257812 -10.367188 11.160156 -10.328125 11.046875 -10.328125 L 6.765625 -10.328125 C 6.648438 -10.328125 6.59375 -10.269531 6.59375 -10.15625 L 6.59375 -4.484375 C 6.59375 -4.367188 6.648438 -4.3125 6.765625 -4.3125 L 14.21875 -4.3125 C 14.332031 -4.3125 14.429688 -4.269531 14.515625 -4.1875 C 14.597656 -4.101562 14.640625 -4.003906 14.640625 -3.890625 L 14.640625 -0.421875 C 14.640625 -0.304688 14.597656 -0.207031 14.515625 -0.125 C 14.429688 -0.0390625 14.332031 0 14.21875 0 L 2 0 C 1.875 0 1.769531 -0.0390625 1.6875 -0.125 C 1.601562 -0.207031 1.5625 -0.304688 1.5625 -0.421875 L 1.5625 -24.515625 C 1.5625 -24.628906 1.601562 -24.726562 1.6875 -24.8125 C 1.769531 -24.894531 1.875 -24.9375 2 -24.9375 L 14.21875 -24.9375 C 14.332031 -24.9375 14.429688 -24.894531 14.515625 -24.8125 C 14.597656 -24.726562 14.640625 -24.628906 14.640625 -24.515625 Z M 14.640625 -21.046875 "/></g></g></g><g fill="#45433f" fill-opacity="1"><g transform="translate(58.707743, 344.119197)"><g><path d="M 11.75 -24.515625 C 11.75 -24.628906 11.789062 -24.726562 11.875 -24.8125 C 11.957031 -24.894531 12.0625 -24.9375 12.1875 -24.9375 L 16.3125 -24.9375 C 16.4375 -24.9375 16.539062 -24.894531 16.625 -24.8125 C 16.707031 -24.726562 16.75 -24.628906 16.75 -24.515625 L 16.75 -0.421875 C 16.75 -0.304688 16.707031 -0.207031 16.625 -0.125 C 16.539062 -0.0390625 16.4375 0 16.3125 0 L 11.609375 0 C 11.367188 0 11.21875 -0.117188 11.15625 -0.359375 L 6.734375 -14.140625 C 6.710938 -14.210938 6.671875 -14.242188 6.609375 -14.234375 C 6.546875 -14.222656 6.515625 -14.179688 6.515625 -14.109375 L 6.5625 -0.421875 C 6.5625 -0.304688 6.519531 -0.207031 6.4375 -0.125 C 6.351562 -0.0390625 6.25 0 6.125 0 L 2 0 C 1.875 0 1.769531 -0.0390625 1.6875 -0.125 C 1.601562 -0.207031 1.5625 -0.304688 1.5625 -0.421875 L 1.5625 -24.515625 C 1.5625 -24.628906 1.601562 -24.726562 1.6875 -24.8125 C 1.769531 -24.894531 1.875 -24.9375 2 -24.9375 L 6.65625 -24.9375 C 6.894531 -24.9375 7.050781 -24.816406 7.125 -24.578125 L 11.578125 -10.796875 C 11.597656 -10.722656 11.640625 -10.691406 11.703125 -10.703125 C 11.765625 -10.710938 11.796875 -10.753906 11.796875 -10.828125 Z M 11.75 -24.515625 "/></g></g></g><g fill="#45433f" fill-opacity="1"><g transform="translate(77.012978, 344.119197)"><g><path d="M 15.390625 -24.9375 C 15.503906 -24.9375 15.601562 -24.894531 15.6875 -24.8125 C 15.769531 -24.726562 15.8125 -24.628906 15.8125 -24.515625 L 15.8125 -21.046875 C 15.8125 -20.929688 15.769531 -20.832031 15.6875 -20.75 C 15.601562 -20.664062 15.503906 -20.625 15.390625 -20.625 L 10.9375 -20.625 C 10.820312 -20.625 10.765625 -20.566406 10.765625 -20.453125 L 10.765625 -0.421875 C 10.765625 -0.304688 10.722656 -0.207031 10.640625 -0.125 C 10.554688 -0.0390625 10.453125 0 10.328125 0 L 6.15625 0 C 6.039062 0 5.941406 -0.0390625 5.859375 -0.125 C 5.773438 -0.207031 5.734375 -0.304688 5.734375 -0.421875 L 5.734375 -20.453125 C 5.734375 -20.566406 5.675781 -20.625 5.5625 -20.625 L 1.28125 -20.625 C 1.164062 -20.625 1.066406 -20.664062 0.984375 -20.75 C 0.898438 -20.832031 0.859375 -20.929688 0.859375 -21.046875 L 0.859375 -24.515625 C 0.859375 -24.628906 0.898438 -24.726562 0.984375 -24.8125 C 1.066406 -24.894531 1.164062 -24.9375 1.28125 -24.9375 Z M 15.390625 -24.9375 "/></g></g></g><g fill="#45433f" fill-opacity="1"><g transform="translate(93.680004, 344.119197)"><g><path d="M 2 0 C 1.875 0 1.769531 -0.0390625 1.6875 -0.125 C 1.601562 -0.207031 1.5625 -0.304688 1.5625 -0.421875 L 1.5625 -24.515625 C 1.5625 -24.628906 1.601562 -24.726562 1.6875 -24.8125 C 1.769531 -24.894531 1.875 -24.9375 2 -24.9375 L 6.15625 -24.9375 C 6.28125 -24.9375 6.382812 -24.894531 6.46875 -24.8125 C 6.550781 -24.726562 6.59375 -24.628906 6.59375 -24.515625 L 6.59375 -0.421875 C 6.59375 -0.304688 6.550781 -0.207031 6.46875 -0.125 C 6.382812 -0.0390625 6.28125 0 6.15625 0 Z M 2 0 "/></g></g></g><g fill="#45433f" fill-opacity="1"><g transform="translate(101.871066, 344.119197)"><g><path d="M 7.984375 0.28125 C 6.597656 0.28125 5.382812 0.0078125 4.34375 -0.53125 C 3.300781 -1.082031 2.492188 -1.847656 1.921875 -2.828125 C 1.347656 -3.816406 1.0625 -4.953125 1.0625 -6.234375 L 1.0625 -7.265625 C 1.0625 -7.390625 1.101562 -7.488281 1.1875 -7.5625 C 1.269531 -7.644531 1.375 -7.6875 1.5 -7.6875 L 5.59375 -7.6875 C 5.707031 -7.6875 5.804688 -7.644531 5.890625 -7.5625 C 5.972656 -7.488281 6.015625 -7.390625 6.015625 -7.265625 L 6.015625 -6.484375 C 6.015625 -5.742188 6.203125 -5.148438 6.578125 -4.703125 C 6.960938 -4.253906 7.441406 -4.03125 8.015625 -4.03125 C 8.585938 -4.03125 9.0625 -4.242188 9.4375 -4.671875 C 9.820312 -5.097656 10.015625 -5.65625 10.015625 -6.34375 C 10.015625 -7.050781 9.773438 -7.660156 9.296875 -8.171875 C 8.816406 -8.679688 7.890625 -9.4375 6.515625 -10.4375 C 5.328125 -11.289062 4.363281 -12.050781 3.625 -12.71875 C 2.894531 -13.382812 2.269531 -14.203125 1.75 -15.171875 C 1.226562 -16.148438 0.96875 -17.28125 0.96875 -18.5625 C 0.96875 -20.582031 1.59375 -22.195312 2.84375 -23.40625 C 4.101562 -24.613281 5.769531 -25.21875 7.84375 -25.21875 C 9.925781 -25.21875 11.601562 -24.585938 12.875 -23.328125 C 14.144531 -22.078125 14.78125 -20.425781 14.78125 -18.375 L 14.78125 -17.53125 C 14.78125 -17.40625 14.738281 -17.300781 14.65625 -17.21875 C 14.570312 -17.132812 14.472656 -17.09375 14.359375 -17.09375 L 10.265625 -17.09375 C 10.140625 -17.09375 10.035156 -17.132812 9.953125 -17.21875 C 9.867188 -17.300781 9.828125 -17.40625 9.828125 -17.53125 L 9.828125 -18.484375 C 9.828125 -19.222656 9.644531 -19.8125 9.28125 -20.25 C 8.914062 -20.6875 8.4375 -20.90625 7.84375 -20.90625 C 7.269531 -20.90625 6.800781 -20.695312 6.4375 -20.28125 C 6.082031 -19.875 5.90625 -19.300781 5.90625 -18.5625 C 5.90625 -17.84375 6.128906 -17.210938 6.578125 -16.671875 C 7.035156 -16.128906 7.929688 -15.367188 9.265625 -14.390625 C 10.734375 -13.296875 11.84375 -12.410156 12.59375 -11.734375 C 13.34375 -11.054688 13.925781 -10.304688 14.34375 -9.484375 C 14.757812 -8.671875 14.96875 -7.695312 14.96875 -6.5625 C 14.96875 -4.46875 14.320312 -2.800781 13.03125 -1.5625 C 11.75 -0.332031 10.066406 0.28125 7.984375 0.28125 Z M 7.984375 0.28125 "/></g></g></g><g fill="#45433f" fill-opacity="1"><g transform="translate(117.683367, 344.119197)"><g><path d="M 15.390625 -24.9375 C 15.503906 -24.9375 15.601562 -24.894531 15.6875 -24.8125 C 15.769531 -24.726562 15.8125 -24.628906 15.8125 -24.515625 L 15.8125 -21.046875 C 15.8125 -20.929688 15.769531 -20.832031 15.6875 -20.75 C 15.601562 -20.664062 15.503906 -20.625 15.390625 -20.625 L 10.9375 -20.625 C 10.820312 -20.625 10.765625 -20.566406 10.765625 -20.453125 L 10.765625 -0.421875 C 10.765625 -0.304688 10.722656 -0.207031 10.640625 -0.125 C 10.554688 -0.0390625 10.453125 0 10.328125 0 L 6.15625 0 C 6.039062 0 5.941406 -0.0390625 5.859375 -0.125 C 5.773438 -0.207031 5.734375 -0.304688 5.734375 -0.421875 L 5.734375 -20.453125 C 5.734375 -20.566406 5.675781 -20.625 5.5625 -20.625 L 1.28125 -20.625 C 1.164062 -20.625 1.066406 -20.664062 0.984375 -20.75 C 0.898438 -20.832031 0.859375 -20.929688 0.859375 -21.046875 L 0.859375 -24.515625 C 0.859375 -24.628906 0.898438 -24.726562 0.984375 -24.8125 C 1.066406 -24.894531 1.164062 -24.9375 1.28125 -24.9375 Z M 15.390625 -24.9375 "/></g></g></g><g fill="#45433f" fill-opacity="1"><g transform="translate(134.350392, 344.119197)"><g><path d="M 12.046875 0 C 11.753906 0 11.597656 -0.128906 11.578125 -0.390625 L 11.015625 -3.8125 C 11.015625 -3.925781 10.941406 -3.984375 10.796875 -3.984375 L 6.265625 -3.984375 C 6.128906 -3.984375 6.0625 -3.925781 6.0625 -3.8125 L 5.484375 -0.390625 C 5.460938 -0.128906 5.304688 0 5.015625 0 L 0.859375 0 C 0.546875 0 0.425781 -0.15625 0.5 -0.46875 L 5.734375 -24.546875 C 5.785156 -24.804688 5.941406 -24.9375 6.203125 -24.9375 L 11.015625 -24.9375 C 11.273438 -24.9375 11.425781 -24.804688 11.46875 -24.546875 L 16.671875 -0.46875 L 16.703125 -0.328125 C 16.703125 -0.109375 16.570312 0 16.3125 0 Z M 6.765625 -8.046875 C 6.765625 -7.929688 6.8125 -7.875 6.90625 -7.875 L 10.125 -7.875 C 10.238281 -7.875 10.285156 -7.929688 10.265625 -8.046875 L 8.578125 -17.78125 C 8.554688 -17.851562 8.519531 -17.890625 8.46875 -17.890625 C 8.425781 -17.890625 8.394531 -17.851562 8.375 -17.78125 Z M 6.765625 -8.046875 "/></g></g></g><g fill="#45433f" fill-opacity="1"><g transform="translate(151.516002, 344.119197)"><g><path d="M 7.984375 0.28125 C 6.597656 0.28125 5.382812 0.0078125 4.34375 -0.53125 C 3.300781 -1.082031 2.492188 -1.847656 1.921875 -2.828125 C 1.347656 -3.816406 1.0625 -4.953125 1.0625 -6.234375 L 1.0625 -7.265625 C 1.0625 -7.390625 1.101562 -7.488281 1.1875 -7.5625 C 1.269531 -7.644531 1.375 -7.6875 1.5 -7.6875 L 5.59375 -7.6875 C 5.707031 -7.6875 5.804688 -7.644531 5.890625 -7.5625 C 5.972656 -7.488281 6.015625 -7.390625 6.015625 -7.265625 L 6.015625 -6.484375 C 6.015625 -5.742188 6.203125 -5.148438 6.578125 -4.703125 C 6.960938 -4.253906 7.441406 -4.03125 8.015625 -4.03125 C 8.585938 -4.03125 9.0625 -4.242188 9.4375 -4.671875 C 9.820312 -5.097656 10.015625 -5.65625 10.015625 -6.34375 C 10.015625 -7.050781 9.773438 -7.660156 9.296875 -8.171875 C 8.816406 -8.679688 7.890625 -9.4375 6.515625 -10.4375 C 5.328125 -11.289062 4.363281 -12.050781 3.625 -12.71875 C 2.894531 -13.382812 2.269531 -14.203125 1.75 -15.171875 C 1.226562 -16.148438 0.96875 -17.28125 0.96875 -18.5625 C 0.96875 -20.582031 1.59375 -22.195312 2.84375 -23.40625 C 4.101562 -24.613281 5.769531 -25.21875 7.84375 -25.21875 C 9.925781 -25.21875 11.601562 -24.585938 12.875 -23.328125 C 14.144531 -22.078125 14.78125 -20.425781 14.78125 -18.375 L 14.78125 -17.53125 C 14.78125 -17.40625 14.738281 -17.300781 14.65625 -17.21875 C 14.570312 -17.132812 14.472656 -17.09375 14.359375 -17.09375 L 10.265625 -17.09375 C 10.140625 -17.09375 10.035156 -17.132812 9.953125 -17.21875 C 9.867188 -17.300781 9.828125 -17.40625 9.828125 -17.53125 L 9.828125 -18.484375 C 9.828125 -19.222656 9.644531 -19.8125 9.28125 -20.25 C 8.914062 -20.6875 8.4375 -20.90625 7.84375 -20.90625 C 7.269531 -20.90625 6.800781 -20.695312 6.4375 -20.28125 C 6.082031 -19.875 5.90625 -19.300781 5.90625 -18.5625 C 5.90625 -17.84375 6.128906 -17.210938 6.578125 -16.671875 C 7.035156 -16.128906 7.929688 -15.367188 9.265625 -14.390625 C 10.734375 -13.296875 11.84375 -12.410156 12.59375 -11.734375 C 13.34375 -11.054688 13.925781 -10.304688 14.34375 -9.484375 C 14.757812 -8.671875 14.96875 -7.695312 14.96875 -6.5625 C 14.96875 -4.46875 14.320312 -2.800781 13.03125 -1.5625 C 11.75 -0.332031 10.066406 0.28125 7.984375 0.28125 Z M 7.984375 0.28125 "/></g></g></g><g fill="#45433f" fill-opacity="1"><g transform="translate(167.328303, 344.119197)"><g><path d="M 4 0.140625 C 3.1875 0.140625 2.515625 -0.125 1.984375 -0.65625 C 1.453125 -1.195312 1.1875 -1.867188 1.1875 -2.671875 C 1.1875 -3.503906 1.445312 -4.179688 1.96875 -4.703125 C 2.488281 -5.222656 3.164062 -5.484375 4 -5.484375 C 4.820312 -5.484375 5.492188 -5.222656 6.015625 -4.703125 C 6.546875 -4.179688 6.8125 -3.503906 6.8125 -2.671875 C 6.8125 -1.867188 6.539062 -1.195312 6 -0.65625 C 5.46875 -0.125 4.800781 0.140625 4 0.140625 Z M 4 0.140625 "/></g></g></g><g fill="#45433f" fill-opacity="1"><g transform="translate(175.270068, 344.119197)"><g><path d="M 4 0.140625 C 3.1875 0.140625 2.515625 -0.125 1.984375 -0.65625 C 1.453125 -1.195312 1.1875 -1.867188 1.1875 -2.671875 C 1.1875 -3.503906 1.445312 -4.179688 1.96875 -4.703125 C 2.488281 -5.222656 3.164062 -5.484375 4 -5.484375 C 4.820312 -5.484375 5.492188 -5.222656 6.015625 -4.703125 C 6.546875 -4.179688 6.8125 -3.503906 6.8125 -2.671875 C 6.8125 -1.867188 6.539062 -1.195312 6 -0.65625 C 5.46875 -0.125 4.800781 0.140625 4 0.140625 Z M 4 0.140625 "/></g></g></g><g fill="#45433f" fill-opacity="1"><g transform="translate(183.211832, 344.119197)"><g><path d="M 4 0.140625 C 3.1875 0.140625 2.515625 -0.125 1.984375 -0.65625 C 1.453125 -1.195312 1.1875 -1.867188 1.1875 -2.671875 C 1.1875 -3.503906 1.445312 -4.179688 1.96875 -4.703125 C 2.488281 -5.222656 3.164062 -5.484375 4 -5.484375 C 4.820312 -5.484375 5.492188 -5.222656 6.015625 -4.703125 C 6.546875 -4.179688 6.8125 -3.503906 6.8125 -2.671875 C 6.8125 -1.867188 6.539062 -1.195312 6 -0.65625 C 5.46875 -0.125 4.800781 0.140625 4 0.140625 Z M 4 0.140625 "/></g></g></g><g fill="#45433f" fill-opacity="1"><g transform="translate(138.06102, 131.877325)"><g><path d="M 13.703125 -19.75 C 16.359375 -19.75 18.453125 -18.84375 19.984375 -17.03125 C 21.515625 -15.226562 22.28125 -12.878906 22.28125 -9.984375 C 22.28125 -6.648438 21.398438 -4.066406 19.640625 -2.234375 C 17.878906 -0.410156 15.6875 0.5 13.0625 0.5 C 11.082031 0.5 9.570312 0.140625 8.53125 -0.578125 L 7.265625 -2.5625 L 7.265625 0 L 2.28125 0 L 2.28125 -26.59375 L 7.265625 -26.59375 L 7.265625 -16.3125 L 8.71875 -18.40625 C 9.820312 -19.300781 11.484375 -19.75 13.703125 -19.75 Z M 12.078125 -3 C 13.578125 -3 14.789062 -3.570312 15.71875 -4.71875 C 16.644531 -5.863281 17.109375 -7.507812 17.109375 -9.65625 C 17.109375 -11.632812 16.664062 -13.222656 15.78125 -14.421875 C 14.90625 -15.628906 13.734375 -16.234375 12.265625 -16.234375 C 10.765625 -16.234375 9.554688 -15.722656 8.640625 -14.703125 C 7.722656 -13.679688 7.265625 -12.0625 7.265625 -9.84375 L 7.265625 -8.9375 C 7.265625 -6.90625 7.734375 -5.40625 8.671875 -4.4375 C 9.617188 -3.476562 10.753906 -3 12.078125 -3 Z M 12.078125 -3 "/></g></g></g><g fill="#45433f" fill-opacity="1"><g transform="translate(161.318862, 131.877325)"><g><path d="M 19.75 -10.015625 C 19.75 -9.316406 19.722656 -8.75 19.671875 -8.3125 L 6 -8.3125 C 6.289062 -4.769531 7.773438 -3 10.453125 -3 C 11.535156 -3 12.429688 -3.285156 13.140625 -3.859375 C 13.859375 -4.441406 14.300781 -5.238281 14.46875 -6.25 L 19.453125 -6.25 C 18.972656 -4.0625 17.921875 -2.390625 16.296875 -1.234375 C 14.671875 -0.078125 12.6875 0.5 10.34375 0.5 C 7.570312 0.5 5.316406 -0.359375 3.578125 -2.078125 C 1.847656 -3.804688 0.984375 -6.296875 0.984375 -9.546875 C 0.984375 -12.535156 1.878906 -14.984375 3.671875 -16.890625 C 5.460938 -18.796875 7.820312 -19.75 10.75 -19.75 C 13.5625 -19.75 15.765625 -18.816406 17.359375 -16.953125 C 18.953125 -15.097656 19.75 -12.785156 19.75 -10.015625 Z M 10.53125 -16.234375 C 8.039062 -16.234375 6.582031 -14.679688 6.15625 -11.578125 L 14.609375 -11.578125 C 14.273438 -14.679688 12.914062 -16.234375 10.53125 -16.234375 Z M 10.53125 -16.234375 "/></g></g></g><g fill="#45433f" fill-opacity="1"><g transform="translate(182.2256, 131.877325)"><g><path d="M 30.859375 -14.96875 C 30.972656 -14.15625 31.03125 -12.988281 31.03125 -11.46875 L 31.03125 0 L 26.046875 0 L 26.046875 -10.015625 C 26.046875 -11.242188 26 -12.296875 25.90625 -13.171875 C 25.632812 -15.210938 24.546875 -16.234375 22.640625 -16.234375 C 20.304688 -16.234375 19.140625 -14.113281 19.140625 -9.875 L 19.140625 0 L 14.171875 0 L 14.171875 -10.015625 C 14.171875 -11.242188 14.125 -12.296875 14.03125 -13.171875 C 13.769531 -15.210938 12.675781 -16.234375 10.75 -16.234375 C 8.425781 -16.234375 7.265625 -14.113281 7.265625 -9.875 L 7.265625 0 L 2.28125 0 L 2.28125 -19.25 L 7.265625 -19.25 L 7.265625 -16.3125 L 8.6875 -18.625 C 9.738281 -19.375 11.097656 -19.75 12.765625 -19.75 C 14.285156 -19.75 15.546875 -19.414062 16.546875 -18.75 C 17.546875 -18.09375 18.253906 -17.207031 18.671875 -16.09375 L 20.546875 -18.625 C 21.609375 -19.375 22.984375 -19.75 24.671875 -19.75 C 26.429688 -19.75 27.84375 -19.300781 28.90625 -18.40625 C 29.96875 -17.519531 30.617188 -16.375 30.859375 -14.96875 Z M 30.859375 -14.96875 "/></g></g></g><g fill="#45433f" fill-opacity="1"><g transform="translate(215.358076, 131.877325)"><g/></g></g><g fill="#45433f" fill-opacity="1"><g transform="translate(222.375216, 131.877325)"><g><path d="M 19.75 -10.015625 C 19.75 -9.316406 19.722656 -8.75 19.671875 -8.3125 L 6 -8.3125 C 6.289062 -4.769531 7.773438 -3 10.453125 -3 C 11.535156 -3 12.429688 -3.285156 13.140625 -3.859375 C 13.859375 -4.441406 14.300781 -5.238281 14.46875 -6.25 L 19.453125 -6.25 C 18.972656 -4.0625 17.921875 -2.390625 16.296875 -1.234375 C 14.671875 -0.078125 12.6875 0.5 10.34375 0.5 C 7.570312 0.5 5.316406 -0.359375 3.578125 -2.078125 C 1.847656 -3.804688 0.984375 -6.296875 0.984375 -9.546875 C 0.984375 -12.535156 1.878906 -14.984375 3.671875 -16.890625 C 5.460938 -18.796875 7.820312 -19.75 10.75 -19.75 C 13.5625 -19.75 15.765625 -18.816406 17.359375 -16.953125 C 18.953125 -15.097656 19.75 -12.785156 19.75 -10.015625 Z M 10.53125 -16.234375 C 8.039062 -16.234375 6.582031 -14.679688 6.15625 -11.578125 L 14.609375 -11.578125 C 14.273438 -14.679688 12.914062 -16.234375 10.53125 -16.234375 Z M 10.53125 -16.234375 "/></g></g></g><g fill="#45433f" fill-opacity="1"><g transform="translate(243.281954, 131.877325)"><g><path d="M 9.15625 -19.75 C 11.375 -19.75 13.144531 -19.191406 14.46875 -18.078125 C 15.789062 -16.972656 16.5625 -15.503906 16.78125 -13.671875 L 11.796875 -13.671875 C 11.453125 -15.523438 10.460938 -16.453125 8.828125 -16.453125 C 8.097656 -16.453125 7.535156 -16.265625 7.140625 -15.890625 C 6.742188 -15.523438 6.546875 -15.023438 6.546875 -14.390625 C 6.546875 -13.671875 6.867188 -13.09375 7.515625 -12.65625 C 8.171875 -12.226562 9.304688 -11.804688 10.921875 -11.390625 C 13.023438 -10.859375 14.59375 -10.125 15.625 -9.1875 C 16.664062 -8.25 17.1875 -6.9375 17.1875 -5.25 C 17.1875 -3.382812 16.441406 -1.957031 14.953125 -0.96875 C 13.472656 0.0078125 11.578125 0.5 9.265625 0.5 C 6.847656 0.5 4.890625 -0.0234375 3.390625 -1.078125 C 1.898438 -2.140625 1.023438 -3.734375 0.765625 -5.859375 L 5.75 -5.859375 C 5.945312 -4.847656 6.363281 -4.082031 7 -3.5625 C 7.632812 -3.039062 8.410156 -2.78125 9.328125 -2.78125 C 10.171875 -2.78125 10.851562 -2.960938 11.375 -3.328125 C 11.894531 -3.691406 12.15625 -4.210938 12.15625 -4.890625 C 12.15625 -5.628906 11.804688 -6.234375 11.109375 -6.703125 C 10.410156 -7.179688 9.226562 -7.625 7.5625 -8.03125 C 5.601562 -8.507812 4.101562 -9.203125 3.0625 -10.109375 C 2.03125 -11.015625 1.515625 -12.25 1.515625 -13.8125 C 1.515625 -15.644531 2.207031 -17.09375 3.59375 -18.15625 C 4.976562 -19.21875 6.832031 -19.75 9.15625 -19.75 Z M 9.15625 -19.75 "/></g></g></g><g fill="#45433f" fill-opacity="1"><g transform="translate(261.258862, 131.877325)"><g><path d="M 8.25 -15.8125 L 8.25 -6.90625 C 8.25 -6.113281 8.257812 -5.546875 8.28125 -5.203125 C 8.351562 -4.265625 8.628906 -3.65625 9.109375 -3.375 C 9.597656 -3.101562 10.53125 -3.015625 11.90625 -3.109375 L 11.90625 0.140625 C 10.863281 0.304688 9.765625 0.390625 8.609375 0.390625 C 6.773438 0.390625 5.46875 0.0820312 4.6875 -0.53125 C 3.90625 -1.144531 3.453125 -2.148438 3.328125 -3.546875 C 3.273438 -4.117188 3.25 -5.046875 3.25 -6.328125 L 3.25 -15.8125 L 0.4375 -15.8125 L 0.4375 -19.09375 L 3.25 -19.09375 L 3.25 -23.84375 L 8.25 -23.84375 L 8.25 -19.09375 L 12.21875 -19.09375 L 12.21875 -15.8125 Z M 8.25 -15.8125 "/></g></g></g><g fill="#45433f" fill-opacity="1"><g transform="translate(274.316527, 131.877325)"><g><path d="M 13.453125 0 L 13.09375 -2.828125 L 12.15625 -0.765625 C 10.894531 0.078125 9.300781 0.5 7.375 0.5 C 5.613281 0.5 4.140625 0.0078125 2.953125 -0.96875 C 1.773438 -1.957031 1.1875 -3.332031 1.1875 -5.09375 C 1.1875 -7.21875 2.082031 -8.851562 3.875 -10 C 5.675781 -11.144531 8.316406 -11.71875 11.796875 -11.71875 L 13.015625 -11.71875 L 13.015625 -12.125 C 13.015625 -12.894531 12.992188 -13.492188 12.953125 -13.921875 C 12.785156 -15.460938 11.796875 -16.234375 9.984375 -16.234375 C 7.984375 -16.234375 6.910156 -15.148438 6.765625 -12.984375 L 1.921875 -12.953125 C 1.992188 -15.066406 2.796875 -16.726562 4.328125 -17.9375 C 5.859375 -19.144531 7.804688 -19.75 10.171875 -19.75 C 14.960938 -19.75 17.53125 -17.859375 17.875 -14.078125 C 17.945312 -13.160156 17.984375 -12.171875 17.984375 -11.109375 L 17.984375 -4.890625 C 17.984375 -3.410156 18.101562 -1.78125 18.34375 0 Z M 9.296875 -3 C 10.359375 -3 11.242188 -3.359375 11.953125 -4.078125 C 12.660156 -4.804688 13.015625 -5.8125 13.015625 -7.09375 L 13.015625 -8.640625 C 8.578125 -8.953125 6.359375 -7.90625 6.359375 -5.5 C 6.359375 -3.832031 7.335938 -3 9.296875 -3 Z M 9.296875 -3 "/></g></g></g><g fill="#45433f" fill-opacity="1"><g transform="translate(294.644538, 131.877325)"><g><path d="M 12.078125 -19.71875 C 12.628906 -19.71875 13.097656 -19.664062 13.484375 -19.5625 L 13.484375 -15.546875 C 11.367188 -15.691406 9.800781 -15.238281 8.78125 -14.1875 C 7.769531 -13.144531 7.265625 -11.359375 7.265625 -8.828125 L 7.265625 0 L 2.28125 0 L 2.28125 -19.25 L 7.265625 -19.25 L 7.265625 -15.734375 L 8.796875 -18.40625 C 9.734375 -19.28125 10.828125 -19.71875 12.078125 -19.71875 Z M 12.078125 -19.71875 "/></g></g></g></svg>