<svg xmlns="http://www.w3.org/2000/svg" xmlns:xlink="http://www.w3.org/1999/xlink" width="500" zoomAndPan="magnify" viewBox="0 0 375 374.999991" height="500" preserveAspectRatio="xMidYMid meet" version="1.0"><defs><g/><clipPath id="573f17fed8"><path d="M 128.960938 55.890625 L 313.503906 55.890625 L 313.503906 91.359375 L 128.960938 91.359375 Z M 128.960938 55.890625 " clip-rule="nonzero"/></clipPath><clipPath id="9e89f62a60"><path d="M 128.960938 105.695312 L 297.503906 105.695312 L 297.503906 136.367188 L 128.960938 136.367188 Z M 128.960938 105.695312 " clip-rule="nonzero"/></clipPath><clipPath id="2418ce1e64"><path d="M 26.15625 60.902344 L 122.90625 60.902344 L 122.90625 135.972656 L 26.15625 135.972656 Z M 26.15625 60.902344 " clip-rule="nonzero"/></clipPath></defs><rect x="-37.5" width="450" fill="#ffffff" y="-37.499999" height="449.999989" fill-opacity="1"/><rect x="-37.5" width="450" fill="#ffffff" y="-37.499999" height="449.999989" fill-opacity="1"/><g clip-path="url(#573f17fed8)"><path fill="#e4b628" d="M 128.960938 55.890625 L 313.515625 55.890625 L 313.515625 91.359375 L 128.960938 91.359375 Z M 128.960938 55.890625 " fill-opacity="1" fill-rule="nonzero"/></g><g clip-path="url(#9e89f62a60)"><path fill="#e4b628" d="M 128.960938 105.695312 L 297.53125 105.695312 L 297.53125 136.367188 L 128.960938 136.367188 Z M 128.960938 105.695312 " fill-opacity="1" fill-rule="nonzero"/></g><g clip-path="url(#2418ce1e64)"><path fill="#e4b628" d="M 115.472656 83.582031 C 115.078125 80.660156 115.023438 75.621094 117.742188 73.933594 C 117.789062 73.902344 117.824219 73.855469 117.871094 73.820312 C 120.089844 73.105469 121.625 72.109375 120.421875 70.769531 L 87.667969 60.902344 L 34.640625 68.273438 C 34.640625 68.273438 28.570312 69.140625 29.109375 78.578125 C 29.402344 83.710938 31.015625 86.230469 32.421875 87.472656 L 28.070312 88.789062 C 26.867188 90.128906 28.40625 91.117188 30.621094 91.828125 C 30.667969 91.867188 30.699219 91.914062 30.75 91.945312 C 33.460938 93.636719 33.40625 98.671875 33.019531 101.601562 C 23.273438 104.363281 26.769531 105.269531 26.769531 105.269531 L 28.910156 105.785156 C 27.40625 107.148438 25.90625 109.71875 26.195312 114.609375 C 26.730469 124.046875 31.71875 124.695312 31.71875 124.695312 L 66.425781 135.972656 L 118.800781 123.289062 C 118.800781 123.289062 122.296875 122.382812 112.550781 119.609375 C 112.15625 116.699219 112.105469 111.65625 114.820312 109.960938 C 114.875 109.933594 114.902344 109.886719 114.949219 109.847656 C 117.167969 109.136719 118.703125 108.144531 117.5 106.804688 L 115.222656 106.117188 C 116.742188 105.203125 119.019531 102.8125 119.375 96.589844 C 119.625 92.320312 118.507812 89.816406 117.21875 88.339844 L 121.714844 87.25 C 121.714844 87.25 125.21875 86.351562 115.472656 83.582031 Z M 71.660156 83.460938 L 80.464844 81.652344 L 110.234375 75.527344 L 114.667969 74.621094 C 113.246094 77.214844 113.308594 80.765625 113.542969 83.042969 C 113.59375 83.558594 113.65625 84.027344 113.707031 84.390625 L 108.859375 85.59375 L 71.292969 94.941406 Z M 33.824219 92.640625 L 38.257812 93.546875 L 66.839844 99.429688 L 69.339844 99.941406 L 76.832031 101.480469 L 77.195312 112.960938 L 38.582031 103.355469 L 34.777344 102.410156 C 34.835938 102.046875 34.890625 101.578125 34.949219 101.0625 C 35.179688 98.785156 35.238281 95.234375 33.824219 92.640625 Z M 32.097656 78.125 C 32.042969 75.613281 32.492188 73.796875 33.398438 72.871094 C 33.976562 72.28125 34.65625 72.160156 35.117188 72.160156 C 35.367188 72.160156 35.542969 72.199219 35.554688 72.199219 L 58.402344 79.644531 L 69.800781 83.363281 L 69.429688 94.925781 L 37.449219 85.957031 L 35.761719 85.488281 C 35.699219 85.472656 35.609375 85.457031 35.546875 85.457031 C 35.414062 85.441406 32.257812 85.15625 32.097656 78.125 Z M 66.507812 130.960938 L 32.839844 121.527344 C 32.777344 121.503906 32.695312 121.496094 32.628906 121.488281 C 32.492188 121.480469 29.328125 121.191406 29.175781 114.164062 C 29.125 111.648438 29.570312 109.832031 30.476562 108.910156 C 31.054688 108.320312 31.726562 108.199219 32.195312 108.199219 C 32.4375 108.199219 32.621094 108.238281 32.628906 108.238281 C 32.628906 108.238281 32.636719 108.238281 32.628906 108.238281 L 66.878906 119.398438 Z M 110.621094 119.082031 C 110.671875 119.597656 110.734375 120.066406 110.789062 120.429688 L 68.371094 130.976562 L 68.734375 119.496094 L 77.808594 117.628906 L 79.148438 117.953125 L 84.164062 116.328125 L 107.304688 111.566406 L 111.742188 110.660156 C 110.324219 113.246094 110.386719 116.796875 110.621094 119.082031 Z M 112.960938 103.46875 C 112.882812 103.476562 112.800781 103.484375 112.730469 103.507812 L 109.53125 104.40625 L 79.0625 112.945312 L 78.691406 101.378906 L 88.691406 98.117188 L 112.890625 90.226562 C 112.890625 90.226562 114.164062 89.945312 115.09375 90.890625 C 115.992188 91.816406 116.449219 93.632812 116.394531 96.144531 C 116.234375 103.175781 113.074219 103.460938 112.960938 103.46875 Z M 112.960938 103.46875 " fill-opacity="1" fill-rule="nonzero"/></g><g fill="#45433f" fill-opacity="1"><g transform="translate(138.06102, 84.630259)"><g><path d="M 16.75 -7.53125 L 8.359375 -7.53125 L 5.859375 0 L 0.546875 0 L 9.546875 -24.953125 L 15.8125 -24.953125 L 24.640625 0 L 19.203125 0 Z M 12.59375 -20.6875 L 9.625 -11.46875 L 15.484375 -11.46875 Z M 12.59375 -20.6875 "/></g></g></g><g fill="#45433f" fill-opacity="1"><g transform="translate(162.512502, 84.630259)"><g><path d="M 4.671875 -26.40625 C 6.472656 -26.40625 7.375 -25.523438 7.375 -23.765625 C 7.375 -22.003906 6.472656 -21.125 4.671875 -21.125 C 2.835938 -21.125 1.921875 -22.003906 1.921875 -23.765625 C 1.921875 -25.523438 2.835938 -26.40625 4.671875 -26.40625 Z M 7.125 -19.25 L 7.125 0.4375 C 7.125 1.113281 7.097656 1.882812 7.046875 2.75 C 6.929688 4.34375 6.363281 5.546875 5.34375 6.359375 C 4.332031 7.179688 2.769531 7.59375 0.65625 7.59375 C -0.0195312 7.59375 -0.632812 7.554688 -1.1875 7.484375 L -1.1875 3.9375 C -0.101562 4.039062 0.6875 3.957031 1.1875 3.6875 C 1.695312 3.425781 2 2.921875 2.09375 2.171875 C 2.144531 1.492188 2.171875 0.9375 2.171875 0.5 L 2.171875 -19.25 Z M 7.125 -19.25 "/></g></g></g><g fill="#45433f" fill-opacity="1"><g transform="translate(171.916916, 84.630259)"><g><path d="M 20.046875 -19.25 L 20.046875 0 L 15.046875 0 L 15.046875 -3.25 L 13.5625 -0.796875 C 12.257812 0.0664062 10.71875 0.5 8.9375 0.5 C 7.03125 0.5 5.476562 0.0351562 4.28125 -0.890625 C 3.09375 -1.816406 2.378906 -2.976562 2.140625 -4.375 C 2.015625 -5.195312 1.953125 -6.367188 1.953125 -7.890625 L 1.953125 -19.25 L 6.9375 -19.25 L 6.9375 -8.9375 C 6.9375 -8.039062 6.988281 -7.160156 7.09375 -6.296875 C 7.351562 -4.117188 8.59375 -3.03125 10.8125 -3.03125 C 12.113281 -3.03125 13.144531 -3.570312 13.90625 -4.65625 C 14.664062 -5.75 15.046875 -7.34375 15.046875 -9.4375 L 15.046875 -19.25 Z M 20.046875 -19.25 "/></g></g></g><g fill="#45433f" fill-opacity="1"><g transform="translate(194.270489, 84.630259)"><g><path d="M 20.984375 -26.59375 L 20.984375 0 L 15.984375 0 L 15.984375 -2.96875 L 14.546875 -0.828125 C 13.390625 0.0546875 11.722656 0.5 9.546875 0.5 C 6.898438 0.5 4.8125 -0.398438 3.28125 -2.203125 C 1.75 -4.015625 0.984375 -6.367188 0.984375 -9.265625 C 0.984375 -12.585938 1.859375 -15.164062 3.609375 -17 C 5.367188 -18.832031 7.566406 -19.75 10.203125 -19.75 C 12.179688 -19.75 13.6875 -19.390625 14.71875 -18.671875 L 15.984375 -16.671875 L 15.984375 -26.59375 Z M 11 -3 C 12.488281 -3 13.691406 -3.507812 14.609375 -4.53125 C 15.523438 -5.5625 15.984375 -7.1875 15.984375 -9.40625 L 15.984375 -10.34375 C 15.984375 -12.34375 15.515625 -13.820312 14.578125 -14.78125 C 13.640625 -15.75 12.503906 -16.234375 11.171875 -16.234375 C 9.679688 -16.234375 8.472656 -15.660156 7.546875 -14.515625 C 6.617188 -13.378906 6.15625 -11.734375 6.15625 -9.578125 C 6.15625 -7.609375 6.59375 -6.019531 7.46875 -4.8125 C 8.351562 -3.601562 9.53125 -3 11 -3 Z M 11 -3 "/></g></g></g><g fill="#45433f" fill-opacity="1"><g transform="translate(217.600672, 84.630259)"><g><path d="M 13.453125 0 L 13.09375 -2.828125 L 12.15625 -0.765625 C 10.894531 0.078125 9.300781 0.5 7.375 0.5 C 5.613281 0.5 4.140625 0.0078125 2.953125 -0.96875 C 1.773438 -1.957031 1.1875 -3.332031 1.1875 -5.09375 C 1.1875 -7.21875 2.082031 -8.851562 3.875 -10 C 5.675781 -11.144531 8.316406 -11.71875 11.796875 -11.71875 L 13.015625 -11.71875 L 13.015625 -12.125 C 13.015625 -12.894531 12.992188 -13.492188 12.953125 -13.921875 C 12.785156 -15.460938 11.796875 -16.234375 9.984375 -16.234375 C 7.984375 -16.234375 6.910156 -15.148438 6.765625 -12.984375 L 1.921875 -12.953125 C 1.992188 -15.066406 2.796875 -16.726562 4.328125 -17.9375 C 5.859375 -19.144531 7.804688 -19.75 10.171875 -19.75 C 14.960938 -19.75 17.53125 -17.859375 17.875 -14.078125 C 17.945312 -13.160156 17.984375 -12.171875 17.984375 -11.109375 L 17.984375 -4.890625 C 17.984375 -3.410156 18.101562 -1.78125 18.34375 0 Z M 9.296875 -3 C 10.359375 -3 11.242188 -3.359375 11.953125 -4.078125 C 12.660156 -4.804688 13.015625 -5.8125 13.015625 -7.09375 L 13.015625 -8.640625 C 8.578125 -8.953125 6.359375 -7.90625 6.359375 -5.5 C 6.359375 -3.832031 7.335938 -3 9.296875 -3 Z M 9.296875 -3 "/></g></g></g><g fill="#45433f" fill-opacity="1"><g transform="translate(237.928684, 84.630259)"><g><path d="M 20.21875 -14.359375 C 20.3125 -13.492188 20.359375 -12.328125 20.359375 -10.859375 L 20.359375 0 L 15.375 0 L 15.375 -10.171875 C 15.375 -11.296875 15.347656 -12.1875 15.296875 -12.84375 C 15.128906 -15.101562 13.898438 -16.234375 11.609375 -16.234375 C 10.304688 -16.234375 9.253906 -15.625 8.453125 -14.40625 C 7.660156 -13.195312 7.265625 -11.328125 7.265625 -8.796875 L 7.265625 0 L 2.28125 0 L 2.28125 -19.25 L 7.265625 -19.25 L 7.265625 -16.125 L 8.75 -18.40625 C 10.007812 -19.300781 11.554688 -19.75 13.390625 -19.75 C 15.410156 -19.75 17.003906 -19.273438 18.171875 -18.328125 C 19.347656 -17.390625 20.03125 -16.066406 20.21875 -14.359375 Z M 20.21875 -14.359375 "/></g></g></g><g fill="#45433f" fill-opacity="1"><g transform="translate(260.390763, 84.630259)"><g><path d="M 20.984375 -26.59375 L 20.984375 0 L 15.984375 0 L 15.984375 -2.96875 L 14.546875 -0.828125 C 13.390625 0.0546875 11.722656 0.5 9.546875 0.5 C 6.898438 0.5 4.8125 -0.398438 3.28125 -2.203125 C 1.75 -4.015625 0.984375 -6.367188 0.984375 -9.265625 C 0.984375 -12.585938 1.859375 -15.164062 3.609375 -17 C 5.367188 -18.832031 7.566406 -19.75 10.203125 -19.75 C 12.179688 -19.75 13.6875 -19.390625 14.71875 -18.671875 L 15.984375 -16.671875 L 15.984375 -26.59375 Z M 11 -3 C 12.488281 -3 13.691406 -3.507812 14.609375 -4.53125 C 15.523438 -5.5625 15.984375 -7.1875 15.984375 -9.40625 L 15.984375 -10.34375 C 15.984375 -12.34375 15.515625 -13.820312 14.578125 -14.78125 C 13.640625 -15.75 12.503906 -16.234375 11.171875 -16.234375 C 9.679688 -16.234375 8.472656 -15.660156 7.546875 -14.515625 C 6.617188 -13.378906 6.15625 -11.734375 6.15625 -9.578125 C 6.15625 -7.609375 6.59375 -6.019531 7.46875 -4.8125 C 8.351562 -3.601562 9.53125 -3 11 -3 Z M 11 -3 "/></g></g></g><g fill="#45433f" fill-opacity="1"><g transform="translate(283.720941, 84.630259)"><g><path d="M 3.609375 -16.9375 C 5.367188 -18.8125 7.816406 -19.75 10.953125 -19.75 C 14.085938 -19.75 16.535156 -18.8125 18.296875 -16.9375 C 20.054688 -15.070312 20.9375 -12.632812 20.9375 -9.625 C 20.9375 -6.632812 20.054688 -4.195312 18.296875 -2.3125 C 16.535156 -0.4375 14.085938 0.5 10.953125 0.5 C 7.816406 0.5 5.367188 -0.4375 3.609375 -2.3125 C 1.859375 -4.195312 0.984375 -6.632812 0.984375 -9.625 C 0.984375 -12.632812 1.859375 -15.070312 3.609375 -16.9375 Z M 7.4375 -4.75 C 8.289062 -3.582031 9.460938 -3 10.953125 -3 C 12.453125 -3 13.628906 -3.582031 14.484375 -4.75 C 15.335938 -5.925781 15.765625 -7.550781 15.765625 -9.625 C 15.765625 -11.695312 15.335938 -13.316406 14.484375 -14.484375 C 13.628906 -15.648438 12.453125 -16.234375 10.953125 -16.234375 C 9.460938 -16.234375 8.289062 -15.648438 7.4375 -14.484375 C 6.582031 -13.316406 6.15625 -11.695312 6.15625 -9.625 C 6.15625 -7.550781 6.582031 -5.925781 7.4375 -4.75 Z M 7.4375 -4.75 "/></g></g></g><g fill="#45433f" fill-opacity="1"><g transform="translate(26.157189, 195.619264)"><g><path d="M 14.640625 -21.046875 C 14.640625 -20.929688 14.597656 -20.832031 14.515625 -20.75 C 14.429688 -20.664062 14.332031 -20.625 14.21875 -20.625 L 6.765625 -20.625 C 6.648438 -20.625 6.59375 -20.566406 6.59375 -20.453125 L 6.59375 -14.8125 C 6.59375 -14.695312 6.648438 -14.640625 6.765625 -14.640625 L 11.046875 -14.640625 C 11.160156 -14.640625 11.257812 -14.597656 11.34375 -14.515625 C 11.425781 -14.429688 11.46875 -14.332031 11.46875 -14.21875 L 11.46875 -10.765625 C 11.46875 -10.640625 11.425781 -10.535156 11.34375 -10.453125 C 11.257812 -10.367188 11.160156 -10.328125 11.046875 -10.328125 L 6.765625 -10.328125 C 6.648438 -10.328125 6.59375 -10.269531 6.59375 -10.15625 L 6.59375 -4.484375 C 6.59375 -4.367188 6.648438 -4.3125 6.765625 -4.3125 L 14.21875 -4.3125 C 14.332031 -4.3125 14.429688 -4.269531 14.515625 -4.1875 C 14.597656 -4.101562 14.640625 -4.003906 14.640625 -3.890625 L 14.640625 -0.421875 C 14.640625 -0.304688 14.597656 -0.207031 14.515625 -0.125 C 14.429688 -0.0390625 14.332031 0 14.21875 0 L 2 0 C 1.875 0 1.769531 -0.0390625 1.6875 -0.125 C 1.601562 -0.207031 1.5625 -0.304688 1.5625 -0.421875 L 1.5625 -24.515625 C 1.5625 -24.628906 1.601562 -24.726562 1.6875 -24.8125 C 1.769531 -24.894531 1.875 -24.9375 2 -24.9375 L 14.21875 -24.9375 C 14.332031 -24.9375 14.429688 -24.894531 14.515625 -24.8125 C 14.597656 -24.726562 14.640625 -24.628906 14.640625 -24.515625 Z M 14.640625 -21.046875 "/></g></g></g><g fill="#45433f" fill-opacity="1"><g transform="translate(41.755817, 195.619264)"><g><path d="M 7.984375 0.28125 C 6.597656 0.28125 5.382812 0.0078125 4.34375 -0.53125 C 3.300781 -1.082031 2.492188 -1.847656 1.921875 -2.828125 C 1.347656 -3.816406 1.0625 -4.953125 1.0625 -6.234375 L 1.0625 -7.265625 C 1.0625 -7.390625 1.101562 -7.488281 1.1875 -7.5625 C 1.269531 -7.644531 1.375 -7.6875 1.5 -7.6875 L 5.59375 -7.6875 C 5.707031 -7.6875 5.804688 -7.644531 5.890625 -7.5625 C 5.972656 -7.488281 6.015625 -7.390625 6.015625 -7.265625 L 6.015625 -6.484375 C 6.015625 -5.742188 6.203125 -5.148438 6.578125 -4.703125 C 6.960938 -4.253906 7.441406 -4.03125 8.015625 -4.03125 C 8.585938 -4.03125 9.0625 -4.242188 9.4375 -4.671875 C 9.820312 -5.097656 10.015625 -5.65625 10.015625 -6.34375 C 10.015625 -7.050781 9.773438 -7.660156 9.296875 -8.171875 C 8.816406 -8.679688 7.890625 -9.4375 6.515625 -10.4375 C 5.328125 -11.289062 4.363281 -12.050781 3.625 -12.71875 C 2.894531 -13.382812 2.269531 -14.203125 1.75 -15.171875 C 1.226562 -16.148438 0.96875 -17.28125 0.96875 -18.5625 C 0.96875 -20.582031 1.59375 -22.195312 2.84375 -23.40625 C 4.101562 -24.613281 5.769531 -25.21875 7.84375 -25.21875 C 9.925781 -25.21875 11.601562 -24.585938 12.875 -23.328125 C 14.144531 -22.078125 14.78125 -20.425781 14.78125 -18.375 L 14.78125 -17.53125 C 14.78125 -17.40625 14.738281 -17.300781 14.65625 -17.21875 C 14.570312 -17.132812 14.472656 -17.09375 14.359375 -17.09375 L 10.265625 -17.09375 C 10.140625 -17.09375 10.035156 -17.132812 9.953125 -17.21875 C 9.867188 -17.300781 9.828125 -17.40625 9.828125 -17.53125 L 9.828125 -18.484375 C 9.828125 -19.222656 9.644531 -19.8125 9.28125 -20.25 C 8.914062 -20.6875 8.4375 -20.90625 7.84375 -20.90625 C 7.269531 -20.90625 6.800781 -20.695312 6.4375 -20.28125 C 6.082031 -19.875 5.90625 -19.300781 5.90625 -18.5625 C 5.90625 -17.84375 6.128906 -17.210938 6.578125 -16.671875 C 7.035156 -16.128906 7.929688 -15.367188 9.265625 -14.390625 C 10.734375 -13.296875 11.84375 -12.410156 12.59375 -11.734375 C 13.34375 -11.054688 13.925781 -10.304688 14.34375 -9.484375 C 14.757812 -8.671875 14.96875 -7.695312 14.96875 -6.5625 C 14.96875 -4.46875 14.320312 -2.800781 13.03125 -1.5625 C 11.75 -0.332031 10.066406 0.28125 7.984375 0.28125 Z M 7.984375 0.28125 "/></g></g></g><g fill="#45433f" fill-opacity="1"><g transform="translate(57.568117, 195.619264)"><g><path d="M 15.390625 -24.9375 C 15.503906 -24.9375 15.601562 -24.894531 15.6875 -24.8125 C 15.769531 -24.726562 15.8125 -24.628906 15.8125 -24.515625 L 15.8125 -21.046875 C 15.8125 -20.929688 15.769531 -20.832031 15.6875 -20.75 C 15.601562 -20.664062 15.503906 -20.625 15.390625 -20.625 L 10.9375 -20.625 C 10.820312 -20.625 10.765625 -20.566406 10.765625 -20.453125 L 10.765625 -0.421875 C 10.765625 -0.304688 10.722656 -0.207031 10.640625 -0.125 C 10.554688 -0.0390625 10.453125 0 10.328125 0 L 6.15625 0 C 6.039062 0 5.941406 -0.0390625 5.859375 -0.125 C 5.773438 -0.207031 5.734375 -0.304688 5.734375 -0.421875 L 5.734375 -20.453125 C 5.734375 -20.566406 5.675781 -20.625 5.5625 -20.625 L 1.28125 -20.625 C 1.164062 -20.625 1.066406 -20.664062 0.984375 -20.75 C 0.898438 -20.832031 0.859375 -20.929688 0.859375 -21.046875 L 0.859375 -24.515625 C 0.859375 -24.628906 0.898438 -24.726562 0.984375 -24.8125 C 1.066406 -24.894531 1.164062 -24.9375 1.28125 -24.9375 Z M 15.390625 -24.9375 "/></g></g></g><g fill="#45433f" fill-opacity="1"><g transform="translate(74.235143, 195.619264)"><g><path d="M 8.546875 0.28125 C 6.410156 0.28125 4.691406 -0.382812 3.390625 -1.71875 C 2.097656 -3.0625 1.453125 -4.851562 1.453125 -7.09375 L 1.453125 -24.515625 C 1.453125 -24.628906 1.492188 -24.726562 1.578125 -24.8125 C 1.660156 -24.894531 1.765625 -24.9375 1.890625 -24.9375 L 6.0625 -24.9375 C 6.175781 -24.9375 6.273438 -24.894531 6.359375 -24.8125 C 6.441406 -24.726562 6.484375 -24.628906 6.484375 -24.515625 L 6.484375 -6.59375 C 6.484375 -5.832031 6.671875 -5.210938 7.046875 -4.734375 C 7.429688 -4.265625 7.929688 -4.03125 8.546875 -4.03125 C 9.160156 -4.03125 9.648438 -4.265625 10.015625 -4.734375 C 10.390625 -5.210938 10.578125 -5.832031 10.578125 -6.59375 L 10.578125 -24.515625 C 10.578125 -24.628906 10.617188 -24.726562 10.703125 -24.8125 C 10.785156 -24.894531 10.890625 -24.9375 11.015625 -24.9375 L 15.171875 -24.9375 C 15.296875 -24.9375 15.398438 -24.894531 15.484375 -24.8125 C 15.566406 -24.726562 15.609375 -24.628906 15.609375 -24.515625 L 15.609375 -7.09375 C 15.609375 -4.851562 14.957031 -3.0625 13.65625 -1.71875 C 12.363281 -0.382812 10.660156 0.28125 8.546875 0.28125 Z M 8.546875 0.28125 "/></g></g></g><g fill="#45433f" fill-opacity="1"><g transform="translate(91.293911, 195.619264)"><g><path d="M 2 0 C 1.875 0 1.769531 -0.0390625 1.6875 -0.125 C 1.601562 -0.207031 1.5625 -0.304688 1.5625 -0.421875 L 1.5625 -24.515625 C 1.5625 -24.628906 1.601562 -24.726562 1.6875 -24.8125 C 1.769531 -24.894531 1.875 -24.9375 2 -24.9375 L 8.4375 -24.9375 C 10.601562 -24.9375 12.335938 -24.304688 13.640625 -23.046875 C 14.953125 -21.785156 15.609375 -20.113281 15.609375 -18.03125 L 15.609375 -6.90625 C 15.609375 -4.820312 14.953125 -3.148438 13.640625 -1.890625 C 12.335938 -0.628906 10.601562 0 8.4375 0 Z M 6.59375 -4.484375 C 6.59375 -4.367188 6.648438 -4.3125 6.765625 -4.3125 L 8.375 -4.34375 C 9.007812 -4.363281 9.53125 -4.632812 9.9375 -5.15625 C 10.34375 -5.6875 10.554688 -6.378906 10.578125 -7.234375 L 10.578125 -17.703125 C 10.578125 -18.609375 10.375 -19.320312 9.96875 -19.84375 C 9.570312 -20.363281 9.03125 -20.625 8.34375 -20.625 L 6.765625 -20.625 C 6.648438 -20.625 6.59375 -20.566406 6.59375 -20.453125 Z M 6.59375 -4.484375 "/></g></g></g><g fill="#45433f" fill-opacity="1"><g transform="translate(108.245837, 195.619264)"><g><path d="M 8.40625 0.28125 C 6.21875 0.28125 4.472656 -0.359375 3.171875 -1.640625 C 1.867188 -2.921875 1.21875 -4.628906 1.21875 -6.765625 L 1.21875 -18.171875 C 1.21875 -20.304688 1.867188 -22.015625 3.171875 -23.296875 C 4.472656 -24.578125 6.21875 -25.21875 8.40625 -25.21875 C 10.59375 -25.21875 12.34375 -24.578125 13.65625 -23.296875 C 14.976562 -22.015625 15.640625 -20.304688 15.640625 -18.171875 L 15.640625 -6.765625 C 15.640625 -4.628906 14.976562 -2.921875 13.65625 -1.640625 C 12.34375 -0.359375 10.59375 0.28125 8.40625 0.28125 Z M 8.40625 -4.03125 C 9.070312 -4.03125 9.601562 -4.257812 10 -4.71875 C 10.40625 -5.1875 10.609375 -5.800781 10.609375 -6.5625 L 10.609375 -18.375 C 10.609375 -19.132812 10.40625 -19.742188 10 -20.203125 C 9.601562 -20.671875 9.070312 -20.90625 8.40625 -20.90625 C 7.738281 -20.90625 7.207031 -20.671875 6.8125 -20.203125 C 6.425781 -19.742188 6.234375 -19.132812 6.234375 -18.375 L 6.234375 -6.5625 C 6.234375 -5.800781 6.425781 -5.1875 6.8125 -4.71875 C 7.207031 -4.257812 7.738281 -4.03125 8.40625 -4.03125 Z M 8.40625 -4.03125 "/></g></g></g><g fill="#45433f" fill-opacity="1"><g transform="translate(125.090922, 195.619264)"><g><path d="M 7.984375 0.28125 C 6.597656 0.28125 5.382812 0.0078125 4.34375 -0.53125 C 3.300781 -1.082031 2.492188 -1.847656 1.921875 -2.828125 C 1.347656 -3.816406 1.0625 -4.953125 1.0625 -6.234375 L 1.0625 -7.265625 C 1.0625 -7.390625 1.101562 -7.488281 1.1875 -7.5625 C 1.269531 -7.644531 1.375 -7.6875 1.5 -7.6875 L 5.59375 -7.6875 C 5.707031 -7.6875 5.804688 -7.644531 5.890625 -7.5625 C 5.972656 -7.488281 6.015625 -7.390625 6.015625 -7.265625 L 6.015625 -6.484375 C 6.015625 -5.742188 6.203125 -5.148438 6.578125 -4.703125 C 6.960938 -4.253906 7.441406 -4.03125 8.015625 -4.03125 C 8.585938 -4.03125 9.0625 -4.242188 9.4375 -4.671875 C 9.820312 -5.097656 10.015625 -5.65625 10.015625 -6.34375 C 10.015625 -7.050781 9.773438 -7.660156 9.296875 -8.171875 C 8.816406 -8.679688 7.890625 -9.4375 6.515625 -10.4375 C 5.328125 -11.289062 4.363281 -12.050781 3.625 -12.71875 C 2.894531 -13.382812 2.269531 -14.203125 1.75 -15.171875 C 1.226562 -16.148438 0.96875 -17.28125 0.96875 -18.5625 C 0.96875 -20.582031 1.59375 -22.195312 2.84375 -23.40625 C 4.101562 -24.613281 5.769531 -25.21875 7.84375 -25.21875 C 9.925781 -25.21875 11.601562 -24.585938 12.875 -23.328125 C 14.144531 -22.078125 14.78125 -20.425781 14.78125 -18.375 L 14.78125 -17.53125 C 14.78125 -17.40625 14.738281 -17.300781 14.65625 -17.21875 C 14.570312 -17.132812 14.472656 -17.09375 14.359375 -17.09375 L 10.265625 -17.09375 C 10.140625 -17.09375 10.035156 -17.132812 9.953125 -17.21875 C 9.867188 -17.300781 9.828125 -17.40625 9.828125 -17.53125 L 9.828125 -18.484375 C 9.828125 -19.222656 9.644531 -19.8125 9.28125 -20.25 C 8.914062 -20.6875 8.4375 -20.90625 7.84375 -20.90625 C 7.269531 -20.90625 6.800781 -20.695312 6.4375 -20.28125 C 6.082031 -19.875 5.90625 -19.300781 5.90625 -18.5625 C 5.90625 -17.84375 6.128906 -17.210938 6.578125 -16.671875 C 7.035156 -16.128906 7.929688 -15.367188 9.265625 -14.390625 C 10.734375 -13.296875 11.84375 -12.410156 12.59375 -11.734375 C 13.34375 -11.054688 13.925781 -10.304688 14.34375 -9.484375 C 14.757812 -8.671875 14.96875 -7.695312 14.96875 -6.5625 C 14.96875 -4.46875 14.320312 -2.800781 13.03125 -1.5625 C 11.75 -0.332031 10.066406 0.28125 7.984375 0.28125 Z M 7.984375 0.28125 "/></g></g></g><g fill="#45433f" fill-opacity="1"><g transform="translate(26.157189, 245.119261)"><g><path d="M 14.640625 -21.046875 C 14.640625 -20.929688 14.597656 -20.832031 14.515625 -20.75 C 14.429688 -20.664062 14.332031 -20.625 14.21875 -20.625 L 6.765625 -20.625 C 6.648438 -20.625 6.59375 -20.566406 6.59375 -20.453125 L 6.59375 -14.8125 C 6.59375 -14.695312 6.648438 -14.640625 6.765625 -14.640625 L 11.046875 -14.640625 C 11.160156 -14.640625 11.257812 -14.597656 11.34375 -14.515625 C 11.425781 -14.429688 11.46875 -14.332031 11.46875 -14.21875 L 11.46875 -10.765625 C 11.46875 -10.640625 11.425781 -10.535156 11.34375 -10.453125 C 11.257812 -10.367188 11.160156 -10.328125 11.046875 -10.328125 L 6.765625 -10.328125 C 6.648438 -10.328125 6.59375 -10.269531 6.59375 -10.15625 L 6.59375 -4.484375 C 6.59375 -4.367188 6.648438 -4.3125 6.765625 -4.3125 L 14.21875 -4.3125 C 14.332031 -4.3125 14.429688 -4.269531 14.515625 -4.1875 C 14.597656 -4.101562 14.640625 -4.003906 14.640625 -3.890625 L 14.640625 -0.421875 C 14.640625 -0.304688 14.597656 -0.207031 14.515625 -0.125 C 14.429688 -0.0390625 14.332031 0 14.21875 0 L 2 0 C 1.875 0 1.769531 -0.0390625 1.6875 -0.125 C 1.601562 -0.207031 1.5625 -0.304688 1.5625 -0.421875 L 1.5625 -24.515625 C 1.5625 -24.628906 1.601562 -24.726562 1.6875 -24.8125 C 1.769531 -24.894531 1.875 -24.9375 2 -24.9375 L 14.21875 -24.9375 C 14.332031 -24.9375 14.429688 -24.894531 14.515625 -24.8125 C 14.597656 -24.726562 14.640625 -24.628906 14.640625 -24.515625 Z M 14.640625 -21.046875 "/></g></g></g><g fill="#45433f" fill-opacity="1"><g transform="translate(41.755817, 245.119261)"><g><path d="M 7.984375 0.28125 C 6.597656 0.28125 5.382812 0.0078125 4.34375 -0.53125 C 3.300781 -1.082031 2.492188 -1.847656 1.921875 -2.828125 C 1.347656 -3.816406 1.0625 -4.953125 1.0625 -6.234375 L 1.0625 -7.265625 C 1.0625 -7.390625 1.101562 -7.488281 1.1875 -7.5625 C 1.269531 -7.644531 1.375 -7.6875 1.5 -7.6875 L 5.59375 -7.6875 C 5.707031 -7.6875 5.804688 -7.644531 5.890625 -7.5625 C 5.972656 -7.488281 6.015625 -7.390625 6.015625 -7.265625 L 6.015625 -6.484375 C 6.015625 -5.742188 6.203125 -5.148438 6.578125 -4.703125 C 6.960938 -4.253906 7.441406 -4.03125 8.015625 -4.03125 C 8.585938 -4.03125 9.0625 -4.242188 9.4375 -4.671875 C 9.820312 -5.097656 10.015625 -5.65625 10.015625 -6.34375 C 10.015625 -7.050781 9.773438 -7.660156 9.296875 -8.171875 C 8.816406 -8.679688 7.890625 -9.4375 6.515625 -10.4375 C 5.328125 -11.289062 4.363281 -12.050781 3.625 -12.71875 C 2.894531 -13.382812 2.269531 -14.203125 1.75 -15.171875 C 1.226562 -16.148438 0.96875 -17.28125 0.96875 -18.5625 C 0.96875 -20.582031 1.59375 -22.195312 2.84375 -23.40625 C 4.101562 -24.613281 5.769531 -25.21875 7.84375 -25.21875 C 9.925781 -25.21875 11.601562 -24.585938 12.875 -23.328125 C 14.144531 -22.078125 14.78125 -20.425781 14.78125 -18.375 L 14.78125 -17.53125 C 14.78125 -17.40625 14.738281 -17.300781 14.65625 -17.21875 C 14.570312 -17.132812 14.472656 -17.09375 14.359375 -17.09375 L 10.265625 -17.09375 C 10.140625 -17.09375 10.035156 -17.132812 9.953125 -17.21875 C 9.867188 -17.300781 9.828125 -17.40625 9.828125 -17.53125 L 9.828125 -18.484375 C 9.828125 -19.222656 9.644531 -19.8125 9.28125 -20.25 C 8.914062 -20.6875 8.4375 -20.90625 7.84375 -20.90625 C 7.269531 -20.90625 6.800781 -20.695312 6.4375 -20.28125 C 6.082031 -19.875 5.90625 -19.300781 5.90625 -18.5625 C 5.90625 -17.84375 6.128906 -17.210938 6.578125 -16.671875 C 7.035156 -16.128906 7.929688 -15.367188 9.265625 -14.390625 C 10.734375 -13.296875 11.84375 -12.410156 12.59375 -11.734375 C 13.34375 -11.054688 13.925781 -10.304688 14.34375 -9.484375 C 14.757812 -8.671875 14.96875 -7.695312 14.96875 -6.5625 C 14.96875 -4.46875 14.320312 -2.800781 13.03125 -1.5625 C 11.75 -0.332031 10.066406 0.28125 7.984375 0.28125 Z M 7.984375 0.28125 "/></g></g></g><g fill="#45433f" fill-opacity="1"><g transform="translate(57.568117, 245.119261)"><g><path d="M 15.390625 -24.9375 C 15.503906 -24.9375 15.601562 -24.894531 15.6875 -24.8125 C 15.769531 -24.726562 15.8125 -24.628906 15.8125 -24.515625 L 15.8125 -21.046875 C 15.8125 -20.929688 15.769531 -20.832031 15.6875 -20.75 C 15.601562 -20.664062 15.503906 -20.625 15.390625 -20.625 L 10.9375 -20.625 C 10.820312 -20.625 10.765625 -20.566406 10.765625 -20.453125 L 10.765625 -0.421875 C 10.765625 -0.304688 10.722656 -0.207031 10.640625 -0.125 C 10.554688 -0.0390625 10.453125 0 10.328125 0 L 6.15625 0 C 6.039062 0 5.941406 -0.0390625 5.859375 -0.125 C 5.773438 -0.207031 5.734375 -0.304688 5.734375 -0.421875 L 5.734375 -20.453125 C 5.734375 -20.566406 5.675781 -20.625 5.5625 -20.625 L 1.28125 -20.625 C 1.164062 -20.625 1.066406 -20.664062 0.984375 -20.75 C 0.898438 -20.832031 0.859375 -20.929688 0.859375 -21.046875 L 0.859375 -24.515625 C 0.859375 -24.628906 0.898438 -24.726562 0.984375 -24.8125 C 1.066406 -24.894531 1.164062 -24.9375 1.28125 -24.9375 Z M 15.390625 -24.9375 "/></g></g></g><g fill="#45433f" fill-opacity="1"><g transform="translate(74.235143, 245.119261)"><g><path d="M 12.046875 0 C 11.753906 0 11.597656 -0.128906 11.578125 -0.390625 L 11.015625 -3.8125 C 11.015625 -3.925781 10.941406 -3.984375 10.796875 -3.984375 L 6.265625 -3.984375 C 6.128906 -3.984375 6.0625 -3.925781 6.0625 -3.8125 L 5.484375 -0.390625 C 5.460938 -0.128906 5.304688 0 5.015625 0 L 0.859375 0 C 0.546875 0 0.425781 -0.15625 0.5 -0.46875 L 5.734375 -24.546875 C 5.785156 -24.804688 5.941406 -24.9375 6.203125 -24.9375 L 11.015625 -24.9375 C 11.273438 -24.9375 11.425781 -24.804688 11.46875 -24.546875 L 16.671875 -0.46875 L 16.703125 -0.328125 C 16.703125 -0.109375 16.570312 0 16.3125 0 Z M 6.765625 -8.046875 C 6.765625 -7.929688 6.8125 -7.875 6.90625 -7.875 L 10.125 -7.875 C 10.238281 -7.875 10.285156 -7.929688 10.265625 -8.046875 L 8.578125 -17.78125 C 8.554688 -17.851562 8.519531 -17.890625 8.46875 -17.890625 C 8.425781 -17.890625 8.394531 -17.851562 8.375 -17.78125 Z M 6.765625 -8.046875 "/></g></g></g><g fill="#45433f" fill-opacity="1"><g transform="translate(91.400753, 245.119261)"><g><path d="M 15.390625 -24.9375 C 15.503906 -24.9375 15.601562 -24.894531 15.6875 -24.8125 C 15.769531 -24.726562 15.8125 -24.628906 15.8125 -24.515625 L 15.8125 -21.046875 C 15.8125 -20.929688 15.769531 -20.832031 15.6875 -20.75 C 15.601562 -20.664062 15.503906 -20.625 15.390625 -20.625 L 10.9375 -20.625 C 10.820312 -20.625 10.765625 -20.566406 10.765625 -20.453125 L 10.765625 -0.421875 C 10.765625 -0.304688 10.722656 -0.207031 10.640625 -0.125 C 10.554688 -0.0390625 10.453125 0 10.328125 0 L 6.15625 0 C 6.039062 0 5.941406 -0.0390625 5.859375 -0.125 C 5.773438 -0.207031 5.734375 -0.304688 5.734375 -0.421875 L 5.734375 -20.453125 C 5.734375 -20.566406 5.675781 -20.625 5.5625 -20.625 L 1.28125 -20.625 C 1.164062 -20.625 1.066406 -20.664062 0.984375 -20.75 C 0.898438 -20.832031 0.859375 -20.929688 0.859375 -21.046875 L 0.859375 -24.515625 C 0.859375 -24.628906 0.898438 -24.726562 0.984375 -24.8125 C 1.066406 -24.894531 1.164062 -24.9375 1.28125 -24.9375 Z M 15.390625 -24.9375 "/></g></g></g><g fill="#45433f" fill-opacity="1"><g transform="translate(108.067778, 245.119261)"><g><path d="M 2 0 C 1.875 0 1.769531 -0.0390625 1.6875 -0.125 C 1.601562 -0.207031 1.5625 -0.304688 1.5625 -0.421875 L 1.5625 -24.515625 C 1.5625 -24.628906 1.601562 -24.726562 1.6875 -24.8125 C 1.769531 -24.894531 1.875 -24.9375 2 -24.9375 L 6.15625 -24.9375 C 6.28125 -24.9375 6.382812 -24.894531 6.46875 -24.8125 C 6.550781 -24.726562 6.59375 -24.628906 6.59375 -24.515625 L 6.59375 -0.421875 C 6.59375 -0.304688 6.550781 -0.207031 6.46875 -0.125 C 6.382812 -0.0390625 6.28125 0 6.15625 0 Z M 2.140625 -27.140625 C 1.972656 -27.140625 1.851562 -27.1875 1.78125 -27.28125 C 1.707031 -27.382812 1.71875 -27.503906 1.8125 -27.640625 L 3.921875 -31.28125 C 4.015625 -31.46875 4.191406 -31.5625 4.453125 -31.5625 L 7.765625 -31.5625 C 8.003906 -31.5625 8.125 -31.476562 8.125 -31.3125 C 8.125 -31.238281 8.085938 -31.144531 8.015625 -31.03125 L 5.265625 -27.390625 C 5.128906 -27.222656 4.960938 -27.140625 4.765625 -27.140625 Z M 2.140625 -27.140625 "/></g></g></g><g fill="#45433f" fill-opacity="1"><g transform="translate(116.258841, 245.119261)"><g><path d="M 7.984375 0.28125 C 6.597656 0.28125 5.382812 0.0078125 4.34375 -0.53125 C 3.300781 -1.082031 2.492188 -1.847656 1.921875 -2.828125 C 1.347656 -3.816406 1.0625 -4.953125 1.0625 -6.234375 L 1.0625 -7.265625 C 1.0625 -7.390625 1.101562 -7.488281 1.1875 -7.5625 C 1.269531 -7.644531 1.375 -7.6875 1.5 -7.6875 L 5.59375 -7.6875 C 5.707031 -7.6875 5.804688 -7.644531 5.890625 -7.5625 C 5.972656 -7.488281 6.015625 -7.390625 6.015625 -7.265625 L 6.015625 -6.484375 C 6.015625 -5.742188 6.203125 -5.148438 6.578125 -4.703125 C 6.960938 -4.253906 7.441406 -4.03125 8.015625 -4.03125 C 8.585938 -4.03125 9.0625 -4.242188 9.4375 -4.671875 C 9.820312 -5.097656 10.015625 -5.65625 10.015625 -6.34375 C 10.015625 -7.050781 9.773438 -7.660156 9.296875 -8.171875 C 8.816406 -8.679688 7.890625 -9.4375 6.515625 -10.4375 C 5.328125 -11.289062 4.363281 -12.050781 3.625 -12.71875 C 2.894531 -13.382812 2.269531 -14.203125 1.75 -15.171875 C 1.226562 -16.148438 0.96875 -17.28125 0.96875 -18.5625 C 0.96875 -20.582031 1.59375 -22.195312 2.84375 -23.40625 C 4.101562 -24.613281 5.769531 -25.21875 7.84375 -25.21875 C 9.925781 -25.21875 11.601562 -24.585938 12.875 -23.328125 C 14.144531 -22.078125 14.78125 -20.425781 14.78125 -18.375 L 14.78125 -17.53125 C 14.78125 -17.40625 14.738281 -17.300781 14.65625 -17.21875 C 14.570312 -17.132812 14.472656 -17.09375 14.359375 -17.09375 L 10.265625 -17.09375 C 10.140625 -17.09375 10.035156 -17.132812 9.953125 -17.21875 C 9.867188 -17.300781 9.828125 -17.40625 9.828125 -17.53125 L 9.828125 -18.484375 C 9.828125 -19.222656 9.644531 -19.8125 9.28125 -20.25 C 8.914062 -20.6875 8.4375 -20.90625 7.84375 -20.90625 C 7.269531 -20.90625 6.800781 -20.695312 6.4375 -20.28125 C 6.082031 -19.875 5.90625 -19.300781 5.90625 -18.5625 C 5.90625 -17.84375 6.128906 -17.210938 6.578125 -16.671875 C 7.035156 -16.128906 7.929688 -15.367188 9.265625 -14.390625 C 10.734375 -13.296875 11.84375 -12.410156 12.59375 -11.734375 C 13.34375 -11.054688 13.925781 -10.304688 14.34375 -9.484375 C 14.757812 -8.671875 14.96875 -7.695312 14.96875 -6.5625 C 14.96875 -4.46875 14.320312 -2.800781 13.03125 -1.5625 C 11.75 -0.332031 10.066406 0.28125 7.984375 0.28125 Z M 7.984375 0.28125 "/></g></g></g><g fill="#45433f" fill-opacity="1"><g transform="translate(132.071141, 245.119261)"><g><path d="M 15.390625 -24.9375 C 15.503906 -24.9375 15.601562 -24.894531 15.6875 -24.8125 C 15.769531 -24.726562 15.8125 -24.628906 15.8125 -24.515625 L 15.8125 -21.046875 C 15.8125 -20.929688 15.769531 -20.832031 15.6875 -20.75 C 15.601562 -20.664062 15.503906 -20.625 15.390625 -20.625 L 10.9375 -20.625 C 10.820312 -20.625 10.765625 -20.566406 10.765625 -20.453125 L 10.765625 -0.421875 C 10.765625 -0.304688 10.722656 -0.207031 10.640625 -0.125 C 10.554688 -0.0390625 10.453125 0 10.328125 0 L 6.15625 0 C 6.039062 0 5.941406 -0.0390625 5.859375 -0.125 C 5.773438 -0.207031 5.734375 -0.304688 5.734375 -0.421875 L 5.734375 -20.453125 C 5.734375 -20.566406 5.675781 -20.625 5.5625 -20.625 L 1.28125 -20.625 C 1.164062 -20.625 1.066406 -20.664062 0.984375 -20.75 C 0.898438 -20.832031 0.859375 -20.929688 0.859375 -21.046875 L 0.859375 -24.515625 C 0.859375 -24.628906 0.898438 -24.726562 0.984375 -24.8125 C 1.066406 -24.894531 1.164062 -24.9375 1.28125 -24.9375 Z M 15.390625 -24.9375 "/></g></g></g><g fill="#45433f" fill-opacity="1"><g transform="translate(148.738167, 245.119261)"><g><path d="M 2 0 C 1.875 0 1.769531 -0.0390625 1.6875 -0.125 C 1.601562 -0.207031 1.5625 -0.304688 1.5625 -0.421875 L 1.5625 -24.515625 C 1.5625 -24.628906 1.601562 -24.726562 1.6875 -24.8125 C 1.769531 -24.894531 1.875 -24.9375 2 -24.9375 L 6.15625 -24.9375 C 6.28125 -24.9375 6.382812 -24.894531 6.46875 -24.8125 C 6.550781 -24.726562 6.59375 -24.628906 6.59375 -24.515625 L 6.59375 -0.421875 C 6.59375 -0.304688 6.550781 -0.207031 6.46875 -0.125 C 6.382812 -0.0390625 6.28125 0 6.15625 0 Z M 2 0 "/></g></g></g><g fill="#45433f" fill-opacity="1"><g transform="translate(156.929229, 245.119261)"><g><path d="M 8.296875 0.28125 C 6.160156 0.28125 4.445312 -0.351562 3.15625 -1.625 C 1.863281 -2.894531 1.21875 -4.597656 1.21875 -6.734375 L 1.21875 -18.28125 C 1.21875 -20.394531 1.863281 -22.078125 3.15625 -23.328125 C 4.445312 -24.585938 6.160156 -25.21875 8.296875 -25.21875 C 10.460938 -25.21875 12.191406 -24.585938 13.484375 -23.328125 C 14.773438 -22.078125 15.421875 -20.394531 15.421875 -18.28125 L 15.421875 -17.890625 C 15.421875 -17.765625 15.378906 -17.660156 15.296875 -17.578125 C 15.210938 -17.492188 15.113281 -17.453125 15 -17.453125 L 10.828125 -17.28125 C 10.546875 -17.28125 10.40625 -17.410156 10.40625 -17.671875 L 10.40625 -18.59375 C 10.40625 -19.28125 10.210938 -19.835938 9.828125 -20.265625 C 9.453125 -20.691406 8.941406 -20.90625 8.296875 -20.90625 C 7.679688 -20.90625 7.179688 -20.691406 6.796875 -20.265625 C 6.421875 -19.835938 6.234375 -19.28125 6.234375 -18.59375 L 6.234375 -6.3125 C 6.234375 -5.613281 6.421875 -5.054688 6.796875 -4.640625 C 7.179688 -4.234375 7.679688 -4.03125 8.296875 -4.03125 C 8.941406 -4.03125 9.453125 -4.234375 9.828125 -4.640625 C 10.210938 -5.054688 10.40625 -5.613281 10.40625 -6.3125 L 10.40625 -7.265625 C 10.40625 -7.390625 10.445312 -7.488281 10.53125 -7.5625 C 10.613281 -7.644531 10.710938 -7.6875 10.828125 -7.6875 L 15 -7.515625 C 15.113281 -7.515625 15.210938 -7.472656 15.296875 -7.390625 C 15.378906 -7.304688 15.421875 -7.207031 15.421875 -7.09375 L 15.421875 -6.734375 C 15.421875 -4.597656 14.765625 -2.894531 13.453125 -1.625 C 12.148438 -0.351562 10.429688 0.28125 8.296875 0.28125 Z M 8.296875 0.28125 "/></g></g></g><g fill="#45433f" fill-opacity="1"><g transform="translate(173.453799, 245.119261)"><g><path d="M 12.046875 0 C 11.753906 0 11.597656 -0.128906 11.578125 -0.390625 L 11.015625 -3.8125 C 11.015625 -3.925781 10.941406 -3.984375 10.796875 -3.984375 L 6.265625 -3.984375 C 6.128906 -3.984375 6.0625 -3.925781 6.0625 -3.8125 L 5.484375 -0.390625 C 5.460938 -0.128906 5.304688 0 5.015625 0 L 0.859375 0 C 0.546875 0 0.425781 -0.15625 0.5 -0.46875 L 5.734375 -24.546875 C 5.785156 -24.804688 5.941406 -24.9375 6.203125 -24.9375 L 11.015625 -24.9375 C 11.273438 -24.9375 11.425781 -24.804688 11.46875 -24.546875 L 16.671875 -0.46875 L 16.703125 -0.328125 C 16.703125 -0.109375 16.570312 0 16.3125 0 Z M 6.765625 -8.046875 C 6.765625 -7.929688 6.8125 -7.875 6.90625 -7.875 L 10.125 -7.875 C 10.238281 -7.875 10.285156 -7.929688 10.265625 -8.046875 L 8.578125 -17.78125 C 8.554688 -17.851562 8.519531 -17.890625 8.46875 -17.890625 C 8.425781 -17.890625 8.394531 -17.851562 8.375 -17.78125 Z M 6.765625 -8.046875 "/></g></g></g><g fill="#45433f" fill-opacity="1"><g transform="translate(190.619409, 245.119261)"><g><path d="M 7.984375 0.28125 C 6.597656 0.28125 5.382812 0.0078125 4.34375 -0.53125 C 3.300781 -1.082031 2.492188 -1.847656 1.921875 -2.828125 C 1.347656 -3.816406 1.0625 -4.953125 1.0625 -6.234375 L 1.0625 -7.265625 C 1.0625 -7.390625 1.101562 -7.488281 1.1875 -7.5625 C 1.269531 -7.644531 1.375 -7.6875 1.5 -7.6875 L 5.59375 -7.6875 C 5.707031 -7.6875 5.804688 -7.644531 5.890625 -7.5625 C 5.972656 -7.488281 6.015625 -7.390625 6.015625 -7.265625 L 6.015625 -6.484375 C 6.015625 -5.742188 6.203125 -5.148438 6.578125 -4.703125 C 6.960938 -4.253906 7.441406 -4.03125 8.015625 -4.03125 C 8.585938 -4.03125 9.0625 -4.242188 9.4375 -4.671875 C 9.820312 -5.097656 10.015625 -5.65625 10.015625 -6.34375 C 10.015625 -7.050781 9.773438 -7.660156 9.296875 -8.171875 C 8.816406 -8.679688 7.890625 -9.4375 6.515625 -10.4375 C 5.328125 -11.289062 4.363281 -12.050781 3.625 -12.71875 C 2.894531 -13.382812 2.269531 -14.203125 1.75 -15.171875 C 1.226562 -16.148438 0.96875 -17.28125 0.96875 -18.5625 C 0.96875 -20.582031 1.59375 -22.195312 2.84375 -23.40625 C 4.101562 -24.613281 5.769531 -25.21875 7.84375 -25.21875 C 9.925781 -25.21875 11.601562 -24.585938 12.875 -23.328125 C 14.144531 -22.078125 14.78125 -20.425781 14.78125 -18.375 L 14.78125 -17.53125 C 14.78125 -17.40625 14.738281 -17.300781 14.65625 -17.21875 C 14.570312 -17.132812 14.472656 -17.09375 14.359375 -17.09375 L 10.265625 -17.09375 C 10.140625 -17.09375 10.035156 -17.132812 9.953125 -17.21875 C 9.867188 -17.300781 9.828125 -17.40625 9.828125 -17.53125 L 9.828125 -18.484375 C 9.828125 -19.222656 9.644531 -19.8125 9.28125 -20.25 C 8.914062 -20.6875 8.4375 -20.90625 7.84375 -20.90625 C 7.269531 -20.90625 6.800781 -20.695312 6.4375 -20.28125 C 6.082031 -19.875 5.90625 -19.300781 5.90625 -18.5625 C 5.90625 -17.84375 6.128906 -17.210938 6.578125 -16.671875 C 7.035156 -16.128906 7.929688 -15.367188 9.265625 -14.390625 C 10.734375 -13.296875 11.84375 -12.410156 12.59375 -11.734375 C 13.34375 -11.054688 13.925781 -10.304688 14.34375 -9.484375 C 14.757812 -8.671875 14.96875 -7.695312 14.96875 -6.5625 C 14.96875 -4.46875 14.320312 -2.800781 13.03125 -1.5625 C 11.75 -0.332031 10.066406 0.28125 7.984375 0.28125 Z M 7.984375 0.28125 "/></g></g></g><g fill="#45433f" fill-opacity="1"><g transform="translate(26.157189, 294.619257)"><g><path d="M 7.984375 0.28125 C 6.597656 0.28125 5.382812 0.0078125 4.34375 -0.53125 C 3.300781 -1.082031 2.492188 -1.847656 1.921875 -2.828125 C 1.347656 -3.816406 1.0625 -4.953125 1.0625 -6.234375 L 1.0625 -7.265625 C 1.0625 -7.390625 1.101562 -7.488281 1.1875 -7.5625 C 1.269531 -7.644531 1.375 -7.6875 1.5 -7.6875 L 5.59375 -7.6875 C 5.707031 -7.6875 5.804688 -7.644531 5.890625 -7.5625 C 5.972656 -7.488281 6.015625 -7.390625 6.015625 -7.265625 L 6.015625 -6.484375 C 6.015625 -5.742188 6.203125 -5.148438 6.578125 -4.703125 C 6.960938 -4.253906 7.441406 -4.03125 8.015625 -4.03125 C 8.585938 -4.03125 9.0625 -4.242188 9.4375 -4.671875 C 9.820312 -5.097656 10.015625 -5.65625 10.015625 -6.34375 C 10.015625 -7.050781 9.773438 -7.660156 9.296875 -8.171875 C 8.816406 -8.679688 7.890625 -9.4375 6.515625 -10.4375 C 5.328125 -11.289062 4.363281 -12.050781 3.625 -12.71875 C 2.894531 -13.382812 2.269531 -14.203125 1.75 -15.171875 C 1.226562 -16.148438 0.96875 -17.28125 0.96875 -18.5625 C 0.96875 -20.582031 1.59375 -22.195312 2.84375 -23.40625 C 4.101562 -24.613281 5.769531 -25.21875 7.84375 -25.21875 C 9.925781 -25.21875 11.601562 -24.585938 12.875 -23.328125 C 14.144531 -22.078125 14.78125 -20.425781 14.78125 -18.375 L 14.78125 -17.53125 C 14.78125 -17.40625 14.738281 -17.300781 14.65625 -17.21875 C 14.570312 -17.132812 14.472656 -17.09375 14.359375 -17.09375 L 10.265625 -17.09375 C 10.140625 -17.09375 10.035156 -17.132812 9.953125 -17.21875 C 9.867188 -17.300781 9.828125 -17.40625 9.828125 -17.53125 L 9.828125 -18.484375 C 9.828125 -19.222656 9.644531 -19.8125 9.28125 -20.25 C 8.914062 -20.6875 8.4375 -20.90625 7.84375 -20.90625 C 7.269531 -20.90625 6.800781 -20.695312 6.4375 -20.28125 C 6.082031 -19.875 5.90625 -19.300781 5.90625 -18.5625 C 5.90625 -17.84375 6.128906 -17.210938 6.578125 -16.671875 C 7.035156 -16.128906 7.929688 -15.367188 9.265625 -14.390625 C 10.734375 -13.296875 11.84375 -12.410156 12.59375 -11.734375 C 13.34375 -11.054688 13.925781 -10.304688 14.34375 -9.484375 C 14.757812 -8.671875 14.96875 -7.695312 14.96875 -6.5625 C 14.96875 -4.46875 14.320312 -2.800781 13.03125 -1.5625 C 11.75 -0.332031 10.066406 0.28125 7.984375 0.28125 Z M 7.984375 0.28125 "/></g></g></g><g fill="#45433f" fill-opacity="1"><g transform="translate(41.969489, 294.619257)"><g><path d="M 14.640625 -21.046875 C 14.640625 -20.929688 14.597656 -20.832031 14.515625 -20.75 C 14.429688 -20.664062 14.332031 -20.625 14.21875 -20.625 L 6.765625 -20.625 C 6.648438 -20.625 6.59375 -20.566406 6.59375 -20.453125 L 6.59375 -14.8125 C 6.59375 -14.695312 6.648438 -14.640625 6.765625 -14.640625 L 11.046875 -14.640625 C 11.160156 -14.640625 11.257812 -14.597656 11.34375 -14.515625 C 11.425781 -14.429688 11.46875 -14.332031 11.46875 -14.21875 L 11.46875 -10.765625 C 11.46875 -10.640625 11.425781 -10.535156 11.34375 -10.453125 C 11.257812 -10.367188 11.160156 -10.328125 11.046875 -10.328125 L 6.765625 -10.328125 C 6.648438 -10.328125 6.59375 -10.269531 6.59375 -10.15625 L 6.59375 -4.484375 C 6.59375 -4.367188 6.648438 -4.3125 6.765625 -4.3125 L 14.21875 -4.3125 C 14.332031 -4.3125 14.429688 -4.269531 14.515625 -4.1875 C 14.597656 -4.101562 14.640625 -4.003906 14.640625 -3.890625 L 14.640625 -0.421875 C 14.640625 -0.304688 14.597656 -0.207031 14.515625 -0.125 C 14.429688 -0.0390625 14.332031 0 14.21875 0 L 2 0 C 1.875 0 1.769531 -0.0390625 1.6875 -0.125 C 1.601562 -0.207031 1.5625 -0.304688 1.5625 -0.421875 L 1.5625 -24.515625 C 1.5625 -24.628906 1.601562 -24.726562 1.6875 -24.8125 C 1.769531 -24.894531 1.875 -24.9375 2 -24.9375 L 14.21875 -24.9375 C 14.332031 -24.9375 14.429688 -24.894531 14.515625 -24.8125 C 14.597656 -24.726562 14.640625 -24.628906 14.640625 -24.515625 Z M 14.640625 -21.046875 "/></g></g></g><g fill="#45433f" fill-opacity="1"><g transform="translate(57.568117, 294.619257)"><g><path d="M 12.96875 -24.65625 C 13.0625 -24.84375 13.238281 -24.9375 13.5 -24.9375 L 17.640625 -24.9375 C 17.753906 -24.9375 17.851562 -24.894531 17.9375 -24.8125 C 18.019531 -24.726562 18.0625 -24.628906 18.0625 -24.515625 L 18.0625 -0.421875 C 18.0625 -0.304688 18.019531 -0.207031 17.9375 -0.125 C 17.851562 -0.0390625 17.753906 0 17.640625 0 L 13.46875 0 C 13.34375 0 13.238281 -0.0390625 13.15625 -0.125 C 13.070312 -0.207031 13.03125 -0.304688 13.03125 -0.421875 L 13.03125 -16.421875 C 13.03125 -16.515625 13.003906 -16.5625 12.953125 -16.5625 C 12.910156 -16.5625 12.867188 -16.523438 12.828125 -16.453125 L 10.046875 -11.546875 C 9.929688 -11.347656 9.835938 -11.25 9.765625 -11.25 C 9.691406 -11.25 9.59375 -11.347656 9.46875 -11.546875 L 6.703125 -16.453125 C 6.648438 -16.523438 6.597656 -16.5625 6.546875 -16.5625 C 6.503906 -16.5625 6.484375 -16.515625 6.484375 -16.421875 L 6.484375 -0.421875 C 6.484375 -0.304688 6.441406 -0.207031 6.359375 -0.125 C 6.273438 -0.0390625 6.175781 0 6.0625 0 L 1.890625 0 C 1.765625 0 1.660156 -0.0390625 1.578125 -0.125 C 1.492188 -0.207031 1.453125 -0.304688 1.453125 -0.421875 L 1.453125 -24.515625 C 1.453125 -24.628906 1.492188 -24.726562 1.578125 -24.8125 C 1.660156 -24.894531 1.765625 -24.9375 1.890625 -24.9375 L 5.984375 -24.9375 C 6.222656 -24.9375 6.398438 -24.84375 6.515625 -24.65625 L 9.6875 -18.984375 C 9.757812 -18.890625 9.832031 -18.890625 9.90625 -18.984375 Z M 12.96875 -24.65625 "/></g></g></g><g fill="#45433f" fill-opacity="1"><g transform="translate(77.084206, 294.619257)"><g><path d="M 2 0 C 1.875 0 1.769531 -0.0390625 1.6875 -0.125 C 1.601562 -0.207031 1.5625 -0.304688 1.5625 -0.421875 L 1.5625 -24.515625 C 1.5625 -24.628906 1.601562 -24.726562 1.6875 -24.8125 C 1.769531 -24.894531 1.875 -24.9375 2 -24.9375 L 6.15625 -24.9375 C 6.28125 -24.9375 6.382812 -24.894531 6.46875 -24.8125 C 6.550781 -24.726562 6.59375 -24.628906 6.59375 -24.515625 L 6.59375 -0.421875 C 6.59375 -0.304688 6.550781 -0.207031 6.46875 -0.125 C 6.382812 -0.0390625 6.28125 0 6.15625 0 Z M 2 0 "/></g></g></g><g fill="#45433f" fill-opacity="1"><g transform="translate(85.275269, 294.619257)"><g><path d="M 11.75 -24.515625 C 11.75 -24.628906 11.789062 -24.726562 11.875 -24.8125 C 11.957031 -24.894531 12.0625 -24.9375 12.1875 -24.9375 L 16.3125 -24.9375 C 16.4375 -24.9375 16.539062 -24.894531 16.625 -24.8125 C 16.707031 -24.726562 16.75 -24.628906 16.75 -24.515625 L 16.75 -0.421875 C 16.75 -0.304688 16.707031 -0.207031 16.625 -0.125 C 16.539062 -0.0390625 16.4375 0 16.3125 0 L 11.609375 0 C 11.367188 0 11.21875 -0.117188 11.15625 -0.359375 L 6.734375 -14.140625 C 6.710938 -14.210938 6.671875 -14.242188 6.609375 -14.234375 C 6.546875 -14.222656 6.515625 -14.179688 6.515625 -14.109375 L 6.5625 -0.421875 C 6.5625 -0.304688 6.519531 -0.207031 6.4375 -0.125 C 6.351562 -0.0390625 6.25 0 6.125 0 L 2 0 C 1.875 0 1.769531 -0.0390625 1.6875 -0.125 C 1.601562 -0.207031 1.5625 -0.304688 1.5625 -0.421875 L 1.5625 -24.515625 C 1.5625 -24.628906 1.601562 -24.726562 1.6875 -24.8125 C 1.769531 -24.894531 1.875 -24.9375 2 -24.9375 L 6.65625 -24.9375 C 6.894531 -24.9375 7.050781 -24.816406 7.125 -24.578125 L 11.578125 -10.796875 C 11.597656 -10.722656 11.640625 -10.691406 11.703125 -10.703125 C 11.765625 -10.710938 11.796875 -10.753906 11.796875 -10.828125 Z M 11.75 -24.515625 "/></g></g></g><g fill="#45433f" fill-opacity="1"><g transform="translate(103.580504, 294.619257)"><g><path d="M 12.046875 0 C 11.753906 0 11.597656 -0.128906 11.578125 -0.390625 L 11.015625 -3.8125 C 11.015625 -3.925781 10.941406 -3.984375 10.796875 -3.984375 L 6.265625 -3.984375 C 6.128906 -3.984375 6.0625 -3.925781 6.0625 -3.8125 L 5.484375 -0.390625 C 5.460938 -0.128906 5.304688 0 5.015625 0 L 0.859375 0 C 0.546875 0 0.425781 -0.15625 0.5 -0.46875 L 5.734375 -24.546875 C 5.785156 -24.804688 5.941406 -24.9375 6.203125 -24.9375 L 11.015625 -24.9375 C 11.273438 -24.9375 11.425781 -24.804688 11.46875 -24.546875 L 16.671875 -0.46875 L 16.703125 -0.328125 C 16.703125 -0.109375 16.570312 0 16.3125 0 Z M 6.765625 -8.046875 C 6.765625 -7.929688 6.8125 -7.875 6.90625 -7.875 L 10.125 -7.875 C 10.238281 -7.875 10.285156 -7.929688 10.265625 -8.046875 L 8.578125 -17.78125 C 8.554688 -17.851562 8.519531 -17.890625 8.46875 -17.890625 C 8.425781 -17.890625 8.394531 -17.851562 8.375 -17.78125 Z M 6.671875 -27.140625 C 6.503906 -27.140625 6.382812 -27.1875 6.3125 -27.28125 C 6.238281 -27.382812 6.25 -27.503906 6.34375 -27.640625 L 8.453125 -31.28125 C 8.546875 -31.46875 8.722656 -31.5625 8.984375 -31.5625 L 12.296875 -31.5625 C 12.535156 -31.5625 12.65625 -31.476562 12.65625 -31.3125 C 12.65625 -31.238281 12.617188 -31.144531 12.546875 -31.03125 L 9.796875 -27.390625 C 9.660156 -27.222656 9.492188 -27.140625 9.296875 -27.140625 Z M 6.671875 -27.140625 "/></g></g></g><g fill="#45433f" fill-opacity="1"><g transform="translate(120.746114, 294.619257)"><g><path d="M 11.40625 0 C 11.144531 0 10.976562 -0.117188 10.90625 -0.359375 L 8.15625 -10.1875 C 8.113281 -10.28125 8.054688 -10.328125 7.984375 -10.328125 L 6.765625 -10.328125 C 6.648438 -10.328125 6.59375 -10.269531 6.59375 -10.15625 L 6.59375 -0.421875 C 6.59375 -0.304688 6.550781 -0.207031 6.46875 -0.125 C 6.382812 -0.0390625 6.28125 0 6.15625 0 L 2 0 C 1.875 0 1.769531 -0.0390625 1.6875 -0.125 C 1.601562 -0.207031 1.5625 -0.304688 1.5625 -0.421875 L 1.5625 -24.515625 C 1.5625 -24.628906 1.601562 -24.726562 1.6875 -24.8125 C 1.769531 -24.894531 1.875 -24.9375 2 -24.9375 L 9.1875 -24.9375 C 10.5 -24.9375 11.664062 -24.617188 12.6875 -23.984375 C 13.707031 -23.359375 14.492188 -22.472656 15.046875 -21.328125 C 15.609375 -20.191406 15.890625 -18.890625 15.890625 -17.421875 C 15.890625 -16.015625 15.617188 -14.773438 15.078125 -13.703125 C 14.546875 -12.640625 13.804688 -11.8125 12.859375 -11.21875 C 12.816406 -11.195312 12.78125 -11.164062 12.75 -11.125 C 12.726562 -11.09375 12.726562 -11.054688 12.75 -11.015625 L 16.03125 -0.5 L 16.0625 -0.359375 C 16.0625 -0.117188 15.929688 0 15.671875 0 Z M 6.765625 -20.625 C 6.648438 -20.625 6.59375 -20.566406 6.59375 -20.453125 L 6.59375 -14.359375 C 6.59375 -14.234375 6.648438 -14.171875 6.765625 -14.171875 L 8.375 -14.171875 C 9.101562 -14.171875 9.695312 -14.460938 10.15625 -15.046875 C 10.625 -15.628906 10.859375 -16.410156 10.859375 -17.390625 C 10.859375 -18.378906 10.625 -19.164062 10.15625 -19.75 C 9.695312 -20.332031 9.101562 -20.625 8.375 -20.625 Z M 6.765625 -20.625 "/></g></g></g><g fill="#45433f" fill-opacity="1"><g transform="translate(137.519982, 294.619257)"><g><path d="M 2 0 C 1.875 0 1.769531 -0.0390625 1.6875 -0.125 C 1.601562 -0.207031 1.5625 -0.304688 1.5625 -0.421875 L 1.5625 -24.515625 C 1.5625 -24.628906 1.601562 -24.726562 1.6875 -24.8125 C 1.769531 -24.894531 1.875 -24.9375 2 -24.9375 L 6.15625 -24.9375 C 6.28125 -24.9375 6.382812 -24.894531 6.46875 -24.8125 C 6.550781 -24.726562 6.59375 -24.628906 6.59375 -24.515625 L 6.59375 -0.421875 C 6.59375 -0.304688 6.550781 -0.207031 6.46875 -0.125 C 6.382812 -0.0390625 6.28125 0 6.15625 0 Z M 2 0 "/></g></g></g><g fill="#45433f" fill-opacity="1"><g transform="translate(145.711044, 294.619257)"><g><path d="M 8.40625 0.28125 C 6.21875 0.28125 4.472656 -0.359375 3.171875 -1.640625 C 1.867188 -2.921875 1.21875 -4.628906 1.21875 -6.765625 L 1.21875 -18.171875 C 1.21875 -20.304688 1.867188 -22.015625 3.171875 -23.296875 C 4.472656 -24.578125 6.21875 -25.21875 8.40625 -25.21875 C 10.59375 -25.21875 12.34375 -24.578125 13.65625 -23.296875 C 14.976562 -22.015625 15.640625 -20.304688 15.640625 -18.171875 L 15.640625 -6.765625 C 15.640625 -4.628906 14.976562 -2.921875 13.65625 -1.640625 C 12.34375 -0.359375 10.59375 0.28125 8.40625 0.28125 Z M 8.40625 -4.03125 C 9.070312 -4.03125 9.601562 -4.257812 10 -4.71875 C 10.40625 -5.1875 10.609375 -5.800781 10.609375 -6.5625 L 10.609375 -18.375 C 10.609375 -19.132812 10.40625 -19.742188 10 -20.203125 C 9.601562 -20.671875 9.070312 -20.90625 8.40625 -20.90625 C 7.738281 -20.90625 7.207031 -20.671875 6.8125 -20.203125 C 6.425781 -19.742188 6.234375 -19.132812 6.234375 -18.375 L 6.234375 -6.5625 C 6.234375 -5.800781 6.425781 -5.1875 6.8125 -4.71875 C 7.207031 -4.257812 7.738281 -4.03125 8.40625 -4.03125 Z M 8.40625 -4.03125 "/></g></g></g><g fill="#45433f" fill-opacity="1"><g transform="translate(162.556129, 294.619257)"><g><path d="M 7.984375 0.28125 C 6.597656 0.28125 5.382812 0.0078125 4.34375 -0.53125 C 3.300781 -1.082031 2.492188 -1.847656 1.921875 -2.828125 C 1.347656 -3.816406 1.0625 -4.953125 1.0625 -6.234375 L 1.0625 -7.265625 C 1.0625 -7.390625 1.101562 -7.488281 1.1875 -7.5625 C 1.269531 -7.644531 1.375 -7.6875 1.5 -7.6875 L 5.59375 -7.6875 C 5.707031 -7.6875 5.804688 -7.644531 5.890625 -7.5625 C 5.972656 -7.488281 6.015625 -7.390625 6.015625 -7.265625 L 6.015625 -6.484375 C 6.015625 -5.742188 6.203125 -5.148438 6.578125 -4.703125 C 6.960938 -4.253906 7.441406 -4.03125 8.015625 -4.03125 C 8.585938 -4.03125 9.0625 -4.242188 9.4375 -4.671875 C 9.820312 -5.097656 10.015625 -5.65625 10.015625 -6.34375 C 10.015625 -7.050781 9.773438 -7.660156 9.296875 -8.171875 C 8.816406 -8.679688 7.890625 -9.4375 6.515625 -10.4375 C 5.328125 -11.289062 4.363281 -12.050781 3.625 -12.71875 C 2.894531 -13.382812 2.269531 -14.203125 1.75 -15.171875 C 1.226562 -16.148438 0.96875 -17.28125 0.96875 -18.5625 C 0.96875 -20.582031 1.59375 -22.195312 2.84375 -23.40625 C 4.101562 -24.613281 5.769531 -25.21875 7.84375 -25.21875 C 9.925781 -25.21875 11.601562 -24.585938 12.875 -23.328125 C 14.144531 -22.078125 14.78125 -20.425781 14.78125 -18.375 L 14.78125 -17.53125 C 14.78125 -17.40625 14.738281 -17.300781 14.65625 -17.21875 C 14.570312 -17.132812 14.472656 -17.09375 14.359375 -17.09375 L 10.265625 -17.09375 C 10.140625 -17.09375 10.035156 -17.132812 9.953125 -17.21875 C 9.867188 -17.300781 9.828125 -17.40625 9.828125 -17.53125 L 9.828125 -18.484375 C 9.828125 -19.222656 9.644531 -19.8125 9.28125 -20.25 C 8.914062 -20.6875 8.4375 -20.90625 7.84375 -20.90625 C 7.269531 -20.90625 6.800781 -20.695312 6.4375 -20.28125 C 6.082031 -19.875 5.90625 -19.300781 5.90625 -18.5625 C 5.90625 -17.84375 6.128906 -17.210938 6.578125 -16.671875 C 7.035156 -16.128906 7.929688 -15.367188 9.265625 -14.390625 C 10.734375 -13.296875 11.84375 -12.410156 12.59375 -11.734375 C 13.34375 -11.054688 13.925781 -10.304688 14.34375 -9.484375 C 14.757812 -8.671875 14.96875 -7.695312 14.96875 -6.5625 C 14.96875 -4.46875 14.320312 -2.800781 13.03125 -1.5625 C 11.75 -0.332031 10.066406 0.28125 7.984375 0.28125 Z M 7.984375 0.28125 "/></g></g></g><g fill="#45433f" fill-opacity="1"><g transform="translate(26.157189, 344.119254)"><g><path d="M 14.609375 -21.046875 C 14.609375 -20.929688 14.566406 -20.832031 14.484375 -20.75 C 14.398438 -20.664062 14.296875 -20.625 14.171875 -20.625 L 6.765625 -20.625 C 6.648438 -20.625 6.59375 -20.566406 6.59375 -20.453125 L 6.59375 -14.8125 C 6.59375 -14.695312 6.648438 -14.640625 6.765625 -14.640625 L 11.015625 -14.640625 C 11.128906 -14.640625 11.226562 -14.597656 11.3125 -14.515625 C 11.394531 -14.429688 11.4375 -14.332031 11.4375 -14.21875 L 11.4375 -10.765625 C 11.4375 -10.640625 11.394531 -10.535156 11.3125 -10.453125 C 11.226562 -10.367188 11.128906 -10.328125 11.015625 -10.328125 L 6.765625 -10.328125 C 6.648438 -10.328125 6.59375 -10.269531 6.59375 -10.15625 L 6.59375 -0.421875 C 6.59375 -0.304688 6.550781 -0.207031 6.46875 -0.125 C 6.382812 -0.0390625 6.28125 0 6.15625 0 L 2 0 C 1.875 0 1.769531 -0.0390625 1.6875 -0.125 C 1.601562 -0.207031 1.5625 -0.304688 1.5625 -0.421875 L 1.5625 -24.515625 C 1.5625 -24.628906 1.601562 -24.726562 1.6875 -24.8125 C 1.769531 -24.894531 1.875 -24.9375 2 -24.9375 L 14.171875 -24.9375 C 14.296875 -24.9375 14.398438 -24.894531 14.484375 -24.8125 C 14.566406 -24.726562 14.609375 -24.628906 14.609375 -24.515625 Z M 14.609375 -21.046875 "/></g></g></g><g fill="#45433f" fill-opacity="1"><g transform="translate(41.15039, 344.119254)"><g><path d="M 8.40625 0.28125 C 6.21875 0.28125 4.472656 -0.359375 3.171875 -1.640625 C 1.867188 -2.921875 1.21875 -4.628906 1.21875 -6.765625 L 1.21875 -18.171875 C 1.21875 -20.304688 1.867188 -22.015625 3.171875 -23.296875 C 4.472656 -24.578125 6.21875 -25.21875 8.40625 -25.21875 C 10.59375 -25.21875 12.34375 -24.578125 13.65625 -23.296875 C 14.976562 -22.015625 15.640625 -20.304688 15.640625 -18.171875 L 15.640625 -6.765625 C 15.640625 -4.628906 14.976562 -2.921875 13.65625 -1.640625 C 12.34375 -0.359375 10.59375 0.28125 8.40625 0.28125 Z M 8.40625 -4.03125 C 9.070312 -4.03125 9.601562 -4.257812 10 -4.71875 C 10.40625 -5.1875 10.609375 -5.800781 10.609375 -6.5625 L 10.609375 -18.375 C 10.609375 -19.132812 10.40625 -19.742188 10 -20.203125 C 9.601562 -20.671875 9.070312 -20.90625 8.40625 -20.90625 C 7.738281 -20.90625 7.207031 -20.671875 6.8125 -20.203125 C 6.425781 -19.742188 6.234375 -19.132812 6.234375 -18.375 L 6.234375 -6.5625 C 6.234375 -5.800781 6.425781 -5.1875 6.8125 -4.71875 C 7.207031 -4.257812 7.738281 -4.03125 8.40625 -4.03125 Z M 8.40625 -4.03125 "/></g></g></g><g fill="#45433f" fill-opacity="1"><g transform="translate(57.995474, 344.119254)"><g><path d="M 11.40625 0 C 11.144531 0 10.976562 -0.117188 10.90625 -0.359375 L 8.15625 -10.1875 C 8.113281 -10.28125 8.054688 -10.328125 7.984375 -10.328125 L 6.765625 -10.328125 C 6.648438 -10.328125 6.59375 -10.269531 6.59375 -10.15625 L 6.59375 -0.421875 C 6.59375 -0.304688 6.550781 -0.207031 6.46875 -0.125 C 6.382812 -0.0390625 6.28125 0 6.15625 0 L 2 0 C 1.875 0 1.769531 -0.0390625 1.6875 -0.125 C 1.601562 -0.207031 1.5625 -0.304688 1.5625 -0.421875 L 1.5625 -24.515625 C 1.5625 -24.628906 1.601562 -24.726562 1.6875 -24.8125 C 1.769531 -24.894531 1.875 -24.9375 2 -24.9375 L 9.1875 -24.9375 C 10.5 -24.9375 11.664062 -24.617188 12.6875 -23.984375 C 13.707031 -23.359375 14.492188 -22.472656 15.046875 -21.328125 C 15.609375 -20.191406 15.890625 -18.890625 15.890625 -17.421875 C 15.890625 -16.015625 15.617188 -14.773438 15.078125 -13.703125 C 14.546875 -12.640625 13.804688 -11.8125 12.859375 -11.21875 C 12.816406 -11.195312 12.78125 -11.164062 12.75 -11.125 C 12.726562 -11.09375 12.726562 -11.054688 12.75 -11.015625 L 16.03125 -0.5 L 16.0625 -0.359375 C 16.0625 -0.117188 15.929688 0 15.671875 0 Z M 6.765625 -20.625 C 6.648438 -20.625 6.59375 -20.566406 6.59375 -20.453125 L 6.59375 -14.359375 C 6.59375 -14.234375 6.648438 -14.171875 6.765625 -14.171875 L 8.375 -14.171875 C 9.101562 -14.171875 9.695312 -14.460938 10.15625 -15.046875 C 10.625 -15.628906 10.859375 -16.410156 10.859375 -17.390625 C 10.859375 -18.378906 10.625 -19.164062 10.15625 -19.75 C 9.695312 -20.332031 9.101562 -20.625 8.375 -20.625 Z M 6.765625 -20.625 "/></g></g></g><g fill="#45433f" fill-opacity="1"><g transform="translate(74.769341, 344.119254)"><g><path d="M 12.96875 -24.65625 C 13.0625 -24.84375 13.238281 -24.9375 13.5 -24.9375 L 17.640625 -24.9375 C 17.753906 -24.9375 17.851562 -24.894531 17.9375 -24.8125 C 18.019531 -24.726562 18.0625 -24.628906 18.0625 -24.515625 L 18.0625 -0.421875 C 18.0625 -0.304688 18.019531 -0.207031 17.9375 -0.125 C 17.851562 -0.0390625 17.753906 0 17.640625 0 L 13.46875 0 C 13.34375 0 13.238281 -0.0390625 13.15625 -0.125 C 13.070312 -0.207031 13.03125 -0.304688 13.03125 -0.421875 L 13.03125 -16.421875 C 13.03125 -16.515625 13.003906 -16.5625 12.953125 -16.5625 C 12.910156 -16.5625 12.867188 -16.523438 12.828125 -16.453125 L 10.046875 -11.546875 C 9.929688 -11.347656 9.835938 -11.25 9.765625 -11.25 C 9.691406 -11.25 9.59375 -11.347656 9.46875 -11.546875 L 6.703125 -16.453125 C 6.648438 -16.523438 6.597656 -16.5625 6.546875 -16.5625 C 6.503906 -16.5625 6.484375 -16.515625 6.484375 -16.421875 L 6.484375 -0.421875 C 6.484375 -0.304688 6.441406 -0.207031 6.359375 -0.125 C 6.273438 -0.0390625 6.175781 0 6.0625 0 L 1.890625 0 C 1.765625 0 1.660156 -0.0390625 1.578125 -0.125 C 1.492188 -0.207031 1.453125 -0.304688 1.453125 -0.421875 L 1.453125 -24.515625 C 1.453125 -24.628906 1.492188 -24.726562 1.578125 -24.8125 C 1.660156 -24.894531 1.765625 -24.9375 1.890625 -24.9375 L 5.984375 -24.9375 C 6.222656 -24.9375 6.398438 -24.84375 6.515625 -24.65625 L 9.6875 -18.984375 C 9.757812 -18.890625 9.832031 -18.890625 9.90625 -18.984375 Z M 12.96875 -24.65625 "/></g></g></g><g fill="#45433f" fill-opacity="1"><g transform="translate(94.285431, 344.119254)"><g><path d="M 12.046875 0 C 11.753906 0 11.597656 -0.128906 11.578125 -0.390625 L 11.015625 -3.8125 C 11.015625 -3.925781 10.941406 -3.984375 10.796875 -3.984375 L 6.265625 -3.984375 C 6.128906 -3.984375 6.0625 -3.925781 6.0625 -3.8125 L 5.484375 -0.390625 C 5.460938 -0.128906 5.304688 0 5.015625 0 L 0.859375 0 C 0.546875 0 0.425781 -0.15625 0.5 -0.46875 L 5.734375 -24.546875 C 5.785156 -24.804688 5.941406 -24.9375 6.203125 -24.9375 L 11.015625 -24.9375 C 11.273438 -24.9375 11.425781 -24.804688 11.46875 -24.546875 L 16.671875 -0.46875 L 16.703125 -0.328125 C 16.703125 -0.109375 16.570312 0 16.3125 0 Z M 6.765625 -8.046875 C 6.765625 -7.929688 6.8125 -7.875 6.90625 -7.875 L 10.125 -7.875 C 10.238281 -7.875 10.285156 -7.929688 10.265625 -8.046875 L 8.578125 -17.78125 C 8.554688 -17.851562 8.519531 -17.890625 8.46875 -17.890625 C 8.425781 -17.890625 8.394531 -17.851562 8.375 -17.78125 Z M 6.765625 -8.046875 "/></g></g></g><g fill="#45433f" fill-opacity="1"><g transform="translate(111.451041, 344.119254)"><g><path d="M 15.421875 -17.890625 C 15.421875 -17.765625 15.378906 -17.660156 15.296875 -17.578125 C 15.210938 -17.492188 15.113281 -17.453125 15 -17.453125 L 10.828125 -17.28125 C 10.546875 -17.28125 10.40625 -17.410156 10.40625 -17.671875 L 10.40625 -18.59375 C 10.40625 -19.28125 10.210938 -19.835938 9.828125 -20.265625 C 9.453125 -20.691406 8.941406 -20.90625 8.296875 -20.90625 C 7.679688 -20.90625 7.179688 -20.691406 6.796875 -20.265625 C 6.421875 -19.835938 6.234375 -19.28125 6.234375 -18.59375 L 6.234375 -6.3125 C 6.234375 -5.613281 6.421875 -5.054688 6.796875 -4.640625 C 7.179688 -4.234375 7.679688 -4.03125 8.296875 -4.03125 C 8.941406 -4.03125 9.453125 -4.234375 9.828125 -4.640625 C 10.210938 -5.054688 10.40625 -5.613281 10.40625 -6.3125 L 10.40625 -7.265625 C 10.40625 -7.390625 10.445312 -7.488281 10.53125 -7.5625 C 10.613281 -7.644531 10.710938 -7.6875 10.828125 -7.6875 L 15 -7.515625 C 15.113281 -7.515625 15.210938 -7.472656 15.296875 -7.390625 C 15.378906 -7.304688 15.421875 -7.207031 15.421875 -7.09375 L 15.421875 -6.734375 C 15.421875 -4.929688 14.953125 -3.421875 14.015625 -2.203125 C 13.078125 -0.992188 11.789062 -0.222656 10.15625 0.109375 C 10.007812 0.148438 9.984375 0.222656 10.078125 0.328125 C 10.929688 1.273438 11.359375 2.316406 11.359375 3.453125 C 11.359375 3.765625 11.320312 4.070312 11.25 4.375 C 11.0625 5.1875 10.6875 5.757812 10.125 6.09375 C 9.570312 6.425781 8.925781 6.59375 8.1875 6.59375 C 7.570312 6.59375 7.015625 6.507812 6.515625 6.34375 C 6.304688 6.269531 6.210938 6.101562 6.234375 5.84375 L 6.453125 4.203125 C 6.472656 3.941406 6.640625 3.835938 6.953125 3.890625 C 7.285156 3.929688 7.566406 3.847656 7.796875 3.640625 C 8.035156 3.441406 8.15625 3.128906 8.15625 2.703125 C 8.15625 1.941406 7.671875 1.097656 6.703125 0.171875 L 6.484375 0.078125 C 4.867188 -0.253906 3.585938 -1.019531 2.640625 -2.21875 C 1.691406 -3.425781 1.21875 -4.929688 1.21875 -6.734375 L 1.21875 -18.28125 C 1.21875 -20.394531 1.863281 -22.078125 3.15625 -23.328125 C 4.445312 -24.585938 6.160156 -25.21875 8.296875 -25.21875 C 10.460938 -25.21875 12.191406 -24.585938 13.484375 -23.328125 C 14.773438 -22.078125 15.421875 -20.394531 15.421875 -18.28125 Z M 15.421875 -17.890625 "/></g></g></g><g fill="#45433f" fill-opacity="1"><g transform="translate(127.975611, 344.119254)"><g><path d="M 8.40625 0.28125 C 6.21875 0.28125 4.472656 -0.359375 3.171875 -1.640625 C 1.867188 -2.921875 1.21875 -4.628906 1.21875 -6.765625 L 1.21875 -18.171875 C 1.21875 -20.304688 1.867188 -22.015625 3.171875 -23.296875 C 4.472656 -24.578125 6.21875 -25.21875 8.40625 -25.21875 C 10.59375 -25.21875 12.34375 -24.578125 13.65625 -23.296875 C 14.976562 -22.015625 15.640625 -20.304688 15.640625 -18.171875 L 15.640625 -6.765625 C 15.640625 -4.628906 14.976562 -2.921875 13.65625 -1.640625 C 12.34375 -0.359375 10.59375 0.28125 8.40625 0.28125 Z M 8.40625 -4.03125 C 9.070312 -4.03125 9.601562 -4.257812 10 -4.71875 C 10.40625 -5.1875 10.609375 -5.800781 10.609375 -6.5625 L 10.609375 -18.375 C 10.609375 -19.132812 10.40625 -19.742188 10 -20.203125 C 9.601562 -20.671875 9.070312 -20.90625 8.40625 -20.90625 C 7.738281 -20.90625 7.207031 -20.671875 6.8125 -20.203125 C 6.425781 -19.742188 6.234375 -19.132812 6.234375 -18.375 L 6.234375 -6.5625 C 6.234375 -5.800781 6.425781 -5.1875 6.8125 -4.71875 C 7.207031 -4.257812 7.738281 -4.03125 8.40625 -4.03125 Z M 10.796875 -27.46875 C 10.296875 -27.46875 9.65625 -27.679688 8.875 -28.109375 C 8.664062 -28.203125 8.421875 -28.332031 8.140625 -28.5 C 7.867188 -28.664062 7.613281 -28.75 7.375 -28.75 C 6.851562 -28.75 6.425781 -28.488281 6.09375 -27.96875 C 5.925781 -27.726562 5.726562 -27.679688 5.5 -27.828125 L 4 -28.890625 C 3.8125 -29.035156 3.75 -29.226562 3.8125 -29.46875 C 4.125 -30.300781 4.554688 -30.914062 5.109375 -31.3125 C 5.671875 -31.71875 6.285156 -31.921875 6.953125 -31.921875 C 7.660156 -31.921875 8.421875 -31.648438 9.234375 -31.109375 C 9.285156 -31.054688 9.40625 -30.96875 9.59375 -30.84375 C 9.78125 -30.726562 9.960938 -30.632812 10.140625 -30.5625 C 10.316406 -30.5 10.5 -30.46875 10.6875 -30.46875 C 11.238281 -30.46875 11.671875 -30.703125 11.984375 -31.171875 C 12.140625 -31.460938 12.335938 -31.523438 12.578125 -31.359375 L 14 -30.359375 C 14.125 -30.285156 14.1875 -30.175781 14.1875 -30.03125 C 14.1875 -29.894531 14.125 -29.726562 14 -29.53125 C 13.601562 -28.820312 13.113281 -28.300781 12.53125 -27.96875 C 11.945312 -27.632812 11.367188 -27.46875 10.796875 -27.46875 Z M 10.796875 -27.46875 "/></g></g></g><g fill="#45433f" fill-opacity="1"><g transform="translate(144.820695, 344.119254)"><g><path d="M 14.640625 -21.046875 C 14.640625 -20.929688 14.597656 -20.832031 14.515625 -20.75 C 14.429688 -20.664062 14.332031 -20.625 14.21875 -20.625 L 6.765625 -20.625 C 6.648438 -20.625 6.59375 -20.566406 6.59375 -20.453125 L 6.59375 -14.8125 C 6.59375 -14.695312 6.648438 -14.640625 6.765625 -14.640625 L 11.046875 -14.640625 C 11.160156 -14.640625 11.257812 -14.597656 11.34375 -14.515625 C 11.425781 -14.429688 11.46875 -14.332031 11.46875 -14.21875 L 11.46875 -10.765625 C 11.46875 -10.640625 11.425781 -10.535156 11.34375 -10.453125 C 11.257812 -10.367188 11.160156 -10.328125 11.046875 -10.328125 L 6.765625 -10.328125 C 6.648438 -10.328125 6.59375 -10.269531 6.59375 -10.15625 L 6.59375 -4.484375 C 6.59375 -4.367188 6.648438 -4.3125 6.765625 -4.3125 L 14.21875 -4.3125 C 14.332031 -4.3125 14.429688 -4.269531 14.515625 -4.1875 C 14.597656 -4.101562 14.640625 -4.003906 14.640625 -3.890625 L 14.640625 -0.421875 C 14.640625 -0.304688 14.597656 -0.207031 14.515625 -0.125 C 14.429688 -0.0390625 14.332031 0 14.21875 0 L 2 0 C 1.875 0 1.769531 -0.0390625 1.6875 -0.125 C 1.601562 -0.207031 1.5625 -0.304688 1.5625 -0.421875 L 1.5625 -24.515625 C 1.5625 -24.628906 1.601562 -24.726562 1.6875 -24.8125 C 1.769531 -24.894531 1.875 -24.9375 2 -24.9375 L 14.21875 -24.9375 C 14.332031 -24.9375 14.429688 -24.894531 14.515625 -24.8125 C 14.597656 -24.726562 14.640625 -24.628906 14.640625 -24.515625 Z M 14.640625 -21.046875 "/></g></g></g><g fill="#45433f" fill-opacity="1"><g transform="translate(160.419323, 344.119254)"><g><path d="M 7.984375 0.28125 C 6.597656 0.28125 5.382812 0.0078125 4.34375 -0.53125 C 3.300781 -1.082031 2.492188 -1.847656 1.921875 -2.828125 C 1.347656 -3.816406 1.0625 -4.953125 1.0625 -6.234375 L 1.0625 -7.265625 C 1.0625 -7.390625 1.101562 -7.488281 1.1875 -7.5625 C 1.269531 -7.644531 1.375 -7.6875 1.5 -7.6875 L 5.59375 -7.6875 C 5.707031 -7.6875 5.804688 -7.644531 5.890625 -7.5625 C 5.972656 -7.488281 6.015625 -7.390625 6.015625 -7.265625 L 6.015625 -6.484375 C 6.015625 -5.742188 6.203125 -5.148438 6.578125 -4.703125 C 6.960938 -4.253906 7.441406 -4.03125 8.015625 -4.03125 C 8.585938 -4.03125 9.0625 -4.242188 9.4375 -4.671875 C 9.820312 -5.097656 10.015625 -5.65625 10.015625 -6.34375 C 10.015625 -7.050781 9.773438 -7.660156 9.296875 -8.171875 C 8.816406 -8.679688 7.890625 -9.4375 6.515625 -10.4375 C 5.328125 -11.289062 4.363281 -12.050781 3.625 -12.71875 C 2.894531 -13.382812 2.269531 -14.203125 1.75 -15.171875 C 1.226562 -16.148438 0.96875 -17.28125 0.96875 -18.5625 C 0.96875 -20.582031 1.59375 -22.195312 2.84375 -23.40625 C 4.101562 -24.613281 5.769531 -25.21875 7.84375 -25.21875 C 9.925781 -25.21875 11.601562 -24.585938 12.875 -23.328125 C 14.144531 -22.078125 14.78125 -20.425781 14.78125 -18.375 L 14.78125 -17.53125 C 14.78125 -17.40625 14.738281 -17.300781 14.65625 -17.21875 C 14.570312 -17.132812 14.472656 -17.09375 14.359375 -17.09375 L 10.265625 -17.09375 C 10.140625 -17.09375 10.035156 -17.132812 9.953125 -17.21875 C 9.867188 -17.300781 9.828125 -17.40625 9.828125 -17.53125 L 9.828125 -18.484375 C 9.828125 -19.222656 9.644531 -19.8125 9.28125 -20.25 C 8.914062 -20.6875 8.4375 -20.90625 7.84375 -20.90625 C 7.269531 -20.90625 6.800781 -20.695312 6.4375 -20.28125 C 6.082031 -19.875 5.90625 -19.300781 5.90625 -18.5625 C 5.90625 -17.84375 6.128906 -17.210938 6.578125 -16.671875 C 7.035156 -16.128906 7.929688 -15.367188 9.265625 -14.390625 C 10.734375 -13.296875 11.84375 -12.410156 12.59375 -11.734375 C 13.34375 -11.054688 13.925781 -10.304688 14.34375 -9.484375 C 14.757812 -8.671875 14.96875 -7.695312 14.96875 -6.5625 C 14.96875 -4.46875 14.320312 -2.800781 13.03125 -1.5625 C 11.75 -0.332031 10.066406 0.28125 7.984375 0.28125 Z M 7.984375 0.28125 "/></g></g></g><g fill="#45433f" fill-opacity="1"><g transform="translate(138.06102, 131.877325)"><g><path d="M 20.21875 -14.359375 C 20.3125 -13.492188 20.359375 -12.328125 20.359375 -10.859375 L 20.359375 0 L 15.375 0 L 15.375 -10.171875 C 15.375 -11.296875 15.347656 -12.1875 15.296875 -12.84375 C 15.128906 -15.101562 13.898438 -16.234375 11.609375 -16.234375 C 10.304688 -16.234375 9.253906 -15.625 8.453125 -14.40625 C 7.660156 -13.195312 7.265625 -11.328125 7.265625 -8.796875 L 7.265625 0 L 2.28125 0 L 2.28125 -19.25 L 7.265625 -19.25 L 7.265625 -16.125 L 8.75 -18.40625 C 10.007812 -19.300781 11.554688 -19.75 13.390625 -19.75 C 15.410156 -19.75 17.003906 -19.273438 18.171875 -18.328125 C 19.347656 -17.390625 20.03125 -16.066406 20.21875 -14.359375 Z M 20.21875 -14.359375 "/></g></g></g><g fill="#45433f" fill-opacity="1"><g transform="translate(160.523105, 131.877325)"><g><path d="M 3.609375 -16.9375 C 5.367188 -18.8125 7.816406 -19.75 10.953125 -19.75 C 14.085938 -19.75 16.535156 -18.8125 18.296875 -16.9375 C 20.054688 -15.070312 20.9375 -12.632812 20.9375 -9.625 C 20.9375 -6.632812 20.054688 -4.195312 18.296875 -2.3125 C 16.535156 -0.4375 14.085938 0.5 10.953125 0.5 C 7.816406 0.5 5.367188 -0.4375 3.609375 -2.3125 C 1.859375 -4.195312 0.984375 -6.632812 0.984375 -9.625 C 0.984375 -12.632812 1.859375 -15.070312 3.609375 -16.9375 Z M 7.4375 -4.75 C 8.289062 -3.582031 9.460938 -3 10.953125 -3 C 12.453125 -3 13.628906 -3.582031 14.484375 -4.75 C 15.335938 -5.925781 15.765625 -7.550781 15.765625 -9.625 C 15.765625 -11.695312 15.335938 -13.316406 14.484375 -14.484375 C 13.628906 -15.648438 12.453125 -16.234375 10.953125 -16.234375 C 9.460938 -16.234375 8.289062 -15.648438 7.4375 -14.484375 C 6.582031 -13.316406 6.15625 -11.695312 6.15625 -9.625 C 6.15625 -7.550781 6.582031 -5.925781 7.4375 -4.75 Z M 7.4375 -4.75 "/></g></g></g><g fill="#45433f" fill-opacity="1"><g transform="translate(182.442624, 131.877325)"><g/></g></g><g fill="#45433f" fill-opacity="1"><g transform="translate(189.459764, 131.877325)"><g><path d="M 7.84375 -21.703125 C 7.800781 -21.367188 7.78125 -20.816406 7.78125 -20.046875 L 7.78125 -19.09375 L 11.71875 -19.09375 L 11.71875 -15.8125 L 7.78125 -15.8125 L 7.78125 0 L 2.78125 0 L 2.78125 -15.8125 L 0.71875 -15.8125 L 0.71875 -19.09375 L 2.78125 -19.09375 L 2.78125 -19.890625 C 2.78125 -20.929688 2.804688 -21.664062 2.859375 -22.09375 C 3.171875 -25.550781 5.5 -27.28125 9.84375 -27.28125 C 10.5625 -27.28125 11.296875 -27.191406 12.046875 -27.015625 L 12.046875 -23.546875 C 10.859375 -23.765625 9.882812 -23.707031 9.125 -23.375 C 8.375 -23.050781 7.945312 -22.492188 7.84375 -21.703125 Z M 7.84375 -21.703125 "/></g></g></g><g fill="#45433f" fill-opacity="1"><g transform="translate(201.685503, 131.877325)"><g><path d="M 20.046875 -19.25 L 20.046875 0 L 15.046875 0 L 15.046875 -3.25 L 13.5625 -0.796875 C 12.257812 0.0664062 10.71875 0.5 8.9375 0.5 C 7.03125 0.5 5.476562 0.0351562 4.28125 -0.890625 C 3.09375 -1.816406 2.378906 -2.976562 2.140625 -4.375 C 2.015625 -5.195312 1.953125 -6.367188 1.953125 -7.890625 L 1.953125 -19.25 L 6.9375 -19.25 L 6.9375 -8.9375 C 6.9375 -8.039062 6.988281 -7.160156 7.09375 -6.296875 C 7.351562 -4.117188 8.59375 -3.03125 10.8125 -3.03125 C 12.113281 -3.03125 13.144531 -3.570312 13.90625 -4.65625 C 14.664062 -5.75 15.046875 -7.34375 15.046875 -9.4375 L 15.046875 -19.25 Z M 20.046875 -19.25 "/></g></g></g><g fill="#45433f" fill-opacity="1"><g transform="translate(224.039075, 131.877325)"><g><path d="M 8.25 -15.8125 L 8.25 -6.90625 C 8.25 -6.113281 8.257812 -5.546875 8.28125 -5.203125 C 8.351562 -4.265625 8.628906 -3.65625 9.109375 -3.375 C 9.597656 -3.101562 10.53125 -3.015625 11.90625 -3.109375 L 11.90625 0.140625 C 10.863281 0.304688 9.765625 0.390625 8.609375 0.390625 C 6.773438 0.390625 5.46875 0.0820312 4.6875 -0.53125 C 3.90625 -1.144531 3.453125 -2.148438 3.328125 -3.546875 C 3.273438 -4.117188 3.25 -5.046875 3.25 -6.328125 L 3.25 -15.8125 L 0.4375 -15.8125 L 0.4375 -19.09375 L 3.25 -19.09375 L 3.25 -23.84375 L 8.25 -23.84375 L 8.25 -19.09375 L 12.21875 -19.09375 L 12.21875 -15.8125 Z M 8.25 -15.8125 "/></g></g></g><g fill="#45433f" fill-opacity="1"><g transform="translate(237.096741, 131.877325)"><g><path d="M 20.046875 -19.25 L 20.046875 0 L 15.046875 0 L 15.046875 -3.25 L 13.5625 -0.796875 C 12.257812 0.0664062 10.71875 0.5 8.9375 0.5 C 7.03125 0.5 5.476562 0.0351562 4.28125 -0.890625 C 3.09375 -1.816406 2.378906 -2.976562 2.140625 -4.375 C 2.015625 -5.195312 1.953125 -6.367188 1.953125 -7.890625 L 1.953125 -19.25 L 6.9375 -19.25 L 6.9375 -8.9375 C 6.9375 -8.039062 6.988281 -7.160156 7.09375 -6.296875 C 7.351562 -4.117188 8.59375 -3.03125 10.8125 -3.03125 C 12.113281 -3.03125 13.144531 -3.570312 13.90625 -4.65625 C 14.664062 -5.75 15.046875 -7.34375 15.046875 -9.4375 L 15.046875 -19.25 Z M 20.046875 -19.25 "/></g></g></g><g fill="#45433f" fill-opacity="1"><g transform="translate(259.450313, 131.877325)"><g><path d="M 12.078125 -19.71875 C 12.628906 -19.71875 13.097656 -19.664062 13.484375 -19.5625 L 13.484375 -15.546875 C 11.367188 -15.691406 9.800781 -15.238281 8.78125 -14.1875 C 7.769531 -13.144531 7.265625 -11.359375 7.265625 -8.828125 L 7.265625 0 L 2.28125 0 L 2.28125 -19.25 L 7.265625 -19.25 L 7.265625 -15.734375 L 8.796875 -18.40625 C 9.734375 -19.28125 10.828125 -19.71875 12.078125 -19.71875 Z M 12.078125 -19.71875 "/></g></g></g><g fill="#45433f" fill-opacity="1"><g transform="translate(273.195228, 131.877325)"><g><path d="M 3.609375 -16.9375 C 5.367188 -18.8125 7.816406 -19.75 10.953125 -19.75 C 14.085938 -19.75 16.535156 -18.8125 18.296875 -16.9375 C 20.054688 -15.070312 20.9375 -12.632812 20.9375 -9.625 C 20.9375 -6.632812 20.054688 -4.195312 18.296875 -2.3125 C 16.535156 -0.4375 14.085938 0.5 10.953125 0.5 C 7.816406 0.5 5.367188 -0.4375 3.609375 -2.3125 C 1.859375 -4.195312 0.984375 -6.632812 0.984375 -9.625 C 0.984375 -12.632812 1.859375 -15.070312 3.609375 -16.9375 Z M 7.4375 -4.75 C 8.289062 -3.582031 9.460938 -3 10.953125 -3 C 12.453125 -3 13.628906 -3.582031 14.484375 -4.75 C 15.335938 -5.925781 15.765625 -7.550781 15.765625 -9.625 C 15.765625 -11.695312 15.335938 -13.316406 14.484375 -14.484375 C 13.628906 -15.648438 12.453125 -16.234375 10.953125 -16.234375 C 9.460938 -16.234375 8.289062 -15.648438 7.4375 -14.484375 C 6.582031 -13.316406 6.15625 -11.695312 6.15625 -9.625 C 6.15625 -7.550781 6.582031 -5.925781 7.4375 -4.75 Z M 7.4375 -4.75 "/></g></g></g></svg>