<svg xmlns="http://www.w3.org/2000/svg" xmlns:xlink="http://www.w3.org/1999/xlink" width="500" zoomAndPan="magnify" viewBox="0 0 375 374.999991" height="500" preserveAspectRatio="xMidYMid meet" version="1.0"><defs><g/><clipPath id="b6fd71f92c"><path d="M 128.960938 55.890625 L 343.097656 55.890625 L 343.097656 91.359375 L 128.960938 91.359375 Z M 128.960938 55.890625 " clip-rule="nonzero"/></clipPath><clipPath id="dc55e80686"><path d="M 128.960938 105.695312 L 255.90625 105.695312 L 255.90625 136.367188 L 128.960938 136.367188 Z M 128.960938 105.695312 " clip-rule="nonzero"/></clipPath><clipPath id="0c9dc23203"><path d="M 26.15625 47.28125 L 125.15625 47.28125 L 125.15625 146.28125 L 26.15625 146.28125 Z M 26.15625 47.28125 " clip-rule="nonzero"/></clipPath></defs><rect x="-37.5" width="450" fill="#ffffff" y="-37.499999" height="449.999989" fill-opacity="1"/><rect x="-37.5" width="450" fill="#ffffff" y="-37.499999" height="449.999989" fill-opacity="1"/><g clip-path="url(#b6fd71f92c)"><path fill="#e4b628" d="M 128.960938 55.890625 L 343.167969 55.890625 L 343.167969 91.359375 L 128.960938 91.359375 Z M 128.960938 55.890625 " fill-opacity="1" fill-rule="nonzero"/></g><g clip-path="url(#dc55e80686)"><path fill="#e4b628" d="M 128.960938 105.695312 L 255.957031 105.695312 L 255.957031 136.367188 L 128.960938 136.367188 Z M 128.960938 105.695312 " fill-opacity="1" fill-rule="nonzero"/></g><g clip-path="url(#0c9dc23203)"><path fill="#e4b628" d="M 77.296875 81.890625 C 82.050781 81.890625 83.675781 84.464844 83.261719 88.023438 L 79.375 122.917969 C 79.148438 124.960938 80.257812 125.722656 81.855469 124.289062 C 84.359375 122.042969 87.601562 125.183594 82.417969 129.832031 C 78.933594 132.957031 76.339844 135.632812 71.703125 135.46875 C 67.160156 135.304688 65.535156 132.734375 65.949219 129.171875 L 69.832031 94.277344 C 70.058594 92.238281 68.941406 91.476562 67.355469 92.902344 C 64.84375 95.152344 61.609375 92.015625 66.789062 87.363281 C 70.054688 84.4375 72.542969 81.898438 77.296875 81.890625 Z M 74.597656 59.996094 C 79.421875 59.996094 83.339844 63.90625 83.339844 68.734375 C 83.339844 73.566406 79.421875 77.476562 74.597656 77.476562 C 69.765625 77.484375 65.847656 73.566406 65.847656 68.734375 C 65.847656 63.90625 69.765625 59.988281 74.597656 59.996094 Z M 75.609375 47.382812 C 48.28125 47.382812 26.121094 69.539062 26.121094 96.875 C 26.121094 124.199219 48.28125 146.363281 75.609375 146.363281 C 102.945312 146.363281 125.097656 124.199219 125.105469 96.875 C 125.097656 69.539062 102.941406 47.382812 75.609375 47.382812 Z M 75.609375 47.382812 " fill-opacity="1" fill-rule="nonzero"/></g><g fill="#45433f" fill-opacity="1"><g transform="translate(138.06102, 84.63017)"><g><path d="M 8.21875 0 L 3.21875 0 L 3.21875 -24.953125 L 8.21875 -24.953125 Z M 8.21875 0 "/></g></g></g><g fill="#45433f" fill-opacity="1"><g transform="translate(148.622904, 84.63017)"><g><path d="M 20.21875 -14.359375 C 20.3125 -13.492188 20.359375 -12.328125 20.359375 -10.859375 L 20.359375 0 L 15.375 0 L 15.375 -10.171875 C 15.375 -11.296875 15.347656 -12.1875 15.296875 -12.84375 C 15.128906 -15.101562 13.898438 -16.234375 11.609375 -16.234375 C 10.304688 -16.234375 9.253906 -15.625 8.453125 -14.40625 C 7.660156 -13.195312 7.265625 -11.328125 7.265625 -8.796875 L 7.265625 0 L 2.28125 0 L 2.28125 -19.25 L 7.265625 -19.25 L 7.265625 -16.125 L 8.75 -18.40625 C 10.007812 -19.300781 11.554688 -19.75 13.390625 -19.75 C 15.410156 -19.75 17.003906 -19.273438 18.171875 -18.328125 C 19.347656 -17.390625 20.03125 -16.066406 20.21875 -14.359375 Z M 20.21875 -14.359375 "/></g></g></g><g fill="#45433f" fill-opacity="1"><g transform="translate(171.084989, 84.63017)"><g><path d="M 7.84375 -21.703125 C 7.800781 -21.367188 7.78125 -20.816406 7.78125 -20.046875 L 7.78125 -19.09375 L 11.71875 -19.09375 L 11.71875 -15.8125 L 7.78125 -15.8125 L 7.78125 0 L 2.78125 0 L 2.78125 -15.8125 L 0.71875 -15.8125 L 0.71875 -19.09375 L 2.78125 -19.09375 L 2.78125 -19.890625 C 2.78125 -20.929688 2.804688 -21.664062 2.859375 -22.09375 C 3.171875 -25.550781 5.5 -27.28125 9.84375 -27.28125 C 10.5625 -27.28125 11.296875 -27.191406 12.046875 -27.015625 L 12.046875 -23.546875 C 10.859375 -23.765625 9.882812 -23.707031 9.125 -23.375 C 8.375 -23.050781 7.945312 -22.492188 7.84375 -21.703125 Z M 7.84375 -21.703125 "/></g></g></g><g fill="#45433f" fill-opacity="1"><g transform="translate(183.310727, 84.63017)"><g><path d="M 3.609375 -16.9375 C 5.367188 -18.8125 7.816406 -19.75 10.953125 -19.75 C 14.085938 -19.75 16.535156 -18.8125 18.296875 -16.9375 C 20.054688 -15.070312 20.9375 -12.632812 20.9375 -9.625 C 20.9375 -6.632812 20.054688 -4.195312 18.296875 -2.3125 C 16.535156 -0.4375 14.085938 0.5 10.953125 0.5 C 7.816406 0.5 5.367188 -0.4375 3.609375 -2.3125 C 1.859375 -4.195312 0.984375 -6.632812 0.984375 -9.625 C 0.984375 -12.632812 1.859375 -15.070312 3.609375 -16.9375 Z M 7.4375 -4.75 C 8.289062 -3.582031 9.460938 -3 10.953125 -3 C 12.453125 -3 13.628906 -3.582031 14.484375 -4.75 C 15.335938 -5.925781 15.765625 -7.550781 15.765625 -9.625 C 15.765625 -11.695312 15.335938 -13.316406 14.484375 -14.484375 C 13.628906 -15.648438 12.453125 -16.234375 10.953125 -16.234375 C 9.460938 -16.234375 8.289062 -15.648438 7.4375 -14.484375 C 6.582031 -13.316406 6.15625 -11.695312 6.15625 -9.625 C 6.15625 -7.550781 6.582031 -5.925781 7.4375 -4.75 Z M 7.4375 -4.75 "/></g></g></g><g fill="#45433f" fill-opacity="1"><g transform="translate(205.230246, 84.63017)"><g><path d="M 12.078125 -19.71875 C 12.628906 -19.71875 13.097656 -19.664062 13.484375 -19.5625 L 13.484375 -15.546875 C 11.367188 -15.691406 9.800781 -15.238281 8.78125 -14.1875 C 7.769531 -13.144531 7.265625 -11.359375 7.265625 -8.828125 L 7.265625 0 L 2.28125 0 L 2.28125 -19.25 L 7.265625 -19.25 L 7.265625 -15.734375 L 8.796875 -18.40625 C 9.734375 -19.28125 10.828125 -19.71875 12.078125 -19.71875 Z M 12.078125 -19.71875 "/></g></g></g><g fill="#45433f" fill-opacity="1"><g transform="translate(218.975161, 84.63017)"><g><path d="M 30.859375 -14.96875 C 30.972656 -14.15625 31.03125 -12.988281 31.03125 -11.46875 L 31.03125 0 L 26.046875 0 L 26.046875 -10.015625 C 26.046875 -11.242188 26 -12.296875 25.90625 -13.171875 C 25.632812 -15.210938 24.546875 -16.234375 22.640625 -16.234375 C 20.304688 -16.234375 19.140625 -14.113281 19.140625 -9.875 L 19.140625 0 L 14.171875 0 L 14.171875 -10.015625 C 14.171875 -11.242188 14.125 -12.296875 14.03125 -13.171875 C 13.769531 -15.210938 12.675781 -16.234375 10.75 -16.234375 C 8.425781 -16.234375 7.265625 -14.113281 7.265625 -9.875 L 7.265625 0 L 2.28125 0 L 2.28125 -19.25 L 7.265625 -19.25 L 7.265625 -16.3125 L 8.6875 -18.625 C 9.738281 -19.375 11.097656 -19.75 12.765625 -19.75 C 14.285156 -19.75 15.546875 -19.414062 16.546875 -18.75 C 17.546875 -18.09375 18.253906 -17.207031 18.671875 -16.09375 L 20.546875 -18.625 C 21.609375 -19.375 22.984375 -19.75 24.671875 -19.75 C 26.429688 -19.75 27.84375 -19.300781 28.90625 -18.40625 C 29.96875 -17.519531 30.617188 -16.375 30.859375 -14.96875 Z M 30.859375 -14.96875 "/></g></g></g><g fill="#45433f" fill-opacity="1"><g transform="translate(252.107636, 84.63017)"><g><path d="M 19.75 -10.015625 C 19.75 -9.316406 19.722656 -8.75 19.671875 -8.3125 L 6 -8.3125 C 6.289062 -4.769531 7.773438 -3 10.453125 -3 C 11.535156 -3 12.429688 -3.285156 13.140625 -3.859375 C 13.859375 -4.441406 14.300781 -5.238281 14.46875 -6.25 L 19.453125 -6.25 C 18.972656 -4.0625 17.921875 -2.390625 16.296875 -1.234375 C 14.671875 -0.078125 12.6875 0.5 10.34375 0.5 C 7.570312 0.5 5.316406 -0.359375 3.578125 -2.078125 C 1.847656 -3.804688 0.984375 -6.296875 0.984375 -9.546875 C 0.984375 -12.535156 1.878906 -14.984375 3.671875 -16.890625 C 5.460938 -18.796875 7.820312 -19.75 10.75 -19.75 C 13.5625 -19.75 15.765625 -18.816406 17.359375 -16.953125 C 18.953125 -15.097656 19.75 -12.785156 19.75 -10.015625 Z M 10.53125 -16.234375 C 8.039062 -16.234375 6.582031 -14.679688 6.15625 -11.578125 L 14.609375 -11.578125 C 14.273438 -14.679688 12.914062 -16.234375 10.53125 -16.234375 Z M 10.53125 -16.234375 "/></g></g></g><g fill="#45433f" fill-opacity="1"><g transform="translate(273.01438, 84.63017)"><g/></g></g><g fill="#45433f" fill-opacity="1"><g transform="translate(280.031515, 84.63017)"><g><path d="M 9.15625 -19.75 C 11.375 -19.75 13.144531 -19.191406 14.46875 -18.078125 C 15.789062 -16.972656 16.5625 -15.503906 16.78125 -13.671875 L 11.796875 -13.671875 C 11.453125 -15.523438 10.460938 -16.453125 8.828125 -16.453125 C 8.097656 -16.453125 7.535156 -16.265625 7.140625 -15.890625 C 6.742188 -15.523438 6.546875 -15.023438 6.546875 -14.390625 C 6.546875 -13.671875 6.867188 -13.09375 7.515625 -12.65625 C 8.171875 -12.226562 9.304688 -11.804688 10.921875 -11.390625 C 13.023438 -10.859375 14.59375 -10.125 15.625 -9.1875 C 16.664062 -8.25 17.1875 -6.9375 17.1875 -5.25 C 17.1875 -3.382812 16.441406 -1.957031 14.953125 -0.96875 C 13.472656 0.0078125 11.578125 0.5 9.265625 0.5 C 6.847656 0.5 4.890625 -0.0234375 3.390625 -1.078125 C 1.898438 -2.140625 1.023438 -3.734375 0.765625 -5.859375 L 5.75 -5.859375 C 5.945312 -4.847656 6.363281 -4.082031 7 -3.5625 C 7.632812 -3.039062 8.410156 -2.78125 9.328125 -2.78125 C 10.171875 -2.78125 10.851562 -2.960938 11.375 -3.328125 C 11.894531 -3.691406 12.15625 -4.210938 12.15625 -4.890625 C 12.15625 -5.628906 11.804688 -6.234375 11.109375 -6.703125 C 10.410156 -7.179688 9.226562 -7.625 7.5625 -8.03125 C 5.601562 -8.507812 4.101562 -9.203125 3.0625 -10.109375 C 2.03125 -11.015625 1.515625 -12.25 1.515625 -13.8125 C 1.515625 -15.644531 2.207031 -17.09375 3.59375 -18.15625 C 4.976562 -19.21875 6.832031 -19.75 9.15625 -19.75 Z M 9.15625 -19.75 "/></g></g></g><g fill="#45433f" fill-opacity="1"><g transform="translate(298.008422, 84.63017)"><g><path d="M 20.046875 -19.25 L 20.046875 0 L 15.046875 0 L 15.046875 -3.25 L 13.5625 -0.796875 C 12.257812 0.0664062 10.71875 0.5 8.9375 0.5 C 7.03125 0.5 5.476562 0.0351562 4.28125 -0.890625 C 3.09375 -1.816406 2.378906 -2.976562 2.140625 -4.375 C 2.015625 -5.195312 1.953125 -6.367188 1.953125 -7.890625 L 1.953125 -19.25 L 6.9375 -19.25 L 6.9375 -8.9375 C 6.9375 -8.039062 6.988281 -7.160156 7.09375 -6.296875 C 7.351562 -4.117188 8.59375 -3.03125 10.8125 -3.03125 C 12.113281 -3.03125 13.144531 -3.570312 13.90625 -4.65625 C 14.664062 -5.75 15.046875 -7.34375 15.046875 -9.4375 L 15.046875 -19.25 Z M 20.046875 -19.25 "/></g></g></g><g fill="#45433f" fill-opacity="1"><g transform="translate(320.361995, 84.63017)"><g><path d="M 13.453125 0 L 13.09375 -2.828125 L 12.15625 -0.765625 C 10.894531 0.078125 9.300781 0.5 7.375 0.5 C 5.613281 0.5 4.140625 0.0078125 2.953125 -0.96875 C 1.773438 -1.957031 1.1875 -3.332031 1.1875 -5.09375 C 1.1875 -7.21875 2.082031 -8.851562 3.875 -10 C 5.675781 -11.144531 8.316406 -11.71875 11.796875 -11.71875 L 13.015625 -11.71875 L 13.015625 -12.125 C 13.015625 -12.894531 12.992188 -13.492188 12.953125 -13.921875 C 12.785156 -15.460938 11.796875 -16.234375 9.984375 -16.234375 C 7.984375 -16.234375 6.910156 -15.148438 6.765625 -12.984375 L 1.921875 -12.953125 C 1.992188 -15.066406 2.796875 -16.726562 4.328125 -17.9375 C 5.859375 -19.144531 7.804688 -19.75 10.171875 -19.75 C 14.960938 -19.75 17.53125 -17.859375 17.875 -14.078125 C 17.945312 -13.160156 17.984375 -12.171875 17.984375 -11.109375 L 17.984375 -4.890625 C 17.984375 -3.410156 18.101562 -1.78125 18.34375 0 Z M 9.296875 -3 C 10.359375 -3 11.242188 -3.359375 11.953125 -4.078125 C 12.660156 -4.804688 13.015625 -5.8125 13.015625 -7.09375 L 13.015625 -8.640625 C 8.578125 -8.953125 6.359375 -7.90625 6.359375 -5.5 C 6.359375 -3.832031 7.335938 -3 9.296875 -3 Z M 9.296875 -3 "/></g></g></g><g fill="#45433f" fill-opacity="1"><g transform="translate(26.157189, 208.417954)"><g><path d="M 11.75 -24.515625 C 11.75 -24.628906 11.789062 -24.726562 11.875 -24.8125 C 11.957031 -24.894531 12.0625 -24.9375 12.1875 -24.9375 L 16.3125 -24.9375 C 16.4375 -24.9375 16.539062 -24.894531 16.625 -24.8125 C 16.707031 -24.726562 16.75 -24.628906 16.75 -24.515625 L 16.75 -0.421875 C 16.75 -0.304688 16.707031 -0.207031 16.625 -0.125 C 16.539062 -0.0390625 16.4375 0 16.3125 0 L 11.609375 0 C 11.367188 0 11.21875 -0.117188 11.15625 -0.359375 L 6.734375 -14.140625 C 6.710938 -14.210938 6.671875 -14.242188 6.609375 -14.234375 C 6.546875 -14.222656 6.515625 -14.179688 6.515625 -14.109375 L 6.5625 -0.421875 C 6.5625 -0.304688 6.519531 -0.207031 6.4375 -0.125 C 6.351562 -0.0390625 6.25 0 6.125 0 L 2 0 C 1.875 0 1.769531 -0.0390625 1.6875 -0.125 C 1.601562 -0.207031 1.5625 -0.304688 1.5625 -0.421875 L 1.5625 -24.515625 C 1.5625 -24.628906 1.601562 -24.726562 1.6875 -24.8125 C 1.769531 -24.894531 1.875 -24.9375 2 -24.9375 L 6.65625 -24.9375 C 6.894531 -24.9375 7.050781 -24.816406 7.125 -24.578125 L 11.578125 -10.796875 C 11.597656 -10.722656 11.640625 -10.691406 11.703125 -10.703125 C 11.765625 -10.710938 11.796875 -10.753906 11.796875 -10.828125 Z M 11.75 -24.515625 "/></g></g></g><g fill="#45433f" fill-opacity="1"><g transform="translate(44.462424, 208.417954)"><g><path d="M 8.40625 0.28125 C 6.21875 0.28125 4.472656 -0.359375 3.171875 -1.640625 C 1.867188 -2.921875 1.21875 -4.628906 1.21875 -6.765625 L 1.21875 -18.171875 C 1.21875 -20.304688 1.867188 -22.015625 3.171875 -23.296875 C 4.472656 -24.578125 6.21875 -25.21875 8.40625 -25.21875 C 10.59375 -25.21875 12.34375 -24.578125 13.65625 -23.296875 C 14.976562 -22.015625 15.640625 -20.304688 15.640625 -18.171875 L 15.640625 -6.765625 C 15.640625 -4.628906 14.976562 -2.921875 13.65625 -1.640625 C 12.34375 -0.359375 10.59375 0.28125 8.40625 0.28125 Z M 8.40625 -4.03125 C 9.070312 -4.03125 9.601562 -4.257812 10 -4.71875 C 10.40625 -5.1875 10.609375 -5.800781 10.609375 -6.5625 L 10.609375 -18.375 C 10.609375 -19.132812 10.40625 -19.742188 10 -20.203125 C 9.601562 -20.671875 9.070312 -20.90625 8.40625 -20.90625 C 7.738281 -20.90625 7.207031 -20.671875 6.8125 -20.203125 C 6.425781 -19.742188 6.234375 -19.132812 6.234375 -18.375 L 6.234375 -6.5625 C 6.234375 -5.800781 6.425781 -5.1875 6.8125 -4.71875 C 7.207031 -4.257812 7.738281 -4.03125 8.40625 -4.03125 Z M 8.40625 -4.03125 "/></g></g></g><g fill="#45433f" fill-opacity="1"><g transform="translate(61.307508, 208.417954)"><g><path d="M 15.390625 -24.9375 C 15.503906 -24.9375 15.601562 -24.894531 15.6875 -24.8125 C 15.769531 -24.726562 15.8125 -24.628906 15.8125 -24.515625 L 15.8125 -21.046875 C 15.8125 -20.929688 15.769531 -20.832031 15.6875 -20.75 C 15.601562 -20.664062 15.503906 -20.625 15.390625 -20.625 L 10.9375 -20.625 C 10.820312 -20.625 10.765625 -20.566406 10.765625 -20.453125 L 10.765625 -0.421875 C 10.765625 -0.304688 10.722656 -0.207031 10.640625 -0.125 C 10.554688 -0.0390625 10.453125 0 10.328125 0 L 6.15625 0 C 6.039062 0 5.941406 -0.0390625 5.859375 -0.125 C 5.773438 -0.207031 5.734375 -0.304688 5.734375 -0.421875 L 5.734375 -20.453125 C 5.734375 -20.566406 5.675781 -20.625 5.5625 -20.625 L 1.28125 -20.625 C 1.164062 -20.625 1.066406 -20.664062 0.984375 -20.75 C 0.898438 -20.832031 0.859375 -20.929688 0.859375 -21.046875 L 0.859375 -24.515625 C 0.859375 -24.628906 0.898438 -24.726562 0.984375 -24.8125 C 1.066406 -24.894531 1.164062 -24.9375 1.28125 -24.9375 Z M 15.390625 -24.9375 "/></g></g></g><g fill="#45433f" fill-opacity="1"><g transform="translate(77.974534, 208.417954)"><g><path d="M 2 0 C 1.875 0 1.769531 -0.0390625 1.6875 -0.125 C 1.601562 -0.207031 1.5625 -0.304688 1.5625 -0.421875 L 1.5625 -24.515625 C 1.5625 -24.628906 1.601562 -24.726562 1.6875 -24.8125 C 1.769531 -24.894531 1.875 -24.9375 2 -24.9375 L 6.15625 -24.9375 C 6.28125 -24.9375 6.382812 -24.894531 6.46875 -24.8125 C 6.550781 -24.726562 6.59375 -24.628906 6.59375 -24.515625 L 6.59375 -0.421875 C 6.59375 -0.304688 6.550781 -0.207031 6.46875 -0.125 C 6.382812 -0.0390625 6.28125 0 6.15625 0 Z M 2.140625 -27.140625 C 1.972656 -27.140625 1.851562 -27.1875 1.78125 -27.28125 C 1.707031 -27.382812 1.71875 -27.503906 1.8125 -27.640625 L 3.921875 -31.28125 C 4.015625 -31.46875 4.191406 -31.5625 4.453125 -31.5625 L 7.765625 -31.5625 C 8.003906 -31.5625 8.125 -31.476562 8.125 -31.3125 C 8.125 -31.238281 8.085938 -31.144531 8.015625 -31.03125 L 5.265625 -27.390625 C 5.128906 -27.222656 4.960938 -27.140625 4.765625 -27.140625 Z M 2.140625 -27.140625 "/></g></g></g><g fill="#45433f" fill-opacity="1"><g transform="translate(86.165596, 208.417954)"><g><path d="M 8.296875 0.28125 C 6.160156 0.28125 4.445312 -0.351562 3.15625 -1.625 C 1.863281 -2.894531 1.21875 -4.597656 1.21875 -6.734375 L 1.21875 -18.28125 C 1.21875 -20.394531 1.863281 -22.078125 3.15625 -23.328125 C 4.445312 -24.585938 6.160156 -25.21875 8.296875 -25.21875 C 10.460938 -25.21875 12.191406 -24.585938 13.484375 -23.328125 C 14.773438 -22.078125 15.421875 -20.394531 15.421875 -18.28125 L 15.421875 -17.890625 C 15.421875 -17.765625 15.378906 -17.660156 15.296875 -17.578125 C 15.210938 -17.492188 15.113281 -17.453125 15 -17.453125 L 10.828125 -17.28125 C 10.546875 -17.28125 10.40625 -17.410156 10.40625 -17.671875 L 10.40625 -18.59375 C 10.40625 -19.28125 10.210938 -19.835938 9.828125 -20.265625 C 9.453125 -20.691406 8.941406 -20.90625 8.296875 -20.90625 C 7.679688 -20.90625 7.179688 -20.691406 6.796875 -20.265625 C 6.421875 -19.835938 6.234375 -19.28125 6.234375 -18.59375 L 6.234375 -6.3125 C 6.234375 -5.613281 6.421875 -5.054688 6.796875 -4.640625 C 7.179688 -4.234375 7.679688 -4.03125 8.296875 -4.03125 C 8.941406 -4.03125 9.453125 -4.234375 9.828125 -4.640625 C 10.210938 -5.054688 10.40625 -5.613281 10.40625 -6.3125 L 10.40625 -7.265625 C 10.40625 -7.390625 10.445312 -7.488281 10.53125 -7.5625 C 10.613281 -7.644531 10.710938 -7.6875 10.828125 -7.6875 L 15 -7.515625 C 15.113281 -7.515625 15.210938 -7.472656 15.296875 -7.390625 C 15.378906 -7.304688 15.421875 -7.207031 15.421875 -7.09375 L 15.421875 -6.734375 C 15.421875 -4.597656 14.765625 -2.894531 13.453125 -1.625 C 12.148438 -0.351562 10.429688 0.28125 8.296875 0.28125 Z M 8.296875 0.28125 "/></g></g></g><g fill="#45433f" fill-opacity="1"><g transform="translate(102.690166, 208.417954)"><g><path d="M 2 0 C 1.875 0 1.769531 -0.0390625 1.6875 -0.125 C 1.601562 -0.207031 1.5625 -0.304688 1.5625 -0.421875 L 1.5625 -24.515625 C 1.5625 -24.628906 1.601562 -24.726562 1.6875 -24.8125 C 1.769531 -24.894531 1.875 -24.9375 2 -24.9375 L 6.15625 -24.9375 C 6.28125 -24.9375 6.382812 -24.894531 6.46875 -24.8125 C 6.550781 -24.726562 6.59375 -24.628906 6.59375 -24.515625 L 6.59375 -0.421875 C 6.59375 -0.304688 6.550781 -0.207031 6.46875 -0.125 C 6.382812 -0.0390625 6.28125 0 6.15625 0 Z M 2 0 "/></g></g></g><g fill="#45433f" fill-opacity="1"><g transform="translate(110.881228, 208.417954)"><g><path d="M 12.046875 0 C 11.753906 0 11.597656 -0.128906 11.578125 -0.390625 L 11.015625 -3.8125 C 11.015625 -3.925781 10.941406 -3.984375 10.796875 -3.984375 L 6.265625 -3.984375 C 6.128906 -3.984375 6.0625 -3.925781 6.0625 -3.8125 L 5.484375 -0.390625 C 5.460938 -0.128906 5.304688 0 5.015625 0 L 0.859375 0 C 0.546875 0 0.425781 -0.15625 0.5 -0.46875 L 5.734375 -24.546875 C 5.785156 -24.804688 5.941406 -24.9375 6.203125 -24.9375 L 11.015625 -24.9375 C 11.273438 -24.9375 11.425781 -24.804688 11.46875 -24.546875 L 16.671875 -0.46875 L 16.703125 -0.328125 C 16.703125 -0.109375 16.570312 0 16.3125 0 Z M 6.765625 -8.046875 C 6.765625 -7.929688 6.8125 -7.875 6.90625 -7.875 L 10.125 -7.875 C 10.238281 -7.875 10.285156 -7.929688 10.265625 -8.046875 L 8.578125 -17.78125 C 8.554688 -17.851562 8.519531 -17.890625 8.46875 -17.890625 C 8.425781 -17.890625 8.394531 -17.851562 8.375 -17.78125 Z M 6.765625 -8.046875 "/></g></g></g><g fill="#45433f" fill-opacity="1"><g transform="translate(128.046838, 208.417954)"><g><path d="M 7.984375 0.28125 C 6.597656 0.28125 5.382812 0.0078125 4.34375 -0.53125 C 3.300781 -1.082031 2.492188 -1.847656 1.921875 -2.828125 C 1.347656 -3.816406 1.0625 -4.953125 1.0625 -6.234375 L 1.0625 -7.265625 C 1.0625 -7.390625 1.101562 -7.488281 1.1875 -7.5625 C 1.269531 -7.644531 1.375 -7.6875 1.5 -7.6875 L 5.59375 -7.6875 C 5.707031 -7.6875 5.804688 -7.644531 5.890625 -7.5625 C 5.972656 -7.488281 6.015625 -7.390625 6.015625 -7.265625 L 6.015625 -6.484375 C 6.015625 -5.742188 6.203125 -5.148438 6.578125 -4.703125 C 6.960938 -4.253906 7.441406 -4.03125 8.015625 -4.03125 C 8.585938 -4.03125 9.0625 -4.242188 9.4375 -4.671875 C 9.820312 -5.097656 10.015625 -5.65625 10.015625 -6.34375 C 10.015625 -7.050781 9.773438 -7.660156 9.296875 -8.171875 C 8.816406 -8.679688 7.890625 -9.4375 6.515625 -10.4375 C 5.328125 -11.289062 4.363281 -12.050781 3.625 -12.71875 C 2.894531 -13.382812 2.269531 -14.203125 1.75 -15.171875 C 1.226562 -16.148438 0.96875 -17.28125 0.96875 -18.5625 C 0.96875 -20.582031 1.59375 -22.195312 2.84375 -23.40625 C 4.101562 -24.613281 5.769531 -25.21875 7.84375 -25.21875 C 9.925781 -25.21875 11.601562 -24.585938 12.875 -23.328125 C 14.144531 -22.078125 14.78125 -20.425781 14.78125 -18.375 L 14.78125 -17.53125 C 14.78125 -17.40625 14.738281 -17.300781 14.65625 -17.21875 C 14.570312 -17.132812 14.472656 -17.09375 14.359375 -17.09375 L 10.265625 -17.09375 C 10.140625 -17.09375 10.035156 -17.132812 9.953125 -17.21875 C 9.867188 -17.300781 9.828125 -17.40625 9.828125 -17.53125 L 9.828125 -18.484375 C 9.828125 -19.222656 9.644531 -19.8125 9.28125 -20.25 C 8.914062 -20.6875 8.4375 -20.90625 7.84375 -20.90625 C 7.269531 -20.90625 6.800781 -20.695312 6.4375 -20.28125 C 6.082031 -19.875 5.90625 -19.300781 5.90625 -18.5625 C 5.90625 -17.84375 6.128906 -17.210938 6.578125 -16.671875 C 7.035156 -16.128906 7.929688 -15.367188 9.265625 -14.390625 C 10.734375 -13.296875 11.84375 -12.410156 12.59375 -11.734375 C 13.34375 -11.054688 13.925781 -10.304688 14.34375 -9.484375 C 14.757812 -8.671875 14.96875 -7.695312 14.96875 -6.5625 C 14.96875 -4.46875 14.320312 -2.800781 13.03125 -1.5625 C 11.75 -0.332031 10.066406 0.28125 7.984375 0.28125 Z M 7.984375 0.28125 "/></g></g></g><g fill="#45433f" fill-opacity="1"><g transform="translate(26.157189, 257.917951)"><g><path d="M 12.046875 0 C 11.753906 0 11.597656 -0.128906 11.578125 -0.390625 L 11.015625 -3.8125 C 11.015625 -3.925781 10.941406 -3.984375 10.796875 -3.984375 L 6.265625 -3.984375 C 6.128906 -3.984375 6.0625 -3.925781 6.0625 -3.8125 L 5.484375 -0.390625 C 5.460938 -0.128906 5.304688 0 5.015625 0 L 0.859375 0 C 0.546875 0 0.425781 -0.15625 0.5 -0.46875 L 5.734375 -24.546875 C 5.785156 -24.804688 5.941406 -24.9375 6.203125 -24.9375 L 11.015625 -24.9375 C 11.273438 -24.9375 11.425781 -24.804688 11.46875 -24.546875 L 16.671875 -0.46875 L 16.703125 -0.328125 C 16.703125 -0.109375 16.570312 0 16.3125 0 Z M 6.765625 -8.046875 C 6.765625 -7.929688 6.8125 -7.875 6.90625 -7.875 L 10.125 -7.875 C 10.238281 -7.875 10.285156 -7.929688 10.265625 -8.046875 L 8.578125 -17.78125 C 8.554688 -17.851562 8.519531 -17.890625 8.46875 -17.890625 C 8.425781 -17.890625 8.394531 -17.851562 8.375 -17.78125 Z M 6.765625 -8.046875 "/></g></g></g><g fill="#45433f" fill-opacity="1"><g transform="translate(43.322799, 257.917951)"><g><path d="M 9.15625 -24.96875 C 10.457031 -24.96875 11.617188 -24.644531 12.640625 -24 C 13.660156 -23.363281 14.453125 -22.46875 15.015625 -21.3125 C 15.578125 -20.164062 15.859375 -18.859375 15.859375 -17.390625 C 15.859375 -15.179688 15.265625 -13.410156 14.078125 -12.078125 C 12.890625 -10.742188 11.332031 -10.078125 9.40625 -10.078125 L 6.734375 -10.078125 C 6.617188 -10.078125 6.5625 -10.019531 6.5625 -9.90625 L 6.5625 -0.421875 C 6.5625 -0.304688 6.519531 -0.207031 6.4375 -0.125 C 6.351562 -0.0390625 6.25 0 6.125 0 L 1.953125 0 C 1.835938 0 1.738281 -0.0390625 1.65625 -0.125 C 1.570312 -0.207031 1.53125 -0.304688 1.53125 -0.421875 L 1.53125 -24.546875 C 1.53125 -24.660156 1.570312 -24.757812 1.65625 -24.84375 C 1.738281 -24.925781 1.835938 -24.96875 1.953125 -24.96875 Z M 8.296875 -14 C 9.054688 -14 9.664062 -14.289062 10.125 -14.875 C 10.59375 -15.457031 10.828125 -16.257812 10.828125 -17.28125 C 10.828125 -18.320312 10.59375 -19.140625 10.125 -19.734375 C 9.664062 -20.328125 9.054688 -20.625 8.296875 -20.625 L 6.734375 -20.625 C 6.617188 -20.625 6.5625 -20.566406 6.5625 -20.453125 L 6.5625 -14.171875 C 6.5625 -14.054688 6.617188 -14 6.734375 -14 Z M 8.296875 -14 "/></g></g></g><g fill="#45433f" fill-opacity="1"><g transform="translate(59.882982, 257.917951)"><g><path d="M 8.40625 0.28125 C 6.21875 0.28125 4.472656 -0.359375 3.171875 -1.640625 C 1.867188 -2.921875 1.21875 -4.628906 1.21875 -6.765625 L 1.21875 -18.171875 C 1.21875 -20.304688 1.867188 -22.015625 3.171875 -23.296875 C 4.472656 -24.578125 6.21875 -25.21875 8.40625 -25.21875 C 10.59375 -25.21875 12.34375 -24.578125 13.65625 -23.296875 C 14.976562 -22.015625 15.640625 -20.304688 15.640625 -18.171875 L 15.640625 -6.765625 C 15.640625 -4.628906 14.976562 -2.921875 13.65625 -1.640625 C 12.34375 -0.359375 10.59375 0.28125 8.40625 0.28125 Z M 8.40625 -4.03125 C 9.070312 -4.03125 9.601562 -4.257812 10 -4.71875 C 10.40625 -5.1875 10.609375 -5.800781 10.609375 -6.5625 L 10.609375 -18.375 C 10.609375 -19.132812 10.40625 -19.742188 10 -20.203125 C 9.601562 -20.671875 9.070312 -20.90625 8.40625 -20.90625 C 7.738281 -20.90625 7.207031 -20.671875 6.8125 -20.203125 C 6.425781 -19.742188 6.234375 -19.132812 6.234375 -18.375 L 6.234375 -6.5625 C 6.234375 -5.800781 6.425781 -5.1875 6.8125 -4.71875 C 7.207031 -4.257812 7.738281 -4.03125 8.40625 -4.03125 Z M 8.40625 -4.03125 "/></g></g></g><g fill="#45433f" fill-opacity="1"><g transform="translate(76.728067, 257.917951)"><g><path d="M 2 0 C 1.875 0 1.769531 -0.0390625 1.6875 -0.125 C 1.601562 -0.207031 1.5625 -0.304688 1.5625 -0.421875 L 1.5625 -24.515625 C 1.5625 -24.628906 1.601562 -24.726562 1.6875 -24.8125 C 1.769531 -24.894531 1.875 -24.9375 2 -24.9375 L 6.15625 -24.9375 C 6.28125 -24.9375 6.382812 -24.894531 6.46875 -24.8125 C 6.550781 -24.726562 6.59375 -24.628906 6.59375 -24.515625 L 6.59375 -0.421875 C 6.59375 -0.304688 6.550781 -0.207031 6.46875 -0.125 C 6.382812 -0.0390625 6.28125 0 6.15625 0 Z M 2 0 "/></g></g></g><g fill="#45433f" fill-opacity="1"><g transform="translate(84.919129, 257.917951)"><g><path d="M 8.40625 0.28125 C 6.21875 0.28125 4.472656 -0.359375 3.171875 -1.640625 C 1.867188 -2.921875 1.21875 -4.628906 1.21875 -6.765625 L 1.21875 -18.171875 C 1.21875 -20.304688 1.867188 -22.015625 3.171875 -23.296875 C 4.472656 -24.578125 6.21875 -25.21875 8.40625 -25.21875 C 10.59375 -25.21875 12.34375 -24.578125 13.65625 -23.296875 C 14.976562 -22.015625 15.640625 -20.304688 15.640625 -18.171875 L 15.640625 -6.765625 C 15.640625 -4.628906 14.976562 -2.921875 13.65625 -1.640625 C 12.34375 -0.359375 10.59375 0.28125 8.40625 0.28125 Z M 8.40625 -4.03125 C 9.070312 -4.03125 9.601562 -4.257812 10 -4.71875 C 10.40625 -5.1875 10.609375 -5.800781 10.609375 -6.5625 L 10.609375 -18.375 C 10.609375 -19.132812 10.40625 -19.742188 10 -20.203125 C 9.601562 -20.671875 9.070312 -20.90625 8.40625 -20.90625 C 7.738281 -20.90625 7.207031 -20.671875 6.8125 -20.203125 C 6.425781 -19.742188 6.234375 -19.132812 6.234375 -18.375 L 6.234375 -6.5625 C 6.234375 -5.800781 6.425781 -5.1875 6.8125 -4.71875 C 7.207031 -4.257812 7.738281 -4.03125 8.40625 -4.03125 Z M 8.40625 -4.03125 "/></g></g></g><g fill="#45433f" fill-opacity="1"><g transform="translate(101.764213, 257.917951)"><g/></g></g><g fill="#45433f" fill-opacity="1"><g transform="translate(108.886878, 257.917951)"><g><path d="M 7.484375 0.28125 C 5.390625 0.28125 3.703125 -0.328125 2.421875 -1.546875 C 1.140625 -2.773438 0.5 -4.394531 0.5 -6.40625 L 0.5 -8.875 C 0.5 -8.988281 0.539062 -9.085938 0.625 -9.171875 C 0.707031 -9.253906 0.804688 -9.296875 0.921875 -9.296875 L 5.09375 -9.296875 C 5.207031 -9.296875 5.304688 -9.253906 5.390625 -9.171875 C 5.472656 -9.085938 5.515625 -8.988281 5.515625 -8.875 L 5.515625 -6.34375 C 5.515625 -5.65625 5.691406 -5.097656 6.046875 -4.671875 C 6.410156 -4.242188 6.890625 -4.03125 7.484375 -4.03125 C 8.097656 -4.03125 8.585938 -4.242188 8.953125 -4.671875 C 9.328125 -5.097656 9.515625 -5.65625 9.515625 -6.34375 L 9.515625 -24.515625 C 9.515625 -24.628906 9.554688 -24.726562 9.640625 -24.8125 C 9.722656 -24.894531 9.820312 -24.9375 9.9375 -24.9375 L 14.109375 -24.9375 C 14.222656 -24.9375 14.320312 -24.894531 14.40625 -24.8125 C 14.488281 -24.726562 14.53125 -24.628906 14.53125 -24.515625 L 14.53125 -6.40625 C 14.53125 -4.394531 13.882812 -2.773438 12.59375 -1.546875 C 11.300781 -0.328125 9.597656 0.28125 7.484375 0.28125 Z M 7.484375 0.28125 "/></g></g></g><g fill="#45433f" fill-opacity="1"><g transform="translate(124.984091, 257.917951)"><g><path d="M 8.546875 0.28125 C 6.410156 0.28125 4.691406 -0.382812 3.390625 -1.71875 C 2.097656 -3.0625 1.453125 -4.851562 1.453125 -7.09375 L 1.453125 -24.515625 C 1.453125 -24.628906 1.492188 -24.726562 1.578125 -24.8125 C 1.660156 -24.894531 1.765625 -24.9375 1.890625 -24.9375 L 6.0625 -24.9375 C 6.175781 -24.9375 6.273438 -24.894531 6.359375 -24.8125 C 6.441406 -24.726562 6.484375 -24.628906 6.484375 -24.515625 L 6.484375 -6.59375 C 6.484375 -5.832031 6.671875 -5.210938 7.046875 -4.734375 C 7.429688 -4.265625 7.929688 -4.03125 8.546875 -4.03125 C 9.160156 -4.03125 9.648438 -4.265625 10.015625 -4.734375 C 10.390625 -5.210938 10.578125 -5.832031 10.578125 -6.59375 L 10.578125 -24.515625 C 10.578125 -24.628906 10.617188 -24.726562 10.703125 -24.8125 C 10.785156 -24.894531 10.890625 -24.9375 11.015625 -24.9375 L 15.171875 -24.9375 C 15.296875 -24.9375 15.398438 -24.894531 15.484375 -24.8125 C 15.566406 -24.726562 15.609375 -24.628906 15.609375 -24.515625 L 15.609375 -7.09375 C 15.609375 -4.851562 14.957031 -3.0625 13.65625 -1.71875 C 12.363281 -0.382812 10.660156 0.28125 8.546875 0.28125 Z M 8.546875 0.28125 "/></g></g></g><g fill="#45433f" fill-opacity="1"><g transform="translate(142.04286, 257.917951)"><g><path d="M 11.40625 0 C 11.144531 0 10.976562 -0.117188 10.90625 -0.359375 L 8.15625 -10.1875 C 8.113281 -10.28125 8.054688 -10.328125 7.984375 -10.328125 L 6.765625 -10.328125 C 6.648438 -10.328125 6.59375 -10.269531 6.59375 -10.15625 L 6.59375 -0.421875 C 6.59375 -0.304688 6.550781 -0.207031 6.46875 -0.125 C 6.382812 -0.0390625 6.28125 0 6.15625 0 L 2 0 C 1.875 0 1.769531 -0.0390625 1.6875 -0.125 C 1.601562 -0.207031 1.5625 -0.304688 1.5625 -0.421875 L 1.5625 -24.515625 C 1.5625 -24.628906 1.601562 -24.726562 1.6875 -24.8125 C 1.769531 -24.894531 1.875 -24.9375 2 -24.9375 L 9.1875 -24.9375 C 10.5 -24.9375 11.664062 -24.617188 12.6875 -23.984375 C 13.707031 -23.359375 14.492188 -22.472656 15.046875 -21.328125 C 15.609375 -20.191406 15.890625 -18.890625 15.890625 -17.421875 C 15.890625 -16.015625 15.617188 -14.773438 15.078125 -13.703125 C 14.546875 -12.640625 13.804688 -11.8125 12.859375 -11.21875 C 12.816406 -11.195312 12.78125 -11.164062 12.75 -11.125 C 12.726562 -11.09375 12.726562 -11.054688 12.75 -11.015625 L 16.03125 -0.5 L 16.0625 -0.359375 C 16.0625 -0.117188 15.929688 0 15.671875 0 Z M 6.765625 -20.625 C 6.648438 -20.625 6.59375 -20.566406 6.59375 -20.453125 L 6.59375 -14.359375 C 6.59375 -14.234375 6.648438 -14.171875 6.765625 -14.171875 L 8.375 -14.171875 C 9.101562 -14.171875 9.695312 -14.460938 10.15625 -15.046875 C 10.625 -15.628906 10.859375 -16.410156 10.859375 -17.390625 C 10.859375 -18.378906 10.625 -19.164062 10.15625 -19.75 C 9.695312 -20.332031 9.101562 -20.625 8.375 -20.625 Z M 6.765625 -20.625 "/></g></g></g><g fill="#45433f" fill-opacity="1"><g transform="translate(158.816727, 257.917951)"><g><path d="M 2 0 C 1.875 0 1.769531 -0.0390625 1.6875 -0.125 C 1.601562 -0.207031 1.5625 -0.304688 1.5625 -0.421875 L 1.5625 -24.515625 C 1.5625 -24.628906 1.601562 -24.726562 1.6875 -24.8125 C 1.769531 -24.894531 1.875 -24.9375 2 -24.9375 L 6.15625 -24.9375 C 6.28125 -24.9375 6.382812 -24.894531 6.46875 -24.8125 C 6.550781 -24.726562 6.59375 -24.628906 6.59375 -24.515625 L 6.59375 -0.421875 C 6.59375 -0.304688 6.550781 -0.207031 6.46875 -0.125 C 6.382812 -0.0390625 6.28125 0 6.15625 0 Z M 2.140625 -27.140625 C 1.972656 -27.140625 1.851562 -27.1875 1.78125 -27.28125 C 1.707031 -27.382812 1.71875 -27.503906 1.8125 -27.640625 L 3.921875 -31.28125 C 4.015625 -31.46875 4.191406 -31.5625 4.453125 -31.5625 L 7.765625 -31.5625 C 8.003906 -31.5625 8.125 -31.476562 8.125 -31.3125 C 8.125 -31.238281 8.085938 -31.144531 8.015625 -31.03125 L 5.265625 -27.390625 C 5.128906 -27.222656 4.960938 -27.140625 4.765625 -27.140625 Z M 2.140625 -27.140625 "/></g></g></g><g fill="#45433f" fill-opacity="1"><g transform="translate(167.007789, 257.917951)"><g><path d="M 2 0 C 1.875 0 1.769531 -0.0390625 1.6875 -0.125 C 1.601562 -0.207031 1.5625 -0.304688 1.5625 -0.421875 L 1.5625 -24.515625 C 1.5625 -24.628906 1.601562 -24.726562 1.6875 -24.8125 C 1.769531 -24.894531 1.875 -24.9375 2 -24.9375 L 8.4375 -24.9375 C 10.601562 -24.9375 12.335938 -24.304688 13.640625 -23.046875 C 14.953125 -21.785156 15.609375 -20.113281 15.609375 -18.03125 L 15.609375 -6.90625 C 15.609375 -4.820312 14.953125 -3.148438 13.640625 -1.890625 C 12.335938 -0.628906 10.601562 0 8.4375 0 Z M 6.59375 -4.484375 C 6.59375 -4.367188 6.648438 -4.3125 6.765625 -4.3125 L 8.375 -4.34375 C 9.007812 -4.363281 9.53125 -4.632812 9.9375 -5.15625 C 10.34375 -5.6875 10.554688 -6.378906 10.578125 -7.234375 L 10.578125 -17.703125 C 10.578125 -18.609375 10.375 -19.320312 9.96875 -19.84375 C 9.570312 -20.363281 9.03125 -20.625 8.34375 -20.625 L 6.765625 -20.625 C 6.648438 -20.625 6.59375 -20.566406 6.59375 -20.453125 Z M 6.59375 -4.484375 "/></g></g></g><g fill="#45433f" fill-opacity="1"><g transform="translate(183.959716, 257.917951)"><g><path d="M 2 0 C 1.875 0 1.769531 -0.0390625 1.6875 -0.125 C 1.601562 -0.207031 1.5625 -0.304688 1.5625 -0.421875 L 1.5625 -24.515625 C 1.5625 -24.628906 1.601562 -24.726562 1.6875 -24.8125 C 1.769531 -24.894531 1.875 -24.9375 2 -24.9375 L 6.15625 -24.9375 C 6.28125 -24.9375 6.382812 -24.894531 6.46875 -24.8125 C 6.550781 -24.726562 6.59375 -24.628906 6.59375 -24.515625 L 6.59375 -0.421875 C 6.59375 -0.304688 6.550781 -0.207031 6.46875 -0.125 C 6.382812 -0.0390625 6.28125 0 6.15625 0 Z M 2 0 "/></g></g></g><g fill="#45433f" fill-opacity="1"><g transform="translate(192.150778, 257.917951)"><g><path d="M 8.296875 0.28125 C 6.160156 0.28125 4.445312 -0.351562 3.15625 -1.625 C 1.863281 -2.894531 1.21875 -4.597656 1.21875 -6.734375 L 1.21875 -18.28125 C 1.21875 -20.394531 1.863281 -22.078125 3.15625 -23.328125 C 4.445312 -24.585938 6.160156 -25.21875 8.296875 -25.21875 C 10.460938 -25.21875 12.191406 -24.585938 13.484375 -23.328125 C 14.773438 -22.078125 15.421875 -20.394531 15.421875 -18.28125 L 15.421875 -17.890625 C 15.421875 -17.765625 15.378906 -17.660156 15.296875 -17.578125 C 15.210938 -17.492188 15.113281 -17.453125 15 -17.453125 L 10.828125 -17.28125 C 10.546875 -17.28125 10.40625 -17.410156 10.40625 -17.671875 L 10.40625 -18.59375 C 10.40625 -19.28125 10.210938 -19.835938 9.828125 -20.265625 C 9.453125 -20.691406 8.941406 -20.90625 8.296875 -20.90625 C 7.679688 -20.90625 7.179688 -20.691406 6.796875 -20.265625 C 6.421875 -19.835938 6.234375 -19.28125 6.234375 -18.59375 L 6.234375 -6.3125 C 6.234375 -5.613281 6.421875 -5.054688 6.796875 -4.640625 C 7.179688 -4.234375 7.679688 -4.03125 8.296875 -4.03125 C 8.941406 -4.03125 9.453125 -4.234375 9.828125 -4.640625 C 10.210938 -5.054688 10.40625 -5.613281 10.40625 -6.3125 L 10.40625 -7.265625 C 10.40625 -7.390625 10.445312 -7.488281 10.53125 -7.5625 C 10.613281 -7.644531 10.710938 -7.6875 10.828125 -7.6875 L 15 -7.515625 C 15.113281 -7.515625 15.210938 -7.472656 15.296875 -7.390625 C 15.378906 -7.304688 15.421875 -7.207031 15.421875 -7.09375 L 15.421875 -6.734375 C 15.421875 -4.597656 14.765625 -2.894531 13.453125 -1.625 C 12.148438 -0.351562 10.429688 0.28125 8.296875 0.28125 Z M 8.296875 0.28125 "/></g></g></g><g fill="#45433f" fill-opacity="1"><g transform="translate(208.675348, 257.917951)"><g><path d="M 8.40625 0.28125 C 6.21875 0.28125 4.472656 -0.359375 3.171875 -1.640625 C 1.867188 -2.921875 1.21875 -4.628906 1.21875 -6.765625 L 1.21875 -18.171875 C 1.21875 -20.304688 1.867188 -22.015625 3.171875 -23.296875 C 4.472656 -24.578125 6.21875 -25.21875 8.40625 -25.21875 C 10.59375 -25.21875 12.34375 -24.578125 13.65625 -23.296875 C 14.976562 -22.015625 15.640625 -20.304688 15.640625 -18.171875 L 15.640625 -6.765625 C 15.640625 -4.628906 14.976562 -2.921875 13.65625 -1.640625 C 12.34375 -0.359375 10.59375 0.28125 8.40625 0.28125 Z M 8.40625 -4.03125 C 9.070312 -4.03125 9.601562 -4.257812 10 -4.71875 C 10.40625 -5.1875 10.609375 -5.800781 10.609375 -6.5625 L 10.609375 -18.375 C 10.609375 -19.132812 10.40625 -19.742188 10 -20.203125 C 9.601562 -20.671875 9.070312 -20.90625 8.40625 -20.90625 C 7.738281 -20.90625 7.207031 -20.671875 6.8125 -20.203125 C 6.425781 -19.742188 6.234375 -19.132812 6.234375 -18.375 L 6.234375 -6.5625 C 6.234375 -5.800781 6.425781 -5.1875 6.8125 -4.71875 C 7.207031 -4.257812 7.738281 -4.03125 8.40625 -4.03125 Z M 8.40625 -4.03125 "/></g></g></g><g fill="#45433f" fill-opacity="1"><g transform="translate(26.157189, 307.417948)"><g><path d="M 12.046875 0 C 11.753906 0 11.597656 -0.128906 11.578125 -0.390625 L 11.015625 -3.8125 C 11.015625 -3.925781 10.941406 -3.984375 10.796875 -3.984375 L 6.265625 -3.984375 C 6.128906 -3.984375 6.0625 -3.925781 6.0625 -3.8125 L 5.484375 -0.390625 C 5.460938 -0.128906 5.304688 0 5.015625 0 L 0.859375 0 C 0.546875 0 0.425781 -0.15625 0.5 -0.46875 L 5.734375 -24.546875 C 5.785156 -24.804688 5.941406 -24.9375 6.203125 -24.9375 L 11.015625 -24.9375 C 11.273438 -24.9375 11.425781 -24.804688 11.46875 -24.546875 L 16.671875 -0.46875 L 16.703125 -0.328125 C 16.703125 -0.109375 16.570312 0 16.3125 0 Z M 6.765625 -8.046875 C 6.765625 -7.929688 6.8125 -7.875 6.90625 -7.875 L 10.125 -7.875 C 10.238281 -7.875 10.285156 -7.929688 10.265625 -8.046875 L 8.578125 -17.78125 C 8.554688 -17.851562 8.519531 -17.890625 8.46875 -17.890625 C 8.425781 -17.890625 8.394531 -17.851562 8.375 -17.78125 Z M 6.765625 -8.046875 "/></g></g></g><g fill="#45433f" fill-opacity="1"><g transform="translate(43.322799, 307.417948)"><g><path d="M 9.15625 -24.96875 C 10.457031 -24.96875 11.617188 -24.644531 12.640625 -24 C 13.660156 -23.363281 14.453125 -22.46875 15.015625 -21.3125 C 15.578125 -20.164062 15.859375 -18.859375 15.859375 -17.390625 C 15.859375 -15.179688 15.265625 -13.410156 14.078125 -12.078125 C 12.890625 -10.742188 11.332031 -10.078125 9.40625 -10.078125 L 6.734375 -10.078125 C 6.617188 -10.078125 6.5625 -10.019531 6.5625 -9.90625 L 6.5625 -0.421875 C 6.5625 -0.304688 6.519531 -0.207031 6.4375 -0.125 C 6.351562 -0.0390625 6.25 0 6.125 0 L 1.953125 0 C 1.835938 0 1.738281 -0.0390625 1.65625 -0.125 C 1.570312 -0.207031 1.53125 -0.304688 1.53125 -0.421875 L 1.53125 -24.546875 C 1.53125 -24.660156 1.570312 -24.757812 1.65625 -24.84375 C 1.738281 -24.925781 1.835938 -24.96875 1.953125 -24.96875 Z M 8.296875 -14 C 9.054688 -14 9.664062 -14.289062 10.125 -14.875 C 10.59375 -15.457031 10.828125 -16.257812 10.828125 -17.28125 C 10.828125 -18.320312 10.59375 -19.140625 10.125 -19.734375 C 9.664062 -20.328125 9.054688 -20.625 8.296875 -20.625 L 6.734375 -20.625 C 6.617188 -20.625 6.5625 -20.566406 6.5625 -20.453125 L 6.5625 -14.171875 C 6.5625 -14.054688 6.617188 -14 6.734375 -14 Z M 8.296875 -14 "/></g></g></g><g fill="#45433f" fill-opacity="1"><g transform="translate(59.882982, 307.417948)"><g><path d="M 8.40625 0.28125 C 6.21875 0.28125 4.472656 -0.359375 3.171875 -1.640625 C 1.867188 -2.921875 1.21875 -4.628906 1.21875 -6.765625 L 1.21875 -18.171875 C 1.21875 -20.304688 1.867188 -22.015625 3.171875 -23.296875 C 4.472656 -24.578125 6.21875 -25.21875 8.40625 -25.21875 C 10.59375 -25.21875 12.34375 -24.578125 13.65625 -23.296875 C 14.976562 -22.015625 15.640625 -20.304688 15.640625 -18.171875 L 15.640625 -6.765625 C 15.640625 -4.628906 14.976562 -2.921875 13.65625 -1.640625 C 12.34375 -0.359375 10.59375 0.28125 8.40625 0.28125 Z M 8.40625 -4.03125 C 9.070312 -4.03125 9.601562 -4.257812 10 -4.71875 C 10.40625 -5.1875 10.609375 -5.800781 10.609375 -6.5625 L 10.609375 -18.375 C 10.609375 -19.132812 10.40625 -19.742188 10 -20.203125 C 9.601562 -20.671875 9.070312 -20.90625 8.40625 -20.90625 C 7.738281 -20.90625 7.207031 -20.671875 6.8125 -20.203125 C 6.425781 -19.742188 6.234375 -19.132812 6.234375 -18.375 L 6.234375 -6.5625 C 6.234375 -5.800781 6.425781 -5.1875 6.8125 -4.71875 C 7.207031 -4.257812 7.738281 -4.03125 8.40625 -4.03125 Z M 8.40625 -4.03125 "/></g></g></g><g fill="#45433f" fill-opacity="1"><g transform="translate(76.728067, 307.417948)"><g><path d="M 2 0 C 1.875 0 1.769531 -0.0390625 1.6875 -0.125 C 1.601562 -0.207031 1.5625 -0.304688 1.5625 -0.421875 L 1.5625 -24.515625 C 1.5625 -24.628906 1.601562 -24.726562 1.6875 -24.8125 C 1.769531 -24.894531 1.875 -24.9375 2 -24.9375 L 6.15625 -24.9375 C 6.28125 -24.9375 6.382812 -24.894531 6.46875 -24.8125 C 6.550781 -24.726562 6.59375 -24.628906 6.59375 -24.515625 L 6.59375 -0.421875 C 6.59375 -0.304688 6.550781 -0.207031 6.46875 -0.125 C 6.382812 -0.0390625 6.28125 0 6.15625 0 Z M 2 0 "/></g></g></g><g fill="#45433f" fill-opacity="1"><g transform="translate(84.919129, 307.417948)"><g><path d="M 8.40625 0.28125 C 6.21875 0.28125 4.472656 -0.359375 3.171875 -1.640625 C 1.867188 -2.921875 1.21875 -4.628906 1.21875 -6.765625 L 1.21875 -18.171875 C 1.21875 -20.304688 1.867188 -22.015625 3.171875 -23.296875 C 4.472656 -24.578125 6.21875 -25.21875 8.40625 -25.21875 C 10.59375 -25.21875 12.34375 -24.578125 13.65625 -23.296875 C 14.976562 -22.015625 15.640625 -20.304688 15.640625 -18.171875 L 15.640625 -6.765625 C 15.640625 -4.628906 14.976562 -2.921875 13.65625 -1.640625 C 12.34375 -0.359375 10.59375 0.28125 8.40625 0.28125 Z M 8.40625 -4.03125 C 9.070312 -4.03125 9.601562 -4.257812 10 -4.71875 C 10.40625 -5.1875 10.609375 -5.800781 10.609375 -6.5625 L 10.609375 -18.375 C 10.609375 -19.132812 10.40625 -19.742188 10 -20.203125 C 9.601562 -20.671875 9.070312 -20.90625 8.40625 -20.90625 C 7.738281 -20.90625 7.207031 -20.671875 6.8125 -20.203125 C 6.425781 -19.742188 6.234375 -19.132812 6.234375 -18.375 L 6.234375 -6.5625 C 6.234375 -5.800781 6.425781 -5.1875 6.8125 -4.71875 C 7.207031 -4.257812 7.738281 -4.03125 8.40625 -4.03125 Z M 8.40625 -4.03125 "/></g></g></g><g fill="#45433f" fill-opacity="1"><g transform="translate(101.764213, 307.417948)"><g/></g></g><g fill="#45433f" fill-opacity="1"><g transform="translate(108.886878, 307.417948)"><g><path d="M 2 0 C 1.875 0 1.769531 -0.0390625 1.6875 -0.125 C 1.601562 -0.207031 1.5625 -0.304688 1.5625 -0.421875 L 1.5625 -24.515625 C 1.5625 -24.628906 1.601562 -24.726562 1.6875 -24.8125 C 1.769531 -24.894531 1.875 -24.9375 2 -24.9375 L 8.4375 -24.9375 C 10.601562 -24.9375 12.335938 -24.304688 13.640625 -23.046875 C 14.953125 -21.785156 15.609375 -20.113281 15.609375 -18.03125 L 15.609375 -6.90625 C 15.609375 -4.820312 14.953125 -3.148438 13.640625 -1.890625 C 12.335938 -0.628906 10.601562 0 8.4375 0 Z M 6.59375 -4.484375 C 6.59375 -4.367188 6.648438 -4.3125 6.765625 -4.3125 L 8.375 -4.34375 C 9.007812 -4.363281 9.53125 -4.632812 9.9375 -5.15625 C 10.34375 -5.6875 10.554688 -6.378906 10.578125 -7.234375 L 10.578125 -17.703125 C 10.578125 -18.609375 10.375 -19.320312 9.96875 -19.84375 C 9.570312 -20.363281 9.03125 -20.625 8.34375 -20.625 L 6.765625 -20.625 C 6.648438 -20.625 6.59375 -20.566406 6.59375 -20.453125 Z M 6.59375 -4.484375 "/></g></g></g><g fill="#45433f" fill-opacity="1"><g transform="translate(125.838805, 307.417948)"><g><path d="M 8.40625 0.28125 C 6.21875 0.28125 4.472656 -0.359375 3.171875 -1.640625 C 1.867188 -2.921875 1.21875 -4.628906 1.21875 -6.765625 L 1.21875 -18.171875 C 1.21875 -20.304688 1.867188 -22.015625 3.171875 -23.296875 C 4.472656 -24.578125 6.21875 -25.21875 8.40625 -25.21875 C 10.59375 -25.21875 12.34375 -24.578125 13.65625 -23.296875 C 14.976562 -22.015625 15.640625 -20.304688 15.640625 -18.171875 L 15.640625 -6.765625 C 15.640625 -4.628906 14.976562 -2.921875 13.65625 -1.640625 C 12.34375 -0.359375 10.59375 0.28125 8.40625 0.28125 Z M 8.40625 -4.03125 C 9.070312 -4.03125 9.601562 -4.257812 10 -4.71875 C 10.40625 -5.1875 10.609375 -5.800781 10.609375 -6.5625 L 10.609375 -18.375 C 10.609375 -19.132812 10.40625 -19.742188 10 -20.203125 C 9.601562 -20.671875 9.070312 -20.90625 8.40625 -20.90625 C 7.738281 -20.90625 7.207031 -20.671875 6.8125 -20.203125 C 6.425781 -19.742188 6.234375 -19.132812 6.234375 -18.375 L 6.234375 -6.5625 C 6.234375 -5.800781 6.425781 -5.1875 6.8125 -4.71875 C 7.207031 -4.257812 7.738281 -4.03125 8.40625 -4.03125 Z M 8.40625 -4.03125 "/></g></g></g><g fill="#45433f" fill-opacity="1"><g transform="translate(142.683889, 307.417948)"><g/></g></g><g fill="#45433f" fill-opacity="1"><g transform="translate(149.806554, 307.417948)"><g><path d="M 14.640625 -21.046875 C 14.640625 -20.929688 14.597656 -20.832031 14.515625 -20.75 C 14.429688 -20.664062 14.332031 -20.625 14.21875 -20.625 L 6.765625 -20.625 C 6.648438 -20.625 6.59375 -20.566406 6.59375 -20.453125 L 6.59375 -14.8125 C 6.59375 -14.695312 6.648438 -14.640625 6.765625 -14.640625 L 11.046875 -14.640625 C 11.160156 -14.640625 11.257812 -14.597656 11.34375 -14.515625 C 11.425781 -14.429688 11.46875 -14.332031 11.46875 -14.21875 L 11.46875 -10.765625 C 11.46875 -10.640625 11.425781 -10.535156 11.34375 -10.453125 C 11.257812 -10.367188 11.160156 -10.328125 11.046875 -10.328125 L 6.765625 -10.328125 C 6.648438 -10.328125 6.59375 -10.269531 6.59375 -10.15625 L 6.59375 -4.484375 C 6.59375 -4.367188 6.648438 -4.3125 6.765625 -4.3125 L 14.21875 -4.3125 C 14.332031 -4.3125 14.429688 -4.269531 14.515625 -4.1875 C 14.597656 -4.101562 14.640625 -4.003906 14.640625 -3.890625 L 14.640625 -0.421875 C 14.640625 -0.304688 14.597656 -0.207031 14.515625 -0.125 C 14.429688 -0.0390625 14.332031 0 14.21875 0 L 2 0 C 1.875 0 1.769531 -0.0390625 1.6875 -0.125 C 1.601562 -0.207031 1.5625 -0.304688 1.5625 -0.421875 L 1.5625 -24.515625 C 1.5625 -24.628906 1.601562 -24.726562 1.6875 -24.8125 C 1.769531 -24.894531 1.875 -24.9375 2 -24.9375 L 14.21875 -24.9375 C 14.332031 -24.9375 14.429688 -24.894531 14.515625 -24.8125 C 14.597656 -24.726562 14.640625 -24.628906 14.640625 -24.515625 Z M 14.640625 -21.046875 "/></g></g></g><g fill="#45433f" fill-opacity="1"><g transform="translate(165.405182, 307.417948)"><g><path d="M 7.984375 0.28125 C 6.597656 0.28125 5.382812 0.0078125 4.34375 -0.53125 C 3.300781 -1.082031 2.492188 -1.847656 1.921875 -2.828125 C 1.347656 -3.816406 1.0625 -4.953125 1.0625 -6.234375 L 1.0625 -7.265625 C 1.0625 -7.390625 1.101562 -7.488281 1.1875 -7.5625 C 1.269531 -7.644531 1.375 -7.6875 1.5 -7.6875 L 5.59375 -7.6875 C 5.707031 -7.6875 5.804688 -7.644531 5.890625 -7.5625 C 5.972656 -7.488281 6.015625 -7.390625 6.015625 -7.265625 L 6.015625 -6.484375 C 6.015625 -5.742188 6.203125 -5.148438 6.578125 -4.703125 C 6.960938 -4.253906 7.441406 -4.03125 8.015625 -4.03125 C 8.585938 -4.03125 9.0625 -4.242188 9.4375 -4.671875 C 9.820312 -5.097656 10.015625 -5.65625 10.015625 -6.34375 C 10.015625 -7.050781 9.773438 -7.660156 9.296875 -8.171875 C 8.816406 -8.679688 7.890625 -9.4375 6.515625 -10.4375 C 5.328125 -11.289062 4.363281 -12.050781 3.625 -12.71875 C 2.894531 -13.382812 2.269531 -14.203125 1.75 -15.171875 C 1.226562 -16.148438 0.96875 -17.28125 0.96875 -18.5625 C 0.96875 -20.582031 1.59375 -22.195312 2.84375 -23.40625 C 4.101562 -24.613281 5.769531 -25.21875 7.84375 -25.21875 C 9.925781 -25.21875 11.601562 -24.585938 12.875 -23.328125 C 14.144531 -22.078125 14.78125 -20.425781 14.78125 -18.375 L 14.78125 -17.53125 C 14.78125 -17.40625 14.738281 -17.300781 14.65625 -17.21875 C 14.570312 -17.132812 14.472656 -17.09375 14.359375 -17.09375 L 10.265625 -17.09375 C 10.140625 -17.09375 10.035156 -17.132812 9.953125 -17.21875 C 9.867188 -17.300781 9.828125 -17.40625 9.828125 -17.53125 L 9.828125 -18.484375 C 9.828125 -19.222656 9.644531 -19.8125 9.28125 -20.25 C 8.914062 -20.6875 8.4375 -20.90625 7.84375 -20.90625 C 7.269531 -20.90625 6.800781 -20.695312 6.4375 -20.28125 C 6.082031 -19.875 5.90625 -19.300781 5.90625 -18.5625 C 5.90625 -17.84375 6.128906 -17.210938 6.578125 -16.671875 C 7.035156 -16.128906 7.929688 -15.367188 9.265625 -14.390625 C 10.734375 -13.296875 11.84375 -12.410156 12.59375 -11.734375 C 13.34375 -11.054688 13.925781 -10.304688 14.34375 -9.484375 C 14.757812 -8.671875 14.96875 -7.695312 14.96875 -6.5625 C 14.96875 -4.46875 14.320312 -2.800781 13.03125 -1.5625 C 11.75 -0.332031 10.066406 0.28125 7.984375 0.28125 Z M 7.984375 0.28125 "/></g></g></g><g fill="#45433f" fill-opacity="1"><g transform="translate(181.217483, 307.417948)"><g><path d="M 15.390625 -24.9375 C 15.503906 -24.9375 15.601562 -24.894531 15.6875 -24.8125 C 15.769531 -24.726562 15.8125 -24.628906 15.8125 -24.515625 L 15.8125 -21.046875 C 15.8125 -20.929688 15.769531 -20.832031 15.6875 -20.75 C 15.601562 -20.664062 15.503906 -20.625 15.390625 -20.625 L 10.9375 -20.625 C 10.820312 -20.625 10.765625 -20.566406 10.765625 -20.453125 L 10.765625 -0.421875 C 10.765625 -0.304688 10.722656 -0.207031 10.640625 -0.125 C 10.554688 -0.0390625 10.453125 0 10.328125 0 L 6.15625 0 C 6.039062 0 5.941406 -0.0390625 5.859375 -0.125 C 5.773438 -0.207031 5.734375 -0.304688 5.734375 -0.421875 L 5.734375 -20.453125 C 5.734375 -20.566406 5.675781 -20.625 5.5625 -20.625 L 1.28125 -20.625 C 1.164062 -20.625 1.066406 -20.664062 0.984375 -20.75 C 0.898438 -20.832031 0.859375 -20.929688 0.859375 -21.046875 L 0.859375 -24.515625 C 0.859375 -24.628906 0.898438 -24.726562 0.984375 -24.8125 C 1.066406 -24.894531 1.164062 -24.9375 1.28125 -24.9375 Z M 15.390625 -24.9375 "/></g></g></g><g fill="#45433f" fill-opacity="1"><g transform="translate(197.884508, 307.417948)"><g><path d="M 12.046875 0 C 11.753906 0 11.597656 -0.128906 11.578125 -0.390625 L 11.015625 -3.8125 C 11.015625 -3.925781 10.941406 -3.984375 10.796875 -3.984375 L 6.265625 -3.984375 C 6.128906 -3.984375 6.0625 -3.925781 6.0625 -3.8125 L 5.484375 -0.390625 C 5.460938 -0.128906 5.304688 0 5.015625 0 L 0.859375 0 C 0.546875 0 0.425781 -0.15625 0.5 -0.46875 L 5.734375 -24.546875 C 5.785156 -24.804688 5.941406 -24.9375 6.203125 -24.9375 L 11.015625 -24.9375 C 11.273438 -24.9375 11.425781 -24.804688 11.46875 -24.546875 L 16.671875 -0.46875 L 16.703125 -0.328125 C 16.703125 -0.109375 16.570312 0 16.3125 0 Z M 6.765625 -8.046875 C 6.765625 -7.929688 6.8125 -7.875 6.90625 -7.875 L 10.125 -7.875 C 10.238281 -7.875 10.285156 -7.929688 10.265625 -8.046875 L 8.578125 -17.78125 C 8.554688 -17.851562 8.519531 -17.890625 8.46875 -17.890625 C 8.425781 -17.890625 8.394531 -17.851562 8.375 -17.78125 Z M 6.765625 -8.046875 "/></g></g></g><g fill="#45433f" fill-opacity="1"><g transform="translate(215.050119, 307.417948)"><g><path d="M 2 0 C 1.875 0 1.769531 -0.0390625 1.6875 -0.125 C 1.601562 -0.207031 1.5625 -0.304688 1.5625 -0.421875 L 1.5625 -24.515625 C 1.5625 -24.628906 1.601562 -24.726562 1.6875 -24.8125 C 1.769531 -24.894531 1.875 -24.9375 2 -24.9375 L 8.4375 -24.9375 C 10.601562 -24.9375 12.335938 -24.304688 13.640625 -23.046875 C 14.953125 -21.785156 15.609375 -20.113281 15.609375 -18.03125 L 15.609375 -6.90625 C 15.609375 -4.820312 14.953125 -3.148438 13.640625 -1.890625 C 12.335938 -0.628906 10.601562 0 8.4375 0 Z M 6.59375 -4.484375 C 6.59375 -4.367188 6.648438 -4.3125 6.765625 -4.3125 L 8.375 -4.34375 C 9.007812 -4.363281 9.53125 -4.632812 9.9375 -5.15625 C 10.34375 -5.6875 10.554688 -6.378906 10.578125 -7.234375 L 10.578125 -17.703125 C 10.578125 -18.609375 10.375 -19.320312 9.96875 -19.84375 C 9.570312 -20.363281 9.03125 -20.625 8.34375 -20.625 L 6.765625 -20.625 C 6.648438 -20.625 6.59375 -20.566406 6.59375 -20.453125 Z M 6.59375 -4.484375 "/></g></g></g><g fill="#45433f" fill-opacity="1"><g transform="translate(232.002056, 307.417948)"><g><path d="M 8.40625 0.28125 C 6.21875 0.28125 4.472656 -0.359375 3.171875 -1.640625 C 1.867188 -2.921875 1.21875 -4.628906 1.21875 -6.765625 L 1.21875 -18.171875 C 1.21875 -20.304688 1.867188 -22.015625 3.171875 -23.296875 C 4.472656 -24.578125 6.21875 -25.21875 8.40625 -25.21875 C 10.59375 -25.21875 12.34375 -24.578125 13.65625 -23.296875 C 14.976562 -22.015625 15.640625 -20.304688 15.640625 -18.171875 L 15.640625 -6.765625 C 15.640625 -4.628906 14.976562 -2.921875 13.65625 -1.640625 C 12.34375 -0.359375 10.59375 0.28125 8.40625 0.28125 Z M 8.40625 -4.03125 C 9.070312 -4.03125 9.601562 -4.257812 10 -4.71875 C 10.40625 -5.1875 10.609375 -5.800781 10.609375 -6.5625 L 10.609375 -18.375 C 10.609375 -19.132812 10.40625 -19.742188 10 -20.203125 C 9.601562 -20.671875 9.070312 -20.90625 8.40625 -20.90625 C 7.738281 -20.90625 7.207031 -20.671875 6.8125 -20.203125 C 6.425781 -19.742188 6.234375 -19.132812 6.234375 -18.375 L 6.234375 -6.5625 C 6.234375 -5.800781 6.425781 -5.1875 6.8125 -4.71875 C 7.207031 -4.257812 7.738281 -4.03125 8.40625 -4.03125 Z M 8.40625 -4.03125 "/></g></g></g><g fill="#45433f" fill-opacity="1"><g transform="translate(26.157189, 356.917945)"><g><path d="M 2 0 C 1.875 0 1.769531 -0.0390625 1.6875 -0.125 C 1.601562 -0.207031 1.5625 -0.304688 1.5625 -0.421875 L 1.5625 -24.515625 C 1.5625 -24.628906 1.601562 -24.726562 1.6875 -24.8125 C 1.769531 -24.894531 1.875 -24.9375 2 -24.9375 L 6.15625 -24.9375 C 6.28125 -24.9375 6.382812 -24.894531 6.46875 -24.8125 C 6.550781 -24.726562 6.59375 -24.628906 6.59375 -24.515625 L 6.59375 -4.484375 C 6.59375 -4.367188 6.648438 -4.3125 6.765625 -4.3125 L 14.25 -4.3125 C 14.363281 -4.3125 14.460938 -4.269531 14.546875 -4.1875 C 14.628906 -4.101562 14.671875 -4.003906 14.671875 -3.890625 L 14.671875 -0.421875 C 14.671875 -0.304688 14.628906 -0.207031 14.546875 -0.125 C 14.460938 -0.0390625 14.363281 0 14.25 0 Z M 2 0 "/></g></g></g><g fill="#45433f" fill-opacity="1"><g transform="translate(41.328449, 356.917945)"><g><path d="M 14.640625 -21.046875 C 14.640625 -20.929688 14.597656 -20.832031 14.515625 -20.75 C 14.429688 -20.664062 14.332031 -20.625 14.21875 -20.625 L 6.765625 -20.625 C 6.648438 -20.625 6.59375 -20.566406 6.59375 -20.453125 L 6.59375 -14.8125 C 6.59375 -14.695312 6.648438 -14.640625 6.765625 -14.640625 L 11.046875 -14.640625 C 11.160156 -14.640625 11.257812 -14.597656 11.34375 -14.515625 C 11.425781 -14.429688 11.46875 -14.332031 11.46875 -14.21875 L 11.46875 -10.765625 C 11.46875 -10.640625 11.425781 -10.535156 11.34375 -10.453125 C 11.257812 -10.367188 11.160156 -10.328125 11.046875 -10.328125 L 6.765625 -10.328125 C 6.648438 -10.328125 6.59375 -10.269531 6.59375 -10.15625 L 6.59375 -4.484375 C 6.59375 -4.367188 6.648438 -4.3125 6.765625 -4.3125 L 14.21875 -4.3125 C 14.332031 -4.3125 14.429688 -4.269531 14.515625 -4.1875 C 14.597656 -4.101562 14.640625 -4.003906 14.640625 -3.890625 L 14.640625 -0.421875 C 14.640625 -0.304688 14.597656 -0.207031 14.515625 -0.125 C 14.429688 -0.0390625 14.332031 0 14.21875 0 L 2 0 C 1.875 0 1.769531 -0.0390625 1.6875 -0.125 C 1.601562 -0.207031 1.5625 -0.304688 1.5625 -0.421875 L 1.5625 -24.515625 C 1.5625 -24.628906 1.601562 -24.726562 1.6875 -24.8125 C 1.769531 -24.894531 1.875 -24.9375 2 -24.9375 L 14.21875 -24.9375 C 14.332031 -24.9375 14.429688 -24.894531 14.515625 -24.8125 C 14.597656 -24.726562 14.640625 -24.628906 14.640625 -24.515625 Z M 14.640625 -21.046875 "/></g></g></g><g fill="#45433f" fill-opacity="1"><g transform="translate(56.927077, 356.917945)"><g><path d="M 2 0 C 1.875 0 1.769531 -0.0390625 1.6875 -0.125 C 1.601562 -0.207031 1.5625 -0.304688 1.5625 -0.421875 L 1.5625 -24.515625 C 1.5625 -24.628906 1.601562 -24.726562 1.6875 -24.8125 C 1.769531 -24.894531 1.875 -24.9375 2 -24.9375 L 6.15625 -24.9375 C 6.28125 -24.9375 6.382812 -24.894531 6.46875 -24.8125 C 6.550781 -24.726562 6.59375 -24.628906 6.59375 -24.515625 L 6.59375 -0.421875 C 6.59375 -0.304688 6.550781 -0.207031 6.46875 -0.125 C 6.382812 -0.0390625 6.28125 0 6.15625 0 Z M 2 0 "/></g></g></g><g fill="#45433f" fill-opacity="1"><g transform="translate(65.118139, 356.917945)"><g><path d="M 7.984375 0.28125 C 6.597656 0.28125 5.382812 0.0078125 4.34375 -0.53125 C 3.300781 -1.082031 2.492188 -1.847656 1.921875 -2.828125 C 1.347656 -3.816406 1.0625 -4.953125 1.0625 -6.234375 L 1.0625 -7.265625 C 1.0625 -7.390625 1.101562 -7.488281 1.1875 -7.5625 C 1.269531 -7.644531 1.375 -7.6875 1.5 -7.6875 L 5.59375 -7.6875 C 5.707031 -7.6875 5.804688 -7.644531 5.890625 -7.5625 C 5.972656 -7.488281 6.015625 -7.390625 6.015625 -7.265625 L 6.015625 -6.484375 C 6.015625 -5.742188 6.203125 -5.148438 6.578125 -4.703125 C 6.960938 -4.253906 7.441406 -4.03125 8.015625 -4.03125 C 8.585938 -4.03125 9.0625 -4.242188 9.4375 -4.671875 C 9.820312 -5.097656 10.015625 -5.65625 10.015625 -6.34375 C 10.015625 -7.050781 9.773438 -7.660156 9.296875 -8.171875 C 8.816406 -8.679688 7.890625 -9.4375 6.515625 -10.4375 C 5.328125 -11.289062 4.363281 -12.050781 3.625 -12.71875 C 2.894531 -13.382812 2.269531 -14.203125 1.75 -15.171875 C 1.226562 -16.148438 0.96875 -17.28125 0.96875 -18.5625 C 0.96875 -20.582031 1.59375 -22.195312 2.84375 -23.40625 C 4.101562 -24.613281 5.769531 -25.21875 7.84375 -25.21875 C 9.925781 -25.21875 11.601562 -24.585938 12.875 -23.328125 C 14.144531 -22.078125 14.78125 -20.425781 14.78125 -18.375 L 14.78125 -17.53125 C 14.78125 -17.40625 14.738281 -17.300781 14.65625 -17.21875 C 14.570312 -17.132812 14.472656 -17.09375 14.359375 -17.09375 L 10.265625 -17.09375 C 10.140625 -17.09375 10.035156 -17.132812 9.953125 -17.21875 C 9.867188 -17.300781 9.828125 -17.40625 9.828125 -17.53125 L 9.828125 -18.484375 C 9.828125 -19.222656 9.644531 -19.8125 9.28125 -20.25 C 8.914062 -20.6875 8.4375 -20.90625 7.84375 -20.90625 C 7.269531 -20.90625 6.800781 -20.695312 6.4375 -20.28125 C 6.082031 -19.875 5.90625 -19.300781 5.90625 -18.5625 C 5.90625 -17.84375 6.128906 -17.210938 6.578125 -16.671875 C 7.035156 -16.128906 7.929688 -15.367188 9.265625 -14.390625 C 10.734375 -13.296875 11.84375 -12.410156 12.59375 -11.734375 C 13.34375 -11.054688 13.925781 -10.304688 14.34375 -9.484375 C 14.757812 -8.671875 14.96875 -7.695312 14.96875 -6.5625 C 14.96875 -4.46875 14.320312 -2.800781 13.03125 -1.5625 C 11.75 -0.332031 10.066406 0.28125 7.984375 0.28125 Z M 7.984375 0.28125 "/></g></g></g><g fill="#45433f" fill-opacity="1"><g transform="translate(138.06102, 131.877296)"><g><path d="M 7.84375 -21.703125 C 7.800781 -21.367188 7.78125 -20.816406 7.78125 -20.046875 L 7.78125 -19.09375 L 11.71875 -19.09375 L 11.71875 -15.8125 L 7.78125 -15.8125 L 7.78125 0 L 2.78125 0 L 2.78125 -15.8125 L 0.71875 -15.8125 L 0.71875 -19.09375 L 2.78125 -19.09375 L 2.78125 -19.890625 C 2.78125 -20.929688 2.804688 -21.664062 2.859375 -22.09375 C 3.171875 -25.550781 5.5 -27.28125 9.84375 -27.28125 C 10.5625 -27.28125 11.296875 -27.191406 12.046875 -27.015625 L 12.046875 -23.546875 C 10.859375 -23.765625 9.882812 -23.707031 9.125 -23.375 C 8.375 -23.050781 7.945312 -22.492188 7.84375 -21.703125 Z M 7.84375 -21.703125 "/></g></g></g><g fill="#45433f" fill-opacity="1"><g transform="translate(150.286758, 131.877296)"><g><path d="M 13.453125 0 L 13.09375 -2.828125 L 12.15625 -0.765625 C 10.894531 0.078125 9.300781 0.5 7.375 0.5 C 5.613281 0.5 4.140625 0.0078125 2.953125 -0.96875 C 1.773438 -1.957031 1.1875 -3.332031 1.1875 -5.09375 C 1.1875 -7.21875 2.082031 -8.851562 3.875 -10 C 5.675781 -11.144531 8.316406 -11.71875 11.796875 -11.71875 L 13.015625 -11.71875 L 13.015625 -12.125 C 13.015625 -12.894531 12.992188 -13.492188 12.953125 -13.921875 C 12.785156 -15.460938 11.796875 -16.234375 9.984375 -16.234375 C 7.984375 -16.234375 6.910156 -15.148438 6.765625 -12.984375 L 1.921875 -12.953125 C 1.992188 -15.066406 2.796875 -16.726562 4.328125 -17.9375 C 5.859375 -19.144531 7.804688 -19.75 10.171875 -19.75 C 14.960938 -19.75 17.53125 -17.859375 17.875 -14.078125 C 17.945312 -13.160156 17.984375 -12.171875 17.984375 -11.109375 L 17.984375 -4.890625 C 17.984375 -3.410156 18.101562 -1.78125 18.34375 0 Z M 9.296875 -3 C 10.359375 -3 11.242188 -3.359375 11.953125 -4.078125 C 12.660156 -4.804688 13.015625 -5.8125 13.015625 -7.09375 L 13.015625 -8.640625 C 8.578125 -8.953125 6.359375 -7.90625 6.359375 -5.5 C 6.359375 -3.832031 7.335938 -3 9.296875 -3 Z M 9.296875 -3 "/></g></g></g><g fill="#45433f" fill-opacity="1"><g transform="translate(170.614764, 131.877296)"><g><path d="M 30.859375 -14.96875 C 30.972656 -14.15625 31.03125 -12.988281 31.03125 -11.46875 L 31.03125 0 L 26.046875 0 L 26.046875 -10.015625 C 26.046875 -11.242188 26 -12.296875 25.90625 -13.171875 C 25.632812 -15.210938 24.546875 -16.234375 22.640625 -16.234375 C 20.304688 -16.234375 19.140625 -14.113281 19.140625 -9.875 L 19.140625 0 L 14.171875 0 L 14.171875 -10.015625 C 14.171875 -11.242188 14.125 -12.296875 14.03125 -13.171875 C 13.769531 -15.210938 12.675781 -16.234375 10.75 -16.234375 C 8.425781 -16.234375 7.265625 -14.113281 7.265625 -9.875 L 7.265625 0 L 2.28125 0 L 2.28125 -19.25 L 7.265625 -19.25 L 7.265625 -16.3125 L 8.6875 -18.625 C 9.738281 -19.375 11.097656 -19.75 12.765625 -19.75 C 14.285156 -19.75 15.546875 -19.414062 16.546875 -18.75 C 17.546875 -18.09375 18.253906 -17.207031 18.671875 -16.09375 L 20.546875 -18.625 C 21.609375 -19.375 22.984375 -19.75 24.671875 -19.75 C 26.429688 -19.75 27.84375 -19.300781 28.90625 -18.40625 C 29.96875 -17.519531 30.617188 -16.375 30.859375 -14.96875 Z M 30.859375 -14.96875 "/></g></g></g><g fill="#45433f" fill-opacity="1"><g transform="translate(203.74724, 131.877296)"><g><path d="M 5.96875 -20.796875 L 3.140625 -20.796875 L 5.96875 -25.0625 L 10.453125 -25.0625 Z M 7.265625 0 L 2.28125 0 L 2.28125 -19.25 L 7.265625 -19.25 Z M 7.265625 0 "/></g></g></g><g fill="#45433f" fill-opacity="1"><g transform="translate(213.368679, 131.877296)"><g><path d="M 7.125 -26.59375 L 7.125 -6.296875 C 7.125 -5.453125 7.132812 -4.859375 7.15625 -4.515625 C 7.207031 -4.015625 7.390625 -3.675781 7.703125 -3.5 C 8.015625 -3.332031 8.582031 -3.273438 9.40625 -3.328125 L 9.40625 0.109375 C 8.539062 0.203125 7.515625 0.25 6.328125 0.25 C 3.671875 0.25 2.296875 -0.878906 2.203125 -3.140625 C 2.160156 -3.722656 2.140625 -4.738281 2.140625 -6.1875 L 2.140625 -26.59375 Z M 7.125 -26.59375 "/></g></g></g><g fill="#45433f" fill-opacity="1"><g transform="translate(223.460338, 131.877296)"><g><path d="M 2.78125 -25.65625 C 3.289062 -26.15625 3.953125 -26.40625 4.765625 -26.40625 C 5.585938 -26.40625 6.253906 -26.15625 6.765625 -25.65625 C 7.273438 -25.164062 7.53125 -24.535156 7.53125 -23.765625 C 7.53125 -22.972656 7.273438 -22.332031 6.765625 -21.84375 C 6.253906 -21.363281 5.585938 -21.125 4.765625 -21.125 C 3.953125 -21.125 3.289062 -21.363281 2.78125 -21.84375 C 2.28125 -22.332031 2.03125 -22.972656 2.03125 -23.765625 C 2.03125 -24.535156 2.28125 -25.164062 2.78125 -25.65625 Z M 7.265625 0 L 2.28125 0 L 2.28125 -19.25 L 7.265625 -19.25 Z M 7.265625 0 "/></g></g></g><g fill="#45433f" fill-opacity="1"><g transform="translate(233.081771, 131.877296)"><g><path d="M 13.453125 0 L 13.09375 -2.828125 L 12.15625 -0.765625 C 10.894531 0.078125 9.300781 0.5 7.375 0.5 C 5.613281 0.5 4.140625 0.0078125 2.953125 -0.96875 C 1.773438 -1.957031 1.1875 -3.332031 1.1875 -5.09375 C 1.1875 -7.21875 2.082031 -8.851562 3.875 -10 C 5.675781 -11.144531 8.316406 -11.71875 11.796875 -11.71875 L 13.015625 -11.71875 L 13.015625 -12.125 C 13.015625 -12.894531 12.992188 -13.492188 12.953125 -13.921875 C 12.785156 -15.460938 11.796875 -16.234375 9.984375 -16.234375 C 7.984375 -16.234375 6.910156 -15.148438 6.765625 -12.984375 L 1.921875 -12.953125 C 1.992188 -15.066406 2.796875 -16.726562 4.328125 -17.9375 C 5.859375 -19.144531 7.804688 -19.75 10.171875 -19.75 C 14.960938 -19.75 17.53125 -17.859375 17.875 -14.078125 C 17.945312 -13.160156 17.984375 -12.171875 17.984375 -11.109375 L 17.984375 -4.890625 C 17.984375 -3.410156 18.101562 -1.78125 18.34375 0 Z M 9.296875 -3 C 10.359375 -3 11.242188 -3.359375 11.953125 -4.078125 C 12.660156 -4.804688 13.015625 -5.8125 13.015625 -7.09375 L 13.015625 -8.640625 C 8.578125 -8.953125 6.359375 -7.90625 6.359375 -5.5 C 6.359375 -3.832031 7.335938 -3 9.296875 -3 Z M 9.296875 -3 "/></g></g></g></svg>