<svg xmlns="http://www.w3.org/2000/svg" xmlns:xlink="http://www.w3.org/1999/xlink" width="500" zoomAndPan="magnify" viewBox="0 0 375 374.999991" height="500" preserveAspectRatio="xMidYMid meet" version="1.0"><defs><g/><clipPath id="c8a5bf9224"><path d="M 128.960938 55.890625 L 330.761719 55.890625 L 330.761719 91.359375 L 128.960938 91.359375 Z M 128.960938 55.890625 " clip-rule="nonzero"/></clipPath><clipPath id="67f4077010"><path d="M 128.960938 105.695312 L 343.097656 105.695312 L 343.097656 136.367188 L 128.960938 136.367188 Z M 128.960938 105.695312 " clip-rule="nonzero"/></clipPath><clipPath id="9745e535a4"><path d="M 37.5 19.886719 L 113.25 19.886719 L 113.25 169.886719 L 37.5 169.886719 Z M 37.5 19.886719 " clip-rule="nonzero"/></clipPath></defs><rect x="-37.5" width="450" fill="#ffffff" y="-37.499999" height="449.999989" fill-opacity="1"/><rect x="-37.5" width="450" fill="#ffffff" y="-37.499999" height="449.999989" fill-opacity="1"/><g clip-path="url(#c8a5bf9224)"><path fill="#e4b628" d="M 128.960938 55.890625 L 330.699219 55.890625 L 330.699219 91.359375 L 128.960938 91.359375 Z M 128.960938 55.890625 " fill-opacity="1" fill-rule="nonzero"/></g><g clip-path="url(#67f4077010)"><path fill="#e4b628" d="M 128.960938 105.695312 L 343.054688 105.695312 L 343.054688 136.367188 L 128.960938 136.367188 Z M 128.960938 105.695312 " fill-opacity="1" fill-rule="nonzero"/></g><g clip-path="url(#9745e535a4)"><path fill="#e4b628" d="M 70.238281 44.121094 L 72.789062 43.871094 L 72.789062 27.519531 L 72.769531 27.347656 C 72.765625 27.339844 72.757812 26.644531 73.121094 26.234375 C 73.488281 25.820312 74.3125 25.589844 75.449219 25.589844 C 76.5 25.589844 77.304688 25.800781 77.609375 26.144531 C 77.871094 26.445312 77.878906 26.996094 77.855469 27.207031 L 77.820312 27.371094 L 77.820312 43.710938 L 80.511719 43.839844 C 86.304688 44.113281 91.296875 44.78125 95.34375 45.820312 C 96.710938 46.25 100.875 48.042969 100.875 53.851562 C 100.875 57.265625 100.335938 58.675781 100.015625 59.214844 C 99.796875 59.582031 99.644531 59.699219 99.117188 59.699219 C 98.832031 59.699219 98.484375 59.652344 98.085938 59.5625 L 96.644531 59.117188 C 96.632812 59.113281 96.625 59.109375 96.613281 59.105469 L 92.894531 57.640625 L 92.894531 57.796875 C 89.101562 56.605469 85.101562 55.777344 80.953125 55.328125 L 77.820312 54.988281 L 77.820312 87.871094 L 79.6875 88.542969 C 89.898438 92.226562 97.257812 96.425781 101.566406 101.027344 C 105.730469 105.480469 107.753906 110.726562 107.753906 117.066406 C 107.753906 124.429688 105.503906 130.164062 100.871094 134.601562 C 96.179688 139.09375 89.269531 141.878906 80.332031 142.875 L 77.820312 143.15625 L 77.820312 161.550781 C 77.820312 161.558594 77.777344 162.34375 77.433594 163.0625 C 77.109375 163.734375 76.648438 164.179688 75.449219 164.179688 C 73.351562 164.179688 72.886719 162.300781 72.789062 161.433594 L 72.789062 143.308594 L 69.976562 143.296875 C 64.871094 143.269531 59.882812 142.621094 55.175781 141.367188 L 54.527344 141.191406 C 50.515625 140.082031 46.363281 138.9375 45 136.457031 C 44.285156 135.164062 44.285156 133.398438 45 131.050781 C 45.472656 129.492188 46.5 127.703125 50.257812 127.703125 C 53.046875 127.703125 55.722656 128.71875 55.738281 128.726562 L 60.496094 130.589844 L 60.402344 130.089844 C 63.761719 130.949219 66.902344 131.480469 69.773438 131.671875 L 72.789062 131.875 L 72.789062 100.238281 L 70.945312 99.554688 C 60.042969 95.5 52.570312 91.136719 48.738281 86.585938 C 44.972656 82.117188 43.144531 76.789062 43.144531 70.289062 C 43.144531 63.351562 45.53125 57.601562 50.4375 52.71875 C 55.355469 47.820312 62.015625 44.929688 70.238281 44.121094 Z M 46.445312 48.707031 C 40.5 54.625 37.484375 61.886719 37.484375 70.289062 C 37.484375 78.070312 39.816406 84.777344 44.410156 90.230469 C 48.707031 95.332031 56.148438 99.898438 67.128906 104.15625 L 67.128906 125.699219 C 64.234375 125.269531 61.054688 124.5 57.640625 123.398438 C 57.40625 123.308594 56.925781 123.144531 56.269531 122.953125 L 53.941406 122.203125 L 53.941406 122.402344 C 52.832031 122.195312 51.566406 122.042969 50.257812 122.042969 C 44.816406 122.042969 41.027344 124.65625 39.582031 129.40625 C 38.421875 133.234375 38.574219 136.523438 40.042969 139.1875 C 42.558594 143.757812 48.117188 145.289062 53.023438 146.644531 L 53.691406 146.828125 C 58.015625 147.980469 62.527344 148.664062 67.128906 148.882812 L 67.128906 161.570312 L 67.140625 161.777344 C 67.382812 165.019531 69.792969 169.839844 75.449219 169.839844 C 81.296875 169.839844 83.453125 164.90625 83.476562 161.570312 L 83.476562 148.167969 C 92.484375 146.792969 99.644531 143.609375 104.78125 138.691406 C 110.511719 133.207031 113.414062 125.929688 113.414062 117.066406 C 113.414062 109.332031 110.816406 102.632812 105.695312 97.160156 C 100.984375 92.128906 93.703125 87.785156 83.476562 83.914062 L 83.476562 61.378906 C 86.699219 61.898438 89.796875 62.683594 92.742188 63.710938 C 92.792969 63.734375 92.84375 63.757812 92.894531 63.78125 L 92.894531 63.808594 L 94.929688 64.523438 L 94.929688 64.519531 L 94.988281 64.542969 C 95.0625 64.566406 95.128906 64.589844 95.203125 64.613281 L 98.554688 65.78125 L 98.554688 65.335938 C 98.746094 65.351562 98.933594 65.355469 99.117188 65.355469 C 101.621094 65.355469 103.613281 64.234375 104.878906 62.113281 C 106.007812 60.214844 106.535156 57.589844 106.535156 53.851562 C 106.535156 46.074219 101.367188 41.742188 96.941406 40.390625 L 96.824219 40.359375 C 93.042969 39.382812 88.5625 38.707031 83.476562 38.34375 L 83.476562 27.875 C 83.574219 26.980469 83.652344 24.554688 81.960938 22.53125 C 80.972656 21.347656 79.039062 19.933594 75.449219 19.933594 C 71.890625 19.933594 69.914062 21.320312 68.882812 22.484375 C 67.078125 24.523438 67.078125 27.007812 67.128906 27.804688 L 67.128906 38.804688 C 58.730469 40.070312 51.78125 43.394531 46.445312 48.707031 " fill-opacity="1" fill-rule="nonzero"/></g><path fill="#e4b628" d="M 67.128906 62.160156 L 67.128906 76.648438 C 66.753906 76.363281 66.398438 76.078125 66.066406 75.789062 C 63.75 73.753906 62.613281 71.519531 62.613281 69.046875 C 62.613281 66.625 63.203125 63.804688 67.128906 62.160156 Z M 68.703125 84.171875 L 72.789062 86.199219 L 72.789062 55.050781 L 69.457031 55.648438 C 59.125 57.507812 56.957031 63.960938 56.957031 69.046875 C 56.957031 69.625 56.992188 70.195312 57.058594 70.753906 C 57.730469 76.15625 61.636719 80.664062 68.703125 84.171875 " fill-opacity="1" fill-rule="nonzero"/><path fill="#e4b628" d="M 83.476562 111.042969 C 88.285156 114.136719 88.285156 117.011719 88.285156 118.089844 C 88.285156 120.550781 87.664062 123.40625 83.476562 124.953125 Z M 93.945312 118.089844 C 93.945312 116.03125 93.460938 114.109375 92.496094 112.335938 C 90.65625 108.945312 87.074219 106.082031 81.773438 103.78125 L 77.820312 102.066406 L 77.820312 131.855469 L 81.078125 131.351562 C 92.269531 129.632812 93.945312 122.304688 93.945312 118.089844 " fill-opacity="1" fill-rule="nonzero"/><g fill="#45433f" fill-opacity="1"><g transform="translate(138.06102, 84.630199)"><g><path d="M 19.75 -10.015625 C 19.75 -9.316406 19.722656 -8.75 19.671875 -8.3125 L 6 -8.3125 C 6.289062 -4.769531 7.773438 -3 10.453125 -3 C 11.535156 -3 12.429688 -3.285156 13.140625 -3.859375 C 13.859375 -4.441406 14.300781 -5.238281 14.46875 -6.25 L 19.453125 -6.25 C 18.972656 -4.0625 17.921875 -2.390625 16.296875 -1.234375 C 14.671875 -0.078125 12.6875 0.5 10.34375 0.5 C 7.570312 0.5 5.316406 -0.359375 3.578125 -2.078125 C 1.847656 -3.804688 0.984375 -6.296875 0.984375 -9.546875 C 0.984375 -12.535156 1.878906 -14.984375 3.671875 -16.890625 C 5.460938 -18.796875 7.820312 -19.75 10.75 -19.75 C 13.5625 -19.75 15.765625 -18.816406 17.359375 -16.953125 C 18.953125 -15.097656 19.75 -12.785156 19.75 -10.015625 Z M 10.53125 -16.234375 C 8.039062 -16.234375 6.582031 -14.679688 6.15625 -11.578125 L 14.609375 -11.578125 C 14.273438 -14.679688 12.914062 -16.234375 10.53125 -16.234375 Z M 10.53125 -16.234375 "/></g></g></g><g fill="#45433f" fill-opacity="1"><g transform="translate(158.967758, 84.630199)"><g><path d="M 10.59375 -19.75 C 13.125 -19.75 15.171875 -19.054688 16.734375 -17.671875 C 18.304688 -16.285156 19.191406 -14.492188 19.390625 -12.296875 L 14.46875 -12.296875 C 14.03125 -14.921875 12.703125 -16.234375 10.484375 -16.234375 C 9.160156 -16.234375 8.109375 -15.691406 7.328125 -14.609375 C 6.546875 -13.523438 6.15625 -11.921875 6.15625 -9.796875 C 6.15625 -7.503906 6.539062 -5.796875 7.3125 -4.671875 C 8.082031 -3.554688 9.128906 -3 10.453125 -3 C 11.441406 -3 12.28125 -3.3125 12.96875 -3.9375 C 13.65625 -4.570312 14.117188 -5.476562 14.359375 -6.65625 L 19.359375 -6.65625 C 18.941406 -4.34375 17.921875 -2.570312 16.296875 -1.34375 C 14.671875 -0.113281 12.628906 0.5 10.171875 0.5 C 7.441406 0.5 5.226562 -0.359375 3.53125 -2.078125 C 1.832031 -3.804688 0.984375 -6.273438 0.984375 -9.484375 C 0.984375 -12.660156 1.894531 -15.164062 3.71875 -17 C 5.550781 -18.832031 7.84375 -19.75 10.59375 -19.75 Z M 10.59375 -19.75 "/></g></g></g><g fill="#45433f" fill-opacity="1"><g transform="translate(179.259593, 84.630199)"><g><path d="M 3.609375 -16.9375 C 5.367188 -18.8125 7.816406 -19.75 10.953125 -19.75 C 14.085938 -19.75 16.535156 -18.8125 18.296875 -16.9375 C 20.054688 -15.070312 20.9375 -12.632812 20.9375 -9.625 C 20.9375 -6.632812 20.054688 -4.195312 18.296875 -2.3125 C 16.535156 -0.4375 14.085938 0.5 10.953125 0.5 C 7.816406 0.5 5.367188 -0.4375 3.609375 -2.3125 C 1.859375 -4.195312 0.984375 -6.632812 0.984375 -9.625 C 0.984375 -12.632812 1.859375 -15.070312 3.609375 -16.9375 Z M 7.4375 -4.75 C 8.289062 -3.582031 9.460938 -3 10.953125 -3 C 12.453125 -3 13.628906 -3.582031 14.484375 -4.75 C 15.335938 -5.925781 15.765625 -7.550781 15.765625 -9.625 C 15.765625 -11.695312 15.335938 -13.316406 14.484375 -14.484375 C 13.628906 -15.648438 12.453125 -16.234375 10.953125 -16.234375 C 9.460938 -16.234375 8.289062 -15.648438 7.4375 -14.484375 C 6.582031 -13.316406 6.15625 -11.695312 6.15625 -9.625 C 6.15625 -7.550781 6.582031 -5.925781 7.4375 -4.75 Z M 7.4375 -4.75 "/></g></g></g><g fill="#45433f" fill-opacity="1"><g transform="translate(201.179112, 84.630199)"><g><path d="M 20.21875 -14.359375 C 20.3125 -13.492188 20.359375 -12.328125 20.359375 -10.859375 L 20.359375 0 L 15.375 0 L 15.375 -10.171875 C 15.375 -11.296875 15.347656 -12.1875 15.296875 -12.84375 C 15.128906 -15.101562 13.898438 -16.234375 11.609375 -16.234375 C 10.304688 -16.234375 9.253906 -15.625 8.453125 -14.40625 C 7.660156 -13.195312 7.265625 -11.328125 7.265625 -8.796875 L 7.265625 0 L 2.28125 0 L 2.28125 -19.25 L 7.265625 -19.25 L 7.265625 -16.125 L 8.75 -18.40625 C 10.007812 -19.300781 11.554688 -19.75 13.390625 -19.75 C 15.410156 -19.75 17.003906 -19.273438 18.171875 -18.328125 C 19.347656 -17.390625 20.03125 -16.066406 20.21875 -14.359375 Z M 20.21875 -14.359375 "/></g></g></g><g fill="#45433f" fill-opacity="1"><g transform="translate(223.641197, 84.630199)"><g><path d="M 3.609375 -16.9375 C 5.367188 -18.8125 7.816406 -19.75 10.953125 -19.75 C 14.085938 -19.75 16.535156 -18.8125 18.296875 -16.9375 C 20.054688 -15.070312 20.9375 -12.632812 20.9375 -9.625 C 20.9375 -6.632812 20.054688 -4.195312 18.296875 -2.3125 C 16.535156 -0.4375 14.085938 0.5 10.953125 0.5 C 7.816406 0.5 5.367188 -0.4375 3.609375 -2.3125 C 1.859375 -4.195312 0.984375 -6.632812 0.984375 -9.625 C 0.984375 -12.632812 1.859375 -15.070312 3.609375 -16.9375 Z M 7.4375 -4.75 C 8.289062 -3.582031 9.460938 -3 10.953125 -3 C 12.453125 -3 13.628906 -3.582031 14.484375 -4.75 C 15.335938 -5.925781 15.765625 -7.550781 15.765625 -9.625 C 15.765625 -11.695312 15.335938 -13.316406 14.484375 -14.484375 C 13.628906 -15.648438 12.453125 -16.234375 10.953125 -16.234375 C 9.460938 -16.234375 8.289062 -15.648438 7.4375 -14.484375 C 6.582031 -13.316406 6.15625 -11.695312 6.15625 -9.625 C 6.15625 -7.550781 6.582031 -5.925781 7.4375 -4.75 Z M 7.4375 -4.75 "/></g></g></g><g fill="#45433f" fill-opacity="1"><g transform="translate(245.560716, 84.630199)"><g><path d="M 30.859375 -14.96875 C 30.972656 -14.15625 31.03125 -12.988281 31.03125 -11.46875 L 31.03125 0 L 26.046875 0 L 26.046875 -10.015625 C 26.046875 -11.242188 26 -12.296875 25.90625 -13.171875 C 25.632812 -15.210938 24.546875 -16.234375 22.640625 -16.234375 C 20.304688 -16.234375 19.140625 -14.113281 19.140625 -9.875 L 19.140625 0 L 14.171875 0 L 14.171875 -10.015625 C 14.171875 -11.242188 14.125 -12.296875 14.03125 -13.171875 C 13.769531 -15.210938 12.675781 -16.234375 10.75 -16.234375 C 8.425781 -16.234375 7.265625 -14.113281 7.265625 -9.875 L 7.265625 0 L 2.28125 0 L 2.28125 -19.25 L 7.265625 -19.25 L 7.265625 -16.3125 L 8.6875 -18.625 C 9.738281 -19.375 11.097656 -19.75 12.765625 -19.75 C 14.285156 -19.75 15.546875 -19.414062 16.546875 -18.75 C 17.546875 -18.09375 18.253906 -17.207031 18.671875 -16.09375 L 20.546875 -18.625 C 21.609375 -19.375 22.984375 -19.75 24.671875 -19.75 C 26.429688 -19.75 27.84375 -19.300781 28.90625 -18.40625 C 29.96875 -17.519531 30.617188 -16.375 30.859375 -14.96875 Z M 30.859375 -14.96875 "/></g></g></g><g fill="#45433f" fill-opacity="1"><g transform="translate(278.693192, 84.630199)"><g><path d="M 2.78125 -25.65625 C 3.289062 -26.15625 3.953125 -26.40625 4.765625 -26.40625 C 5.585938 -26.40625 6.253906 -26.15625 6.765625 -25.65625 C 7.273438 -25.164062 7.53125 -24.535156 7.53125 -23.765625 C 7.53125 -22.972656 7.273438 -22.332031 6.765625 -21.84375 C 6.253906 -21.363281 5.585938 -21.125 4.765625 -21.125 C 3.953125 -21.125 3.289062 -21.363281 2.78125 -21.84375 C 2.28125 -22.332031 2.03125 -22.972656 2.03125 -23.765625 C 2.03125 -24.535156 2.28125 -25.164062 2.78125 -25.65625 Z M 7.265625 0 L 2.28125 0 L 2.28125 -19.25 L 7.265625 -19.25 Z M 7.265625 0 "/></g></g></g><g fill="#45433f" fill-opacity="1"><g transform="translate(288.314631, 84.630199)"><g><path d="M 16.921875 -3.328125 L 16.921875 0 L 1.015625 0 L 1.015625 -3.140625 L 11.4375 -15.765625 L 1.65625 -15.765625 L 1.65625 -19.09375 L 16.78125 -19.09375 L 16.78125 -15.8125 L 6.4375 -3.328125 Z M 16.921875 -3.328125 "/></g></g></g><g fill="#45433f" fill-opacity="1"><g transform="translate(306.291528, 84.630199)"><g><path d="M 19.75 -10.015625 C 19.75 -9.316406 19.722656 -8.75 19.671875 -8.3125 L 6 -8.3125 C 6.289062 -4.769531 7.773438 -3 10.453125 -3 C 11.535156 -3 12.429688 -3.285156 13.140625 -3.859375 C 13.859375 -4.441406 14.300781 -5.238281 14.46875 -6.25 L 19.453125 -6.25 C 18.972656 -4.0625 17.921875 -2.390625 16.296875 -1.234375 C 14.671875 -0.078125 12.6875 0.5 10.34375 0.5 C 7.570312 0.5 5.316406 -0.359375 3.578125 -2.078125 C 1.847656 -3.804688 0.984375 -6.296875 0.984375 -9.546875 C 0.984375 -12.535156 1.878906 -14.984375 3.671875 -16.890625 C 5.460938 -18.796875 7.820312 -19.75 10.75 -19.75 C 13.5625 -19.75 15.765625 -18.816406 17.359375 -16.953125 C 18.953125 -15.097656 19.75 -12.785156 19.75 -10.015625 Z M 10.53125 -16.234375 C 8.039062 -16.234375 6.582031 -14.679688 6.15625 -11.578125 L 14.609375 -11.578125 C 14.273438 -14.679688 12.914062 -16.234375 10.53125 -16.234375 Z M 10.53125 -16.234375 "/></g></g></g><g fill="#45433f" fill-opacity="1"><g transform="translate(26.157189, 208.41794)"><g><path d="M 2 0 C 1.875 0 1.769531 -0.0390625 1.6875 -0.125 C 1.601562 -0.207031 1.5625 -0.304688 1.5625 -0.421875 L 1.5625 -24.515625 C 1.5625 -24.628906 1.601562 -24.726562 1.6875 -24.8125 C 1.769531 -24.894531 1.875 -24.9375 2 -24.9375 L 8.4375 -24.9375 C 10.601562 -24.9375 12.335938 -24.304688 13.640625 -23.046875 C 14.953125 -21.785156 15.609375 -20.113281 15.609375 -18.03125 L 15.609375 -6.90625 C 15.609375 -4.820312 14.953125 -3.148438 13.640625 -1.890625 C 12.335938 -0.628906 10.601562 0 8.4375 0 Z M 6.59375 -4.484375 C 6.59375 -4.367188 6.648438 -4.3125 6.765625 -4.3125 L 8.375 -4.34375 C 9.007812 -4.363281 9.53125 -4.632812 9.9375 -5.15625 C 10.34375 -5.6875 10.554688 -6.378906 10.578125 -7.234375 L 10.578125 -17.703125 C 10.578125 -18.609375 10.375 -19.320312 9.96875 -19.84375 C 9.570312 -20.363281 9.03125 -20.625 8.34375 -20.625 L 6.765625 -20.625 C 6.648438 -20.625 6.59375 -20.566406 6.59375 -20.453125 Z M 6.59375 -4.484375 "/></g></g></g><g fill="#45433f" fill-opacity="1"><g transform="translate(43.109115, 208.41794)"><g><path d="M 14.640625 -21.046875 C 14.640625 -20.929688 14.597656 -20.832031 14.515625 -20.75 C 14.429688 -20.664062 14.332031 -20.625 14.21875 -20.625 L 6.765625 -20.625 C 6.648438 -20.625 6.59375 -20.566406 6.59375 -20.453125 L 6.59375 -14.8125 C 6.59375 -14.695312 6.648438 -14.640625 6.765625 -14.640625 L 11.046875 -14.640625 C 11.160156 -14.640625 11.257812 -14.597656 11.34375 -14.515625 C 11.425781 -14.429688 11.46875 -14.332031 11.46875 -14.21875 L 11.46875 -10.765625 C 11.46875 -10.640625 11.425781 -10.535156 11.34375 -10.453125 C 11.257812 -10.367188 11.160156 -10.328125 11.046875 -10.328125 L 6.765625 -10.328125 C 6.648438 -10.328125 6.59375 -10.269531 6.59375 -10.15625 L 6.59375 -4.484375 C 6.59375 -4.367188 6.648438 -4.3125 6.765625 -4.3125 L 14.21875 -4.3125 C 14.332031 -4.3125 14.429688 -4.269531 14.515625 -4.1875 C 14.597656 -4.101562 14.640625 -4.003906 14.640625 -3.890625 L 14.640625 -0.421875 C 14.640625 -0.304688 14.597656 -0.207031 14.515625 -0.125 C 14.429688 -0.0390625 14.332031 0 14.21875 0 L 2 0 C 1.875 0 1.769531 -0.0390625 1.6875 -0.125 C 1.601562 -0.207031 1.5625 -0.304688 1.5625 -0.421875 L 1.5625 -24.515625 C 1.5625 -24.628906 1.601562 -24.726562 1.6875 -24.8125 C 1.769531 -24.894531 1.875 -24.9375 2 -24.9375 L 14.21875 -24.9375 C 14.332031 -24.9375 14.429688 -24.894531 14.515625 -24.8125 C 14.597656 -24.726562 14.640625 -24.628906 14.640625 -24.515625 Z M 14.640625 -21.046875 "/></g></g></g><g fill="#45433f" fill-opacity="1"><g transform="translate(58.707743, 208.41794)"><g><path d="M 7.984375 0.28125 C 6.597656 0.28125 5.382812 0.0078125 4.34375 -0.53125 C 3.300781 -1.082031 2.492188 -1.847656 1.921875 -2.828125 C 1.347656 -3.816406 1.0625 -4.953125 1.0625 -6.234375 L 1.0625 -7.265625 C 1.0625 -7.390625 1.101562 -7.488281 1.1875 -7.5625 C 1.269531 -7.644531 1.375 -7.6875 1.5 -7.6875 L 5.59375 -7.6875 C 5.707031 -7.6875 5.804688 -7.644531 5.890625 -7.5625 C 5.972656 -7.488281 6.015625 -7.390625 6.015625 -7.265625 L 6.015625 -6.484375 C 6.015625 -5.742188 6.203125 -5.148438 6.578125 -4.703125 C 6.960938 -4.253906 7.441406 -4.03125 8.015625 -4.03125 C 8.585938 -4.03125 9.0625 -4.242188 9.4375 -4.671875 C 9.820312 -5.097656 10.015625 -5.65625 10.015625 -6.34375 C 10.015625 -7.050781 9.773438 -7.660156 9.296875 -8.171875 C 8.816406 -8.679688 7.890625 -9.4375 6.515625 -10.4375 C 5.328125 -11.289062 4.363281 -12.050781 3.625 -12.71875 C 2.894531 -13.382812 2.269531 -14.203125 1.75 -15.171875 C 1.226562 -16.148438 0.96875 -17.28125 0.96875 -18.5625 C 0.96875 -20.582031 1.59375 -22.195312 2.84375 -23.40625 C 4.101562 -24.613281 5.769531 -25.21875 7.84375 -25.21875 C 9.925781 -25.21875 11.601562 -24.585938 12.875 -23.328125 C 14.144531 -22.078125 14.78125 -20.425781 14.78125 -18.375 L 14.78125 -17.53125 C 14.78125 -17.40625 14.738281 -17.300781 14.65625 -17.21875 C 14.570312 -17.132812 14.472656 -17.09375 14.359375 -17.09375 L 10.265625 -17.09375 C 10.140625 -17.09375 10.035156 -17.132812 9.953125 -17.21875 C 9.867188 -17.300781 9.828125 -17.40625 9.828125 -17.53125 L 9.828125 -18.484375 C 9.828125 -19.222656 9.644531 -19.8125 9.28125 -20.25 C 8.914062 -20.6875 8.4375 -20.90625 7.84375 -20.90625 C 7.269531 -20.90625 6.800781 -20.695312 6.4375 -20.28125 C 6.082031 -19.875 5.90625 -19.300781 5.90625 -18.5625 C 5.90625 -17.84375 6.128906 -17.210938 6.578125 -16.671875 C 7.035156 -16.128906 7.929688 -15.367188 9.265625 -14.390625 C 10.734375 -13.296875 11.84375 -12.410156 12.59375 -11.734375 C 13.34375 -11.054688 13.925781 -10.304688 14.34375 -9.484375 C 14.757812 -8.671875 14.96875 -7.695312 14.96875 -6.5625 C 14.96875 -4.46875 14.320312 -2.800781 13.03125 -1.5625 C 11.75 -0.332031 10.066406 0.28125 7.984375 0.28125 Z M 7.984375 0.28125 "/></g></g></g><g fill="#45433f" fill-opacity="1"><g transform="translate(74.520044, 208.41794)"><g><path d="M 8.296875 0.28125 C 6.160156 0.28125 4.445312 -0.351562 3.15625 -1.625 C 1.863281 -2.894531 1.21875 -4.597656 1.21875 -6.734375 L 1.21875 -18.28125 C 1.21875 -20.394531 1.863281 -22.078125 3.15625 -23.328125 C 4.445312 -24.585938 6.160156 -25.21875 8.296875 -25.21875 C 10.460938 -25.21875 12.191406 -24.585938 13.484375 -23.328125 C 14.773438 -22.078125 15.421875 -20.394531 15.421875 -18.28125 L 15.421875 -17.890625 C 15.421875 -17.765625 15.378906 -17.660156 15.296875 -17.578125 C 15.210938 -17.492188 15.113281 -17.453125 15 -17.453125 L 10.828125 -17.28125 C 10.546875 -17.28125 10.40625 -17.410156 10.40625 -17.671875 L 10.40625 -18.59375 C 10.40625 -19.28125 10.210938 -19.835938 9.828125 -20.265625 C 9.453125 -20.691406 8.941406 -20.90625 8.296875 -20.90625 C 7.679688 -20.90625 7.179688 -20.691406 6.796875 -20.265625 C 6.421875 -19.835938 6.234375 -19.28125 6.234375 -18.59375 L 6.234375 -6.3125 C 6.234375 -5.613281 6.421875 -5.054688 6.796875 -4.640625 C 7.179688 -4.234375 7.679688 -4.03125 8.296875 -4.03125 C 8.941406 -4.03125 9.453125 -4.234375 9.828125 -4.640625 C 10.210938 -5.054688 10.40625 -5.613281 10.40625 -6.3125 L 10.40625 -7.265625 C 10.40625 -7.390625 10.445312 -7.488281 10.53125 -7.5625 C 10.613281 -7.644531 10.710938 -7.6875 10.828125 -7.6875 L 15 -7.515625 C 15.113281 -7.515625 15.210938 -7.472656 15.296875 -7.390625 C 15.378906 -7.304688 15.421875 -7.207031 15.421875 -7.09375 L 15.421875 -6.734375 C 15.421875 -4.597656 14.765625 -2.894531 13.453125 -1.625 C 12.148438 -0.351562 10.429688 0.28125 8.296875 0.28125 Z M 8.296875 0.28125 "/></g></g></g><g fill="#45433f" fill-opacity="1"><g transform="translate(91.044613, 208.41794)"><g><path d="M 8.40625 0.28125 C 6.21875 0.28125 4.472656 -0.359375 3.171875 -1.640625 C 1.867188 -2.921875 1.21875 -4.628906 1.21875 -6.765625 L 1.21875 -18.171875 C 1.21875 -20.304688 1.867188 -22.015625 3.171875 -23.296875 C 4.472656 -24.578125 6.21875 -25.21875 8.40625 -25.21875 C 10.59375 -25.21875 12.34375 -24.578125 13.65625 -23.296875 C 14.976562 -22.015625 15.640625 -20.304688 15.640625 -18.171875 L 15.640625 -6.765625 C 15.640625 -4.628906 14.976562 -2.921875 13.65625 -1.640625 C 12.34375 -0.359375 10.59375 0.28125 8.40625 0.28125 Z M 8.40625 -4.03125 C 9.070312 -4.03125 9.601562 -4.257812 10 -4.71875 C 10.40625 -5.1875 10.609375 -5.800781 10.609375 -6.5625 L 10.609375 -18.375 C 10.609375 -19.132812 10.40625 -19.742188 10 -20.203125 C 9.601562 -20.671875 9.070312 -20.90625 8.40625 -20.90625 C 7.738281 -20.90625 7.207031 -20.671875 6.8125 -20.203125 C 6.425781 -19.742188 6.234375 -19.132812 6.234375 -18.375 L 6.234375 -6.5625 C 6.234375 -5.800781 6.425781 -5.1875 6.8125 -4.71875 C 7.207031 -4.257812 7.738281 -4.03125 8.40625 -4.03125 Z M 8.40625 -4.03125 "/></g></g></g><g fill="#45433f" fill-opacity="1"><g transform="translate(107.889698, 208.41794)"><g><path d="M 11.75 -24.515625 C 11.75 -24.628906 11.789062 -24.726562 11.875 -24.8125 C 11.957031 -24.894531 12.0625 -24.9375 12.1875 -24.9375 L 16.3125 -24.9375 C 16.4375 -24.9375 16.539062 -24.894531 16.625 -24.8125 C 16.707031 -24.726562 16.75 -24.628906 16.75 -24.515625 L 16.75 -0.421875 C 16.75 -0.304688 16.707031 -0.207031 16.625 -0.125 C 16.539062 -0.0390625 16.4375 0 16.3125 0 L 11.609375 0 C 11.367188 0 11.21875 -0.117188 11.15625 -0.359375 L 6.734375 -14.140625 C 6.710938 -14.210938 6.671875 -14.242188 6.609375 -14.234375 C 6.546875 -14.222656 6.515625 -14.179688 6.515625 -14.109375 L 6.5625 -0.421875 C 6.5625 -0.304688 6.519531 -0.207031 6.4375 -0.125 C 6.351562 -0.0390625 6.25 0 6.125 0 L 2 0 C 1.875 0 1.769531 -0.0390625 1.6875 -0.125 C 1.601562 -0.207031 1.5625 -0.304688 1.5625 -0.421875 L 1.5625 -24.515625 C 1.5625 -24.628906 1.601562 -24.726562 1.6875 -24.8125 C 1.769531 -24.894531 1.875 -24.9375 2 -24.9375 L 6.65625 -24.9375 C 6.894531 -24.9375 7.050781 -24.816406 7.125 -24.578125 L 11.578125 -10.796875 C 11.597656 -10.722656 11.640625 -10.691406 11.703125 -10.703125 C 11.765625 -10.710938 11.796875 -10.753906 11.796875 -10.828125 Z M 11.75 -24.515625 "/></g></g></g><g fill="#45433f" fill-opacity="1"><g transform="translate(126.194933, 208.41794)"><g><path d="M 15.390625 -24.9375 C 15.503906 -24.9375 15.601562 -24.894531 15.6875 -24.8125 C 15.769531 -24.726562 15.8125 -24.628906 15.8125 -24.515625 L 15.8125 -21.046875 C 15.8125 -20.929688 15.769531 -20.832031 15.6875 -20.75 C 15.601562 -20.664062 15.503906 -20.625 15.390625 -20.625 L 10.9375 -20.625 C 10.820312 -20.625 10.765625 -20.566406 10.765625 -20.453125 L 10.765625 -0.421875 C 10.765625 -0.304688 10.722656 -0.207031 10.640625 -0.125 C 10.554688 -0.0390625 10.453125 0 10.328125 0 L 6.15625 0 C 6.039062 0 5.941406 -0.0390625 5.859375 -0.125 C 5.773438 -0.207031 5.734375 -0.304688 5.734375 -0.421875 L 5.734375 -20.453125 C 5.734375 -20.566406 5.675781 -20.625 5.5625 -20.625 L 1.28125 -20.625 C 1.164062 -20.625 1.066406 -20.664062 0.984375 -20.75 C 0.898438 -20.832031 0.859375 -20.929688 0.859375 -21.046875 L 0.859375 -24.515625 C 0.859375 -24.628906 0.898438 -24.726562 0.984375 -24.8125 C 1.066406 -24.894531 1.164062 -24.9375 1.28125 -24.9375 Z M 15.390625 -24.9375 "/></g></g></g><g fill="#45433f" fill-opacity="1"><g transform="translate(142.861958, 208.41794)"><g><path d="M 8.40625 0.28125 C 6.21875 0.28125 4.472656 -0.359375 3.171875 -1.640625 C 1.867188 -2.921875 1.21875 -4.628906 1.21875 -6.765625 L 1.21875 -18.171875 C 1.21875 -20.304688 1.867188 -22.015625 3.171875 -23.296875 C 4.472656 -24.578125 6.21875 -25.21875 8.40625 -25.21875 C 10.59375 -25.21875 12.34375 -24.578125 13.65625 -23.296875 C 14.976562 -22.015625 15.640625 -20.304688 15.640625 -18.171875 L 15.640625 -6.765625 C 15.640625 -4.628906 14.976562 -2.921875 13.65625 -1.640625 C 12.34375 -0.359375 10.59375 0.28125 8.40625 0.28125 Z M 8.40625 -4.03125 C 9.070312 -4.03125 9.601562 -4.257812 10 -4.71875 C 10.40625 -5.1875 10.609375 -5.800781 10.609375 -6.5625 L 10.609375 -18.375 C 10.609375 -19.132812 10.40625 -19.742188 10 -20.203125 C 9.601562 -20.671875 9.070312 -20.90625 8.40625 -20.90625 C 7.738281 -20.90625 7.207031 -20.671875 6.8125 -20.203125 C 6.425781 -19.742188 6.234375 -19.132812 6.234375 -18.375 L 6.234375 -6.5625 C 6.234375 -5.800781 6.425781 -5.1875 6.8125 -4.71875 C 7.207031 -4.257812 7.738281 -4.03125 8.40625 -4.03125 Z M 8.40625 -4.03125 "/></g></g></g><g fill="#45433f" fill-opacity="1"><g transform="translate(159.707043, 208.41794)"><g><path d="M 7.984375 0.28125 C 6.597656 0.28125 5.382812 0.0078125 4.34375 -0.53125 C 3.300781 -1.082031 2.492188 -1.847656 1.921875 -2.828125 C 1.347656 -3.816406 1.0625 -4.953125 1.0625 -6.234375 L 1.0625 -7.265625 C 1.0625 -7.390625 1.101562 -7.488281 1.1875 -7.5625 C 1.269531 -7.644531 1.375 -7.6875 1.5 -7.6875 L 5.59375 -7.6875 C 5.707031 -7.6875 5.804688 -7.644531 5.890625 -7.5625 C 5.972656 -7.488281 6.015625 -7.390625 6.015625 -7.265625 L 6.015625 -6.484375 C 6.015625 -5.742188 6.203125 -5.148438 6.578125 -4.703125 C 6.960938 -4.253906 7.441406 -4.03125 8.015625 -4.03125 C 8.585938 -4.03125 9.0625 -4.242188 9.4375 -4.671875 C 9.820312 -5.097656 10.015625 -5.65625 10.015625 -6.34375 C 10.015625 -7.050781 9.773438 -7.660156 9.296875 -8.171875 C 8.816406 -8.679688 7.890625 -9.4375 6.515625 -10.4375 C 5.328125 -11.289062 4.363281 -12.050781 3.625 -12.71875 C 2.894531 -13.382812 2.269531 -14.203125 1.75 -15.171875 C 1.226562 -16.148438 0.96875 -17.28125 0.96875 -18.5625 C 0.96875 -20.582031 1.59375 -22.195312 2.84375 -23.40625 C 4.101562 -24.613281 5.769531 -25.21875 7.84375 -25.21875 C 9.925781 -25.21875 11.601562 -24.585938 12.875 -23.328125 C 14.144531 -22.078125 14.78125 -20.425781 14.78125 -18.375 L 14.78125 -17.53125 C 14.78125 -17.40625 14.738281 -17.300781 14.65625 -17.21875 C 14.570312 -17.132812 14.472656 -17.09375 14.359375 -17.09375 L 10.265625 -17.09375 C 10.140625 -17.09375 10.035156 -17.132812 9.953125 -17.21875 C 9.867188 -17.300781 9.828125 -17.40625 9.828125 -17.53125 L 9.828125 -18.484375 C 9.828125 -19.222656 9.644531 -19.8125 9.28125 -20.25 C 8.914062 -20.6875 8.4375 -20.90625 7.84375 -20.90625 C 7.269531 -20.90625 6.800781 -20.695312 6.4375 -20.28125 C 6.082031 -19.875 5.90625 -19.300781 5.90625 -18.5625 C 5.90625 -17.84375 6.128906 -17.210938 6.578125 -16.671875 C 7.035156 -16.128906 7.929688 -15.367188 9.265625 -14.390625 C 10.734375 -13.296875 11.84375 -12.410156 12.59375 -11.734375 C 13.34375 -11.054688 13.925781 -10.304688 14.34375 -9.484375 C 14.757812 -8.671875 14.96875 -7.695312 14.96875 -6.5625 C 14.96875 -4.46875 14.320312 -2.800781 13.03125 -1.5625 C 11.75 -0.332031 10.066406 0.28125 7.984375 0.28125 Z M 7.984375 0.28125 "/></g></g></g><g fill="#45433f" fill-opacity="1"><g transform="translate(26.157189, 257.917937)"><g><path d="M 8.40625 0.28125 C 6.21875 0.28125 4.472656 -0.359375 3.171875 -1.640625 C 1.867188 -2.921875 1.21875 -4.628906 1.21875 -6.765625 L 1.21875 -18.171875 C 1.21875 -20.304688 1.867188 -22.015625 3.171875 -23.296875 C 4.472656 -24.578125 6.21875 -25.21875 8.40625 -25.21875 C 10.59375 -25.21875 12.34375 -24.578125 13.65625 -23.296875 C 14.976562 -22.015625 15.640625 -20.304688 15.640625 -18.171875 L 15.640625 -6.765625 C 15.640625 -4.628906 14.976562 -2.921875 13.65625 -1.640625 C 12.34375 -0.359375 10.59375 0.28125 8.40625 0.28125 Z M 8.40625 -4.03125 C 9.070312 -4.03125 9.601562 -4.257812 10 -4.71875 C 10.40625 -5.1875 10.609375 -5.800781 10.609375 -6.5625 L 10.609375 -18.375 C 10.609375 -19.132812 10.40625 -19.742188 10 -20.203125 C 9.601562 -20.671875 9.070312 -20.90625 8.40625 -20.90625 C 7.738281 -20.90625 7.207031 -20.671875 6.8125 -20.203125 C 6.425781 -19.742188 6.234375 -19.132812 6.234375 -18.375 L 6.234375 -6.5625 C 6.234375 -5.800781 6.425781 -5.1875 6.8125 -4.71875 C 7.207031 -4.257812 7.738281 -4.03125 8.40625 -4.03125 Z M 8.40625 -4.03125 "/></g></g></g><g fill="#45433f" fill-opacity="1"><g transform="translate(43.002273, 257.917937)"><g><path d="M 9.15625 -24.96875 C 10.457031 -24.96875 11.617188 -24.644531 12.640625 -24 C 13.660156 -23.363281 14.453125 -22.46875 15.015625 -21.3125 C 15.578125 -20.164062 15.859375 -18.859375 15.859375 -17.390625 C 15.859375 -15.179688 15.265625 -13.410156 14.078125 -12.078125 C 12.890625 -10.742188 11.332031 -10.078125 9.40625 -10.078125 L 6.734375 -10.078125 C 6.617188 -10.078125 6.5625 -10.019531 6.5625 -9.90625 L 6.5625 -0.421875 C 6.5625 -0.304688 6.519531 -0.207031 6.4375 -0.125 C 6.351562 -0.0390625 6.25 0 6.125 0 L 1.953125 0 C 1.835938 0 1.738281 -0.0390625 1.65625 -0.125 C 1.570312 -0.207031 1.53125 -0.304688 1.53125 -0.421875 L 1.53125 -24.546875 C 1.53125 -24.660156 1.570312 -24.757812 1.65625 -24.84375 C 1.738281 -24.925781 1.835938 -24.96875 1.953125 -24.96875 Z M 8.296875 -14 C 9.054688 -14 9.664062 -14.289062 10.125 -14.875 C 10.59375 -15.457031 10.828125 -16.257812 10.828125 -17.28125 C 10.828125 -18.320312 10.59375 -19.140625 10.125 -19.734375 C 9.664062 -20.328125 9.054688 -20.625 8.296875 -20.625 L 6.734375 -20.625 C 6.617188 -20.625 6.5625 -20.566406 6.5625 -20.453125 L 6.5625 -14.171875 C 6.5625 -14.054688 6.617188 -14 6.734375 -14 Z M 8.296875 -14 "/></g></g></g><g fill="#45433f" fill-opacity="1"><g transform="translate(59.562456, 257.917937)"><g><path d="M 8.40625 0.28125 C 6.21875 0.28125 4.472656 -0.359375 3.171875 -1.640625 C 1.867188 -2.921875 1.21875 -4.628906 1.21875 -6.765625 L 1.21875 -18.171875 C 1.21875 -20.304688 1.867188 -22.015625 3.171875 -23.296875 C 4.472656 -24.578125 6.21875 -25.21875 8.40625 -25.21875 C 10.59375 -25.21875 12.34375 -24.578125 13.65625 -23.296875 C 14.976562 -22.015625 15.640625 -20.304688 15.640625 -18.171875 L 15.640625 -6.765625 C 15.640625 -4.628906 14.976562 -2.921875 13.65625 -1.640625 C 12.34375 -0.359375 10.59375 0.28125 8.40625 0.28125 Z M 8.40625 -4.03125 C 9.070312 -4.03125 9.601562 -4.257812 10 -4.71875 C 10.40625 -5.1875 10.609375 -5.800781 10.609375 -6.5625 L 10.609375 -18.375 C 10.609375 -19.132812 10.40625 -19.742188 10 -20.203125 C 9.601562 -20.671875 9.070312 -20.90625 8.40625 -20.90625 C 7.738281 -20.90625 7.207031 -20.671875 6.8125 -20.203125 C 6.425781 -19.742188 6.234375 -19.132812 6.234375 -18.375 L 6.234375 -6.5625 C 6.234375 -5.800781 6.425781 -5.1875 6.8125 -4.71875 C 7.207031 -4.257812 7.738281 -4.03125 8.40625 -4.03125 Z M 8.40625 -4.03125 "/></g></g></g><g fill="#45433f" fill-opacity="1"><g transform="translate(76.407541, 257.917937)"><g><path d="M 11.40625 0 C 11.144531 0 10.976562 -0.117188 10.90625 -0.359375 L 8.15625 -10.1875 C 8.113281 -10.28125 8.054688 -10.328125 7.984375 -10.328125 L 6.765625 -10.328125 C 6.648438 -10.328125 6.59375 -10.269531 6.59375 -10.15625 L 6.59375 -0.421875 C 6.59375 -0.304688 6.550781 -0.207031 6.46875 -0.125 C 6.382812 -0.0390625 6.28125 0 6.15625 0 L 2 0 C 1.875 0 1.769531 -0.0390625 1.6875 -0.125 C 1.601562 -0.207031 1.5625 -0.304688 1.5625 -0.421875 L 1.5625 -24.515625 C 1.5625 -24.628906 1.601562 -24.726562 1.6875 -24.8125 C 1.769531 -24.894531 1.875 -24.9375 2 -24.9375 L 9.1875 -24.9375 C 10.5 -24.9375 11.664062 -24.617188 12.6875 -23.984375 C 13.707031 -23.359375 14.492188 -22.472656 15.046875 -21.328125 C 15.609375 -20.191406 15.890625 -18.890625 15.890625 -17.421875 C 15.890625 -16.015625 15.617188 -14.773438 15.078125 -13.703125 C 14.546875 -12.640625 13.804688 -11.8125 12.859375 -11.21875 C 12.816406 -11.195312 12.78125 -11.164062 12.75 -11.125 C 12.726562 -11.09375 12.726562 -11.054688 12.75 -11.015625 L 16.03125 -0.5 L 16.0625 -0.359375 C 16.0625 -0.117188 15.929688 0 15.671875 0 Z M 6.765625 -20.625 C 6.648438 -20.625 6.59375 -20.566406 6.59375 -20.453125 L 6.59375 -14.359375 C 6.59375 -14.234375 6.648438 -14.171875 6.765625 -14.171875 L 8.375 -14.171875 C 9.101562 -14.171875 9.695312 -14.460938 10.15625 -15.046875 C 10.625 -15.628906 10.859375 -16.410156 10.859375 -17.390625 C 10.859375 -18.378906 10.625 -19.164062 10.15625 -19.75 C 9.695312 -20.332031 9.101562 -20.625 8.375 -20.625 Z M 6.765625 -20.625 "/></g></g></g><g fill="#45433f" fill-opacity="1"><g transform="translate(93.181408, 257.917937)"><g><path d="M 15.390625 -24.9375 C 15.503906 -24.9375 15.601562 -24.894531 15.6875 -24.8125 C 15.769531 -24.726562 15.8125 -24.628906 15.8125 -24.515625 L 15.8125 -21.046875 C 15.8125 -20.929688 15.769531 -20.832031 15.6875 -20.75 C 15.601562 -20.664062 15.503906 -20.625 15.390625 -20.625 L 10.9375 -20.625 C 10.820312 -20.625 10.765625 -20.566406 10.765625 -20.453125 L 10.765625 -0.421875 C 10.765625 -0.304688 10.722656 -0.207031 10.640625 -0.125 C 10.554688 -0.0390625 10.453125 0 10.328125 0 L 6.15625 0 C 6.039062 0 5.941406 -0.0390625 5.859375 -0.125 C 5.773438 -0.207031 5.734375 -0.304688 5.734375 -0.421875 L 5.734375 -20.453125 C 5.734375 -20.566406 5.675781 -20.625 5.5625 -20.625 L 1.28125 -20.625 C 1.164062 -20.625 1.066406 -20.664062 0.984375 -20.75 C 0.898438 -20.832031 0.859375 -20.929688 0.859375 -21.046875 L 0.859375 -24.515625 C 0.859375 -24.628906 0.898438 -24.726562 0.984375 -24.8125 C 1.066406 -24.894531 1.164062 -24.9375 1.28125 -24.9375 Z M 15.390625 -24.9375 "/></g></g></g><g fill="#45433f" fill-opacity="1"><g transform="translate(109.848434, 257.917937)"><g><path d="M 8.546875 0.28125 C 6.410156 0.28125 4.691406 -0.382812 3.390625 -1.71875 C 2.097656 -3.0625 1.453125 -4.851562 1.453125 -7.09375 L 1.453125 -24.515625 C 1.453125 -24.628906 1.492188 -24.726562 1.578125 -24.8125 C 1.660156 -24.894531 1.765625 -24.9375 1.890625 -24.9375 L 6.0625 -24.9375 C 6.175781 -24.9375 6.273438 -24.894531 6.359375 -24.8125 C 6.441406 -24.726562 6.484375 -24.628906 6.484375 -24.515625 L 6.484375 -6.59375 C 6.484375 -5.832031 6.671875 -5.210938 7.046875 -4.734375 C 7.429688 -4.265625 7.929688 -4.03125 8.546875 -4.03125 C 9.160156 -4.03125 9.648438 -4.265625 10.015625 -4.734375 C 10.390625 -5.210938 10.578125 -5.832031 10.578125 -6.59375 L 10.578125 -24.515625 C 10.578125 -24.628906 10.617188 -24.726562 10.703125 -24.8125 C 10.785156 -24.894531 10.890625 -24.9375 11.015625 -24.9375 L 15.171875 -24.9375 C 15.296875 -24.9375 15.398438 -24.894531 15.484375 -24.8125 C 15.566406 -24.726562 15.609375 -24.628906 15.609375 -24.515625 L 15.609375 -7.09375 C 15.609375 -4.851562 14.957031 -3.0625 13.65625 -1.71875 C 12.363281 -0.382812 10.660156 0.28125 8.546875 0.28125 Z M 8.546875 0.28125 "/></g></g></g><g fill="#45433f" fill-opacity="1"><g transform="translate(126.907202, 257.917937)"><g><path d="M 11.75 -24.515625 C 11.75 -24.628906 11.789062 -24.726562 11.875 -24.8125 C 11.957031 -24.894531 12.0625 -24.9375 12.1875 -24.9375 L 16.3125 -24.9375 C 16.4375 -24.9375 16.539062 -24.894531 16.625 -24.8125 C 16.707031 -24.726562 16.75 -24.628906 16.75 -24.515625 L 16.75 -0.421875 C 16.75 -0.304688 16.707031 -0.207031 16.625 -0.125 C 16.539062 -0.0390625 16.4375 0 16.3125 0 L 11.609375 0 C 11.367188 0 11.21875 -0.117188 11.15625 -0.359375 L 6.734375 -14.140625 C 6.710938 -14.210938 6.671875 -14.242188 6.609375 -14.234375 C 6.546875 -14.222656 6.515625 -14.179688 6.515625 -14.109375 L 6.5625 -0.421875 C 6.5625 -0.304688 6.519531 -0.207031 6.4375 -0.125 C 6.351562 -0.0390625 6.25 0 6.125 0 L 2 0 C 1.875 0 1.769531 -0.0390625 1.6875 -0.125 C 1.601562 -0.207031 1.5625 -0.304688 1.5625 -0.421875 L 1.5625 -24.515625 C 1.5625 -24.628906 1.601562 -24.726562 1.6875 -24.8125 C 1.769531 -24.894531 1.875 -24.9375 2 -24.9375 L 6.65625 -24.9375 C 6.894531 -24.9375 7.050781 -24.816406 7.125 -24.578125 L 11.578125 -10.796875 C 11.597656 -10.722656 11.640625 -10.691406 11.703125 -10.703125 C 11.765625 -10.710938 11.796875 -10.753906 11.796875 -10.828125 Z M 11.75 -24.515625 "/></g></g></g><g fill="#45433f" fill-opacity="1"><g transform="translate(145.212437, 257.917937)"><g><path d="M 2 0 C 1.875 0 1.769531 -0.0390625 1.6875 -0.125 C 1.601562 -0.207031 1.5625 -0.304688 1.5625 -0.421875 L 1.5625 -24.515625 C 1.5625 -24.628906 1.601562 -24.726562 1.6875 -24.8125 C 1.769531 -24.894531 1.875 -24.9375 2 -24.9375 L 6.15625 -24.9375 C 6.28125 -24.9375 6.382812 -24.894531 6.46875 -24.8125 C 6.550781 -24.726562 6.59375 -24.628906 6.59375 -24.515625 L 6.59375 -0.421875 C 6.59375 -0.304688 6.550781 -0.207031 6.46875 -0.125 C 6.382812 -0.0390625 6.28125 0 6.15625 0 Z M 2 0 "/></g></g></g><g fill="#45433f" fill-opacity="1"><g transform="translate(153.4035, 257.917937)"><g><path d="M 2 0 C 1.875 0 1.769531 -0.0390625 1.6875 -0.125 C 1.601562 -0.207031 1.5625 -0.304688 1.5625 -0.421875 L 1.5625 -24.515625 C 1.5625 -24.628906 1.601562 -24.726562 1.6875 -24.8125 C 1.769531 -24.894531 1.875 -24.9375 2 -24.9375 L 8.4375 -24.9375 C 10.601562 -24.9375 12.335938 -24.304688 13.640625 -23.046875 C 14.953125 -21.785156 15.609375 -20.113281 15.609375 -18.03125 L 15.609375 -6.90625 C 15.609375 -4.820312 14.953125 -3.148438 13.640625 -1.890625 C 12.335938 -0.628906 10.601562 0 8.4375 0 Z M 6.59375 -4.484375 C 6.59375 -4.367188 6.648438 -4.3125 6.765625 -4.3125 L 8.375 -4.34375 C 9.007812 -4.363281 9.53125 -4.632812 9.9375 -5.15625 C 10.34375 -5.6875 10.554688 -6.378906 10.578125 -7.234375 L 10.578125 -17.703125 C 10.578125 -18.609375 10.375 -19.320312 9.96875 -19.84375 C 9.570312 -20.363281 9.03125 -20.625 8.34375 -20.625 L 6.765625 -20.625 C 6.648438 -20.625 6.59375 -20.566406 6.59375 -20.453125 Z M 6.59375 -4.484375 "/></g></g></g><g fill="#45433f" fill-opacity="1"><g transform="translate(170.355426, 257.917937)"><g><path d="M 12.046875 0 C 11.753906 0 11.597656 -0.128906 11.578125 -0.390625 L 11.015625 -3.8125 C 11.015625 -3.925781 10.941406 -3.984375 10.796875 -3.984375 L 6.265625 -3.984375 C 6.128906 -3.984375 6.0625 -3.925781 6.0625 -3.8125 L 5.484375 -0.390625 C 5.460938 -0.128906 5.304688 0 5.015625 0 L 0.859375 0 C 0.546875 0 0.425781 -0.15625 0.5 -0.46875 L 5.734375 -24.546875 C 5.785156 -24.804688 5.941406 -24.9375 6.203125 -24.9375 L 11.015625 -24.9375 C 11.273438 -24.9375 11.425781 -24.804688 11.46875 -24.546875 L 16.671875 -0.46875 L 16.703125 -0.328125 C 16.703125 -0.109375 16.570312 0 16.3125 0 Z M 6.765625 -8.046875 C 6.765625 -7.929688 6.8125 -7.875 6.90625 -7.875 L 10.125 -7.875 C 10.238281 -7.875 10.285156 -7.929688 10.265625 -8.046875 L 8.578125 -17.78125 C 8.554688 -17.851562 8.519531 -17.890625 8.46875 -17.890625 C 8.425781 -17.890625 8.394531 -17.851562 8.375 -17.78125 Z M 6.765625 -8.046875 "/></g></g></g><g fill="#45433f" fill-opacity="1"><g transform="translate(187.521036, 257.917937)"><g><path d="M 2 0 C 1.875 0 1.769531 -0.0390625 1.6875 -0.125 C 1.601562 -0.207031 1.5625 -0.304688 1.5625 -0.421875 L 1.5625 -24.515625 C 1.5625 -24.628906 1.601562 -24.726562 1.6875 -24.8125 C 1.769531 -24.894531 1.875 -24.9375 2 -24.9375 L 8.4375 -24.9375 C 10.601562 -24.9375 12.335938 -24.304688 13.640625 -23.046875 C 14.953125 -21.785156 15.609375 -20.113281 15.609375 -18.03125 L 15.609375 -6.90625 C 15.609375 -4.820312 14.953125 -3.148438 13.640625 -1.890625 C 12.335938 -0.628906 10.601562 0 8.4375 0 Z M 6.59375 -4.484375 C 6.59375 -4.367188 6.648438 -4.3125 6.765625 -4.3125 L 8.375 -4.34375 C 9.007812 -4.363281 9.53125 -4.632812 9.9375 -5.15625 C 10.34375 -5.6875 10.554688 -6.378906 10.578125 -7.234375 L 10.578125 -17.703125 C 10.578125 -18.609375 10.375 -19.320312 9.96875 -19.84375 C 9.570312 -20.363281 9.03125 -20.625 8.34375 -20.625 L 6.765625 -20.625 C 6.648438 -20.625 6.59375 -20.566406 6.59375 -20.453125 Z M 6.59375 -4.484375 "/></g></g></g><g fill="#45433f" fill-opacity="1"><g transform="translate(204.472963, 257.917937)"><g><path d="M 14.640625 -21.046875 C 14.640625 -20.929688 14.597656 -20.832031 14.515625 -20.75 C 14.429688 -20.664062 14.332031 -20.625 14.21875 -20.625 L 6.765625 -20.625 C 6.648438 -20.625 6.59375 -20.566406 6.59375 -20.453125 L 6.59375 -14.8125 C 6.59375 -14.695312 6.648438 -14.640625 6.765625 -14.640625 L 11.046875 -14.640625 C 11.160156 -14.640625 11.257812 -14.597656 11.34375 -14.515625 C 11.425781 -14.429688 11.46875 -14.332031 11.46875 -14.21875 L 11.46875 -10.765625 C 11.46875 -10.640625 11.425781 -10.535156 11.34375 -10.453125 C 11.257812 -10.367188 11.160156 -10.328125 11.046875 -10.328125 L 6.765625 -10.328125 C 6.648438 -10.328125 6.59375 -10.269531 6.59375 -10.15625 L 6.59375 -4.484375 C 6.59375 -4.367188 6.648438 -4.3125 6.765625 -4.3125 L 14.21875 -4.3125 C 14.332031 -4.3125 14.429688 -4.269531 14.515625 -4.1875 C 14.597656 -4.101562 14.640625 -4.003906 14.640625 -3.890625 L 14.640625 -0.421875 C 14.640625 -0.304688 14.597656 -0.207031 14.515625 -0.125 C 14.429688 -0.0390625 14.332031 0 14.21875 0 L 2 0 C 1.875 0 1.769531 -0.0390625 1.6875 -0.125 C 1.601562 -0.207031 1.5625 -0.304688 1.5625 -0.421875 L 1.5625 -24.515625 C 1.5625 -24.628906 1.601562 -24.726562 1.6875 -24.8125 C 1.769531 -24.894531 1.875 -24.9375 2 -24.9375 L 14.21875 -24.9375 C 14.332031 -24.9375 14.429688 -24.894531 14.515625 -24.8125 C 14.597656 -24.726562 14.640625 -24.628906 14.640625 -24.515625 Z M 14.640625 -21.046875 "/></g></g></g><g fill="#45433f" fill-opacity="1"><g transform="translate(220.071591, 257.917937)"><g><path d="M 7.984375 0.28125 C 6.597656 0.28125 5.382812 0.0078125 4.34375 -0.53125 C 3.300781 -1.082031 2.492188 -1.847656 1.921875 -2.828125 C 1.347656 -3.816406 1.0625 -4.953125 1.0625 -6.234375 L 1.0625 -7.265625 C 1.0625 -7.390625 1.101562 -7.488281 1.1875 -7.5625 C 1.269531 -7.644531 1.375 -7.6875 1.5 -7.6875 L 5.59375 -7.6875 C 5.707031 -7.6875 5.804688 -7.644531 5.890625 -7.5625 C 5.972656 -7.488281 6.015625 -7.390625 6.015625 -7.265625 L 6.015625 -6.484375 C 6.015625 -5.742188 6.203125 -5.148438 6.578125 -4.703125 C 6.960938 -4.253906 7.441406 -4.03125 8.015625 -4.03125 C 8.585938 -4.03125 9.0625 -4.242188 9.4375 -4.671875 C 9.820312 -5.097656 10.015625 -5.65625 10.015625 -6.34375 C 10.015625 -7.050781 9.773438 -7.660156 9.296875 -8.171875 C 8.816406 -8.679688 7.890625 -9.4375 6.515625 -10.4375 C 5.328125 -11.289062 4.363281 -12.050781 3.625 -12.71875 C 2.894531 -13.382812 2.269531 -14.203125 1.75 -15.171875 C 1.226562 -16.148438 0.96875 -17.28125 0.96875 -18.5625 C 0.96875 -20.582031 1.59375 -22.195312 2.84375 -23.40625 C 4.101562 -24.613281 5.769531 -25.21875 7.84375 -25.21875 C 9.925781 -25.21875 11.601562 -24.585938 12.875 -23.328125 C 14.144531 -22.078125 14.78125 -20.425781 14.78125 -18.375 L 14.78125 -17.53125 C 14.78125 -17.40625 14.738281 -17.300781 14.65625 -17.21875 C 14.570312 -17.132812 14.472656 -17.09375 14.359375 -17.09375 L 10.265625 -17.09375 C 10.140625 -17.09375 10.035156 -17.132812 9.953125 -17.21875 C 9.867188 -17.300781 9.828125 -17.40625 9.828125 -17.53125 L 9.828125 -18.484375 C 9.828125 -19.222656 9.644531 -19.8125 9.28125 -20.25 C 8.914062 -20.6875 8.4375 -20.90625 7.84375 -20.90625 C 7.269531 -20.90625 6.800781 -20.695312 6.4375 -20.28125 C 6.082031 -19.875 5.90625 -19.300781 5.90625 -18.5625 C 5.90625 -17.84375 6.128906 -17.210938 6.578125 -16.671875 C 7.035156 -16.128906 7.929688 -15.367188 9.265625 -14.390625 C 10.734375 -13.296875 11.84375 -12.410156 12.59375 -11.734375 C 13.34375 -11.054688 13.925781 -10.304688 14.34375 -9.484375 C 14.757812 -8.671875 14.96875 -7.695312 14.96875 -6.5625 C 14.96875 -4.46875 14.320312 -2.800781 13.03125 -1.5625 C 11.75 -0.332031 10.066406 0.28125 7.984375 0.28125 Z M 7.984375 0.28125 "/></g></g></g><g fill="#45433f" fill-opacity="1"><g transform="translate(26.157189, 307.417933)"><g><path d="M 9.15625 -24.96875 C 10.457031 -24.96875 11.617188 -24.644531 12.640625 -24 C 13.660156 -23.363281 14.453125 -22.46875 15.015625 -21.3125 C 15.578125 -20.164062 15.859375 -18.859375 15.859375 -17.390625 C 15.859375 -15.179688 15.265625 -13.410156 14.078125 -12.078125 C 12.890625 -10.742188 11.332031 -10.078125 9.40625 -10.078125 L 6.734375 -10.078125 C 6.617188 -10.078125 6.5625 -10.019531 6.5625 -9.90625 L 6.5625 -0.421875 C 6.5625 -0.304688 6.519531 -0.207031 6.4375 -0.125 C 6.351562 -0.0390625 6.25 0 6.125 0 L 1.953125 0 C 1.835938 0 1.738281 -0.0390625 1.65625 -0.125 C 1.570312 -0.207031 1.53125 -0.304688 1.53125 -0.421875 L 1.53125 -24.546875 C 1.53125 -24.660156 1.570312 -24.757812 1.65625 -24.84375 C 1.738281 -24.925781 1.835938 -24.96875 1.953125 -24.96875 Z M 8.296875 -14 C 9.054688 -14 9.664062 -14.289062 10.125 -14.875 C 10.59375 -15.457031 10.828125 -16.257812 10.828125 -17.28125 C 10.828125 -18.320312 10.59375 -19.140625 10.125 -19.734375 C 9.664062 -20.328125 9.054688 -20.625 8.296875 -20.625 L 6.734375 -20.625 C 6.617188 -20.625 6.5625 -20.566406 6.5625 -20.453125 L 6.5625 -14.171875 C 6.5625 -14.054688 6.617188 -14 6.734375 -14 Z M 8.296875 -14 "/></g></g></g><g fill="#45433f" fill-opacity="1"><g transform="translate(42.717372, 307.417933)"><g><path d="M 12.046875 0 C 11.753906 0 11.597656 -0.128906 11.578125 -0.390625 L 11.015625 -3.8125 C 11.015625 -3.925781 10.941406 -3.984375 10.796875 -3.984375 L 6.265625 -3.984375 C 6.128906 -3.984375 6.0625 -3.925781 6.0625 -3.8125 L 5.484375 -0.390625 C 5.460938 -0.128906 5.304688 0 5.015625 0 L 0.859375 0 C 0.546875 0 0.425781 -0.15625 0.5 -0.46875 L 5.734375 -24.546875 C 5.785156 -24.804688 5.941406 -24.9375 6.203125 -24.9375 L 11.015625 -24.9375 C 11.273438 -24.9375 11.425781 -24.804688 11.46875 -24.546875 L 16.671875 -0.46875 L 16.703125 -0.328125 C 16.703125 -0.109375 16.570312 0 16.3125 0 Z M 6.765625 -8.046875 C 6.765625 -7.929688 6.8125 -7.875 6.90625 -7.875 L 10.125 -7.875 C 10.238281 -7.875 10.285156 -7.929688 10.265625 -8.046875 L 8.578125 -17.78125 C 8.554688 -17.851562 8.519531 -17.890625 8.46875 -17.890625 C 8.425781 -17.890625 8.394531 -17.851562 8.375 -17.78125 Z M 6.765625 -8.046875 "/></g></g></g><g fill="#45433f" fill-opacity="1"><g transform="translate(59.882982, 307.417933)"><g><path d="M 11.40625 0 C 11.144531 0 10.976562 -0.117188 10.90625 -0.359375 L 8.15625 -10.1875 C 8.113281 -10.28125 8.054688 -10.328125 7.984375 -10.328125 L 6.765625 -10.328125 C 6.648438 -10.328125 6.59375 -10.269531 6.59375 -10.15625 L 6.59375 -0.421875 C 6.59375 -0.304688 6.550781 -0.207031 6.46875 -0.125 C 6.382812 -0.0390625 6.28125 0 6.15625 0 L 2 0 C 1.875 0 1.769531 -0.0390625 1.6875 -0.125 C 1.601562 -0.207031 1.5625 -0.304688 1.5625 -0.421875 L 1.5625 -24.515625 C 1.5625 -24.628906 1.601562 -24.726562 1.6875 -24.8125 C 1.769531 -24.894531 1.875 -24.9375 2 -24.9375 L 9.1875 -24.9375 C 10.5 -24.9375 11.664062 -24.617188 12.6875 -23.984375 C 13.707031 -23.359375 14.492188 -22.472656 15.046875 -21.328125 C 15.609375 -20.191406 15.890625 -18.890625 15.890625 -17.421875 C 15.890625 -16.015625 15.617188 -14.773438 15.078125 -13.703125 C 14.546875 -12.640625 13.804688 -11.8125 12.859375 -11.21875 C 12.816406 -11.195312 12.78125 -11.164062 12.75 -11.125 C 12.726562 -11.09375 12.726562 -11.054688 12.75 -11.015625 L 16.03125 -0.5 L 16.0625 -0.359375 C 16.0625 -0.117188 15.929688 0 15.671875 0 Z M 6.765625 -20.625 C 6.648438 -20.625 6.59375 -20.566406 6.59375 -20.453125 L 6.59375 -14.359375 C 6.59375 -14.234375 6.648438 -14.171875 6.765625 -14.171875 L 8.375 -14.171875 C 9.101562 -14.171875 9.695312 -14.460938 10.15625 -15.046875 C 10.625 -15.628906 10.859375 -16.410156 10.859375 -17.390625 C 10.859375 -18.378906 10.625 -19.164062 10.15625 -19.75 C 9.695312 -20.332031 9.101562 -20.625 8.375 -20.625 Z M 6.765625 -20.625 "/></g></g></g><g fill="#45433f" fill-opacity="1"><g transform="translate(76.65685, 307.417933)"><g><path d="M 8.296875 0.28125 C 6.160156 0.28125 4.445312 -0.351562 3.15625 -1.625 C 1.863281 -2.894531 1.21875 -4.597656 1.21875 -6.734375 L 1.21875 -18.28125 C 1.21875 -20.394531 1.863281 -22.078125 3.15625 -23.328125 C 4.445312 -24.585938 6.160156 -25.21875 8.296875 -25.21875 C 10.460938 -25.21875 12.191406 -24.585938 13.484375 -23.328125 C 14.773438 -22.078125 15.421875 -20.394531 15.421875 -18.28125 L 15.421875 -17.890625 C 15.421875 -17.765625 15.378906 -17.660156 15.296875 -17.578125 C 15.210938 -17.492188 15.113281 -17.453125 15 -17.453125 L 10.828125 -17.28125 C 10.546875 -17.28125 10.40625 -17.410156 10.40625 -17.671875 L 10.40625 -18.59375 C 10.40625 -19.28125 10.210938 -19.835938 9.828125 -20.265625 C 9.453125 -20.691406 8.941406 -20.90625 8.296875 -20.90625 C 7.679688 -20.90625 7.179688 -20.691406 6.796875 -20.265625 C 6.421875 -19.835938 6.234375 -19.28125 6.234375 -18.59375 L 6.234375 -6.3125 C 6.234375 -5.613281 6.421875 -5.054688 6.796875 -4.640625 C 7.179688 -4.234375 7.679688 -4.03125 8.296875 -4.03125 C 8.941406 -4.03125 9.453125 -4.234375 9.828125 -4.640625 C 10.210938 -5.054688 10.40625 -5.613281 10.40625 -6.3125 L 10.40625 -7.265625 C 10.40625 -7.390625 10.445312 -7.488281 10.53125 -7.5625 C 10.613281 -7.644531 10.710938 -7.6875 10.828125 -7.6875 L 15 -7.515625 C 15.113281 -7.515625 15.210938 -7.472656 15.296875 -7.390625 C 15.378906 -7.304688 15.421875 -7.207031 15.421875 -7.09375 L 15.421875 -6.734375 C 15.421875 -4.597656 14.765625 -2.894531 13.453125 -1.625 C 12.148438 -0.351562 10.429688 0.28125 8.296875 0.28125 Z M 8.296875 0.28125 "/></g></g></g><g fill="#45433f" fill-opacity="1"><g transform="translate(93.181419, 307.417933)"><g><path d="M 14.640625 -21.046875 C 14.640625 -20.929688 14.597656 -20.832031 14.515625 -20.75 C 14.429688 -20.664062 14.332031 -20.625 14.21875 -20.625 L 6.765625 -20.625 C 6.648438 -20.625 6.59375 -20.566406 6.59375 -20.453125 L 6.59375 -14.8125 C 6.59375 -14.695312 6.648438 -14.640625 6.765625 -14.640625 L 11.046875 -14.640625 C 11.160156 -14.640625 11.257812 -14.597656 11.34375 -14.515625 C 11.425781 -14.429688 11.46875 -14.332031 11.46875 -14.21875 L 11.46875 -10.765625 C 11.46875 -10.640625 11.425781 -10.535156 11.34375 -10.453125 C 11.257812 -10.367188 11.160156 -10.328125 11.046875 -10.328125 L 6.765625 -10.328125 C 6.648438 -10.328125 6.59375 -10.269531 6.59375 -10.15625 L 6.59375 -4.484375 C 6.59375 -4.367188 6.648438 -4.3125 6.765625 -4.3125 L 14.21875 -4.3125 C 14.332031 -4.3125 14.429688 -4.269531 14.515625 -4.1875 C 14.597656 -4.101562 14.640625 -4.003906 14.640625 -3.890625 L 14.640625 -0.421875 C 14.640625 -0.304688 14.597656 -0.207031 14.515625 -0.125 C 14.429688 -0.0390625 14.332031 0 14.21875 0 L 2 0 C 1.875 0 1.769531 -0.0390625 1.6875 -0.125 C 1.601562 -0.207031 1.5625 -0.304688 1.5625 -0.421875 L 1.5625 -24.515625 C 1.5625 -24.628906 1.601562 -24.726562 1.6875 -24.8125 C 1.769531 -24.894531 1.875 -24.9375 2 -24.9375 L 14.21875 -24.9375 C 14.332031 -24.9375 14.429688 -24.894531 14.515625 -24.8125 C 14.597656 -24.726562 14.640625 -24.628906 14.640625 -24.515625 Z M 14.640625 -21.046875 "/></g></g></g><g fill="#45433f" fill-opacity="1"><g transform="translate(108.780047, 307.417933)"><g><path d="M 11.40625 0 C 11.144531 0 10.976562 -0.117188 10.90625 -0.359375 L 8.15625 -10.1875 C 8.113281 -10.28125 8.054688 -10.328125 7.984375 -10.328125 L 6.765625 -10.328125 C 6.648438 -10.328125 6.59375 -10.269531 6.59375 -10.15625 L 6.59375 -0.421875 C 6.59375 -0.304688 6.550781 -0.207031 6.46875 -0.125 C 6.382812 -0.0390625 6.28125 0 6.15625 0 L 2 0 C 1.875 0 1.769531 -0.0390625 1.6875 -0.125 C 1.601562 -0.207031 1.5625 -0.304688 1.5625 -0.421875 L 1.5625 -24.515625 C 1.5625 -24.628906 1.601562 -24.726562 1.6875 -24.8125 C 1.769531 -24.894531 1.875 -24.9375 2 -24.9375 L 9.1875 -24.9375 C 10.5 -24.9375 11.664062 -24.617188 12.6875 -23.984375 C 13.707031 -23.359375 14.492188 -22.472656 15.046875 -21.328125 C 15.609375 -20.191406 15.890625 -18.890625 15.890625 -17.421875 C 15.890625 -16.015625 15.617188 -14.773438 15.078125 -13.703125 C 14.546875 -12.640625 13.804688 -11.8125 12.859375 -11.21875 C 12.816406 -11.195312 12.78125 -11.164062 12.75 -11.125 C 12.726562 -11.09375 12.726562 -11.054688 12.75 -11.015625 L 16.03125 -0.5 L 16.0625 -0.359375 C 16.0625 -0.117188 15.929688 0 15.671875 0 Z M 6.765625 -20.625 C 6.648438 -20.625 6.59375 -20.566406 6.59375 -20.453125 L 6.59375 -14.359375 C 6.59375 -14.234375 6.648438 -14.171875 6.765625 -14.171875 L 8.375 -14.171875 C 9.101562 -14.171875 9.695312 -14.460938 10.15625 -15.046875 C 10.625 -15.628906 10.859375 -16.410156 10.859375 -17.390625 C 10.859375 -18.378906 10.625 -19.164062 10.15625 -19.75 C 9.695312 -20.332031 9.101562 -20.625 8.375 -20.625 Z M 6.765625 -20.625 "/></g></g></g><g fill="#45433f" fill-opacity="1"><g transform="translate(125.553915, 307.417933)"><g><path d="M 2 0 C 1.875 0 1.769531 -0.0390625 1.6875 -0.125 C 1.601562 -0.207031 1.5625 -0.304688 1.5625 -0.421875 L 1.5625 -24.515625 C 1.5625 -24.628906 1.601562 -24.726562 1.6875 -24.8125 C 1.769531 -24.894531 1.875 -24.9375 2 -24.9375 L 6.15625 -24.9375 C 6.28125 -24.9375 6.382812 -24.894531 6.46875 -24.8125 C 6.550781 -24.726562 6.59375 -24.628906 6.59375 -24.515625 L 6.59375 -0.421875 C 6.59375 -0.304688 6.550781 -0.207031 6.46875 -0.125 C 6.382812 -0.0390625 6.28125 0 6.15625 0 Z M 2 0 "/></g></g></g><g fill="#45433f" fill-opacity="1"><g transform="translate(133.744977, 307.417933)"><g><path d="M 12.046875 0 C 11.753906 0 11.597656 -0.128906 11.578125 -0.390625 L 11.015625 -3.8125 C 11.015625 -3.925781 10.941406 -3.984375 10.796875 -3.984375 L 6.265625 -3.984375 C 6.128906 -3.984375 6.0625 -3.925781 6.0625 -3.8125 L 5.484375 -0.390625 C 5.460938 -0.128906 5.304688 0 5.015625 0 L 0.859375 0 C 0.546875 0 0.425781 -0.15625 0.5 -0.46875 L 5.734375 -24.546875 C 5.785156 -24.804688 5.941406 -24.9375 6.203125 -24.9375 L 11.015625 -24.9375 C 11.273438 -24.9375 11.425781 -24.804688 11.46875 -24.546875 L 16.671875 -0.46875 L 16.703125 -0.328125 C 16.703125 -0.109375 16.570312 0 16.3125 0 Z M 6.765625 -8.046875 C 6.765625 -7.929688 6.8125 -7.875 6.90625 -7.875 L 10.125 -7.875 C 10.238281 -7.875 10.285156 -7.929688 10.265625 -8.046875 L 8.578125 -17.78125 C 8.554688 -17.851562 8.519531 -17.890625 8.46875 -17.890625 C 8.425781 -17.890625 8.394531 -17.851562 8.375 -17.78125 Z M 6.765625 -8.046875 "/></g></g></g><g fill="#45433f" fill-opacity="1"><g transform="translate(150.910588, 307.417933)"><g><path d="M 7.984375 0.28125 C 6.597656 0.28125 5.382812 0.0078125 4.34375 -0.53125 C 3.300781 -1.082031 2.492188 -1.847656 1.921875 -2.828125 C 1.347656 -3.816406 1.0625 -4.953125 1.0625 -6.234375 L 1.0625 -7.265625 C 1.0625 -7.390625 1.101562 -7.488281 1.1875 -7.5625 C 1.269531 -7.644531 1.375 -7.6875 1.5 -7.6875 L 5.59375 -7.6875 C 5.707031 -7.6875 5.804688 -7.644531 5.890625 -7.5625 C 5.972656 -7.488281 6.015625 -7.390625 6.015625 -7.265625 L 6.015625 -6.484375 C 6.015625 -5.742188 6.203125 -5.148438 6.578125 -4.703125 C 6.960938 -4.253906 7.441406 -4.03125 8.015625 -4.03125 C 8.585938 -4.03125 9.0625 -4.242188 9.4375 -4.671875 C 9.820312 -5.097656 10.015625 -5.65625 10.015625 -6.34375 C 10.015625 -7.050781 9.773438 -7.660156 9.296875 -8.171875 C 8.816406 -8.679688 7.890625 -9.4375 6.515625 -10.4375 C 5.328125 -11.289062 4.363281 -12.050781 3.625 -12.71875 C 2.894531 -13.382812 2.269531 -14.203125 1.75 -15.171875 C 1.226562 -16.148438 0.96875 -17.28125 0.96875 -18.5625 C 0.96875 -20.582031 1.59375 -22.195312 2.84375 -23.40625 C 4.101562 -24.613281 5.769531 -25.21875 7.84375 -25.21875 C 9.925781 -25.21875 11.601562 -24.585938 12.875 -23.328125 C 14.144531 -22.078125 14.78125 -20.425781 14.78125 -18.375 L 14.78125 -17.53125 C 14.78125 -17.40625 14.738281 -17.300781 14.65625 -17.21875 C 14.570312 -17.132812 14.472656 -17.09375 14.359375 -17.09375 L 10.265625 -17.09375 C 10.140625 -17.09375 10.035156 -17.132812 9.953125 -17.21875 C 9.867188 -17.300781 9.828125 -17.40625 9.828125 -17.53125 L 9.828125 -18.484375 C 9.828125 -19.222656 9.644531 -19.8125 9.28125 -20.25 C 8.914062 -20.6875 8.4375 -20.90625 7.84375 -20.90625 C 7.269531 -20.90625 6.800781 -20.695312 6.4375 -20.28125 C 6.082031 -19.875 5.90625 -19.300781 5.90625 -18.5625 C 5.90625 -17.84375 6.128906 -17.210938 6.578125 -16.671875 C 7.035156 -16.128906 7.929688 -15.367188 9.265625 -14.390625 C 10.734375 -13.296875 11.84375 -12.410156 12.59375 -11.734375 C 13.34375 -11.054688 13.925781 -10.304688 14.34375 -9.484375 C 14.757812 -8.671875 14.96875 -7.695312 14.96875 -6.5625 C 14.96875 -4.46875 14.320312 -2.800781 13.03125 -1.5625 C 11.75 -0.332031 10.066406 0.28125 7.984375 0.28125 Z M 7.984375 0.28125 "/></g></g></g><g fill="#45433f" fill-opacity="1"><g transform="translate(26.157189, 356.91793)"><g><path d="M 12.046875 0 C 11.753906 0 11.597656 -0.128906 11.578125 -0.390625 L 11.015625 -3.8125 C 11.015625 -3.925781 10.941406 -3.984375 10.796875 -3.984375 L 6.265625 -3.984375 C 6.128906 -3.984375 6.0625 -3.925781 6.0625 -3.8125 L 5.484375 -0.390625 C 5.460938 -0.128906 5.304688 0 5.015625 0 L 0.859375 0 C 0.546875 0 0.425781 -0.15625 0.5 -0.46875 L 5.734375 -24.546875 C 5.785156 -24.804688 5.941406 -24.9375 6.203125 -24.9375 L 11.015625 -24.9375 C 11.273438 -24.9375 11.425781 -24.804688 11.46875 -24.546875 L 16.671875 -0.46875 L 16.703125 -0.328125 C 16.703125 -0.109375 16.570312 0 16.3125 0 Z M 6.765625 -8.046875 C 6.765625 -7.929688 6.8125 -7.875 6.90625 -7.875 L 10.125 -7.875 C 10.238281 -7.875 10.285156 -7.929688 10.265625 -8.046875 L 8.578125 -17.78125 C 8.554688 -17.851562 8.519531 -17.890625 8.46875 -17.890625 C 8.425781 -17.890625 8.394531 -17.851562 8.375 -17.78125 Z M 6.765625 -8.046875 "/></g></g></g><g fill="#45433f" fill-opacity="1"><g transform="translate(43.322799, 356.91793)"><g><path d="M 7.484375 0.28125 C 5.390625 0.28125 3.703125 -0.328125 2.421875 -1.546875 C 1.140625 -2.773438 0.5 -4.394531 0.5 -6.40625 L 0.5 -8.875 C 0.5 -8.988281 0.539062 -9.085938 0.625 -9.171875 C 0.707031 -9.253906 0.804688 -9.296875 0.921875 -9.296875 L 5.09375 -9.296875 C 5.207031 -9.296875 5.304688 -9.253906 5.390625 -9.171875 C 5.472656 -9.085938 5.515625 -8.988281 5.515625 -8.875 L 5.515625 -6.34375 C 5.515625 -5.65625 5.691406 -5.097656 6.046875 -4.671875 C 6.410156 -4.242188 6.890625 -4.03125 7.484375 -4.03125 C 8.097656 -4.03125 8.585938 -4.242188 8.953125 -4.671875 C 9.328125 -5.097656 9.515625 -5.65625 9.515625 -6.34375 L 9.515625 -24.515625 C 9.515625 -24.628906 9.554688 -24.726562 9.640625 -24.8125 C 9.722656 -24.894531 9.820312 -24.9375 9.9375 -24.9375 L 14.109375 -24.9375 C 14.222656 -24.9375 14.320312 -24.894531 14.40625 -24.8125 C 14.488281 -24.726562 14.53125 -24.628906 14.53125 -24.515625 L 14.53125 -6.40625 C 14.53125 -4.394531 13.882812 -2.773438 12.59375 -1.546875 C 11.300781 -0.328125 9.597656 0.28125 7.484375 0.28125 Z M 7.484375 0.28125 "/></g></g></g><g fill="#45433f" fill-opacity="1"><g transform="translate(59.420012, 356.91793)"><g><path d="M 8.546875 0.28125 C 6.410156 0.28125 4.691406 -0.382812 3.390625 -1.71875 C 2.097656 -3.0625 1.453125 -4.851562 1.453125 -7.09375 L 1.453125 -24.515625 C 1.453125 -24.628906 1.492188 -24.726562 1.578125 -24.8125 C 1.660156 -24.894531 1.765625 -24.9375 1.890625 -24.9375 L 6.0625 -24.9375 C 6.175781 -24.9375 6.273438 -24.894531 6.359375 -24.8125 C 6.441406 -24.726562 6.484375 -24.628906 6.484375 -24.515625 L 6.484375 -6.59375 C 6.484375 -5.832031 6.671875 -5.210938 7.046875 -4.734375 C 7.429688 -4.265625 7.929688 -4.03125 8.546875 -4.03125 C 9.160156 -4.03125 9.648438 -4.265625 10.015625 -4.734375 C 10.390625 -5.210938 10.578125 -5.832031 10.578125 -6.59375 L 10.578125 -24.515625 C 10.578125 -24.628906 10.617188 -24.726562 10.703125 -24.8125 C 10.785156 -24.894531 10.890625 -24.9375 11.015625 -24.9375 L 15.171875 -24.9375 C 15.296875 -24.9375 15.398438 -24.894531 15.484375 -24.8125 C 15.566406 -24.726562 15.609375 -24.628906 15.609375 -24.515625 L 15.609375 -7.09375 C 15.609375 -4.851562 14.957031 -3.0625 13.65625 -1.71875 C 12.363281 -0.382812 10.660156 0.28125 8.546875 0.28125 Z M 8.546875 0.28125 "/></g></g></g><g fill="#45433f" fill-opacity="1"><g transform="translate(76.47878, 356.91793)"><g><path d="M 2 0 C 1.875 0 1.769531 -0.0390625 1.6875 -0.125 C 1.601562 -0.207031 1.5625 -0.304688 1.5625 -0.421875 L 1.5625 -24.515625 C 1.5625 -24.628906 1.601562 -24.726562 1.6875 -24.8125 C 1.769531 -24.894531 1.875 -24.9375 2 -24.9375 L 8.4375 -24.9375 C 10.601562 -24.9375 12.335938 -24.304688 13.640625 -23.046875 C 14.953125 -21.785156 15.609375 -20.113281 15.609375 -18.03125 L 15.609375 -6.90625 C 15.609375 -4.820312 14.953125 -3.148438 13.640625 -1.890625 C 12.335938 -0.628906 10.601562 0 8.4375 0 Z M 6.59375 -4.484375 C 6.59375 -4.367188 6.648438 -4.3125 6.765625 -4.3125 L 8.375 -4.34375 C 9.007812 -4.363281 9.53125 -4.632812 9.9375 -5.15625 C 10.34375 -5.6875 10.554688 -6.378906 10.578125 -7.234375 L 10.578125 -17.703125 C 10.578125 -18.609375 10.375 -19.320312 9.96875 -19.84375 C 9.570312 -20.363281 9.03125 -20.625 8.34375 -20.625 L 6.765625 -20.625 C 6.648438 -20.625 6.59375 -20.566406 6.59375 -20.453125 Z M 6.59375 -4.484375 "/></g></g></g><g fill="#45433f" fill-opacity="1"><g transform="translate(93.430707, 356.91793)"><g><path d="M 12.046875 0 C 11.753906 0 11.597656 -0.128906 11.578125 -0.390625 L 11.015625 -3.8125 C 11.015625 -3.925781 10.941406 -3.984375 10.796875 -3.984375 L 6.265625 -3.984375 C 6.128906 -3.984375 6.0625 -3.925781 6.0625 -3.8125 L 5.484375 -0.390625 C 5.460938 -0.128906 5.304688 0 5.015625 0 L 0.859375 0 C 0.546875 0 0.425781 -0.15625 0.5 -0.46875 L 5.734375 -24.546875 C 5.785156 -24.804688 5.941406 -24.9375 6.203125 -24.9375 L 11.015625 -24.9375 C 11.273438 -24.9375 11.425781 -24.804688 11.46875 -24.546875 L 16.671875 -0.46875 L 16.703125 -0.328125 C 16.703125 -0.109375 16.570312 0 16.3125 0 Z M 6.765625 -8.046875 C 6.765625 -7.929688 6.8125 -7.875 6.90625 -7.875 L 10.125 -7.875 C 10.238281 -7.875 10.285156 -7.929688 10.265625 -8.046875 L 8.578125 -17.78125 C 8.554688 -17.851562 8.519531 -17.890625 8.46875 -17.890625 C 8.425781 -17.890625 8.394531 -17.851562 8.375 -17.78125 Z M 6.765625 -8.046875 "/></g></g></g><g fill="#45433f" fill-opacity="1"><g transform="translate(110.596317, 356.91793)"><g><path d="M 7.984375 0.28125 C 6.597656 0.28125 5.382812 0.0078125 4.34375 -0.53125 C 3.300781 -1.082031 2.492188 -1.847656 1.921875 -2.828125 C 1.347656 -3.816406 1.0625 -4.953125 1.0625 -6.234375 L 1.0625 -7.265625 C 1.0625 -7.390625 1.101562 -7.488281 1.1875 -7.5625 C 1.269531 -7.644531 1.375 -7.6875 1.5 -7.6875 L 5.59375 -7.6875 C 5.707031 -7.6875 5.804688 -7.644531 5.890625 -7.5625 C 5.972656 -7.488281 6.015625 -7.390625 6.015625 -7.265625 L 6.015625 -6.484375 C 6.015625 -5.742188 6.203125 -5.148438 6.578125 -4.703125 C 6.960938 -4.253906 7.441406 -4.03125 8.015625 -4.03125 C 8.585938 -4.03125 9.0625 -4.242188 9.4375 -4.671875 C 9.820312 -5.097656 10.015625 -5.65625 10.015625 -6.34375 C 10.015625 -7.050781 9.773438 -7.660156 9.296875 -8.171875 C 8.816406 -8.679688 7.890625 -9.4375 6.515625 -10.4375 C 5.328125 -11.289062 4.363281 -12.050781 3.625 -12.71875 C 2.894531 -13.382812 2.269531 -14.203125 1.75 -15.171875 C 1.226562 -16.148438 0.96875 -17.28125 0.96875 -18.5625 C 0.96875 -20.582031 1.59375 -22.195312 2.84375 -23.40625 C 4.101562 -24.613281 5.769531 -25.21875 7.84375 -25.21875 C 9.925781 -25.21875 11.601562 -24.585938 12.875 -23.328125 C 14.144531 -22.078125 14.78125 -20.425781 14.78125 -18.375 L 14.78125 -17.53125 C 14.78125 -17.40625 14.738281 -17.300781 14.65625 -17.21875 C 14.570312 -17.132812 14.472656 -17.09375 14.359375 -17.09375 L 10.265625 -17.09375 C 10.140625 -17.09375 10.035156 -17.132812 9.953125 -17.21875 C 9.867188 -17.300781 9.828125 -17.40625 9.828125 -17.53125 L 9.828125 -18.484375 C 9.828125 -19.222656 9.644531 -19.8125 9.28125 -20.25 C 8.914062 -20.6875 8.4375 -20.90625 7.84375 -20.90625 C 7.269531 -20.90625 6.800781 -20.695312 6.4375 -20.28125 C 6.082031 -19.875 5.90625 -19.300781 5.90625 -18.5625 C 5.90625 -17.84375 6.128906 -17.210938 6.578125 -16.671875 C 7.035156 -16.128906 7.929688 -15.367188 9.265625 -14.390625 C 10.734375 -13.296875 11.84375 -12.410156 12.59375 -11.734375 C 13.34375 -11.054688 13.925781 -10.304688 14.34375 -9.484375 C 14.757812 -8.671875 14.96875 -7.695312 14.96875 -6.5625 C 14.96875 -4.46875 14.320312 -2.800781 13.03125 -1.5625 C 11.75 -0.332031 10.066406 0.28125 7.984375 0.28125 Z M 7.984375 0.28125 "/></g></g></g><g fill="#45433f" fill-opacity="1"><g transform="translate(138.06102, 131.877296)"><g><path d="M 19.75 -10.015625 C 19.75 -9.316406 19.722656 -8.75 19.671875 -8.3125 L 6 -8.3125 C 6.289062 -4.769531 7.773438 -3 10.453125 -3 C 11.535156 -3 12.429688 -3.285156 13.140625 -3.859375 C 13.859375 -4.441406 14.300781 -5.238281 14.46875 -6.25 L 19.453125 -6.25 C 18.972656 -4.0625 17.921875 -2.390625 16.296875 -1.234375 C 14.671875 -0.078125 12.6875 0.5 10.34375 0.5 C 7.570312 0.5 5.316406 -0.359375 3.578125 -2.078125 C 1.847656 -3.804688 0.984375 -6.296875 0.984375 -9.546875 C 0.984375 -12.535156 1.878906 -14.984375 3.671875 -16.890625 C 5.460938 -18.796875 7.820312 -19.75 10.75 -19.75 C 13.5625 -19.75 15.765625 -18.816406 17.359375 -16.953125 C 18.953125 -15.097656 19.75 -12.785156 19.75 -10.015625 Z M 10.53125 -16.234375 C 8.039062 -16.234375 6.582031 -14.679688 6.15625 -11.578125 L 14.609375 -11.578125 C 14.273438 -14.679688 12.914062 -16.234375 10.53125 -16.234375 Z M 10.53125 -16.234375 "/></g></g></g><g fill="#45433f" fill-opacity="1"><g transform="translate(158.967758, 131.877296)"><g/></g></g><g fill="#45433f" fill-opacity="1"><g transform="translate(165.984899, 131.877296)"><g><path d="M 7.84375 -21.703125 C 7.800781 -21.367188 7.78125 -20.816406 7.78125 -20.046875 L 7.78125 -19.09375 L 11.71875 -19.09375 L 11.71875 -15.8125 L 7.78125 -15.8125 L 7.78125 0 L 2.78125 0 L 2.78125 -15.8125 L 0.71875 -15.8125 L 0.71875 -19.09375 L 2.78125 -19.09375 L 2.78125 -19.890625 C 2.78125 -20.929688 2.804688 -21.664062 2.859375 -22.09375 C 3.171875 -25.550781 5.5 -27.28125 9.84375 -27.28125 C 10.5625 -27.28125 11.296875 -27.191406 12.046875 -27.015625 L 12.046875 -23.546875 C 10.859375 -23.765625 9.882812 -23.707031 9.125 -23.375 C 8.375 -23.050781 7.945312 -22.492188 7.84375 -21.703125 Z M 7.84375 -21.703125 "/></g></g></g><g fill="#45433f" fill-opacity="1"><g transform="translate(178.210637, 131.877296)"><g><path d="M 13.453125 0 L 13.09375 -2.828125 L 12.15625 -0.765625 C 10.894531 0.078125 9.300781 0.5 7.375 0.5 C 5.613281 0.5 4.140625 0.0078125 2.953125 -0.96875 C 1.773438 -1.957031 1.1875 -3.332031 1.1875 -5.09375 C 1.1875 -7.21875 2.082031 -8.851562 3.875 -10 C 5.675781 -11.144531 8.316406 -11.71875 11.796875 -11.71875 L 13.015625 -11.71875 L 13.015625 -12.125 C 13.015625 -12.894531 12.992188 -13.492188 12.953125 -13.921875 C 12.785156 -15.460938 11.796875 -16.234375 9.984375 -16.234375 C 7.984375 -16.234375 6.910156 -15.148438 6.765625 -12.984375 L 1.921875 -12.953125 C 1.992188 -15.066406 2.796875 -16.726562 4.328125 -17.9375 C 5.859375 -19.144531 7.804688 -19.75 10.171875 -19.75 C 14.960938 -19.75 17.53125 -17.859375 17.875 -14.078125 C 17.945312 -13.160156 17.984375 -12.171875 17.984375 -11.109375 L 17.984375 -4.890625 C 17.984375 -3.410156 18.101562 -1.78125 18.34375 0 Z M 9.296875 -3 C 10.359375 -3 11.242188 -3.359375 11.953125 -4.078125 C 12.660156 -4.804688 13.015625 -5.8125 13.015625 -7.09375 L 13.015625 -8.640625 C 8.578125 -8.953125 6.359375 -7.90625 6.359375 -5.5 C 6.359375 -3.832031 7.335938 -3 9.296875 -3 Z M 9.296875 -3 "/></g></g></g><g fill="#45433f" fill-opacity="1"><g transform="translate(198.538642, 131.877296)"><g><path d="M 10.453125 -3 C 11.441406 -3 12.28125 -3.3125 12.96875 -3.9375 C 13.65625 -4.570312 14.117188 -5.476562 14.359375 -6.65625 L 19.359375 -6.65625 C 18.960938 -4.488281 18.035156 -2.796875 16.578125 -1.578125 C 15.117188 -0.359375 13.28125 0.320312 11.0625 0.46875 L 10.5625 1.484375 C 12.707031 1.742188 13.78125 2.707031 13.78125 4.375 C 13.78125 5.457031 13.285156 6.265625 12.296875 6.796875 C 11.304688 7.328125 10.003906 7.59375 8.390625 7.59375 C 7.640625 7.59375 7 7.507812 6.46875 7.34375 L 6.46875 5.203125 C 7.101562 5.421875 7.769531 5.53125 8.46875 5.53125 C 9.9375 5.53125 10.671875 5.117188 10.671875 4.296875 C 10.671875 3.285156 9.515625 2.863281 7.203125 3.03125 L 8.53125 0.390625 C 6.238281 0.0546875 4.40625 -0.953125 3.03125 -2.640625 C 1.664062 -4.328125 0.984375 -6.609375 0.984375 -9.484375 C 0.984375 -12.660156 1.894531 -15.164062 3.71875 -17 C 5.550781 -18.832031 7.84375 -19.75 10.59375 -19.75 C 13.125 -19.75 15.171875 -19.054688 16.734375 -17.671875 C 18.304688 -16.285156 19.191406 -14.492188 19.390625 -12.296875 L 14.46875 -12.296875 C 14.03125 -14.921875 12.703125 -16.234375 10.484375 -16.234375 C 9.160156 -16.234375 8.109375 -15.691406 7.328125 -14.609375 C 6.546875 -13.523438 6.15625 -11.921875 6.15625 -9.796875 C 6.15625 -7.503906 6.539062 -5.796875 7.3125 -4.671875 C 8.082031 -3.554688 9.128906 -3 10.453125 -3 Z M 10.453125 -3 "/></g></g></g><g fill="#45433f" fill-opacity="1"><g transform="translate(218.830478, 131.877296)"><g><path d="M 13.453125 0 L 13.09375 -2.828125 L 12.15625 -0.765625 C 10.894531 0.078125 9.300781 0.5 7.375 0.5 C 5.613281 0.5 4.140625 0.0078125 2.953125 -0.96875 C 1.773438 -1.957031 1.1875 -3.332031 1.1875 -5.09375 C 1.1875 -7.21875 2.082031 -8.851562 3.875 -10 C 5.675781 -11.144531 8.316406 -11.71875 11.796875 -11.71875 L 13.015625 -11.71875 L 13.015625 -12.125 C 13.015625 -12.894531 12.992188 -13.492188 12.953125 -13.921875 C 12.785156 -15.460938 11.796875 -16.234375 9.984375 -16.234375 C 7.984375 -16.234375 6.910156 -15.148438 6.765625 -12.984375 L 1.921875 -12.953125 C 1.992188 -15.066406 2.796875 -16.726562 4.328125 -17.9375 C 5.859375 -19.144531 7.804688 -19.75 10.171875 -19.75 C 14.960938 -19.75 17.53125 -17.859375 17.875 -14.078125 C 17.945312 -13.160156 17.984375 -12.171875 17.984375 -11.109375 L 17.984375 -4.890625 C 17.984375 -3.410156 18.101562 -1.78125 18.34375 0 Z M 9.296875 -3 C 10.359375 -3 11.242188 -3.359375 11.953125 -4.078125 C 12.660156 -4.804688 13.015625 -5.8125 13.015625 -7.09375 L 13.015625 -8.640625 C 8.578125 -8.953125 6.359375 -7.90625 6.359375 -5.5 C 6.359375 -3.832031 7.335938 -3 9.296875 -3 Z M 9.296875 -3 "/></g></g></g><g fill="#45433f" fill-opacity="1"><g transform="translate(239.158478, 131.877296)"><g/></g></g><g fill="#45433f" fill-opacity="1"><g transform="translate(246.175613, 131.877296)"><g><path d="M 13.703125 -19.75 C 16.359375 -19.75 18.453125 -18.84375 19.984375 -17.03125 C 21.515625 -15.226562 22.28125 -12.878906 22.28125 -9.984375 C 22.28125 -6.648438 21.398438 -4.066406 19.640625 -2.234375 C 17.878906 -0.410156 15.6875 0.5 13.0625 0.5 C 11.082031 0.5 9.570312 0.140625 8.53125 -0.578125 L 7.265625 -2.5625 L 7.265625 7.09375 L 2.28125 7.09375 L 2.28125 -19.25 L 7.265625 -19.25 L 7.265625 -16.3125 L 8.71875 -18.40625 C 9.820312 -19.300781 11.484375 -19.75 13.703125 -19.75 Z M 12.078125 -3 C 13.578125 -3 14.789062 -3.570312 15.71875 -4.71875 C 16.644531 -5.863281 17.109375 -7.507812 17.109375 -9.65625 C 17.109375 -11.632812 16.664062 -13.222656 15.78125 -14.421875 C 14.90625 -15.628906 13.734375 -16.234375 12.265625 -16.234375 C 10.765625 -16.234375 9.554688 -15.722656 8.640625 -14.703125 C 7.722656 -13.679688 7.265625 -12.0625 7.265625 -9.84375 L 7.265625 -8.9375 C 7.265625 -6.90625 7.734375 -5.40625 8.671875 -4.4375 C 9.617188 -3.476562 10.753906 -3 12.078125 -3 Z M 12.078125 -3 "/></g></g></g><g fill="#45433f" fill-opacity="1"><g transform="translate(269.43346, 131.877296)"><g><path d="M 13.453125 0 L 13.09375 -2.828125 L 12.15625 -0.765625 C 10.894531 0.078125 9.300781 0.5 7.375 0.5 C 5.613281 0.5 4.140625 0.0078125 2.953125 -0.96875 C 1.773438 -1.957031 1.1875 -3.332031 1.1875 -5.09375 C 1.1875 -7.21875 2.082031 -8.851562 3.875 -10 C 5.675781 -11.144531 8.316406 -11.71875 11.796875 -11.71875 L 13.015625 -11.71875 L 13.015625 -12.125 C 13.015625 -12.894531 12.992188 -13.492188 12.953125 -13.921875 C 12.785156 -15.460938 11.796875 -16.234375 9.984375 -16.234375 C 7.984375 -16.234375 6.910156 -15.148438 6.765625 -12.984375 L 1.921875 -12.953125 C 1.992188 -15.066406 2.796875 -16.726562 4.328125 -17.9375 C 5.859375 -19.144531 7.804688 -19.75 10.171875 -19.75 C 14.960938 -19.75 17.53125 -17.859375 17.875 -14.078125 C 17.945312 -13.160156 17.984375 -12.171875 17.984375 -11.109375 L 17.984375 -4.890625 C 17.984375 -3.410156 18.101562 -1.78125 18.34375 0 Z M 9.296875 -3 C 10.359375 -3 11.242188 -3.359375 11.953125 -4.078125 C 12.660156 -4.804688 13.015625 -5.8125 13.015625 -7.09375 L 13.015625 -8.640625 C 8.578125 -8.953125 6.359375 -7.90625 6.359375 -5.5 C 6.359375 -3.832031 7.335938 -3 9.296875 -3 Z M 9.296875 -3 "/></g></g></g><g fill="#45433f" fill-opacity="1"><g transform="translate(289.761471, 131.877296)"><g><path d="M 12.078125 -19.71875 C 12.628906 -19.71875 13.097656 -19.664062 13.484375 -19.5625 L 13.484375 -15.546875 C 11.367188 -15.691406 9.800781 -15.238281 8.78125 -14.1875 C 7.769531 -13.144531 7.265625 -11.359375 7.265625 -8.828125 L 7.265625 0 L 2.28125 0 L 2.28125 -19.25 L 7.265625 -19.25 L 7.265625 -15.734375 L 8.796875 -18.40625 C 9.734375 -19.28125 10.828125 -19.71875 12.078125 -19.71875 Z M 12.078125 -19.71875 "/></g></g></g><g fill="#45433f" fill-opacity="1"><g transform="translate(303.506386, 131.877296)"><g><path d="M 8.25 -15.8125 L 8.25 -6.90625 C 8.25 -6.113281 8.257812 -5.546875 8.28125 -5.203125 C 8.351562 -4.265625 8.628906 -3.65625 9.109375 -3.375 C 9.597656 -3.101562 10.53125 -3.015625 11.90625 -3.109375 L 11.90625 0.140625 C 10.863281 0.304688 9.765625 0.390625 8.609375 0.390625 C 6.773438 0.390625 5.46875 0.0820312 4.6875 -0.53125 C 3.90625 -1.144531 3.453125 -2.148438 3.328125 -3.546875 C 3.273438 -4.117188 3.25 -5.046875 3.25 -6.328125 L 3.25 -15.8125 L 0.4375 -15.8125 L 0.4375 -19.09375 L 3.25 -19.09375 L 3.25 -23.84375 L 8.25 -23.84375 L 8.25 -19.09375 L 12.21875 -19.09375 L 12.21875 -15.8125 Z M 8.25 -15.8125 "/></g></g></g><g fill="#45433f" fill-opacity="1"><g transform="translate(316.564062, 131.877296)"><g><path d="M 19.75 -10.015625 C 19.75 -9.316406 19.722656 -8.75 19.671875 -8.3125 L 6 -8.3125 C 6.289062 -4.769531 7.773438 -3 10.453125 -3 C 11.535156 -3 12.429688 -3.285156 13.140625 -3.859375 C 13.859375 -4.441406 14.300781 -5.238281 14.46875 -6.25 L 19.453125 -6.25 C 18.972656 -4.0625 17.921875 -2.390625 16.296875 -1.234375 C 14.671875 -0.078125 12.6875 0.5 10.34375 0.5 C 7.570312 0.5 5.316406 -0.359375 3.578125 -2.078125 C 1.847656 -3.804688 0.984375 -6.296875 0.984375 -9.546875 C 0.984375 -12.535156 1.878906 -14.984375 3.671875 -16.890625 C 5.460938 -18.796875 7.820312 -19.75 10.75 -19.75 C 13.5625 -19.75 15.765625 -18.816406 17.359375 -16.953125 C 18.953125 -15.097656 19.75 -12.785156 19.75 -10.015625 Z M 10.53125 -16.234375 C 8.039062 -16.234375 6.582031 -14.679688 6.15625 -11.578125 L 14.609375 -11.578125 C 14.273438 -14.679688 12.914062 -16.234375 10.53125 -16.234375 Z M 10.53125 -16.234375 "/></g></g></g></svg>