<svg xmlns="http://www.w3.org/2000/svg" xmlns:xlink="http://www.w3.org/1999/xlink" width="500" zoomAndPan="magnify" viewBox="0 0 375 374.999991" height="500" preserveAspectRatio="xMidYMid meet" version="1.0"><defs><g/><clipPath id="09c270abe3"><path d="M 125.527344 163.878906 L 243.675781 163.878906 L 243.675781 199.347656 L 125.527344 199.347656 Z M 125.527344 163.878906 " clip-rule="nonzero"/></clipPath></defs><rect x="-37.5" width="450" fill="#ffffff" y="-37.499999" height="449.999989" fill-opacity="1"/><rect x="-37.5" width="450" fill="#ffffff" y="-37.499999" height="449.999989" fill-opacity="1"/><g clip-path="url(#09c270abe3)"><path fill="#e4b628" d="M 125.527344 163.878906 L 243.714844 163.878906 L 243.714844 199.347656 L 125.527344 199.347656 Z M 125.527344 163.878906 " fill-opacity="1" fill-rule="nonzero"/></g><g fill="#45433f" fill-opacity="1"><g transform="translate(134.627955, 192.619471)"><g><path d="M 16.75 -7.53125 L 8.359375 -7.53125 L 5.859375 0 L 0.546875 0 L 9.546875 -24.953125 L 15.8125 -24.953125 L 24.640625 0 L 19.203125 0 Z M 12.59375 -20.6875 L 9.625 -11.46875 L 15.484375 -11.46875 Z M 12.59375 -20.6875 "/></g></g></g><g fill="#45433f" fill-opacity="1"><g transform="translate(159.079436, 192.619471)"><g><path d="M 17.796875 -13.453125 C 21.003906 -12.628906 22.609375 -10.628906 22.609375 -7.453125 C 22.609375 -5.304688 21.9375 -3.617188 20.59375 -2.390625 C 19.257812 -1.160156 17.648438 -0.410156 15.765625 -0.140625 C 14.921875 -0.046875 13.765625 0 12.296875 0 L 3.21875 0 L 3.21875 -24.953125 L 12.15625 -24.953125 C 13.476562 -24.953125 14.550781 -24.90625 15.375 -24.8125 C 17.375 -24.570312 18.921875 -23.894531 20.015625 -22.78125 C 21.117188 -21.675781 21.671875 -20.28125 21.671875 -18.59375 C 21.671875 -16.0625 20.378906 -14.347656 17.796875 -13.453125 Z M 8.21875 -21.046875 L 8.21875 -14.71875 L 11.96875 -14.71875 C 12.570312 -14.71875 13.164062 -14.753906 13.75 -14.828125 C 15.550781 -15.117188 16.453125 -16.15625 16.453125 -17.9375 C 16.453125 -19.695312 15.515625 -20.695312 13.640625 -20.9375 C 13.054688 -21.007812 12.453125 -21.046875 11.828125 -21.046875 Z M 14.21875 -3.984375 C 15.132812 -4.054688 15.882812 -4.390625 16.46875 -4.984375 C 17.0625 -5.585938 17.359375 -6.398438 17.359375 -7.421875 C 17.359375 -9.515625 16.285156 -10.671875 14.140625 -10.890625 C 13.535156 -10.960938 12.945312 -11 12.375 -11 L 8.21875 -11 L 8.21875 -3.9375 L 12.546875 -3.9375 C 13.347656 -3.9375 13.90625 -3.953125 14.21875 -3.984375 Z M 14.21875 -3.984375 "/></g></g></g><g fill="#45433f" fill-opacity="1"><g transform="translate(182.843668, 192.619471)"><g><path d="M 8.21875 -21.046875 L 8.21875 -14.46875 L 19.609375 -14.46875 L 19.609375 -10.53125 L 8.21875 -10.53125 L 8.21875 0 L 3.21875 0 L 3.21875 -24.953125 L 20.875 -24.953125 L 20.875 -21.046875 Z M 8.21875 -21.046875 "/></g></g></g><g fill="#45433f" fill-opacity="1"><g transform="translate(204.292967, 192.619471)"><g><path d="M 25.140625 0 L 18.296875 0 L 8.03125 -18.953125 C 8.15625 -16.679688 8.21875 -14.125 8.21875 -11.28125 L 8.21875 0 L 3.21875 0 L 3.21875 -24.953125 L 9.84375 -24.953125 L 20.328125 -5.640625 C 20.203125 -7.878906 20.140625 -10.492188 20.140625 -13.484375 L 20.140625 -24.953125 L 25.109375 -24.953125 Z M 25.140625 0 "/></g></g></g></svg>