<svg width="33" height="32" viewBox="0 0 33 32" fill="none" xmlns="http://www.w3.org/2000/svg">
<g clip-path="url(#clip0_382_174)">
<path d="M16.5 0C7.38738 0 0 7.16352 0 16C0 23.5034 5.32752 29.7997 12.5143 31.529V20.8896H9.11196V16H12.5143V13.8931C12.5143 8.44736 15.0559 5.9232 20.5696 5.9232C21.615 5.9232 23.4188 6.12224 24.1567 6.32064V10.7526C23.7673 10.713 23.0908 10.6931 22.2506 10.6931C19.5452 10.6931 18.4998 11.687 18.4998 14.2707V16H23.8894L22.9634 20.8896H18.4998V31.8829C26.6699 30.9261 33.0007 24.1805 33.0007 16C33 7.16352 25.6126 0 16.5 0Z" fill="white"/>
</g>
<defs>
<clipPath id="clip0_382_174">
<rect width="33" height="32" fill="white"/>
</clipPath>
</defs>
</svg>
