<svg xmlns="http://www.w3.org/2000/svg" xmlns:xlink="http://www.w3.org/1999/xlink" width="1440" zoomAndPan="magnify" viewBox="0 0 1080 585.000005" height="780" preserveAspectRatio="xMidYMid meet" version="1.0"><defs><clipPath id="aa25716682"><path d="M 107 418 L 193 418 L 193 583.675781 L 107 583.675781 Z M 107 418 " clip-rule="nonzero"/></clipPath><clipPath id="b4a9bdd4ad"><path d="M 130 373.285156 L 171 373.285156 L 171 414 L 130 414 Z M 130 373.285156 " clip-rule="nonzero"/></clipPath><clipPath id="73b635500b"><path d="M 207 526 L 225 526 L 225 583.675781 L 207 583.675781 Z M 207 526 " clip-rule="nonzero"/></clipPath><clipPath id="6f9fc34106"><path d="M 186 526 L 205 526 L 205 583.675781 L 186 583.675781 Z M 186 526 " clip-rule="nonzero"/></clipPath><clipPath id="a711a77f21"><path d="M 262 550 L 277 550 L 277 583.675781 L 262 583.675781 Z M 262 550 " clip-rule="nonzero"/></clipPath><clipPath id="becc019722"><path d="M 243 550 L 258 550 L 258 583.675781 L 243 583.675781 Z M 243 550 " clip-rule="nonzero"/></clipPath><clipPath id="b3cc5c7162"><path d="M 69 464 L 131 464 L 131 583.675781 L 69 583.675781 Z M 69 464 " clip-rule="nonzero"/></clipPath><clipPath id="7fc3e7e42f"><path d="M 280 510 L 327.554688 510 L 327.554688 583.675781 L 280 583.675781 Z M 280 510 " clip-rule="nonzero"/></clipPath><clipPath id="51555dfbe7"><path d="M 53 550 L 68 550 L 68 583.675781 L 53 583.675781 Z M 53 550 " clip-rule="nonzero"/></clipPath><clipPath id="780fff3cca"><path d="M 35 550 L 49 550 L 49 583.675781 L 35 583.675781 Z M 35 550 " clip-rule="nonzero"/></clipPath><clipPath id="c7ae77094c"><path d="M 16.085938 470 L 87 470 L 87 549 L 16.085938 549 Z M 16.085938 470 " clip-rule="nonzero"/></clipPath><clipPath id="9ffe91bd11"><path d="M 995 529 L 1045.449219 529 L 1045.449219 579 L 995 579 Z M 995 529 " clip-rule="nonzero"/></clipPath><clipPath id="24b720c0f9"><path d="M 894.957031 473 L 932 473 L 932 506 L 894.957031 506 Z M 894.957031 473 " clip-rule="nonzero"/></clipPath><clipPath id="3f1651f22f"><path d="M 564 525 L 585 525 L 585 583.792969 L 564 583.792969 Z M 564 525 " clip-rule="nonzero"/></clipPath><clipPath id="91ca9d4dcf"><path d="M 587 525 L 607 525 L 607 583.792969 L 587 583.792969 Z M 587 525 " clip-rule="nonzero"/></clipPath><clipPath id="0165c68868"><path d="M 327.679688 404 L 758.945312 404 L 758.945312 583.792969 L 327.679688 583.792969 Z M 327.679688 404 " clip-rule="nonzero"/></clipPath><clipPath id="39f3d2f6ec"><path d="M 474 355.433594 L 518 355.433594 L 518 399 L 474 399 Z M 474 355.433594 " clip-rule="nonzero"/></clipPath><clipPath id="159e678adf"><path d="M 401 545 L 418 545 L 418 583.792969 L 401 583.792969 Z M 401 545 " clip-rule="nonzero"/></clipPath><clipPath id="8c56af1e1b"><path d="M 422 545 L 439 545 L 439 583.792969 L 422 583.792969 Z M 422 545 " clip-rule="nonzero"/></clipPath><clipPath id="193b8d6b17"><path d="M 784 379.351562 L 823 379.351562 L 823 419 L 784 419 Z M 784 379.351562 " clip-rule="nonzero"/></clipPath></defs><g clip-path="url(#aa25716682)"><path fill="#16c76d" d="M 107.335938 461.710938 C 107.324219 461.847656 107.308594 461.980469 107.296875 462.117188 L 111.453125 462.117188 C 111.820312 462.117188 112.191406 462.144531 112.585938 462.199219 C 115.769531 462.359375 118.738281 463.546875 121.28125 465.644531 C 122.257812 452.941406 124.519531 444.769531 126.945312 439.722656 L 126.945312 473.3125 C 131.421875 482.742188 133.410156 498.476562 133.144531 521.734375 C 133.101562 525.433594 130.441406 528.527344 126.945312 529.257812 L 126.945312 572.996094 C 126.945312 579.0625 131.863281 583.976562 137.929688 583.976562 C 143.992188 583.976562 148.910156 579.0625 148.910156 572.996094 L 148.910156 492.804688 L 153.03125 492.804688 L 153.03125 572.996094 C 153.03125 579.0625 157.949219 583.976562 164.011719 583.976562 C 170.078125 583.976562 174.996094 579.0625 174.996094 572.996094 L 174.996094 524.460938 C 170.265625 523.308594 168.574219 522.117188 168.097656 521.699219 L 166.792969 520.554688 L 173.179688 500.285156 C 172.171875 500.703125 171.066406 500.9375 169.902344 500.9375 L 169.671875 500.933594 C 167.40625 500.871094 165.3125 499.933594 163.765625 498.292969 C 162.214844 496.65625 161.398438 494.511719 161.464844 492.257812 C 162.496094 455.859375 173.476562 430.511719 173.945312 429.449219 C 174.78125 427.546875 176.28125 426.035156 178.179688 425.175781 C 180.503906 423.820312 185.460938 421.371094 192.816406 419.882812 L 169.253906 418.421875 C 168.886719 418.359375 168.511719 418.320312 168.128906 418.320312 L 133.8125 418.320312 C 133.664062 418.320312 133.523438 418.332031 133.378906 418.34375 C 130.875 418.402344 126.007812 419.207031 121.027344 423.890625 C 118.351562 426.402344 116.050781 429.675781 114.117188 433.675781 C 116.09375 436.785156 117.25 440.46875 117.25 444.417969 C 117.25 451.78125 113.261719 458.222656 107.335938 461.710938 Z M 107.335938 461.710938 " fill-opacity="1" fill-rule="nonzero"/></g><path fill="#16c76d" d="M 231.394531 424.289062 C 232.027344 424.613281 232.566406 424.914062 233.011719 425.171875 C 234.910156 426.03125 236.410156 427.542969 237.25 429.449219 C 237.378906 429.742188 238.304688 431.882812 239.597656 435.574219 C 239.84375 435.410156 240.078125 435.230469 240.300781 435.035156 C 240.511719 432.355469 241.261719 429.824219 242.4375 427.546875 C 241.582031 424.816406 239.125 422.757812 236.101562 422.570312 L 231.449219 422.285156 C 231.441406 422.589844 231.445312 422.882812 231.429688 423.195312 C 231.414062 423.574219 231.40625 423.929688 231.394531 424.289062 Z M 231.394531 424.289062 " fill-opacity="1" fill-rule="nonzero"/><g clip-path="url(#b4a9bdd4ad)"><path fill="#16c76d" d="M 150.972656 413.261719 C 162.011719 413.261719 170.957031 404.3125 170.957031 393.273438 C 170.957031 382.234375 162.011719 373.285156 150.972656 373.285156 C 139.933594 373.285156 130.984375 382.234375 130.984375 393.273438 C 130.984375 404.3125 139.933594 413.261719 150.972656 413.261719 Z M 163.4375 400.941406 C 160.855469 405.125 156.238281 407.929688 150.96875 407.929688 C 145.703125 407.929688 141.085938 405.125 138.503906 400.941406 Z M 163.4375 400.941406 " fill-opacity="1" fill-rule="nonzero"/></g><g clip-path="url(#73b635500b)"><path fill="#16c76d" d="M 207.078125 574.53125 C 207.078125 579.4375 211.058594 583.414062 215.960938 583.414062 C 220.867188 583.414062 224.84375 579.4375 224.84375 574.53125 L 224.84375 526.230469 C 220.171875 526.679688 214.339844 526.980469 207.078125 527.019531 Z M 207.078125 574.53125 " fill-opacity="1" fill-rule="nonzero"/></g><g clip-path="url(#6f9fc34106)"><path fill="#16c76d" d="M 186.351562 574.53125 C 186.351562 579.4375 190.332031 583.414062 195.234375 583.414062 C 200.140625 583.414062 204.117188 579.4375 204.117188 574.53125 L 204.117188 527.019531 C 196.855469 526.980469 191.023438 526.679688 186.351562 526.230469 Z M 186.351562 574.53125 " fill-opacity="1" fill-rule="nonzero"/></g><path fill="#16c76d" d="M 227.339844 443.757812 C 229.320312 449.953125 231.824219 459.242188 233.554688 470.726562 C 236.296875 465.828125 239.535156 461.996094 243.273438 459.253906 C 242.003906 452.992188 240.585938 447.589844 239.277344 443.210938 C 238.414062 443.867188 237.273438 444.34375 236.191406 444.617188 C 234.570312 445.035156 231.230469 445.472656 227.339844 443.757812 Z M 227.339844 443.757812 " fill-opacity="1" fill-rule="nonzero"/><path fill="#16c76d" d="M 234.140625 437.003906 C 235.054688 437.9375 236.179688 438.355469 237.6875 438.320312 C 237.703125 438.320312 237.714844 438.324219 237.730469 438.324219 C 236.144531 433.597656 234.957031 430.855469 234.8125 430.523438 C 234.199219 429.128906 233.097656 428.105469 231.796875 427.546875 C 231.679688 427.480469 231.539062 427.402344 231.40625 427.324219 C 231.617188 433.117188 232.941406 435.785156 234.140625 437.003906 Z M 234.140625 437.003906 " fill-opacity="1" fill-rule="nonzero"/><path fill="#16c76d" d="M 176.382812 430.523438 C 175.925781 431.566406 165.148438 456.433594 164.128906 492.335938 C 164.035156 495.523438 166.546875 498.179688 169.734375 498.269531 C 169.792969 498.273438 169.847656 498.273438 169.902344 498.273438 C 171.808594 498.273438 173.511719 497.339844 174.5625 495.898438 L 175.683594 492.339844 C 176.339844 470.707031 180.839844 453.1875 183.957031 443.480469 C 185.910156 449.746094 187.503906 456.664062 187.027344 461.539062 C 186.722656 464.710938 186.242188 467.21875 185.707031 469.503906 L 185.675781 469.503906 L 169.855469 519.695312 C 169.855469 519.695312 175.175781 524.359375 205.597656 524.359375 C 213.046875 524.359375 218.984375 524.078125 223.710938 523.65625 C 223.03125 522.429688 222.667969 521.011719 222.742188 519.511719 C 223.523438 503.832031 225.65625 490.960938 229.109375 480.886719 L 225.523438 469.503906 L 225.492188 469.503906 C 224.953125 467.21875 224.476562 464.710938 224.167969 461.539062 C 223.699219 456.714844 225.253906 449.898438 227.179688 443.6875 C 225.234375 442.800781 223.160156 441.382812 221.089844 439.132812 C 217.058594 434.742188 216.605469 428.21875 216.421875 422.226562 C 213.242188 421.667969 209.640625 421.300781 205.597656 421.300781 C 191.394531 421.300781 182.417969 425.765625 179.398438 427.546875 C 178.097656 428.105469 177 429.128906 176.382812 430.523438 Z M 176.382812 430.523438 " fill-opacity="1" fill-rule="nonzero"/><path fill="#16c76d" d="M 218.105469 414.886719 C 218.898438 421.921875 217.445312 432.148438 222.59375 437.75 C 231.769531 447.738281 241.769531 440.269531 237.734375 440.363281 C 233.703125 440.460938 228.726562 437.988281 229.390625 423.105469 C 229.75 414.964844 227.757812 409.890625 224.804688 406.679688 C 223.296875 409.949219 220.980469 412.773438 218.105469 414.886719 Z M 218.105469 414.886719 " fill-opacity="1" fill-rule="nonzero"/><path fill="#16c76d" d="M 224.695312 397.859375 C 224.695312 387.308594 216.144531 378.757812 205.597656 378.757812 C 195.050781 378.757812 186.5 387.308594 186.5 397.859375 C 186.5 408.40625 195.050781 416.957031 205.597656 416.957031 C 216.148438 416.957031 224.695312 408.40625 224.695312 397.859375 Z M 194.191406 403.3125 L 217.011719 403.3125 C 214.644531 407.140625 210.421875 409.707031 205.601562 409.707031 C 200.78125 409.707031 196.554688 407.140625 194.191406 403.3125 Z M 194.191406 403.3125 " fill-opacity="1" fill-rule="nonzero"/><g clip-path="url(#a711a77f21)"><path fill="#16c76d" d="M 262.546875 575.949219 C 262.546875 579.9375 265.78125 583.175781 269.769531 583.175781 C 273.761719 583.175781 276.996094 579.9375 276.996094 575.949219 L 276.996094 550.847656 C 273.011719 551.390625 268.164062 551.828125 262.546875 551.929688 Z M 262.546875 575.949219 " fill-opacity="1" fill-rule="nonzero"/></g><g clip-path="url(#becc019722)"><path fill="#16c76d" d="M 243.09375 575.949219 C 243.09375 579.9375 246.328125 583.175781 250.316406 583.175781 C 254.308594 583.175781 257.542969 579.9375 257.542969 575.949219 L 257.542969 551.929688 C 251.925781 551.828125 247.074219 551.390625 243.09375 550.847656 Z M 243.09375 575.949219 " fill-opacity="1" fill-rule="nonzero"/></g><path fill="#16c76d" d="M 289.300781 507.917969 C 287.730469 505.316406 286.8125 502.28125 286.8125 499.03125 C 286.8125 495.046875 288.179688 491.382812 290.457031 488.457031 C 289.359375 484.164062 288.074219 480.292969 286.589844 476.867188 C 285.605469 477.238281 284.472656 477.4375 283.371094 477.4375 C 281.105469 477.4375 277.707031 476.679688 274.390625 473.066406 C 271.148438 469.539062 271.003906 464.300781 270.878906 459.679688 C 270.871094 459.398438 270.863281 459.140625 270.851562 458.878906 C 267.640625 457.429688 264.117188 456.699219 260.273438 456.699219 C 260.253906 456.699219 260.238281 456.699219 260.222656 456.699219 L 259.863281 456.699219 C 259.847656 456.699219 259.832031 456.699219 259.8125 456.699219 C 239.066406 456.699219 227.488281 477.875 225.402344 519.644531 C 225.265625 522.464844 227.433594 524.863281 230.25 525 C 230.335938 525.007812 230.425781 525.007812 230.511719 525.007812 C 231.476562 525.007812 232.378906 524.726562 233.152344 524.257812 C 232.007812 532.417969 231.246094 539.988281 231.246094 545.652344 C 231.246094 545.652344 241.964844 549.289062 260.042969 549.289062 C 267.585938 549.289062 273.839844 548.65625 278.578125 547.917969 C 278.28125 547.125 278.117188 546.269531 278.121094 545.375 C 278.3125 521.808594 285.328125 511.738281 289.300781 507.917969 Z M 289.300781 507.917969 " fill-opacity="1" fill-rule="nonzero"/><path fill="#16c76d" d="M 271.988281 452.398438 C 273.972656 456.925781 271.390625 466.785156 275.894531 471.6875 C 282.429688 478.800781 289.558594 473.480469 286.683594 473.546875 C 283.808594 473.613281 280.265625 471.855469 280.734375 461.25 C 281.046875 454.21875 278.898438 450.394531 276.046875 448.265625 C 274.902344 449.832031 273.535156 451.226562 271.988281 452.398438 Z M 271.988281 452.398438 " fill-opacity="1" fill-rule="nonzero"/><path fill="#16c76d" d="M 260.042969 454.375 C 269.855469 454.375 277.808594 446.421875 277.808594 436.609375 C 277.808594 426.796875 269.855469 418.84375 260.042969 418.84375 C 250.230469 418.84375 242.277344 426.796875 242.277344 436.609375 C 242.277344 446.421875 250.230469 454.375 260.042969 454.375 Z M 269.273438 443.730469 C 267.359375 446.828125 263.945312 448.902344 260.042969 448.902344 C 256.144531 448.902344 252.726562 446.828125 250.8125 443.730469 Z M 269.273438 443.730469 " fill-opacity="1" fill-rule="nonzero"/><g clip-path="url(#b3cc5c7162)"><path fill="#16c76d" d="M 77.546875 482.839844 C 77.644531 482.511719 77.746094 482.195312 77.84375 481.894531 L 77.84375 483.292969 C 84.011719 492.75 87.6875 506.277344 88.765625 523.757812 C 88.894531 525.769531 88.226562 527.710938 86.890625 529.222656 C 85.554688 530.734375 83.710938 531.636719 81.703125 531.761719 C 81.542969 531.769531 81.386719 531.773438 81.226562 531.773438 C 81.046875 531.773438 80.867188 531.769531 80.6875 531.753906 C 81.261719 536.917969 81.550781 541.363281 81.550781 545.007812 L 81.550781 546.882812 L 79.789062 547.515625 C 79.683594 547.554688 79.019531 547.785156 77.847656 548.121094 L 77.847656 574.957031 C 77.847656 579.816406 81.785156 583.757812 86.648438 583.757812 C 91.507812 583.757812 95.449219 579.816406 95.449219 574.957031 L 95.449219 529.5625 L 98.9375 529.5625 L 98.9375 574.957031 C 98.9375 579.816406 102.878906 583.757812 107.742188 583.757812 C 112.601562 583.757812 116.542969 579.816406 116.542969 574.957031 L 116.542969 481.890625 C 118.5625 488.007812 120.515625 499.613281 120.265625 521.585938 C 120.234375 524.410156 122.492188 526.71875 125.316406 526.753906 C 125.335938 526.753906 125.355469 526.753906 125.375 526.753906 C 128.167969 526.753906 130.449219 524.503906 130.480469 521.703125 C 130.808594 493.035156 127.59375 475.6875 120.660156 468.671875 C 118.292969 466.28125 115.417969 464.976562 112.324219 464.855469 C 112.039062 464.808594 111.75 464.78125 111.453125 464.78125 L 82.933594 464.78125 C 82.636719 464.78125 82.34375 464.808594 82.0625 464.855469 C 78.96875 464.976562 76.09375 466.28125 73.726562 468.671875 C 72.285156 470.132812 71.003906 472.046875 69.882812 474.410156 C 72.757812 476.691406 75.3125 479.503906 77.546875 482.839844 Z M 77.546875 482.839844 " fill-opacity="1" fill-rule="nonzero"/></g><path fill="#16c76d" d="M 114.582031 444.421875 C 114.582031 434.816406 106.796875 427.03125 97.191406 427.03125 C 87.589844 427.03125 79.804688 434.816406 79.804688 444.421875 C 79.804688 454.023438 87.589844 461.808594 97.191406 461.808594 C 106.796875 461.8125 114.582031 454.023438 114.582031 444.421875 Z M 87.722656 450.050781 L 108.164062 450.050781 C 106.046875 453.484375 102.261719 455.78125 97.945312 455.78125 C 93.625 455.78125 89.839844 453.484375 87.722656 450.050781 Z M 87.722656 450.050781 " fill-opacity="1" fill-rule="nonzero"/><g clip-path="url(#7fc3e7e42f)"><path fill="#16c76d" d="M 304.082031 516.300781 C 298.785156 516.300781 294.039062 513.894531 290.871094 510.128906 C 287.367188 513.695312 280.96875 523.226562 280.789062 545.398438 C 280.769531 547.851562 282.738281 549.855469 285.191406 549.875 C 285.207031 549.875 285.21875 549.875 285.230469 549.875 C 287.191406 549.875 288.839844 548.59375 289.425781 546.828125 L 289.425781 551.527344 C 289.425781 551.527344 289.425781 551.527344 289.425781 551.53125 L 289.425781 576.402344 C 289.425781 580.082031 292.40625 583.0625 296.089844 583.0625 C 299.769531 583.0625 302.75 580.082031 302.75 576.402344 L 302.75 555.082031 L 305.414062 555.082031 L 305.414062 576.402344 C 305.414062 580.082031 308.398438 583.0625 312.078125 583.0625 C 315.757812 583.0625 318.738281 580.082031 318.738281 576.402344 L 318.738281 547.035156 C 319.382812 548.695312 320.988281 549.878906 322.871094 549.878906 C 322.882812 549.878906 322.894531 549.878906 322.90625 549.878906 C 325.359375 549.855469 327.332031 547.851562 327.3125 545.398438 C 327.132812 523.296875 320.773438 513.757812 317.261719 510.164062 C 314.089844 513.910156 309.363281 516.300781 304.082031 516.300781 Z M 304.082031 516.300781 " fill-opacity="1" fill-rule="nonzero"/></g><path fill="#16c76d" d="M 289.476562 499.03125 C 289.476562 507.097656 296.015625 513.636719 304.082031 513.636719 C 312.148438 513.636719 318.6875 507.097656 318.6875 499.03125 C 318.6875 490.960938 312.148438 484.425781 304.082031 484.425781 C 296.015625 484.425781 289.476562 490.960938 289.476562 499.03125 Z M 313.0625 503.609375 C 311.199219 506.625 307.878906 508.644531 304.082031 508.644531 C 300.289062 508.644531 296.964844 506.625 295.101562 503.609375 Z M 313.0625 503.609375 " fill-opacity="1" fill-rule="nonzero"/><g clip-path="url(#51555dfbe7)"><path fill="#16c76d" d="M 53.773438 576.808594 C 53.773438 580.617188 56.863281 583.707031 60.671875 583.707031 C 64.484375 583.707031 67.570312 580.617188 67.570312 576.808594 L 67.570312 550.230469 C 63.765625 550.777344 59.132812 551.21875 53.773438 551.320312 Z M 53.773438 576.808594 " fill-opacity="1" fill-rule="nonzero"/></g><g clip-path="url(#780fff3cca)"><path fill="#16c76d" d="M 35.195312 576.808594 C 35.195312 580.617188 38.285156 583.707031 42.09375 583.707031 C 45.90625 583.707031 48.996094 580.617188 48.996094 576.808594 L 48.996094 551.320312 C 43.632812 551.21875 39.003906 550.777344 35.195312 550.230469 Z M 35.195312 576.808594 " fill-opacity="1" fill-rule="nonzero"/></g><g clip-path="url(#c7ae77094c)"><path fill="#16c76d" d="M 51.382812 548.679688 C 68.648438 548.679688 78.886719 545.007812 78.886719 545.007812 C 78.886719 540 78.324219 533.847656 77.453125 527.296875 C 78.355469 528.402344 79.710938 529.109375 81.226562 529.109375 C 81.328125 529.109375 81.429688 529.105469 81.53125 529.097656 C 84.226562 528.933594 86.273438 526.613281 86.105469 523.921875 C 84.347656 495.53125 75.898438 482.054688 67.316406 475.773438 C 67.308594 475.746094 67.304688 475.726562 67.304688 475.726562 C 67.304688 475.726562 66.789062 475.105469 65.242188 474.386719 C 59.953125 471.191406 54.816406 470.5 51.382812 470.5 C 48.070312 470.5 43.183594 471.148438 38.101562 474.054688 C 37.683594 476.679688 36.84375 479.171875 35.039062 481.136719 C 32.011719 484.429688 28.925781 485.347656 26.6875 485.484375 C 21.730469 493.457031 17.792969 505.570312 16.65625 523.921875 C 16.492188 526.613281 18.539062 528.933594 21.230469 529.097656 C 22.855469 529.207031 24.347656 528.492188 25.308594 527.3125 C 24.4375 533.859375 23.878906 540.003906 23.878906 545.007812 C 23.882812 545.007812 34.117188 548.679688 51.382812 548.679688 Z M 51.382812 548.679688 " fill-opacity="1" fill-rule="nonzero"/></g><path fill="#16c76d" d="M 33.535156 479.753906 C 37.273438 475.6875 36.132812 468.210938 36.769531 463.195312 C 35.148438 461.25 33.917969 458.972656 33.175781 456.488281 C 30.429688 458.652344 28.390625 462.457031 28.695312 469.316406 C 29.164062 479.921875 25.621094 481.683594 22.746094 481.617188 C 19.871094 481.546875 27 486.871094 33.535156 479.753906 Z M 33.535156 479.753906 " fill-opacity="1" fill-rule="nonzero"/><path fill="#16c76d" d="M 51.382812 468.023438 C 60.753906 468.023438 68.351562 460.425781 68.351562 451.054688 C 68.351562 441.683594 60.753906 434.089844 51.382812 434.089844 C 42.011719 434.089844 34.417969 441.683594 34.417969 451.054688 C 34.417969 460.425781 42.011719 468.023438 51.382812 468.023438 Z M 60.613281 456.277344 C 58.699219 459.375 55.285156 461.453125 51.382812 461.453125 C 47.484375 461.453125 44.066406 459.375 42.152344 456.277344 Z M 60.613281 456.277344 " fill-opacity="1" fill-rule="nonzero"/><path fill="#16c76d" d="M 961.765625 457.222656 C 965.019531 457.222656 968.015625 459.125 969.398438 462.070312 C 971.371094 466.273438 969.550781 471.300781 965.347656 473.273438 L 943.703125 483.421875 L 944.402344 485.074219 L 973.222656 485.074219 C 973.765625 477.945312 975.78125 472.792969 976.25 466.722656 C 977.65625 458.480469 973.585938 452.085938 966.175781 451.464844 C 959.992188 450.949219 952.054688 454.515625 947.988281 462.804688 L 958.195312 458.019531 C 959.324219 457.488281 960.523438 457.222656 961.765625 457.222656 Z M 961.765625 457.222656 " fill-opacity="1" fill-rule="nonzero"/><path fill="#16c76d" d="M 1006.964844 525.777344 L 1016.558594 562.484375 C 1017.710938 566.894531 1021.691406 569.820312 1026.046875 569.816406 C 1026.867188 569.816406 1027.703125 569.714844 1028.535156 569.496094 C 1033.777344 568.125 1036.917969 562.765625 1035.550781 557.519531 L 1024.039062 513.480469 C 1022.910156 509.164062 1019.007812 506.148438 1014.542969 506.148438 L 995.855469 506.148438 L 995.855469 525.777344 Z M 1006.964844 525.777344 " fill-opacity="1" fill-rule="nonzero"/><g clip-path="url(#9ffe91bd11)"><path fill="#16c76d" d="M 1000.648438 534.363281 L 1009.308594 568.285156 C 1010.207031 571.796875 1012.421875 574.738281 1015.546875 576.574219 C 1017.640625 577.800781 1019.972656 578.429688 1022.335938 578.429688 C 1023.5 578.429688 1024.667969 578.277344 1025.824219 577.972656 L 1043.519531 573.265625 C 1044.832031 572.917969 1045.609375 571.574219 1045.261719 570.265625 C 1044.914062 568.957031 1043.570312 568.179688 1042.261719 568.523438 L 1024.5625 573.230469 C 1022.335938 573.820312 1020.015625 573.503906 1018.027344 572.339844 C 1016.042969 571.175781 1014.632812 569.304688 1014.0625 567.070312 L 1004.929688 531.304688 C 1004.652344 530.21875 1003.675781 529.457031 1002.554688 529.457031 L 995.855469 529.457031 L 995.855469 534.363281 Z M 1000.648438 534.363281 " fill-opacity="1" fill-rule="nonzero"/></g><path fill="#16c76d" d="M 993.914062 539.527344 L 993.914062 493.484375 C 993.914062 489.917969 991.011719 487.015625 987.445312 487.015625 L 945.226562 487.015625 L 949.75 497.675781 L 973.914062 497.675781 C 973.398438 494.675781 973.152344 491.992188 973.105469 489.546875 L 987.445312 489.546875 C 988.175781 489.546875 988.855469 489.761719 989.441406 490.109375 C 990.597656 490.796875 991.382812 492.046875 991.382812 493.484375 L 991.382812 499.617188 L 950.574219 499.617188 L 954.398438 508.632812 C 954.574219 509.046875 954.714844 509.476562 954.820312 509.910156 C 963.757812 514.824219 970.753906 523.015625 974.03125 533.117188 L 991.382812 533.117188 L 991.382812 544.441406 L 976.019531 544.441406 C 976.050781 545.289062 976.058594 546.132812 976.03125 546.972656 L 991.382812 546.972656 L 991.382812 561.164062 C 990.429688 560.910156 989.433594 560.757812 988.402344 560.757812 C 982.03125 560.757812 976.867188 565.925781 976.867188 572.296875 C 976.867188 578.667969 982.03125 583.832031 988.402344 583.832031 C 994.773438 583.832031 999.9375 578.667969 999.9375 572.296875 C 999.9375 568.753906 998.335938 565.585938 995.824219 563.46875 C 995.761719 564.753906 995.535156 566.011719 995.132812 567.21875 C 996.203125 568.632812 996.84375 570.386719 996.84375 572.296875 C 996.84375 576.957031 993.0625 580.734375 988.402344 580.734375 C 983.742188 580.734375 979.960938 576.957031 979.960938 572.296875 C 979.960938 567.632812 983.742188 563.855469 988.402344 563.855469 C 989.40625 563.855469 990.363281 564.039062 991.253906 564.359375 C 991.027344 565.742188 990.496094 567.0625 989.683594 568.230469 L 989.15625 568.992188 C 988.914062 568.9375 988.660156 568.902344 988.402344 568.902344 C 986.53125 568.902344 985.007812 570.421875 985.007812 572.296875 C 985.007812 574.167969 986.53125 575.691406 988.402344 575.691406 C 990.273438 575.691406 991.796875 574.167969 991.796875 572.296875 C 991.796875 571.609375 991.589844 570.96875 991.234375 570.433594 L 991.761719 569.675781 C 993.171875 567.648438 993.914062 565.273438 993.914062 562.804688 Z M 993.914062 539.527344 " fill-opacity="1" fill-rule="nonzero"/><g clip-path="url(#24b720c0f9)"><path fill="#16c76d" d="M 920.054688 479.425781 C 918 474.636719 912.667969 472.09375 907.621094 473.523438 L 894.957031 477.292969 L 896.359375 481.996094 L 908.992188 478.234375 C 911.636719 477.484375 914.460938 478.828125 915.542969 481.359375 L 926.0625 505.902344 C 927.710938 505.527344 929.375 505.253906 931.050781 505.082031 Z M 920.054688 479.425781 " fill-opacity="1" fill-rule="nonzero"/></g><path fill="#16c76d" d="M 902.246094 526.527344 C 897.113281 535.316406 895.707031 545.578125 898.289062 555.421875 C 902.777344 572.515625 918.253906 583.859375 935.15625 583.859375 C 938.347656 583.859375 941.589844 583.457031 944.820312 582.609375 C 954.664062 580.027344 962.914062 573.761719 968.050781 564.976562 C 973.183594 556.1875 974.589844 545.925781 972.007812 536.078125 C 969.40625 526.160156 963.09375 518.1875 954.960938 513.234375 C 954.917969 513.511719 954.863281 513.792969 954.789062 514.070312 L 953.878906 517.539062 C 960.359375 521.835938 965.394531 528.363281 967.699219 536.363281 L 963.402344 537.492188 C 961.53125 531.09375 957.542969 525.597656 952.246094 521.804688 C 951.777344 522.496094 951.210938 523.101562 950.566406 523.621094 C 955.53125 527.085938 959.273438 532.175781 961.03125 538.113281 L 941.0625 543.355469 C 940.410156 541.734375 939.140625 540.503906 937.605469 539.863281 L 941.753906 524.695312 C 941.238281 524.457031 940.75 524.171875 940.292969 523.835938 L 936.03125 539.425781 C 935.21875 539.3125 934.371094 539.351562 933.527344 539.574219 C 932.683594 539.792969 931.925781 540.175781 931.273438 540.671875 L 916.765625 526.015625 C 921.589844 521.519531 928.050781 518.761719 935.148438 518.761719 C 935.792969 518.761719 936.429688 518.792969 937.0625 518.839844 C 936.886719 518.027344 936.832031 517.199219 936.902344 516.367188 C 936.324219 516.332031 935.738281 516.308594 935.148438 516.308594 C 927.378906 516.308594 920.308594 519.339844 915.042969 524.273438 L 911.894531 521.089844 C 915.972656 517.234375 920.96875 514.4375 926.546875 512.976562 C 929.421875 512.222656 932.300781 511.863281 935.140625 511.863281 C 935.933594 511.863281 936.722656 511.894531 937.503906 511.953125 L 935.683594 507.65625 C 932.316406 507.605469 928.890625 507.996094 925.476562 508.894531 C 915.632812 511.476562 907.382812 517.738281 902.246094 526.527344 Z M 905.890625 528.65625 C 907.265625 526.304688 908.894531 524.160156 910.734375 522.242188 L 913.878906 525.425781 C 908.824219 530.714844 905.707031 537.871094 905.707031 545.75 C 905.707031 548.046875 905.980469 550.28125 906.480469 552.429688 L 902.183594 553.554688 C 900.164062 545.042969 901.464844 536.234375 905.890625 528.65625 Z M 932.691406 551.640625 L 927.242188 571.554688 C 918.621094 568.90625 911.828125 562.046875 909.265625 553.386719 L 929.234375 548.148438 C 929.886719 549.765625 931.15625 550.996094 932.691406 551.640625 Z M 936.769531 551.929688 C 937.613281 551.707031 938.371094 551.328125 939.023438 550.828125 L 953.53125 565.488281 C 948.707031 569.980469 942.246094 572.738281 935.148438 572.738281 C 932.96875 572.738281 930.851562 572.472656 928.820312 571.984375 L 934.265625 552.078125 C 935.078125 552.191406 935.925781 552.152344 936.769531 551.929688 Z M 908.855469 551.804688 C 908.40625 549.859375 908.160156 547.832031 908.160156 545.75 C 908.160156 538.554688 910.996094 532.011719 915.605469 527.167969 L 930.117188 541.828125 C 929.09375 543.140625 928.59375 544.835938 928.820312 546.566406 Z M 902.597656 555.136719 L 906.894531 554.011719 C 909.675781 563.515625 917.132812 571.042969 926.59375 573.921875 L 925.421875 578.21875 C 922.878906 577.449219 920.40625 576.382812 918.054688 575.007812 C 910.476562 570.582031 905.019531 563.542969 902.597656 555.136719 Z M 943.746094 578.527344 C 938.167969 579.992188 932.441406 580.007812 926.996094 578.652344 L 928.171875 574.351562 C 930.410156 574.898438 932.746094 575.191406 935.148438 575.191406 C 942.917969 575.191406 949.988281 572.164062 955.253906 567.230469 L 958.402344 570.410156 C 954.324219 574.265625 949.328125 577.0625 943.746094 578.527344 Z M 968.113281 537.949219 C 970.132812 546.457031 968.835938 555.269531 964.40625 562.847656 C 963.03125 565.199219 961.402344 567.339844 959.5625 569.257812 L 956.417969 566.078125 C 961.472656 560.789062 964.589844 553.628906 964.589844 545.75 C 964.589844 543.453125 964.316406 541.222656 963.816406 539.074219 Z M 961.445312 539.695312 C 961.890625 541.644531 962.136719 543.667969 962.136719 545.75 C 962.136719 552.949219 959.300781 559.492188 954.691406 564.335938 L 940.179688 549.671875 C 941.203125 548.359375 941.703125 546.667969 941.476562 544.9375 Z M 934.128906 541.859375 C 936.277344 541.296875 938.472656 542.582031 939.039062 544.730469 C 939.601562 546.878906 938.316406 549.078125 936.167969 549.640625 C 934.019531 550.203125 931.824219 548.917969 931.257812 546.773438 C 930.695312 544.625 931.980469 542.425781 934.128906 541.859375 Z M 934.128906 541.859375 " fill-opacity="1" fill-rule="nonzero"/><path fill="#16c76d" d="M 979.863281 412.542969 C 980.460938 412.601562 981.058594 412.691406 981.648438 412.8125 C 982.238281 412.929688 982.824219 413.078125 983.398438 413.253906 C 983.976562 413.429688 984.542969 413.632812 985.097656 413.867188 C 985.65625 414.097656 986.199219 414.355469 986.730469 414.640625 C 987.257812 414.925781 987.773438 415.238281 988.273438 415.574219 C 988.777344 415.910156 989.257812 416.269531 989.722656 416.652344 C 990.1875 417.035156 990.632812 417.441406 991.058594 417.871094 C 991.484375 418.296875 991.886719 418.742188 992.269531 419.210938 C 992.648438 419.675781 993.007812 420.160156 993.339844 420.664062 C 993.671875 421.164062 993.980469 421.683594 994.265625 422.214844 C 994.546875 422.746094 994.804688 423.292969 995.03125 423.847656 C 995.261719 424.40625 995.464844 424.972656 995.636719 425.550781 C 995.8125 426.128906 995.957031 426.710938 996.070312 427.304688 C 996.1875 427.894531 996.273438 428.488281 996.332031 429.089844 C 996.390625 429.691406 996.417969 430.292969 996.417969 430.894531 C 996.414062 431.496094 996.382812 432.097656 996.324219 432.695312 C 996.261719 433.296875 996.171875 433.890625 996.054688 434.484375 C 995.9375 435.074219 995.789062 435.65625 995.613281 436.234375 C 995.433594 436.808594 995.230469 437.375 995 437.933594 C 994.765625 438.488281 994.507812 439.03125 994.222656 439.5625 C 993.9375 440.09375 993.628906 440.609375 993.292969 441.109375 C 992.957031 441.609375 992.59375 442.09375 992.210938 442.558594 C 991.828125 443.023438 991.421875 443.46875 990.996094 443.890625 C 990.570312 444.316406 990.121094 444.722656 989.65625 445.101562 C 989.1875 445.484375 988.703125 445.839844 988.203125 446.175781 C 987.699219 446.507812 987.183594 446.816406 986.652344 447.097656 C 986.117188 447.382812 985.574219 447.636719 985.015625 447.867188 C 984.460938 448.097656 983.890625 448.296875 983.316406 448.472656 C 982.738281 448.644531 982.152344 448.789062 981.5625 448.90625 C 980.972656 449.023438 980.375 449.109375 979.777344 449.167969 C 979.175781 449.222656 978.574219 449.253906 977.972656 449.25 C 977.367188 449.25 976.769531 449.21875 976.167969 449.15625 C 975.570312 449.097656 974.972656 449.007812 974.382812 448.890625 C 973.792969 448.769531 973.207031 448.621094 972.632812 448.445312 C 972.054688 448.269531 971.488281 448.066406 970.933594 447.832031 C 970.375 447.601562 969.832031 447.34375 969.300781 447.058594 C 968.773438 446.773438 968.257812 446.460938 967.757812 446.125 C 967.253906 445.789062 966.773438 445.429688 966.308594 445.046875 C 965.84375 444.664062 965.398438 444.257812 964.972656 443.832031 C 964.546875 443.402344 964.144531 442.957031 963.761719 442.488281 C 963.382812 442.023438 963.023438 441.539062 962.691406 441.035156 C 962.359375 440.535156 962.050781 440.015625 961.765625 439.484375 C 961.484375 438.953125 961.226562 438.410156 961 437.851562 C 960.769531 437.292969 960.566406 436.726562 960.394531 436.148438 C 960.21875 435.570312 960.074219 434.988281 959.960938 434.398438 C 959.84375 433.804688 959.757812 433.210938 959.699219 432.609375 C 959.640625 432.007812 959.613281 431.410156 959.613281 430.804688 C 959.617188 430.203125 959.648438 429.601562 959.707031 429.003906 C 959.769531 428.402344 959.859375 427.808594 959.976562 427.214844 C 960.09375 426.625 960.242188 426.042969 960.417969 425.464844 C 960.597656 424.890625 960.800781 424.324219 961.03125 423.765625 C 961.265625 423.210938 961.523438 422.667969 961.808594 422.136719 C 962.09375 421.605469 962.402344 421.089844 962.738281 420.589844 C 963.074219 420.089844 963.4375 419.605469 963.820312 419.140625 C 964.203125 418.675781 964.609375 418.230469 965.035156 417.808594 C 965.460938 417.382812 965.910156 416.980469 966.375 416.597656 C 966.84375 416.214844 967.328125 415.859375 967.828125 415.523438 C 968.332031 415.191406 968.847656 414.882812 969.378906 414.601562 C 969.914062 414.316406 970.457031 414.0625 971.015625 413.832031 C 971.570312 413.601562 972.140625 413.402344 972.714844 413.226562 C 973.292969 413.054688 973.878906 412.910156 974.46875 412.792969 C 975.058594 412.675781 975.65625 412.589844 976.253906 412.53125 C 976.855469 412.476562 977.457031 412.445312 978.058594 412.449219 C 978.664062 412.449219 979.261719 412.480469 979.863281 412.542969 Z M 979.863281 412.542969 " fill-opacity="1" fill-rule="nonzero"/><path fill="#16c76d" d="M 939.746094 512.421875 L 938.96875 515.390625 C 938.046875 518.886719 940.132812 522.464844 943.628906 523.382812 C 944.1875 523.53125 944.746094 523.601562 945.296875 523.601562 C 948.199219 523.601562 950.847656 521.65625 951.621094 518.722656 L 952.972656 513.589844 C 953.339844 512.1875 953.234375 510.703125 952.667969 509.371094 L 941.265625 482.488281 L 964.546875 471.570312 C 967.820312 470.035156 969.226562 466.140625 967.695312 462.867188 C 966.160156 459.597656 962.261719 458.1875 958.992188 459.722656 L 930 473.316406 C 926.816406 474.8125 925.382812 478.558594 926.757812 481.796875 Z M 939.746094 512.421875 " fill-opacity="1" fill-rule="nonzero"/><g clip-path="url(#3f1651f22f)"><path fill="#16c76d" d="M 564.949219 574.144531 C 564.949219 579.445312 569.25 583.742188 574.550781 583.742188 C 579.851562 583.742188 584.152344 579.445312 584.152344 574.144531 L 584.152344 527.136719 C 576.753906 527.042969 570.34375 526.316406 564.949219 525.316406 Z M 564.949219 574.144531 " fill-opacity="1" fill-rule="nonzero"/></g><g clip-path="url(#91ca9d4dcf)"><path fill="#16c76d" d="M 587.351562 574.144531 C 587.351562 579.445312 591.648438 583.742188 596.953125 583.742188 C 602.253906 583.742188 606.554688 579.445312 606.554688 574.144531 L 606.554688 525.316406 C 601.160156 526.316406 594.75 527.042969 587.351562 527.136719 Z M 587.351562 574.144531 " fill-opacity="1" fill-rule="nonzero"/></g><g clip-path="url(#0165c68868)"><path fill="#16c76d" d="M 522.089844 571.546875 L 522.089844 427.578125 C 522.660156 428.746094 523.230469 430.082031 523.796875 431.644531 C 526.503906 439.144531 528.78125 451.449219 528.773438 470.660156 C 528.773438 475.953125 528.601562 481.769531 528.230469 488.152344 C 527.984375 492.390625 531.21875 496.019531 535.453125 496.269531 C 535.605469 496.277344 535.753906 496.28125 535.90625 496.28125 C 539.945312 496.28125 543.332031 493.128906 543.566406 489.046875 C 543.804688 484.914062 543.957031 481.015625 544.042969 477.292969 C 548.324219 454.074219 555.003906 441.121094 560.65625 434.019531 L 544.148438 515.152344 C 544.148438 515.152344 544.359375 515.277344 544.761719 515.492188 C 547.761719 517.085938 561.792969 523.792969 585.75 523.792969 C 602.996094 523.792969 615.09375 520.320312 621.640625 517.777344 C 622.628906 518.347656 623.773438 518.679688 624.992188 518.679688 C 625.046875 518.679688 625.101562 518.679688 625.15625 518.679688 C 625.910156 518.660156 626.632812 518.515625 627.304688 518.265625 C 629.933594 517.304688 631.785156 514.753906 631.714844 511.800781 C 631.714844 511.78125 631.714844 511.757812 631.714844 511.726562 C 631.695312 492.910156 634.101562 479.359375 637.417969 471.234375 C 637.972656 469.855469 638.550781 468.652344 639.132812 467.59375 L 639.132812 502.535156 L 682.925781 502.535156 L 682.925781 467.597656 C 684.359375 470.21875 685.785156 473.789062 686.929688 478.339844 C 689.019531 486.464844 690.347656 497.605469 690.339844 511.722656 C 690.339844 511.746094 690.339844 511.878906 690.34375 512.117188 C 690.421875 515.496094 692.988281 518.234375 696.25 518.625 C 696.101562 521.289062 696.015625 524.101562 696.015625 527.128906 C 696.015625 528.453125 696.027344 529.828125 696.0625 531.25 C 696.132812 534.121094 698.480469 536.398438 701.339844 536.398438 C 701.382812 536.398438 701.429688 536.398438 701.472656 536.398438 C 704.386719 536.328125 706.695312 533.902344 706.621094 530.988281 C 706.589844 529.667969 706.574219 528.382812 706.574219 527.128906 C 706.570312 512.628906 708.511719 503.378906 710.679688 497.609375 L 710.679688 522.539062 L 744.285156 522.539062 L 744.285156 497.609375 C 746.449219 503.371094 748.386719 512.636719 748.386719 527.128906 C 748.386719 528.378906 748.371094 529.667969 748.34375 531.003906 C 748.277344 533.917969 750.589844 536.332031 753.503906 536.398438 C 753.542969 536.398438 753.582031 536.398438 753.621094 536.398438 C 756.488281 536.398438 758.835938 534.109375 758.902344 531.234375 C 758.933594 529.828125 758.945312 528.460938 758.945312 527.128906 C 758.941406 506.933594 755.453125 495.097656 751.4375 487.984375 C 747.453125 480.859375 742.765625 478.738281 741.675781 478.417969 C 741.441406 478.34375 741.207031 478.289062 740.972656 478.246094 C 740.5 478.089844 740.007812 477.988281 739.484375 477.988281 L 715.480469 477.988281 C 714.957031 477.988281 714.460938 478.089844 713.988281 478.246094 C 713.753906 478.289062 713.523438 478.34375 713.292969 478.421875 L 713.289062 478.421875 C 712.199219 478.734375 707.511719 480.855469 703.523438 487.980469 C 703.214844 488.535156 702.902344 489.128906 702.601562 489.738281 C 701.492188 480.300781 699.632812 472.492188 697.097656 466.191406 C 694.933594 460.863281 692.273438 456.542969 688.816406 453.300781 C 685.789062 450.429688 681.894531 448.5 677.792969 448.125 C 677.585938 448.101562 677.378906 448.089844 677.167969 448.089844 L 677.070312 448.089844 C 676.792969 448.074219 676.515625 448.046875 676.234375 448.046875 C 675.988281 448.046875 675.742188 448.0625 675.503906 448.089844 L 646.542969 448.089844 C 646.308594 448.0625 646.070312 448.050781 645.828125 448.050781 L 645.828125 448.046875 C 645.546875 448.046875 645.265625 448.074219 644.980469 448.089844 L 644.894531 448.089844 C 644.683594 448.089844 644.476562 448.101562 644.273438 448.125 C 640.167969 448.5 636.273438 450.429688 633.242188 453.300781 C 628.082031 458.183594 624.613281 465.394531 622.109375 475 C 621.550781 477.1875 621.050781 479.515625 620.605469 481.96875 L 618.378906 471.035156 C 616.753906 473.585938 614.917969 476.191406 612.875 478.855469 L 612.890625 478.867188 C 614.550781 480.324219 615.078125 482.671875 614.1875 484.699219 L 609.109375 496.289062 C 608.277344 498.183594 606.425781 499.3125 604.480469 499.3125 C 603.804688 499.3125 603.117188 499.175781 602.457031 498.886719 C 599.898438 497.765625 598.734375 494.789062 599.855469 492.234375 L 602.257812 486.757812 C 600.457031 486.679688 598.71875 486.015625 597.339844 484.851562 C 593.898438 481.945312 593.464844 476.785156 596.363281 473.347656 C 597.652344 471.824219 598.835938 470.355469 599.925781 468.9375 L 585.613281 468.9375 L 585.613281 460.394531 L 575.886719 469.34375 C 575.195312 469.980469 574.320312 470.292969 573.445312 470.292969 C 572.472656 470.292969 571.5 469.902344 570.792969 469.128906 C 569.441406 467.660156 569.535156 465.382812 571.003906 464.03125 L 585.992188 450.246094 C 586.175781 450.078125 586.371094 449.929688 586.578125 449.804688 C 587.152344 449.25 587.929688 448.90625 588.789062 448.90625 L 603.1875 448.90625 C 604.046875 448.90625 604.820312 449.25 605.394531 449.804688 C 605.601562 449.929688 605.800781 450.074219 605.984375 450.246094 L 609.375 453.363281 C 611.210938 448.925781 611.765625 445.492188 611.75 442.953125 C 611.738281 440.207031 611.15625 437.90625 609.910156 435.710938 C 609.402344 434.820312 608.78125 433.964844 608.054688 433.144531 L 609.445312 431.832031 C 610.246094 432.726562 610.972656 433.699219 611.582031 434.761719 C 612.832031 436.976562 613.65625 439.535156 613.671875 442.941406 C 613.691406 446.011719 612.925781 449.929688 610.851562 454.722656 L 620.476562 463.578125 C 624.402344 455.9375 626.128906 449.125 626.152344 442.945312 C 626.164062 437.195312 624.570312 432.175781 622.191406 428.1875 C 621.085938 426.332031 619.828125 424.71875 618.507812 423.273438 C 615.5625 420.046875 612.277344 417.765625 609.46875 416.179688 C 605.371094 413.886719 602.171875 412.984375 601.847656 412.886719 C 601.832031 412.882812 601.816406 412.878906 601.796875 412.875 C 601.789062 412.875 601.777344 412.871094 601.769531 412.867188 C 601.488281 412.8125 594 410.765625 585.753906 410.738281 C 578.578125 410.761719 571.984375 412.3125 570.199219 412.753906 C 568.117188 413.085938 560.328125 415.144531 552.230469 424.621094 C 548.753906 428.671875 545.230469 434.007812 541.964844 441.054688 C 540.007812 429.589844 536.875 421.683594 533.15625 416 C 530 411.210938 526.3125 408.140625 522.902344 406.441406 C 519.628906 404.789062 516.75 404.414062 515.019531 404.394531 C 514.902344 404.386719 514.789062 404.375 514.671875 404.375 L 477.578125 404.375 C 477.472656 404.375 477.367188 404.386719 477.261719 404.390625 C 475.535156 404.410156 472.636719 404.777344 469.339844 406.441406 C 464.175781 409 458.609375 414.605469 454.714844 424.527344 C 450.960938 434.019531 448.382812 447.554688 448.136719 467.617188 C 447.847656 467.246094 447.5625 466.886719 447.277344 466.539062 C 440.855469 458.710938 434.539062 456.917969 433.460938 456.714844 C 433.054688 456.625 432.652344 456.582031 432.25 456.574219 C 429.507812 455.871094 425.5625 455.304688 419.949219 455.304688 C 414.335938 455.304688 410.386719 455.875 407.648438 456.574219 C 407.246094 456.582031 406.84375 456.628906 406.4375 456.714844 C 405.363281 456.921875 399.046875 458.714844 392.625 466.539062 C 386.179688 474.351562 379.726562 487.851562 377.082031 511.058594 C 377.050781 511.328125 377.046875 511.597656 377.046875 511.859375 C 374.492188 507.957031 371.09375 505.730469 367.742188 505.230469 C 364.273438 507.632812 360.070312 509.046875 355.539062 509.046875 C 351.007812 509.046875 346.800781 507.632812 343.332031 505.230469 C 339.363281 505.820312 335.320312 508.832031 332.691406 514.191406 C 329.640625 520.285156 327.699219 529.492188 327.679688 544.015625 C 327.679688 546.480469 329.675781 548.476562 332.136719 548.476562 C 334.601562 548.476562 336.597656 546.480469 336.597656 544.015625 C 336.582031 531.75 338.167969 524.050781 340 519.648438 L 340 576.394531 C 340 580.316406 343.183594 583.496094 347.105469 583.496094 C 351.027344 583.496094 354.207031 580.316406 354.207031 576.394531 L 354.207031 549.007812 L 356.871094 549.007812 L 356.871094 576.394531 C 356.871094 580.316406 360.050781 583.496094 363.972656 583.496094 C 367.894531 583.496094 371.074219 580.316406 371.074219 576.394531 L 371.074219 519.648438 C 372.910156 524.054688 374.492188 531.753906 374.476562 544.015625 C 374.476562 546.476562 376.472656 548.476562 378.9375 548.476562 C 381.398438 548.476562 383.398438 546.476562 383.398438 544.015625 C 383.382812 531.378906 381.90625 522.769531 379.511719 516.734375 C 380.375 517.390625 381.417969 517.839844 382.574219 517.96875 C 382.816406 517.996094 383.054688 518.011719 383.289062 518.011719 C 386.421875 518.011719 389.121094 515.664062 389.484375 512.476562 C 391.246094 497.050781 394.714844 487.042969 398.199219 480.59375 C 395.390625 497.910156 392.019531 521.8125 392.019531 536.859375 C 392.019531 536.933594 392.035156 537.003906 392.042969 537.078125 C 392.589844 541.84375 410.488281 545.449219 419.949219 545.449219 C 429.414062 545.449219 447.3125 541.84375 447.855469 537.078125 C 447.863281 537.003906 447.882812 536.933594 447.882812 536.859375 C 447.882812 521.820312 444.511719 497.929688 441.703125 480.613281 C 445.183594 487.066406 448.652344 497.0625 450.410156 512.476562 C 450.773438 515.660156 453.472656 518.011719 456.605469 518.011719 C 456.84375 518.011719 457.078125 518 457.320312 517.972656 C 460.742188 517.582031 463.203125 514.488281 462.8125 511.0625 C 462.144531 505.199219 461.234375 499.960938 460.140625 495.269531 C 462.597656 493.867188 464.195312 491.164062 464.015625 488.148438 C 463.636719 481.765625 463.46875 475.949219 463.46875 470.65625 C 463.433594 447.40625 466.824219 434.34375 470.15625 427.527344 L 470.15625 571.546875 C 470.15625 578.101562 475.472656 583.414062 482.023438 583.414062 C 488.582031 583.414062 493.894531 578.101562 493.894531 571.546875 L 493.894531 484.878906 L 498.347656 484.878906 L 498.347656 571.546875 C 498.347656 578.101562 503.664062 583.414062 510.214844 583.414062 C 516.773438 583.417969 522.089844 578.101562 522.089844 571.546875 Z M 579.089844 478.871094 L 584.648438 474.011719 L 592.46875 480.589844 L 588.523438 484.039062 L 592.117188 492.238281 C 593.238281 494.792969 592.074219 497.773438 589.519531 498.890625 C 588.859375 499.179688 588.171875 499.316406 587.496094 499.316406 C 585.550781 499.316406 583.699219 498.1875 582.867188 496.292969 L 577.785156 484.703125 C 576.894531 482.679688 577.421875 480.328125 579.089844 478.871094 Z M 595.984375 446.578125 C 590.023438 446.578125 585.191406 441.746094 585.191406 435.785156 C 585.191406 429.820312 590.023438 424.988281 595.984375 424.988281 C 601.949219 424.988281 606.785156 429.820312 606.785156 435.785156 C 606.785156 441.746094 601.949219 446.578125 595.984375 446.578125 Z M 595.984375 446.578125 " fill-opacity="1" fill-rule="nonzero"/></g><g clip-path="url(#39f3d2f6ec)"><path fill="#16c76d" d="M 517.726562 377.304688 C 517.726562 378.011719 517.691406 378.71875 517.621094 379.421875 C 517.554688 380.125 517.449219 380.824219 517.3125 381.519531 C 517.171875 382.214844 517 382.898438 516.796875 383.574219 C 516.589844 384.253906 516.351562 384.917969 516.082031 385.570312 C 515.8125 386.226562 515.507812 386.863281 515.175781 387.488281 C 514.84375 388.113281 514.480469 388.71875 514.085938 389.304688 C 513.691406 389.894531 513.273438 390.460938 512.824219 391.007812 C 512.375 391.554688 511.898438 392.078125 511.398438 392.578125 C 510.898438 393.078125 510.375 393.554688 509.828125 394.003906 C 509.28125 394.453125 508.714844 394.875 508.125 395.265625 C 507.539062 395.660156 506.929688 396.023438 506.308594 396.355469 C 505.683594 396.691406 505.042969 396.992188 504.390625 397.261719 C 503.738281 397.53125 503.070312 397.769531 502.394531 397.976562 C 501.71875 398.183594 501.03125 398.355469 500.339844 398.492188 C 499.644531 398.628906 498.945312 398.734375 498.242188 398.800781 C 497.539062 398.871094 496.832031 398.90625 496.125 398.90625 C 495.417969 398.90625 494.710938 398.871094 494.007812 398.800781 C 493.304688 398.734375 492.605469 398.628906 491.910156 398.492188 C 491.214844 398.355469 490.53125 398.183594 489.855469 397.976562 C 489.175781 397.769531 488.511719 397.53125 487.859375 397.261719 C 487.203125 396.992188 486.566406 396.691406 485.941406 396.355469 C 485.316406 396.023438 484.710938 395.660156 484.125 395.265625 C 483.535156 394.875 482.96875 394.453125 482.421875 394.003906 C 481.875 393.554688 481.351562 393.078125 480.851562 392.578125 C 480.351562 392.078125 479.875 391.554688 479.425781 391.007812 C 478.976562 390.460938 478.558594 389.894531 478.164062 389.304688 C 477.769531 388.71875 477.40625 388.113281 477.074219 387.488281 C 476.742188 386.863281 476.4375 386.226562 476.167969 385.570312 C 475.898438 384.917969 475.660156 384.253906 475.453125 383.574219 C 475.246094 382.898438 475.078125 382.214844 474.9375 381.519531 C 474.800781 380.824219 474.695312 380.125 474.628906 379.421875 C 474.558594 378.71875 474.523438 378.011719 474.523438 377.304688 C 474.523438 376.597656 474.558594 375.890625 474.628906 375.1875 C 474.695312 374.484375 474.800781 373.785156 474.9375 373.089844 C 475.078125 372.398438 475.246094 371.710938 475.453125 371.035156 C 475.660156 370.359375 475.898438 369.691406 476.167969 369.039062 C 476.4375 368.386719 476.742188 367.746094 477.074219 367.121094 C 477.40625 366.5 477.769531 365.890625 478.164062 365.304688 C 478.558594 364.714844 478.976562 364.148438 479.425781 363.601562 C 479.875 363.054688 480.351562 362.53125 480.851562 362.03125 C 481.351562 361.53125 481.875 361.054688 482.421875 360.605469 C 482.96875 360.15625 483.535156 359.738281 484.125 359.34375 C 484.710938 358.949219 485.316406 358.585938 485.941406 358.253906 C 486.566406 357.921875 487.203125 357.617188 487.859375 357.347656 C 488.511719 357.078125 489.175781 356.839844 489.855469 356.632812 C 490.53125 356.429688 491.214844 356.257812 491.910156 356.117188 C 492.605469 355.980469 493.304688 355.875 494.007812 355.808594 C 494.710938 355.738281 495.417969 355.703125 496.125 355.703125 C 496.832031 355.703125 497.539062 355.738281 498.242188 355.808594 C 498.945312 355.875 499.644531 355.980469 500.339844 356.117188 C 501.03125 356.257812 501.71875 356.429688 502.394531 356.632812 C 503.070312 356.839844 503.738281 357.078125 504.390625 357.347656 C 505.042969 357.617188 505.683594 357.921875 506.308594 358.253906 C 506.929688 358.585938 507.539062 358.949219 508.125 359.34375 C 508.714844 359.738281 509.28125 360.15625 509.828125 360.605469 C 510.375 361.054688 510.898438 361.53125 511.398438 362.03125 C 511.898438 362.53125 512.375 363.054688 512.824219 363.601562 C 513.273438 364.148438 513.691406 364.714844 514.085938 365.304688 C 514.480469 365.890625 514.84375 366.5 515.175781 367.121094 C 515.507812 367.746094 515.8125 368.386719 516.082031 369.039062 C 516.351562 369.691406 516.589844 370.359375 516.796875 371.035156 C 517 371.710938 517.171875 372.398438 517.3125 373.089844 C 517.449219 373.785156 517.554688 374.484375 517.621094 375.1875 C 517.691406 375.890625 517.726562 376.597656 517.726562 377.304688 Z M 517.726562 377.304688 " fill-opacity="1" fill-rule="nonzero"/></g><path fill="#16c76d" d="M 590.445312 365.699219 C 591.105469 365.851562 591.753906 366.035156 592.394531 366.253906 C 593.03125 366.46875 593.660156 366.71875 594.277344 366.996094 C 594.890625 367.277344 595.492188 367.585938 596.078125 367.921875 C 596.664062 368.261719 597.230469 368.625 597.78125 369.019531 C 598.332031 369.414062 598.859375 369.832031 599.367188 370.277344 C 599.875 370.722656 600.359375 371.191406 600.824219 371.6875 C 601.285156 372.179688 601.722656 372.695312 602.132812 373.230469 C 602.546875 373.765625 602.929688 374.320312 603.285156 374.894531 C 603.644531 375.46875 603.972656 376.058594 604.269531 376.664062 C 604.570312 377.269531 604.839844 377.890625 605.078125 378.523438 C 605.316406 379.15625 605.523438 379.796875 605.695312 380.449219 C 605.871094 381.101562 606.015625 381.761719 606.125 382.429688 C 606.234375 383.097656 606.3125 383.769531 606.355469 384.441406 C 606.402344 385.117188 606.414062 385.792969 606.390625 386.46875 C 606.367188 387.144531 606.3125 387.816406 606.226562 388.484375 C 606.136719 389.15625 606.015625 389.820312 605.863281 390.476562 C 605.710938 391.136719 605.523438 391.785156 605.308594 392.425781 C 605.089844 393.066406 604.84375 393.695312 604.5625 394.308594 C 604.285156 394.925781 603.976562 395.527344 603.640625 396.113281 C 603.300781 396.695312 602.9375 397.265625 602.542969 397.8125 C 602.148438 398.363281 601.730469 398.890625 601.285156 399.402344 C 600.839844 399.910156 600.371094 400.394531 599.875 400.855469 C 599.382812 401.320312 598.867188 401.753906 598.332031 402.167969 C 597.796875 402.578125 597.242188 402.964844 596.667969 403.320312 C 596.09375 403.675781 595.503906 404.003906 594.898438 404.304688 C 594.292969 404.605469 593.671875 404.871094 593.039062 405.109375 C 592.40625 405.347656 591.765625 405.554688 591.113281 405.730469 C 590.457031 405.90625 589.796875 406.046875 589.132812 406.160156 C 588.464844 406.269531 587.792969 406.347656 587.121094 406.390625 C 586.445312 406.433594 585.769531 406.445312 585.09375 406.425781 C 584.417969 406.402344 583.746094 406.347656 583.078125 406.257812 C 582.40625 406.171875 581.742188 406.050781 581.085938 405.898438 C 580.425781 405.746094 579.777344 405.558594 579.136719 405.34375 C 578.496094 405.125 577.867188 404.878906 577.253906 404.597656 C 576.636719 404.320312 576.035156 404.011719 575.453125 403.671875 C 574.867188 403.335938 574.296875 402.96875 573.75 402.578125 C 573.199219 402.183594 572.671875 401.761719 572.164062 401.316406 C 571.652344 400.871094 571.167969 400.402344 570.707031 399.910156 C 570.246094 399.417969 569.808594 398.902344 569.394531 398.367188 C 568.984375 397.828125 568.601562 397.273438 568.242188 396.699219 C 567.886719 396.128906 567.558594 395.539062 567.257812 394.929688 C 566.960938 394.324219 566.691406 393.707031 566.453125 393.074219 C 566.214844 392.441406 566.007812 391.796875 565.832031 391.144531 C 565.65625 390.492188 565.515625 389.832031 565.40625 389.164062 C 565.292969 388.5 565.21875 387.828125 565.171875 387.152344 C 565.128906 386.480469 565.117188 385.804688 565.140625 385.128906 C 565.160156 384.453125 565.214844 383.78125 565.304688 383.109375 C 565.390625 382.441406 565.511719 381.777344 565.664062 381.117188 C 565.820312 380.460938 566.003906 379.808594 566.222656 379.167969 C 566.4375 378.53125 566.6875 377.902344 566.964844 377.285156 C 567.242188 376.671875 567.550781 376.070312 567.890625 375.484375 C 568.226562 374.898438 568.59375 374.332031 568.988281 373.78125 C 569.378906 373.230469 569.800781 372.703125 570.246094 372.195312 C 570.691406 371.6875 571.160156 371.203125 571.652344 370.738281 C 572.148438 370.277344 572.660156 369.839844 573.199219 369.429688 C 573.734375 369.015625 574.289062 368.632812 574.863281 368.277344 C 575.4375 367.917969 576.027344 367.589844 576.632812 367.292969 C 577.238281 366.992188 577.859375 366.722656 578.492188 366.484375 C 579.121094 366.246094 579.765625 366.039062 580.417969 365.863281 C 581.070312 365.691406 581.730469 365.546875 582.398438 365.4375 C 583.066406 365.328125 583.734375 365.25 584.410156 365.203125 C 585.085938 365.160156 585.757812 365.148438 586.433594 365.171875 C 587.109375 365.191406 587.78125 365.246094 588.453125 365.335938 C 589.125 365.425781 589.789062 365.542969 590.445312 365.699219 Z M 590.445312 365.699219 " fill-opacity="1" fill-rule="nonzero"/><path fill="#16c76d" d="M 616.085938 469.347656 L 607.417969 461.371094 C 605.070312 465.320312 601.953125 469.710938 597.828125 474.589844 C 595.605469 477.222656 595.941406 481.160156 598.574219 483.386719 C 599.746094 484.371094 601.171875 484.855469 602.59375 484.855469 C 604.371094 484.855469 606.132812 484.101562 607.371094 482.640625 C 611.160156 478.144531 614.28125 473.898438 616.84375 469.863281 C 616.574219 469.722656 616.316406 469.558594 616.085938 469.347656 Z M 616.085938 469.347656 " fill-opacity="1" fill-rule="nonzero"/><g clip-path="url(#159e678adf)"><path fill="#16c76d" d="M 401.632812 575.363281 C 401.632812 579.675781 405.128906 583.171875 409.441406 583.171875 C 413.753906 583.171875 417.25 579.675781 417.25 575.363281 L 417.25 547.925781 C 412.5 547.652344 406.558594 546.71875 401.632812 545.335938 Z M 401.632812 575.363281 " fill-opacity="1" fill-rule="nonzero"/></g><g clip-path="url(#8c56af1e1b)"><path fill="#16c76d" d="M 422.65625 575.363281 C 422.65625 579.675781 426.152344 583.171875 430.464844 583.171875 C 434.773438 583.171875 438.273438 579.675781 438.273438 575.363281 L 438.273438 545.335938 C 433.34375 546.71875 427.402344 547.652344 422.65625 547.925781 Z M 422.65625 575.363281 " fill-opacity="1" fill-rule="nonzero"/></g><path fill="#16c76d" d="M 639.132812 507.335938 L 639.132812 572.78125 C 639.132812 578.28125 643.59375 582.742188 649.09375 582.742188 C 654.59375 582.742188 659.054688 578.28125 659.054688 572.78125 L 659.054688 525.339844 L 663.003906 525.339844 L 663.003906 572.78125 C 663.003906 578.28125 667.464844 582.742188 672.964844 582.742188 C 678.464844 582.742188 682.925781 578.28125 682.925781 572.78125 L 682.925781 507.335938 Z M 639.132812 507.335938 " fill-opacity="1" fill-rule="nonzero"/><path fill="#16c76d" d="M 681.105469 423.089844 C 681.105469 423.75 681.074219 424.402344 681.007812 425.058594 C 680.945312 425.714844 680.847656 426.363281 680.71875 427.007812 C 680.59375 427.652344 680.433594 428.289062 680.242188 428.917969 C 680.050781 429.546875 679.828125 430.167969 679.578125 430.773438 C 679.324219 431.382812 679.046875 431.976562 678.734375 432.554688 C 678.425781 433.132812 678.085938 433.699219 677.722656 434.246094 C 677.355469 434.792969 676.964844 435.320312 676.546875 435.828125 C 676.132812 436.335938 675.691406 436.820312 675.226562 437.285156 C 674.761719 437.75 674.273438 438.191406 673.765625 438.609375 C 673.257812 439.027344 672.730469 439.417969 672.183594 439.785156 C 671.636719 440.148438 671.074219 440.484375 670.492188 440.796875 C 669.914062 441.105469 669.320312 441.386719 668.710938 441.636719 C 668.105469 441.890625 667.488281 442.113281 666.859375 442.300781 C 666.226562 442.492188 665.589844 442.652344 664.945312 442.78125 C 664.300781 442.910156 663.652344 443.003906 662.996094 443.070312 C 662.34375 443.132812 661.6875 443.167969 661.03125 443.167969 C 660.371094 443.167969 659.714844 443.132812 659.0625 443.070312 C 658.40625 443.003906 657.757812 442.910156 657.113281 442.78125 C 656.46875 442.652344 655.832031 442.492188 655.203125 442.300781 C 654.574219 442.113281 653.953125 441.890625 653.347656 441.636719 C 652.738281 441.386719 652.144531 441.105469 651.566406 440.796875 C 650.984375 440.484375 650.421875 440.148438 649.875 439.785156 C 649.328125 439.417969 648.800781 439.027344 648.292969 438.609375 C 647.785156 438.191406 647.300781 437.75 646.832031 437.285156 C 646.367188 436.820312 645.929688 436.335938 645.511719 435.828125 C 645.09375 435.320312 644.703125 434.792969 644.335938 434.246094 C 643.972656 433.699219 643.632812 433.132812 643.324219 432.554688 C 643.015625 431.976562 642.734375 431.382812 642.480469 430.773438 C 642.230469 430.167969 642.007812 429.546875 641.816406 428.917969 C 641.628906 428.289062 641.46875 427.652344 641.339844 427.007812 C 641.210938 426.363281 641.113281 425.714844 641.050781 425.058594 C 640.984375 424.402344 640.953125 423.75 640.953125 423.089844 C 640.953125 422.433594 640.984375 421.777344 641.050781 421.121094 C 641.113281 420.46875 641.210938 419.820312 641.339844 419.175781 C 641.46875 418.527344 641.628906 417.890625 641.816406 417.261719 C 642.007812 416.632812 642.230469 416.015625 642.480469 415.40625 C 642.734375 414.800781 643.015625 414.207031 643.324219 413.628906 C 643.632812 413.046875 643.972656 412.484375 644.335938 411.9375 C 644.703125 411.390625 645.09375 410.863281 645.511719 410.355469 C 645.929688 409.847656 646.367188 409.359375 646.832031 408.894531 C 647.300781 408.429688 647.785156 407.988281 648.292969 407.570312 C 648.800781 407.15625 649.328125 406.761719 649.875 406.398438 C 650.421875 406.03125 650.984375 405.695312 651.566406 405.386719 C 652.144531 405.074219 652.738281 404.792969 653.347656 404.542969 C 653.953125 404.292969 654.574219 404.070312 655.203125 403.878906 C 655.832031 403.6875 656.46875 403.527344 657.113281 403.402344 C 657.757812 403.273438 658.40625 403.175781 659.0625 403.113281 C 659.714844 403.046875 660.371094 403.015625 661.03125 403.015625 C 661.6875 403.015625 662.34375 403.046875 662.996094 403.113281 C 663.652344 403.175781 664.300781 403.273438 664.945312 403.402344 C 665.589844 403.527344 666.226562 403.6875 666.859375 403.878906 C 667.488281 404.070312 668.105469 404.292969 668.710938 404.542969 C 669.320312 404.792969 669.914062 405.074219 670.492188 405.386719 C 671.074219 405.695312 671.636719 406.03125 672.183594 406.398438 C 672.730469 406.761719 673.257812 407.15625 673.765625 407.570312 C 674.273438 407.988281 674.761719 408.429688 675.226562 408.894531 C 675.691406 409.359375 676.132812 409.847656 676.546875 410.355469 C 676.964844 410.863281 677.355469 411.390625 677.722656 411.9375 C 678.085938 412.484375 678.425781 413.046875 678.734375 413.628906 C 679.046875 414.207031 679.324219 414.800781 679.578125 415.40625 C 679.828125 416.015625 680.050781 416.632812 680.242188 417.261719 C 680.433594 417.890625 680.59375 418.527344 680.71875 419.175781 C 680.847656 419.820312 680.945312 420.46875 681.007812 421.121094 C 681.074219 421.777344 681.105469 422.433594 681.105469 423.089844 Z M 681.105469 423.089844 " fill-opacity="1" fill-rule="nonzero"/><path fill="#16c76d" d="M 439.171875 432.796875 C 439.171875 433.425781 439.140625 434.050781 439.082031 434.679688 C 439.019531 435.304688 438.925781 435.925781 438.804688 436.546875 C 438.679688 437.164062 438.527344 437.773438 438.34375 438.375 C 438.164062 438.976562 437.949219 439.570312 437.710938 440.152344 C 437.46875 440.734375 437.199219 441.300781 436.902344 441.855469 C 436.605469 442.410156 436.285156 442.949219 435.933594 443.472656 C 435.585938 443.996094 435.210938 444.503906 434.808594 444.988281 C 434.410156 445.476562 433.988281 445.941406 433.542969 446.386719 C 433.097656 446.832031 432.632812 447.253906 432.144531 447.652344 C 431.660156 448.054688 431.152344 448.425781 430.628906 448.777344 C 430.105469 449.128906 429.566406 449.449219 429.011719 449.746094 C 428.457031 450.042969 427.890625 450.3125 427.308594 450.554688 C 426.726562 450.792969 426.132812 451.007812 425.53125 451.1875 C 424.929688 451.371094 424.320312 451.523438 423.703125 451.648438 C 423.085938 451.769531 422.460938 451.863281 421.835938 451.925781 C 421.210938 451.984375 420.582031 452.015625 419.953125 452.015625 C 419.324219 452.015625 418.695312 451.984375 418.066406 451.925781 C 417.441406 451.863281 416.820312 451.769531 416.203125 451.648438 C 415.585938 451.523438 414.972656 451.371094 414.371094 451.1875 C 413.769531 451.007812 413.175781 450.792969 412.597656 450.554688 C 412.015625 450.3125 411.445312 450.042969 410.890625 449.746094 C 410.335938 449.449219 409.796875 449.128906 409.273438 448.777344 C 408.75 448.425781 408.246094 448.054688 407.757812 447.652344 C 407.269531 447.253906 406.804688 446.832031 406.359375 446.386719 C 405.914062 445.941406 405.492188 445.476562 405.09375 444.988281 C 404.695312 444.503906 404.320312 443.996094 403.96875 443.472656 C 403.621094 442.949219 403.296875 442.410156 403 441.855469 C 402.703125 441.300781 402.433594 440.734375 402.195312 440.152344 C 401.953125 439.570312 401.742188 438.976562 401.558594 438.375 C 401.375 437.773438 401.222656 437.164062 401.101562 436.546875 C 400.976562 435.925781 400.882812 435.304688 400.824219 434.679688 C 400.761719 434.050781 400.730469 433.425781 400.730469 432.796875 C 400.730469 432.164062 400.761719 431.539062 400.824219 430.910156 C 400.882812 430.285156 400.976562 429.664062 401.101562 429.046875 C 401.222656 428.429688 401.375 427.816406 401.558594 427.214844 C 401.742188 426.613281 401.953125 426.019531 402.195312 425.4375 C 402.433594 424.859375 402.703125 424.289062 403 423.734375 C 403.296875 423.179688 403.621094 422.640625 403.96875 422.117188 C 404.320312 421.59375 404.695312 421.085938 405.09375 420.601562 C 405.492188 420.113281 405.914062 419.648438 406.359375 419.203125 C 406.804688 418.757812 407.269531 418.335938 407.757812 417.9375 C 408.246094 417.539062 408.75 417.164062 409.273438 416.8125 C 409.796875 416.464844 410.335938 416.140625 410.890625 415.84375 C 411.445312 415.546875 412.015625 415.277344 412.597656 415.035156 C 413.175781 414.796875 413.769531 414.585938 414.371094 414.402344 C 414.972656 414.21875 415.585938 414.066406 416.203125 413.941406 C 416.820312 413.820312 417.441406 413.726562 418.066406 413.667969 C 418.695312 413.605469 419.324219 413.574219 419.953125 413.574219 C 420.582031 413.574219 421.210938 413.605469 421.835938 413.667969 C 422.460938 413.726562 423.085938 413.820312 423.703125 413.941406 C 424.320312 414.066406 424.929688 414.21875 425.53125 414.402344 C 426.132812 414.585938 426.726562 414.796875 427.308594 415.035156 C 427.890625 415.277344 428.457031 415.546875 429.011719 415.84375 C 429.566406 416.140625 430.105469 416.464844 430.628906 416.8125 C 431.152344 417.164062 431.660156 417.539062 432.144531 417.9375 C 432.632812 418.335938 433.097656 418.757812 433.542969 419.203125 C 433.988281 419.648438 434.410156 420.113281 434.808594 420.601562 C 435.210938 421.085938 435.585938 421.59375 435.933594 422.117188 C 436.285156 422.640625 436.605469 423.179688 436.902344 423.734375 C 437.199219 424.289062 437.46875 424.859375 437.710938 425.4375 C 437.949219 426.019531 438.164062 426.613281 438.34375 427.214844 C 438.527344 427.816406 438.679688 428.429688 438.804688 429.046875 C 438.925781 429.664062 439.019531 430.285156 439.082031 430.910156 C 439.140625 431.539062 439.171875 432.164062 439.171875 432.796875 Z M 439.171875 432.796875 " fill-opacity="1" fill-rule="nonzero"/><path fill="#16c76d" d="M 710.679688 574.957031 C 710.679688 579.195312 714.121094 582.636719 718.359375 582.636719 C 722.601562 582.636719 726.042969 579.195312 726.042969 574.957031 L 726.042969 542.480469 L 728.921875 542.480469 L 728.921875 574.957031 C 728.921875 579.195312 732.363281 582.636719 736.605469 582.636719 C 740.847656 582.636719 744.285156 579.195312 744.285156 574.957031 L 744.285156 524.820312 L 710.679688 524.820312 Z M 710.679688 574.957031 " fill-opacity="1" fill-rule="nonzero"/><path fill="#16c76d" d="M 371.078125 487.566406 C 371.078125 488.585938 370.976562 489.597656 370.777344 490.597656 C 370.578125 491.597656 370.285156 492.570312 369.894531 493.511719 C 369.503906 494.453125 369.027344 495.351562 368.457031 496.199219 C 367.890625 497.046875 367.246094 497.832031 366.527344 498.550781 C 365.804688 499.273438 365.019531 499.917969 364.171875 500.484375 C 363.324219 501.050781 362.429688 501.53125 361.484375 501.921875 C 360.542969 502.3125 359.570312 502.605469 358.570312 502.804688 C 357.570312 503.003906 356.558594 503.105469 355.539062 503.105469 C 354.519531 503.105469 353.507812 503.003906 352.507812 502.804688 C 351.507812 502.605469 350.535156 502.3125 349.59375 501.921875 C 348.648438 501.53125 347.753906 501.050781 346.90625 500.484375 C 346.058594 499.917969 345.273438 499.273438 344.550781 498.550781 C 343.828125 497.832031 343.1875 497.046875 342.617188 496.199219 C 342.050781 495.351562 341.574219 494.453125 341.183594 493.511719 C 340.792969 492.570312 340.496094 491.597656 340.296875 490.597656 C 340.101562 489.597656 340 488.585938 340 487.566406 C 340 486.542969 340.101562 485.535156 340.296875 484.535156 C 340.496094 483.53125 340.792969 482.5625 341.183594 481.617188 C 341.574219 480.675781 342.050781 479.78125 342.617188 478.933594 C 343.1875 478.082031 343.828125 477.300781 344.550781 476.578125 C 345.273438 475.855469 346.058594 475.210938 346.90625 474.644531 C 347.753906 474.078125 348.648438 473.601562 349.59375 473.210938 C 350.535156 472.820312 351.507812 472.523438 352.507812 472.324219 C 353.507812 472.125 354.519531 472.027344 355.539062 472.027344 C 356.558594 472.027344 357.570312 472.125 358.570312 472.324219 C 359.570312 472.523438 360.542969 472.820312 361.484375 473.210938 C 362.429688 473.601562 363.324219 474.078125 364.171875 474.644531 C 365.019531 475.210938 365.804688 475.855469 366.527344 476.578125 C 367.246094 477.300781 367.890625 478.082031 368.457031 478.933594 C 369.027344 479.78125 369.503906 480.675781 369.894531 481.617188 C 370.285156 482.5625 370.578125 483.53125 370.777344 484.535156 C 370.976562 485.535156 371.078125 486.542969 371.078125 487.566406 Z M 371.078125 487.566406 " fill-opacity="1" fill-rule="nonzero"/><path fill="#16c76d" d="M 744.285156 458.308594 C 744.285156 458.855469 744.257812 459.40625 744.203125 459.953125 C 744.148438 460.5 744.070312 461.046875 743.960938 461.585938 C 743.855469 462.125 743.71875 462.65625 743.5625 463.183594 C 743.402344 463.710938 743.214844 464.226562 743.003906 464.738281 C 742.792969 465.246094 742.558594 465.742188 742.300781 466.226562 C 742.039062 466.710938 741.757812 467.183594 741.453125 467.640625 C 741.148438 468.097656 740.820312 468.539062 740.46875 468.964844 C 740.121094 469.390625 739.753906 469.796875 739.363281 470.1875 C 738.972656 470.578125 738.566406 470.945312 738.140625 471.292969 C 737.714844 471.644531 737.273438 471.972656 736.816406 472.277344 C 736.359375 472.582031 735.886719 472.863281 735.402344 473.125 C 734.917969 473.382812 734.421875 473.617188 733.914062 473.828125 C 733.402344 474.039062 732.886719 474.226562 732.359375 474.386719 C 731.832031 474.542969 731.300781 474.679688 730.761719 474.785156 C 730.222656 474.894531 729.675781 474.972656 729.128906 475.027344 C 728.582031 475.082031 728.03125 475.109375 727.484375 475.109375 C 726.933594 475.109375 726.382812 475.082031 725.835938 475.027344 C 725.289062 474.972656 724.746094 474.894531 724.207031 474.785156 C 723.664062 474.679688 723.132812 474.542969 722.605469 474.386719 C 722.078125 474.226562 721.5625 474.039062 721.054688 473.828125 C 720.546875 473.617188 720.046875 473.382812 719.5625 473.125 C 719.078125 472.863281 718.605469 472.582031 718.148438 472.277344 C 717.691406 471.972656 717.25 471.644531 716.824219 471.292969 C 716.398438 470.945312 715.992188 470.578125 715.601562 470.1875 C 715.214844 469.796875 714.84375 469.390625 714.496094 468.964844 C 714.144531 468.539062 713.820312 468.097656 713.511719 467.640625 C 713.207031 467.183594 712.925781 466.710938 712.664062 466.226562 C 712.40625 465.742188 712.171875 465.246094 711.960938 464.738281 C 711.75 464.226562 711.566406 463.710938 711.40625 463.183594 C 711.246094 462.65625 711.113281 462.125 711.003906 461.585938 C 710.898438 461.046875 710.816406 460.5 710.761719 459.953125 C 710.707031 459.40625 710.683594 458.855469 710.683594 458.308594 C 710.683594 457.757812 710.707031 457.207031 710.761719 456.660156 C 710.816406 456.113281 710.898438 455.570312 711.003906 455.027344 C 711.113281 454.488281 711.246094 453.957031 711.40625 453.429688 C 711.566406 452.902344 711.75 452.386719 711.960938 451.878906 C 712.171875 451.367188 712.40625 450.871094 712.664062 450.386719 C 712.925781 449.902344 713.207031 449.429688 713.511719 448.972656 C 713.820312 448.515625 714.144531 448.074219 714.496094 447.648438 C 714.84375 447.222656 715.214844 446.816406 715.601562 446.425781 C 715.992188 446.039062 716.398438 445.667969 716.824219 445.320312 C 717.25 444.96875 717.691406 444.644531 718.148438 444.335938 C 718.605469 444.03125 719.078125 443.75 719.5625 443.488281 C 720.046875 443.230469 720.546875 442.996094 721.054688 442.785156 C 721.5625 442.574219 722.078125 442.390625 722.605469 442.230469 C 723.132812 442.070312 723.664062 441.9375 724.207031 441.828125 C 724.746094 441.722656 725.289062 441.640625 725.835938 441.585938 C 726.382812 441.53125 726.933594 441.503906 727.484375 441.503906 C 728.03125 441.503906 728.582031 441.53125 729.128906 441.585938 C 729.675781 441.640625 730.222656 441.722656 730.761719 441.828125 C 731.300781 441.9375 731.832031 442.070312 732.359375 442.230469 C 732.886719 442.390625 733.402344 442.574219 733.914062 442.785156 C 734.421875 442.996094 734.917969 443.230469 735.402344 443.488281 C 735.886719 443.75 736.359375 444.03125 736.816406 444.335938 C 737.273438 444.644531 737.714844 444.96875 738.140625 445.320312 C 738.566406 445.667969 738.972656 446.039062 739.363281 446.425781 C 739.753906 446.816406 740.121094 447.222656 740.46875 447.648438 C 740.820312 448.074219 741.148438 448.515625 741.453125 448.972656 C 741.757812 449.429688 742.039062 449.902344 742.300781 450.386719 C 742.558594 450.871094 742.792969 451.367188 743.003906 451.878906 C 743.214844 452.386719 743.402344 452.902344 743.5625 453.429688 C 743.71875 453.957031 743.855469 454.488281 743.960938 455.027344 C 744.070312 455.570312 744.148438 456.113281 744.203125 456.660156 C 744.257812 457.207031 744.285156 457.757812 744.285156 458.308594 Z M 744.285156 458.308594 " fill-opacity="1" fill-rule="nonzero"/><path fill="#16c76d" d="M 819.644531 519.109375 C 818.601562 497.976562 820.945312 481.796875 826.449219 471.636719 L 826.449219 443.535156 C 828.539062 447.882812 830.503906 454.644531 831.570312 464.792969 C 834.726562 461.789062 838.472656 459.992188 842.476562 459.617188 C 842.710938 459.589844 843.007812 459.570312 843.308594 459.570312 L 843.46875 459.558594 C 843.675781 459.546875 843.878906 459.53125 844.089844 459.53125 C 844.308594 459.53125 844.523438 459.546875 844.738281 459.566406 C 844.601562 458.550781 844.457031 457.558594 844.300781 456.585938 C 840.183594 452.902344 837.589844 447.554688 837.589844 441.613281 C 837.589844 439.871094 837.8125 438.183594 838.226562 436.570312 C 836.488281 433.234375 834.464844 430.46875 832.148438 428.292969 C 827.34375 423.777344 822.648438 423.007812 820.246094 422.953125 C 820.109375 422.945312 819.976562 422.933594 819.839844 422.933594 L 786.808594 422.933594 C 786.667969 422.933594 786.527344 422.945312 786.390625 422.953125 C 783.980469 423.011719 779.296875 423.789062 774.503906 428.292969 C 763.476562 438.652344 758.960938 462.21875 761.074219 498.339844 C 761.285156 501.976562 764.300781 504.78125 767.894531 504.78125 C 768.03125 504.78125 768.164062 504.777344 768.300781 504.769531 C 772.074219 504.550781 774.953125 501.3125 774.730469 497.542969 C 772.972656 467.496094 776.378906 451.480469 780.199219 443.53125 L 780.199219 571.8125 C 780.199219 577.652344 784.933594 582.382812 790.769531 582.382812 C 796.609375 582.382812 801.34375 577.652344 801.34375 571.8125 L 801.34375 494.625 L 805.304688 494.625 L 805.304688 571.8125 C 805.304688 577.652344 810.039062 582.382812 815.875 582.382812 C 821.714844 582.382812 826.449219 577.652344 826.449219 571.8125 L 826.449219 526.71875 C 822.726562 526.117188 819.835938 522.996094 819.644531 519.109375 Z M 819.644531 519.109375 " fill-opacity="1" fill-rule="nonzero"/><g clip-path="url(#193b8d6b17)"><path fill="#16c76d" d="M 822.5625 398.824219 C 822.5625 399.453125 822.53125 400.082031 822.46875 400.707031 C 822.410156 401.335938 822.316406 401.957031 822.191406 402.574219 C 822.070312 403.195312 821.917969 403.804688 821.734375 404.40625 C 821.550781 405.011719 821.339844 405.601562 821.097656 406.183594 C 820.855469 406.765625 820.589844 407.335938 820.289062 407.890625 C 819.992188 408.445312 819.671875 408.988281 819.320312 409.511719 C 818.96875 410.035156 818.59375 410.539062 818.195312 411.027344 C 817.796875 411.515625 817.375 411.980469 816.929688 412.425781 C 816.480469 412.871094 816.015625 413.292969 815.527344 413.695312 C 815.042969 414.09375 814.535156 414.46875 814.011719 414.820312 C 813.488281 415.167969 812.949219 415.492188 812.394531 415.789062 C 811.835938 416.085938 811.269531 416.355469 810.6875 416.597656 C 810.105469 416.835938 809.511719 417.050781 808.910156 417.230469 C 808.304688 417.414062 807.695312 417.566406 807.078125 417.691406 C 806.460938 417.8125 805.835938 417.90625 805.210938 417.96875 C 804.582031 418.03125 803.953125 418.0625 803.324219 418.0625 C 802.695312 418.0625 802.066406 418.03125 801.4375 417.96875 C 800.8125 417.90625 800.1875 417.8125 799.570312 417.691406 C 798.953125 417.566406 798.34375 417.414062 797.738281 417.230469 C 797.136719 417.050781 796.542969 416.835938 795.960938 416.597656 C 795.378906 416.355469 794.8125 416.085938 794.253906 415.789062 C 793.699219 415.492188 793.160156 415.167969 792.636719 414.820312 C 792.113281 414.46875 791.605469 414.09375 791.121094 413.695312 C 790.632812 413.292969 790.167969 412.871094 789.722656 412.425781 C 789.277344 411.980469 788.851562 411.515625 788.453125 411.027344 C 788.054688 410.539062 787.679688 410.035156 787.328125 409.511719 C 786.976562 408.988281 786.65625 408.445312 786.359375 407.890625 C 786.0625 407.335938 785.792969 406.765625 785.550781 406.183594 C 785.308594 405.601562 785.097656 405.011719 784.914062 404.40625 C 784.730469 403.804688 784.578125 403.195312 784.457031 402.574219 C 784.332031 401.957031 784.242188 401.335938 784.179688 400.707031 C 784.117188 400.082031 784.085938 399.453125 784.085938 398.824219 C 784.085938 398.191406 784.117188 397.5625 784.179688 396.9375 C 784.242188 396.308594 784.332031 395.6875 784.457031 395.070312 C 784.578125 394.453125 784.730469 393.839844 784.914062 393.238281 C 785.097656 392.636719 785.308594 392.042969 785.550781 391.460938 C 785.792969 390.878906 786.0625 390.308594 786.359375 389.753906 C 786.65625 389.199219 786.976562 388.660156 787.328125 388.132812 C 787.679688 387.609375 788.054688 387.105469 788.453125 386.617188 C 788.851562 386.132812 789.277344 385.664062 789.722656 385.21875 C 790.167969 384.773438 790.632812 384.351562 791.121094 383.953125 C 791.605469 383.550781 792.113281 383.175781 792.636719 382.828125 C 793.160156 382.476562 793.699219 382.152344 794.253906 381.855469 C 794.8125 381.558594 795.378906 381.289062 795.960938 381.046875 C 796.542969 380.808594 797.136719 380.59375 797.738281 380.414062 C 798.34375 380.230469 798.953125 380.078125 799.570312 379.953125 C 800.1875 379.832031 800.8125 379.738281 801.4375 379.675781 C 802.066406 379.613281 802.695312 379.585938 803.324219 379.585938 C 803.953125 379.585938 804.582031 379.613281 805.210938 379.675781 C 805.835938 379.738281 806.460938 379.832031 807.078125 379.953125 C 807.695312 380.078125 808.304688 380.230469 808.910156 380.414062 C 809.511719 380.59375 810.105469 380.808594 810.6875 381.046875 C 811.269531 381.289062 811.835938 381.558594 812.394531 381.855469 C 812.949219 382.152344 813.488281 382.476562 814.011719 382.828125 C 814.535156 383.175781 815.042969 383.550781 815.527344 383.953125 C 816.015625 384.351562 816.480469 384.773438 816.929688 385.21875 C 817.375 385.664062 817.796875 386.132812 818.195312 386.617188 C 818.59375 387.105469 818.96875 387.609375 819.320312 388.132812 C 819.671875 388.660156 819.992188 389.199219 820.289062 389.753906 C 820.589844 390.308594 820.855469 390.878906 821.097656 391.460938 C 821.339844 392.042969 821.550781 392.636719 821.734375 393.238281 C 821.917969 393.839844 822.070312 394.453125 822.191406 395.070312 C 822.316406 395.6875 822.410156 396.308594 822.46875 396.9375 C 822.53125 397.5625 822.5625 398.191406 822.5625 398.824219 Z M 822.5625 398.824219 " fill-opacity="1" fill-rule="nonzero"/></g><path fill="#16c76d" d="M 844.710938 462.132812 C 844.503906 462.109375 844.300781 462.097656 844.089844 462.097656 C 843.859375 462.097656 843.632812 462.125 843.402344 462.132812 L 843.308594 462.132812 C 843.109375 462.132812 842.914062 462.148438 842.71875 462.171875 C 839.003906 462.519531 835.542969 464.277344 832.640625 467.328125 C 824.566406 475.8125 820.957031 493.671875 822.207031 518.980469 C 822.355469 521.953125 824.808594 524.265625 827.753906 524.265625 C 827.847656 524.265625 827.941406 524.261719 828.03125 524.257812 C 831.097656 524.105469 833.460938 521.5 833.308594 518.433594 C 832.175781 495.511719 835.480469 484.128906 838.179688 478.769531 L 838.179688 573.179688 C 838.179688 578.078125 842.152344 582.050781 847.054688 582.050781 C 851.949219 582.050781 855.921875 578.078125 855.921875 573.179688 L 855.921875 530.929688 L 859.441406 530.929688 L 859.441406 573.179688 C 859.441406 578.078125 863.414062 582.050781 868.3125 582.050781 C 873.210938 582.050781 877.183594 578.078125 877.183594 573.179688 L 877.183594 478.769531 C 879.882812 484.128906 883.1875 495.511719 882.054688 518.433594 C 881.902344 521.5 884.265625 524.105469 887.332031 524.257812 C 887.425781 524.261719 887.519531 524.265625 887.609375 524.265625 C 890.554688 524.265625 893.007812 521.953125 893.15625 518.980469 C 894.40625 493.671875 890.796875 475.8125 882.722656 467.328125 C 879.820312 464.277344 876.359375 462.519531 872.644531 462.171875 C 872.449219 462.148438 872.253906 462.132812 872.054688 462.132812 L 871.960938 462.132812 C 871.730469 462.125 871.503906 462.097656 871.273438 462.097656 C 871.066406 462.097656 870.859375 462.109375 870.65625 462.132812 Z M 844.710938 462.132812 " fill-opacity="1" fill-rule="nonzero"/><path fill="#16c76d" d="M 875.210938 441.613281 C 875.210938 442.1875 875.183594 442.757812 875.125 443.332031 C 875.070312 443.902344 874.984375 444.46875 874.875 445.03125 C 874.761719 445.59375 874.621094 446.152344 874.457031 446.699219 C 874.289062 447.25 874.09375 447.789062 873.875 448.320312 C 873.65625 448.851562 873.410156 449.367188 873.140625 449.875 C 872.871094 450.382812 872.574219 450.875 872.257812 451.351562 C 871.9375 451.828125 871.59375 452.289062 871.230469 452.730469 C 870.867188 453.175781 870.480469 453.601562 870.078125 454.007812 C 869.671875 454.414062 869.246094 454.796875 868.800781 455.160156 C 868.359375 455.527344 867.898438 455.867188 867.421875 456.1875 C 866.941406 456.503906 866.449219 456.800781 865.945312 457.070312 C 865.4375 457.339844 864.921875 457.585938 864.390625 457.804688 C 863.859375 458.027344 863.320312 458.21875 862.769531 458.386719 C 862.222656 458.550781 861.664062 458.691406 861.101562 458.804688 C 860.539062 458.914062 859.972656 459 859.398438 459.054688 C 858.828125 459.113281 858.257812 459.140625 857.683594 459.140625 C 857.109375 459.140625 856.535156 459.113281 855.964844 459.054688 C 855.394531 459 854.824219 458.914062 854.261719 458.804688 C 853.699219 458.691406 853.144531 458.550781 852.59375 458.386719 C 852.042969 458.21875 851.503906 458.027344 850.972656 457.804688 C 850.445312 457.585938 849.925781 457.339844 849.417969 457.070312 C 848.914062 456.800781 848.421875 456.503906 847.945312 456.1875 C 847.464844 455.867188 847.007812 455.527344 846.5625 455.160156 C 846.117188 454.796875 845.695312 454.414062 845.289062 454.007812 C 844.882812 453.601562 844.496094 453.175781 844.132812 452.730469 C 843.769531 452.289062 843.425781 451.828125 843.109375 451.351562 C 842.789062 450.875 842.496094 450.382812 842.222656 449.875 C 841.953125 449.367188 841.707031 448.851562 841.488281 448.320312 C 841.269531 447.789062 841.074219 447.25 840.910156 446.699219 C 840.742188 446.152344 840.601562 445.59375 840.492188 445.03125 C 840.378906 444.46875 840.292969 443.902344 840.238281 443.332031 C 840.183594 442.757812 840.152344 442.1875 840.152344 441.613281 C 840.152344 441.039062 840.183594 440.464844 840.238281 439.894531 C 840.292969 439.324219 840.378906 438.753906 840.492188 438.191406 C 840.601562 437.628906 840.742188 437.074219 840.910156 436.523438 C 841.074219 435.976562 841.269531 435.433594 841.488281 434.90625 C 841.707031 434.375 841.953125 433.855469 842.222656 433.351562 C 842.496094 432.84375 842.789062 432.351562 843.109375 431.875 C 843.425781 431.398438 843.769531 430.9375 844.132812 430.492188 C 844.496094 430.050781 844.882812 429.625 845.289062 429.21875 C 845.695312 428.8125 846.117188 428.425781 846.5625 428.0625 C 847.007812 427.699219 847.464844 427.355469 847.945312 427.039062 C 848.421875 426.71875 848.914062 426.425781 849.417969 426.152344 C 849.925781 425.882812 850.445312 425.636719 850.972656 425.417969 C 851.503906 425.199219 852.042969 425.003906 852.59375 424.839844 C 853.144531 424.671875 853.699219 424.53125 854.261719 424.421875 C 854.824219 424.308594 855.394531 424.226562 855.964844 424.167969 C 856.535156 424.113281 857.109375 424.085938 857.683594 424.085938 C 858.257812 424.085938 858.828125 424.113281 859.398438 424.167969 C 859.972656 424.226562 860.539062 424.308594 861.101562 424.421875 C 861.664062 424.53125 862.222656 424.671875 862.769531 424.839844 C 863.320312 425.003906 863.859375 425.199219 864.390625 425.417969 C 864.921875 425.636719 865.4375 425.882812 865.945312 426.152344 C 866.449219 426.425781 866.941406 426.71875 867.421875 427.039062 C 867.898438 427.355469 868.359375 427.699219 868.800781 428.0625 C 869.246094 428.425781 869.671875 428.8125 870.078125 429.21875 C 870.480469 429.625 870.867188 430.050781 871.230469 430.492188 C 871.59375 430.9375 871.9375 431.398438 872.257812 431.875 C 872.574219 432.351562 872.871094 432.84375 873.140625 433.351562 C 873.410156 433.855469 873.65625 434.375 873.875 434.90625 C 874.09375 435.433594 874.289062 435.976562 874.457031 436.523438 C 874.621094 437.074219 874.761719 437.628906 874.875 438.191406 C 874.984375 438.753906 875.070312 439.324219 875.125 439.894531 C 875.183594 440.464844 875.210938 441.039062 875.210938 441.613281 Z M 875.210938 441.613281 " fill-opacity="1" fill-rule="nonzero"/></svg>