<svg xmlns="http://www.w3.org/2000/svg" xmlns:xlink="http://www.w3.org/1999/xlink" width="500" zoomAndPan="magnify" viewBox="0 0 375 374.999991" height="500" preserveAspectRatio="xMidYMid meet" version="1.0"><defs><clipPath id="bfc0a1db6b"><path d="M 8 20.113281 L 327 20.113281 L 327 353 L 8 353 Z M 8 20.113281 " clip-rule="nonzero"/></clipPath></defs><g clip-path="url(#bfc0a1db6b)"><path fill="#d6a40e" d="M 197.820312 229.492188 C 188.792969 222.59375 182.46875 213.222656 175.1875 204.730469 C 171.570312 200.523438 168.332031 195.53125 165.679688 190.679688 C 159.820312 180.003906 153.839844 165.964844 164.007812 155.664062 C 170.441406 149.140625 177.304688 149.09375 184.984375 155.585938 C 190.371094 160.125 194.320312 165.953125 198.832031 171.273438 C 200.980469 173.417969 207.574219 179.871094 206.363281 173.898438 C 205.671875 170.488281 203.304688 162.324219 203.5 156.984375 C 203.757812 150.160156 203.65625 147.996094 206.199219 141.480469 C 208.574219 135.375 213.394531 130.402344 218.214844 126.144531 C 224.226562 120.839844 230.238281 115.546875 236.214844 110.210938 C 247.105469 100.484375 256.519531 89.734375 264.667969 77.609375 C 268.320312 72.175781 272.5625 65.941406 273.152344 59.226562 C 273.550781 54.527344 270.917969 46.53125 266.609375 43.871094 C 260.078125 39.839844 253.191406 43.128906 247.632812 47.269531 C 245.375 48.945312 243.449219 51.066406 241.464844 53.074219 C 236.304688 58.328125 231.433594 63.871094 226.046875 68.875 C 213.085938 80.9375 198.265625 90.402344 181.777344 96.871094 C 150.519531 109.125 116.789062 111.925781 84.121094 118.433594 C 71.015625 121.042969 36.660156 124.632812 20.46875 125.269531 C 6.097656 125.832031 0.015625 150.40625 26.679688 152.125 C 58.246094 154.160156 85.160156 154.363281 105.519531 154.964844 C 110.175781 155.101562 113.535156 157.089844 114.578125 162.175781 C 117.078125 174.289062 117.910156 175.679688 118.078125 188.023438 C 118.191406 196.1875 116.402344 204.550781 117.011719 212.660156 C 117.285156 216.210938 119.617188 214.972656 121.53125 214.558594 C 132.066406 212.261719 148.046875 217.863281 154.8125 226.324219 C 161.738281 234.980469 163.742188 248.128906 159.488281 258.421875 C 159.078125 259.410156 156.496094 262.6875 157.492188 263.535156 C 159.382812 265.136719 165.136719 260.246094 166.820312 259.203125 C 171.785156 256.09375 176.746094 253.042969 181.339844 249.390625 C 188.824219 243.433594 196.472656 238.800781 205.726562 248.84375 C 204.78125 243.402344 205.984375 239.335938 204.542969 235.410156 C 202.296875 233.441406 200.058594 231.464844 197.820312 229.492188 Z M 169.804688 263.675781 C 164.167969 267.882812 157.476562 271.519531 150.777344 273.652344 C 125.414062 281.730469 98.648438 271.980469 75.621094 261.417969 C 72.835938 260.136719 69.96875 259.539062 67.507812 260.890625 C 64.789062 262.398438 65.71875 265.640625 66.011719 268.164062 C 66.449219 271.957031 68.199219 275.269531 70.910156 277.96875 C 80.578125 287.570312 91.550781 295.253906 104.128906 300.597656 C 109.957031 303.070312 108.089844 313.40625 108.132812 318.277344 C 108.210938 329.28125 108.460938 340.304688 108.792969 351.328125 C 114.832031 351.855469 143.234375 354.234375 165.828125 348.53125 C 165.914062 334.207031 166.085938 319.878906 165.796875 305.5625 C 165.648438 298.488281 168.972656 294.542969 173.578125 291.171875 C 194.421875 275.902344 200.386719 264.554688 199.621094 254.660156 C 198.421875 238.808594 174.300781 260.296875 169.804688 263.675781 Z M 323.820312 144.558594 C 316.46875 140.515625 314.265625 140.894531 310.144531 148.015625 C 305.804688 155.511719 302.152344 163.410156 297.78125 170.886719 C 287.554688 188.402344 274.804688 202.957031 253.390625 206.6875 C 249.753906 207.320312 245.710938 207.335938 242.03125 207.148438 C 237.261719 206.910156 232.113281 205.652344 227.699219 203.886719 C 210.601562 197.050781 200 180.75 188.316406 167.476562 C 186.464844 165.371094 184.703125 163.167969 182.707031 161.199219 C 179.367188 157.886719 175.667969 155.894531 171.027344 157.730469 C 166.480469 159.527344 164.101562 163.25 163.640625 168.019531 C 163.25 172.042969 164.859375 176.171875 166.296875 179.84375 C 169.394531 187.679688 174.34375 195.03125 179.546875 201.613281 C 181.617188 204.222656 183.753906 206.78125 185.941406 209.292969 C 189.921875 213.863281 194.082031 218.273438 198.351562 222.574219 C 202.257812 226.503906 206.214844 231.136719 210.8125 234.292969 C 213.066406 235.832031 215.996094 236.628906 216.152344 239.839844 C 216.839844 253.207031 217.644531 266.570312 218.183594 279.933594 C 218.878906 296.625 219.894531 313.289062 221.308594 329.925781 C 233.136719 324.003906 244.335938 316.964844 254.867188 309.015625 C 254.941406 308.597656 254.960938 308.1875 255.042969 307.78125 C 255.148438 308.078125 255.199219 308.398438 255.289062 308.695312 C 267.050781 299.757812 277.945312 289.648438 287.757812 278.476562 C 287.554688 266.050781 287.15625 253.613281 286.695312 241.1875 C 286.5 236.089844 287.632812 232.332031 291.378906 228.65625 C 304.429688 215.878906 315.554688 201.664062 321.457031 184.015625 C 324.632812 174.484375 326.335938 164.636719 327.027344 154.640625 C 327.28125 150.96875 325.84375 147.621094 323.820312 144.558594 Z M 243.769531 146.683594 C 231.34375 146.4375 216.410156 158.511719 218.476562 173.007812 C 220.539062 187.40625 229.8125 199.332031 243.769531 199.332031 C 257.742188 199.332031 269.058594 187.546875 269.058594 173.007812 C 269.058594 158.46875 259.957031 147.003906 243.769531 146.683594 Z M 106.304688 63.664062 C 108.363281 81.957031 121.226562 97 139.628906 97 C 158.042969 97 172.964844 82.078125 172.964844 63.664062 C 172.964844 45.253906 155.402344 28.378906 136.996094 28.378906 C 118.589844 28.378906 104.167969 44.792969 106.304688 63.664062 Z M 130.222656 268.507812 C 142.832031 267.554688 153.117188 258.035156 153.117188 245.117188 C 153.117188 232.195312 142.875 221.722656 130.222656 221.722656 C 117.582031 221.722656 106.828125 227.128906 105.796875 242.808594 C 104.945312 255.699219 114.222656 269.722656 130.222656 268.507812 Z M 185.53125 50.558594 C 193.546875 49.953125 200.078125 43.902344 200.078125 35.6875 C 200.078125 27.484375 193.566406 20.824219 185.53125 20.824219 C 177.5 20.824219 170.660156 24.261719 170.003906 34.226562 C 169.453125 42.421875 175.363281 51.335938 185.53125 50.558594 Z M 176.492188 54.773438 C 177.25 57.664062 177.695312 60.640625 177.695312 63.660156 C 177.695312 71.316406 175.402344 78.433594 171.5 84.414062 C 171.523438 87.082031 171.542969 91.019531 171.574219 95.535156 C 174.417969 94.578125 177.242188 93.5625 180.035156 92.46875 C 189.988281 88.570312 199.394531 83.480469 208.191406 77.285156 C 208.175781 76.085938 208.167969 74.988281 208.144531 74.117188 C 208.058594 69.621094 209.699219 66.242188 213.09375 64.964844 C 217.066406 63.476562 218.808594 60.265625 221.464844 57.742188 C 225.789062 53.648438 230.128906 48.046875 229.648438 41.761719 C 228.882812 31.679688 213.542969 45.34375 210.6875 47.484375 C 207.101562 50.167969 202.859375 52.472656 198.589844 53.832031 C 191.308594 56.152344 183.84375 56.089844 176.492188 54.773438 Z M 176.492188 54.773438 " fill-opacity="1" fill-rule="evenodd"/></g></svg>