<svg xmlns="http://www.w3.org/2000/svg" xmlns:xlink="http://www.w3.org/1999/xlink" width="1024" zoomAndPan="magnify" viewBox="0 0 768 576" height="768" preserveAspectRatio="xMidYMid meet" version="1.0"><defs><g/><clipPath id="8d05cfc042"><path d="M 118.820312 7.460938 L 679.894531 7.460938 L 679.894531 568.539062 L 118.820312 568.539062 Z M 118.820312 7.460938 " clip-rule="nonzero"/></clipPath><clipPath id="27ae091532"><path d="M 399.359375 7.460938 C 244.421875 7.460938 118.820312 133.0625 118.820312 288 C 118.820312 442.9375 244.421875 568.539062 399.359375 568.539062 C 554.292969 568.539062 679.894531 442.9375 679.894531 288 C 679.894531 133.0625 554.292969 7.460938 399.359375 7.460938 Z M 399.359375 7.460938 " clip-rule="nonzero"/></clipPath><clipPath id="c68fc9a019"><path d="M 118.820312 7.460938 L 679.820312 7.460938 L 679.820312 568.460938 L 118.820312 568.460938 Z M 118.820312 7.460938 " clip-rule="nonzero"/></clipPath><clipPath id="072479206d"><path d="M 399.355469 7.460938 C 244.421875 7.460938 118.820312 133.0625 118.820312 287.996094 C 118.820312 442.933594 244.421875 568.53125 399.355469 568.53125 C 554.292969 568.53125 679.890625 442.933594 679.890625 287.996094 C 679.890625 133.0625 554.292969 7.460938 399.355469 7.460938 Z M 399.355469 7.460938 " clip-rule="nonzero"/></clipPath><clipPath id="7f8e10f302"><path d="M 196.910156 80.726562 L 601.808594 80.726562 L 601.808594 485.625 L 196.910156 485.625 Z M 196.910156 80.726562 " clip-rule="nonzero"/></clipPath><clipPath id="c332e580a2"><path d="M 399.359375 80.726562 C 287.550781 80.726562 196.910156 171.367188 196.910156 283.175781 C 196.910156 394.984375 287.550781 485.625 399.359375 485.625 C 511.167969 485.625 601.808594 394.984375 601.808594 283.175781 C 601.808594 171.367188 511.167969 80.726562 399.359375 80.726562 Z M 399.359375 80.726562 " clip-rule="nonzero"/></clipPath><clipPath id="a07281c30e"><path d="M 196.910156 80.726562 L 601.804688 80.726562 L 601.804688 485.621094 L 196.910156 485.621094 Z M 196.910156 80.726562 " clip-rule="nonzero"/></clipPath><clipPath id="810a48bc1a"><path d="M 399.355469 80.726562 C 287.546875 80.726562 196.910156 171.367188 196.910156 283.175781 C 196.910156 394.984375 287.546875 485.621094 399.355469 485.621094 C 511.164062 485.621094 601.804688 394.984375 601.804688 283.175781 C 601.804688 171.367188 511.164062 80.726562 399.355469 80.726562 Z M 399.355469 80.726562 " clip-rule="nonzero"/></clipPath><clipPath id="317f71c27e"><path d="M 272.027344 160.148438 L 527.726562 160.148438 L 527.726562 415.851562 L 272.027344 415.851562 Z M 272.027344 160.148438 " clip-rule="nonzero"/></clipPath><clipPath id="82caff0de0"><path d="M 399.878906 160.148438 C 329.265625 160.148438 272.027344 217.390625 272.027344 288 C 272.027344 358.609375 329.265625 415.851562 399.878906 415.851562 C 470.488281 415.851562 527.726562 358.609375 527.726562 288 C 527.726562 217.390625 470.488281 160.148438 399.878906 160.148438 Z M 399.878906 160.148438 " clip-rule="nonzero"/></clipPath><clipPath id="d13ad1293e"><path d="M 272.027344 160.148438 L 527.71875 160.148438 L 527.71875 415.839844 L 272.027344 415.839844 Z M 272.027344 160.148438 " clip-rule="nonzero"/></clipPath><clipPath id="1d0f31a1d2"><path d="M 399.871094 160.148438 C 329.265625 160.148438 272.027344 217.386719 272.027344 287.996094 C 272.027344 358.601562 329.265625 415.839844 399.871094 415.839844 C 470.480469 415.839844 527.71875 358.601562 527.71875 287.996094 C 527.71875 217.386719 470.480469 160.148438 399.871094 160.148438 Z M 399.871094 160.148438 " clip-rule="nonzero"/></clipPath><clipPath id="aba8ee2903"><path d="M 97.039062 283.175781 L 269.882812 283.175781 L 269.882812 456.015625 L 97.039062 456.015625 Z M 97.039062 283.175781 " clip-rule="nonzero"/></clipPath><clipPath id="108f87e512"><path d="M 183.460938 283.175781 C 135.734375 283.175781 97.039062 321.867188 97.039062 369.59375 C 97.039062 417.324219 135.734375 456.015625 183.460938 456.015625 C 231.191406 456.015625 269.882812 417.324219 269.882812 369.59375 C 269.882812 321.867188 231.191406 283.175781 183.460938 283.175781 Z M 183.460938 283.175781 " clip-rule="nonzero"/></clipPath><clipPath id="f757129804"><path d="M 97.039062 283.175781 L 269.539062 283.175781 L 269.539062 455.675781 L 97.039062 455.675781 Z M 97.039062 283.175781 " clip-rule="nonzero"/></clipPath><clipPath id="0d95757ec8"><path d="M 183.460938 283.175781 C 135.734375 283.175781 97.039062 321.867188 97.039062 369.59375 C 97.039062 417.324219 135.734375 456.015625 183.460938 456.015625 C 231.1875 456.015625 269.878906 417.324219 269.878906 369.59375 C 269.878906 321.867188 231.1875 283.175781 183.460938 283.175781 Z M 183.460938 283.175781 " clip-rule="nonzero"/></clipPath><clipPath id="6edaa55e33"><path d="M 585 265 L 620 265 L 620 289 L 585 289 Z M 585 265 " clip-rule="nonzero"/></clipPath><clipPath id="5ecfcd4cb6"><path d="M 618.269531 289.613281 L 584.429688 288.355469 L 585.289062 265.316406 L 619.125 266.574219 Z M 618.269531 289.613281 " clip-rule="nonzero"/></clipPath><clipPath id="2cb22bb639"><path d="M 601.375 288.984375 L 585.335938 265.316406 L 619.125 266.574219 Z M 601.375 288.984375 " clip-rule="nonzero"/></clipPath><clipPath id="2f2fd9507d"><path d="M 246 412 L 274 412 L 274 442 L 246 442 Z M 246 412 " clip-rule="nonzero"/></clipPath><clipPath id="4c52c81313"><path d="M 233.027344 422.535156 L 260.648438 402.949219 L 273.984375 421.757812 L 246.359375 441.34375 Z M 233.027344 422.535156 " clip-rule="nonzero"/></clipPath><clipPath id="c58be46723"><path d="M 246.816406 412.757812 L 273.945312 421.785156 L 246.359375 441.34375 Z M 246.816406 412.757812 " clip-rule="nonzero"/></clipPath><clipPath id="6aca7b65e6"><path d="M 521.398438 295.324219 L 694.238281 295.324219 L 694.238281 468.164062 L 521.398438 468.164062 Z M 521.398438 295.324219 " clip-rule="nonzero"/></clipPath><clipPath id="f8aeb08d90"><path d="M 607.820312 295.324219 C 560.089844 295.324219 521.398438 334.015625 521.398438 381.742188 C 521.398438 429.472656 560.089844 468.164062 607.820312 468.164062 C 655.546875 468.164062 694.238281 429.472656 694.238281 381.742188 C 694.238281 334.015625 655.546875 295.324219 607.820312 295.324219 Z M 607.820312 295.324219 " clip-rule="nonzero"/></clipPath><clipPath id="4f33d71360"><path d="M 521.398438 295.324219 L 693.898438 295.324219 L 693.898438 467.824219 L 521.398438 467.824219 Z M 521.398438 295.324219 " clip-rule="nonzero"/></clipPath><clipPath id="1ac52dde45"><path d="M 607.820312 295.324219 C 560.089844 295.324219 521.398438 334.015625 521.398438 381.742188 C 521.398438 429.472656 560.089844 468.164062 607.820312 468.164062 C 655.546875 468.164062 694.238281 429.472656 694.238281 381.742188 C 694.238281 334.015625 655.546875 295.324219 607.820312 295.324219 Z M 607.820312 295.324219 " clip-rule="nonzero"/></clipPath><clipPath id="44809532f3"><path d="M 498 314 L 545 314 L 545 366 L 498 366 Z M 498 314 " clip-rule="nonzero"/></clipPath><clipPath id="40e7cacb93"><path d="M 556.898438 331.335938 L 532.882812 381.820312 L 498.507812 365.46875 L 522.527344 314.984375 Z M 556.898438 331.335938 " clip-rule="nonzero"/></clipPath><clipPath id="32eae4a420"><path d="M 544.90625 356.542969 L 498.542969 365.394531 L 522.527344 314.984375 Z M 544.90625 356.542969 " clip-rule="nonzero"/></clipPath><clipPath id="ddb5217c33"><path d="M 253 311 L 300 311 L 300 361 L 253 361 Z M 253 311 " clip-rule="nonzero"/></clipPath><clipPath id="5da4b339b3"><path d="M 266.4375 378.570312 L 239.808594 329.414062 L 273.277344 311.285156 L 299.902344 360.441406 Z M 266.4375 378.570312 " clip-rule="nonzero"/></clipPath><clipPath id="2927ef2b24"><path d="M 253.140625 354.027344 L 273.3125 311.355469 L 299.902344 360.441406 Z M 253.140625 354.027344 " clip-rule="nonzero"/></clipPath></defs><g clip-path="url(#8d05cfc042)"><g clip-path="url(#27ae091532)"><path fill="#d3950c" d="M 118.820312 7.460938 L 679.894531 7.460938 L 679.894531 568.539062 L 118.820312 568.539062 Z M 118.820312 7.460938 " fill-opacity="1" fill-rule="nonzero"/></g></g><g clip-path="url(#c68fc9a019)"><g clip-path="url(#072479206d)"><path stroke-linecap="butt" transform="matrix(0.75, 0, 0, 0.75, 118.821024, 7.462834)" fill="none" stroke-linejoin="miter" d="M 374.045942 -0.00252879 C 167.467809 -0.00252879 -0.000948466 167.466228 -0.000948466 374.044362 C -0.000948466 580.627704 167.467809 748.091252 374.045942 748.091252 C 580.629284 748.091252 748.092833 580.627704 748.092833 374.044362 C 748.092833 167.466228 580.629284 -0.00252879 374.045942 -0.00252879 Z M 374.045942 -0.00252879 " stroke="#ffffff" stroke-width="14" stroke-opacity="1" stroke-miterlimit="4"/></g></g><g clip-path="url(#7f8e10f302)"><g clip-path="url(#c332e580a2)"><path fill="#38b6ff" d="M 196.910156 80.726562 L 601.804688 80.726562 L 601.804688 485.625 L 196.910156 485.625 Z M 196.910156 80.726562 " fill-opacity="1" fill-rule="nonzero"/></g></g><g clip-path="url(#a07281c30e)"><g clip-path="url(#810a48bc1a)"><path stroke-linecap="butt" transform="matrix(0.75, 0, 0, 0.75, 196.909739, 80.727036)" fill="none" stroke-linejoin="miter" d="M 269.927651 -0.000631115 C 120.84952 -0.000631115 0.000556339 120.853541 0.000556339 269.931672 C 0.000556339 419.009803 120.84952 539.858766 269.927651 539.858766 C 419.005782 539.858766 539.859954 419.009803 539.859954 269.931672 C 539.859954 120.853541 419.005782 -0.000631115 269.927651 -0.000631115 Z M 269.927651 -0.000631115 " stroke="#ffffff" stroke-width="6" stroke-opacity="1" stroke-miterlimit="4"/></g></g><g clip-path="url(#317f71c27e)"><g clip-path="url(#82caff0de0)"><path fill="#d3950c" d="M 272.027344 160.148438 L 527.726562 160.148438 L 527.726562 415.851562 L 272.027344 415.851562 Z M 272.027344 160.148438 " fill-opacity="1" fill-rule="nonzero"/></g></g><g clip-path="url(#d13ad1293e)"><g clip-path="url(#1d0f31a1d2)"><path stroke-linecap="butt" transform="matrix(0.75, 0, 0, 0.75, 272.026745, 160.149534)" fill="none" stroke-linejoin="miter" d="M 170.459138 -0.00146217 C 76.318509 -0.00146217 0.000797713 76.316249 0.000797713 170.462087 C 0.000797713 264.602716 76.318509 340.920427 170.459138 340.920427 C 264.604975 340.920427 340.922687 264.602716 340.922687 170.462087 C 340.922687 76.316249 264.604975 -0.00146217 170.459138 -0.00146217 Z M 170.459138 -0.00146217 " stroke="#ffffff" stroke-width="8" stroke-opacity="1" stroke-miterlimit="4"/></g></g><g clip-path="url(#aba8ee2903)"><g clip-path="url(#108f87e512)"><path fill="#21cc7a" d="M 97.039062 283.175781 L 269.882812 283.175781 L 269.882812 456.015625 L 97.039062 456.015625 Z M 97.039062 283.175781 " fill-opacity="1" fill-rule="nonzero"/></g></g><g clip-path="url(#f757129804)"><g clip-path="url(#0d95757ec8)"><path stroke-linecap="butt" transform="matrix(0.75, 0, 0, 0.75, 97.041008, 283.175487)" fill="none" stroke-linejoin="miter" d="M 115.226578 0.000391799 C 51.591158 0.000391799 -0.00259394 51.588936 -0.00259394 115.224355 C -0.00259394 178.864983 51.591158 230.453526 115.226578 230.453526 C 178.861997 230.453526 230.450541 178.864983 230.450541 115.224355 C 230.450541 51.588936 178.861997 0.000391799 115.226578 0.000391799 Z M 115.226578 0.000391799 " stroke="#ffffff" stroke-width="10" stroke-opacity="1" stroke-miterlimit="4"/></g></g><g clip-path="url(#6edaa55e33)"><g clip-path="url(#5ecfcd4cb6)"><g clip-path="url(#2cb22bb639)"><path fill="#ffffff" d="M 618.269531 289.613281 L 584.519531 288.359375 L 585.378906 265.320312 L 619.125 266.574219 Z M 618.269531 289.613281 " fill-opacity="1" fill-rule="nonzero"/></g></g></g><g clip-path="url(#2f2fd9507d)"><g clip-path="url(#4c52c81313)"><g clip-path="url(#c58be46723)"><path fill="#ffffff" d="M 233.027344 422.535156 L 260.574219 403.003906 L 273.910156 421.808594 L 246.359375 441.34375 Z M 233.027344 422.535156 " fill-opacity="1" fill-rule="nonzero"/></g></g></g><g fill="#ffffff" fill-opacity="1"><g transform="translate(301.520393, 286.67621)"><g><path d="M 0.84375 0 L 8.75 -22.09375 L 13.46875 -22.09375 L 21.359375 0 L 16.921875 0 L 15.109375 -5.125 L 7.171875 -5.125 L 5.3125 0 Z M 8.15625 -9.015625 L 14.046875 -9.015625 L 11.125 -17.78125 Z M 8.15625 -9.015625 "/></g></g></g><g fill="#ffffff" fill-opacity="1"><g transform="translate(323.717187, 286.67621)"><g><path d="M 10.765625 0.3125 C 9.679688 0.3125 8.613281 0.175781 7.5625 -0.09375 C 6.507812 -0.375 5.550781 -0.789062 4.6875 -1.34375 C 3.820312 -1.894531 3.109375 -2.582031 2.546875 -3.40625 C 1.984375 -4.226562 1.644531 -5.195312 1.53125 -6.3125 L 6.09375 -6.3125 C 6.25 -5.632812 6.539062 -5.066406 6.96875 -4.609375 C 7.394531 -4.148438 7.929688 -3.796875 8.578125 -3.546875 C 9.234375 -3.304688 9.960938 -3.1875 10.765625 -3.1875 C 11.578125 -3.1875 12.316406 -3.289062 12.984375 -3.5 C 13.660156 -3.707031 14.203125 -4.015625 14.609375 -4.421875 C 15.015625 -4.835938 15.21875 -5.351562 15.21875 -5.96875 C 15.21875 -6.53125 15.050781 -6.988281 14.71875 -7.34375 C 14.394531 -7.707031 13.953125 -8 13.390625 -8.21875 C 12.828125 -8.445312 12.1875 -8.628906 11.46875 -8.765625 L 7.65625 -9.546875 C 5.988281 -9.867188 4.664062 -10.535156 3.6875 -11.546875 C 2.707031 -12.554688 2.203125 -13.910156 2.171875 -15.609375 C 2.160156 -16.992188 2.53125 -18.191406 3.28125 -19.203125 C 4.03125 -20.210938 5.046875 -20.992188 6.328125 -21.546875 C 7.617188 -22.097656 9.066406 -22.375 10.671875 -22.375 C 12.578125 -22.375 14.175781 -22.070312 15.46875 -21.46875 C 16.769531 -20.875 17.757812 -20.070312 18.4375 -19.0625 C 19.113281 -18.050781 19.460938 -16.921875 19.484375 -15.671875 L 15 -15.671875 C 14.925781 -16.453125 14.691406 -17.070312 14.296875 -17.53125 C 13.910156 -17.988281 13.414062 -18.316406 12.8125 -18.515625 C 12.207031 -18.722656 11.519531 -18.828125 10.75 -18.828125 C 10.15625 -18.828125 9.613281 -18.757812 9.125 -18.625 C 8.644531 -18.488281 8.234375 -18.300781 7.890625 -18.0625 C 7.554688 -17.820312 7.296875 -17.539062 7.109375 -17.21875 C 6.929688 -16.894531 6.84375 -16.53125 6.84375 -16.125 C 6.84375 -15.476562 7.054688 -14.957031 7.484375 -14.5625 C 7.910156 -14.164062 8.710938 -13.835938 9.890625 -13.578125 L 13.671875 -12.8125 C 15.023438 -12.539062 16.101562 -12.144531 16.90625 -11.625 C 17.707031 -11.101562 18.304688 -10.515625 18.703125 -9.859375 C 19.109375 -9.210938 19.375 -8.550781 19.5 -7.875 C 19.632812 -7.195312 19.703125 -6.570312 19.703125 -6 C 19.703125 -4.8125 19.328125 -3.738281 18.578125 -2.78125 C 17.828125 -1.832031 16.785156 -1.078125 15.453125 -0.515625 C 14.117188 0.0351562 12.554688 0.3125 10.765625 0.3125 Z M 10.765625 0.3125 "/></g></g></g><g fill="#ffffff" fill-opacity="1"><g transform="translate(344.905727, 286.67621)"><g><path d="M 10.765625 0.3125 C 9.679688 0.3125 8.613281 0.175781 7.5625 -0.09375 C 6.507812 -0.375 5.550781 -0.789062 4.6875 -1.34375 C 3.820312 -1.894531 3.109375 -2.582031 2.546875 -3.40625 C 1.984375 -4.226562 1.644531 -5.195312 1.53125 -6.3125 L 6.09375 -6.3125 C 6.25 -5.632812 6.539062 -5.066406 6.96875 -4.609375 C 7.394531 -4.148438 7.929688 -3.796875 8.578125 -3.546875 C 9.234375 -3.304688 9.960938 -3.1875 10.765625 -3.1875 C 11.578125 -3.1875 12.316406 -3.289062 12.984375 -3.5 C 13.660156 -3.707031 14.203125 -4.015625 14.609375 -4.421875 C 15.015625 -4.835938 15.21875 -5.351562 15.21875 -5.96875 C 15.21875 -6.53125 15.050781 -6.988281 14.71875 -7.34375 C 14.394531 -7.707031 13.953125 -8 13.390625 -8.21875 C 12.828125 -8.445312 12.1875 -8.628906 11.46875 -8.765625 L 7.65625 -9.546875 C 5.988281 -9.867188 4.664062 -10.535156 3.6875 -11.546875 C 2.707031 -12.554688 2.203125 -13.910156 2.171875 -15.609375 C 2.160156 -16.992188 2.53125 -18.191406 3.28125 -19.203125 C 4.03125 -20.210938 5.046875 -20.992188 6.328125 -21.546875 C 7.617188 -22.097656 9.066406 -22.375 10.671875 -22.375 C 12.578125 -22.375 14.175781 -22.070312 15.46875 -21.46875 C 16.769531 -20.875 17.757812 -20.070312 18.4375 -19.0625 C 19.113281 -18.050781 19.460938 -16.921875 19.484375 -15.671875 L 15 -15.671875 C 14.925781 -16.453125 14.691406 -17.070312 14.296875 -17.53125 C 13.910156 -17.988281 13.414062 -18.316406 12.8125 -18.515625 C 12.207031 -18.722656 11.519531 -18.828125 10.75 -18.828125 C 10.15625 -18.828125 9.613281 -18.757812 9.125 -18.625 C 8.644531 -18.488281 8.234375 -18.300781 7.890625 -18.0625 C 7.554688 -17.820312 7.296875 -17.539062 7.109375 -17.21875 C 6.929688 -16.894531 6.84375 -16.53125 6.84375 -16.125 C 6.84375 -15.476562 7.054688 -14.957031 7.484375 -14.5625 C 7.910156 -14.164062 8.710938 -13.835938 9.890625 -13.578125 L 13.671875 -12.8125 C 15.023438 -12.539062 16.101562 -12.144531 16.90625 -11.625 C 17.707031 -11.101562 18.304688 -10.515625 18.703125 -9.859375 C 19.109375 -9.210938 19.375 -8.550781 19.5 -7.875 C 19.632812 -7.195312 19.703125 -6.570312 19.703125 -6 C 19.703125 -4.8125 19.328125 -3.738281 18.578125 -2.78125 C 17.828125 -1.832031 16.785156 -1.078125 15.453125 -0.515625 C 14.117188 0.0351562 12.554688 0.3125 10.765625 0.3125 Z M 10.765625 0.3125 "/></g></g></g><g fill="#ffffff" fill-opacity="1"><g transform="translate(366.094266, 286.67621)"><g><path d="M 2.46875 0 L 2.46875 -22.09375 L 17.65625 -22.09375 L 17.640625 -18.34375 L 6.953125 -18.34375 L 6.953125 -12.96875 L 16.234375 -12.96875 L 16.234375 -9.296875 L 6.921875 -9.296875 L 6.921875 -3.8125 L 17.796875 -3.796875 L 17.796875 0 Z M 2.46875 0 "/></g></g></g><g fill="#ffffff" fill-opacity="1"><g transform="translate(385.48018, 286.67621)"><g><path d="M 2.46875 0 L 2.46875 -22.09375 L 8.953125 -22.09375 L 14.015625 -6.34375 L 19.109375 -22.09375 L 25.578125 -22.09375 L 25.578125 0 L 21.078125 0 L 21.078125 -16.90625 L 15.75 0 L 12.25 0 L 6.96875 -16.828125 L 6.96875 0 Z M 2.46875 0 "/></g></g></g><g fill="#ffffff" fill-opacity="1"><g transform="translate(413.512605, 286.67621)"><g><path d="M 2.46875 0 L 2.46875 -22.09375 L 10.484375 -22.09375 C 13.378906 -22.09375 15.523438 -21.59375 16.921875 -20.59375 C 18.328125 -19.601562 19.03125 -18.175781 19.03125 -16.3125 C 19.03125 -15.207031 18.75 -14.25 18.1875 -13.4375 C 17.625 -12.625 16.625 -11.921875 15.1875 -11.328125 C 16.113281 -11.085938 16.863281 -10.769531 17.4375 -10.375 C 18.007812 -9.976562 18.445312 -9.535156 18.75 -9.046875 C 19.050781 -8.566406 19.257812 -8.0625 19.375 -7.53125 C 19.488281 -7.007812 19.546875 -6.492188 19.546875 -5.984375 C 19.546875 -3.953125 18.851562 -2.445312 17.46875 -1.46875 C 16.082031 -0.488281 13.875 0 10.84375 0 Z M 6.921875 -3.453125 L 10.9375 -3.453125 C 12.28125 -3.453125 13.296875 -3.722656 13.984375 -4.265625 C 14.671875 -4.804688 15.015625 -5.53125 15.015625 -6.4375 C 15.015625 -7.082031 14.847656 -7.625 14.515625 -8.0625 C 14.179688 -8.507812 13.722656 -8.84375 13.140625 -9.0625 C 12.566406 -9.289062 11.914062 -9.40625 11.1875 -9.40625 L 6.921875 -9.40625 Z M 6.921875 -12.953125 L 11.1875 -12.953125 C 11.644531 -12.953125 12.082031 -13.003906 12.5 -13.109375 C 12.925781 -13.222656 13.304688 -13.390625 13.640625 -13.609375 C 13.972656 -13.835938 14.234375 -14.125 14.421875 -14.46875 C 14.617188 -14.820312 14.71875 -15.238281 14.71875 -15.71875 C 14.71875 -16.675781 14.359375 -17.398438 13.640625 -17.890625 C 12.921875 -18.390625 12 -18.640625 10.875 -18.640625 L 6.921875 -18.640625 Z M 6.921875 -12.953125 "/></g></g></g><g fill="#ffffff" fill-opacity="1"><g transform="translate(434.426173, 286.67621)"><g><path d="M 2.46875 -22.09375 L 6.96875 -22.09375 L 6.96875 -3.78125 L 16.5625 -3.78125 L 16.5625 0 L 2.46875 0 Z M 2.46875 -22.09375 "/></g></g></g><g fill="#ffffff" fill-opacity="1"><g transform="translate(452.070562, 286.67621)"><g><path d="M 2.46875 0 L 2.46875 -22.09375 L 17.65625 -22.09375 L 17.640625 -18.34375 L 6.953125 -18.34375 L 6.953125 -12.96875 L 16.234375 -12.96875 L 16.234375 -9.296875 L 6.921875 -9.296875 L 6.921875 -3.8125 L 17.796875 -3.796875 L 17.796875 0 Z M 2.46875 0 "/></g></g></g><g fill="#ffffff" fill-opacity="1"><g transform="translate(471.456476, 286.67621)"><g><path d="M 2.46875 -22.09375 L 6.921875 -22.09375 L 6.921875 0 L 2.46875 0 Z M 2.46875 -22.09375 "/></g></g></g><g fill="#ffffff" fill-opacity="1"><g transform="translate(480.851541, 286.67621)"><g><path d="M 0.84375 0 L 8.75 -22.09375 L 13.46875 -22.09375 L 21.359375 0 L 16.921875 0 L 15.109375 -5.125 L 7.171875 -5.125 L 5.3125 0 Z M 8.15625 -9.015625 L 14.046875 -9.015625 L 11.125 -17.78125 Z M 8.15625 -9.015625 "/></g></g></g><g fill="#ffffff" fill-opacity="1"><g transform="translate(350.447466, 329.045531)"><g><path d="M 11.421875 0.3125 C 9.390625 0.3125 7.625 -0.144531 6.125 -1.0625 C 4.632812 -1.988281 3.484375 -3.296875 2.671875 -4.984375 C 1.867188 -6.679688 1.46875 -8.679688 1.46875 -10.984375 C 1.46875 -13.328125 1.890625 -15.351562 2.734375 -17.0625 C 3.585938 -18.769531 4.78125 -20.085938 6.3125 -21.015625 C 7.84375 -21.941406 9.625 -22.40625 11.65625 -22.40625 C 12.96875 -22.40625 14.164062 -22.195312 15.25 -21.78125 C 16.332031 -21.363281 17.269531 -20.789062 18.0625 -20.0625 C 18.863281 -19.34375 19.488281 -18.523438 19.9375 -17.609375 C 20.394531 -16.703125 20.644531 -15.757812 20.6875 -14.78125 L 15.984375 -14.78125 C 15.847656 -15.476562 15.582031 -16.117188 15.1875 -16.703125 C 14.800781 -17.285156 14.300781 -17.75 13.6875 -18.09375 C 13.082031 -18.445312 12.367188 -18.625 11.546875 -18.625 C 10.566406 -18.625 9.679688 -18.367188 8.890625 -17.859375 C 8.097656 -17.359375 7.472656 -16.554688 7.015625 -15.453125 C 6.554688 -14.359375 6.328125 -12.910156 6.328125 -11.109375 C 6.328125 -9.648438 6.476562 -8.4375 6.78125 -7.46875 C 7.082031 -6.5 7.484375 -5.734375 7.984375 -5.171875 C 8.492188 -4.609375 9.078125 -4.207031 9.734375 -3.96875 C 10.390625 -3.738281 11.054688 -3.625 11.734375 -3.625 C 12.390625 -3.625 12.972656 -3.734375 13.484375 -3.953125 C 13.992188 -4.171875 14.429688 -4.453125 14.796875 -4.796875 C 15.171875 -5.140625 15.460938 -5.519531 15.671875 -5.9375 C 15.890625 -6.351562 16.03125 -6.757812 16.09375 -7.15625 L 16.265625 -8.5 L 11.6875 -8.5 L 11.6875 -11.578125 L 20.9375 -11.53125 L 20.9375 0 L 17.890625 0 L 17.890625 -2.890625 C 17.515625 -2.390625 17.046875 -1.890625 16.484375 -1.390625 C 15.929688 -0.898438 15.242188 -0.492188 14.421875 -0.171875 C 13.609375 0.148438 12.609375 0.3125 11.421875 0.3125 Z M 11.421875 0.3125 "/></g></g></g><g fill="#ffffff" fill-opacity="1"><g transform="translate(373.637242, 329.045531)"><g><path d="M 2.46875 0 L 2.46875 -22.09375 L 17.65625 -22.09375 L 17.640625 -18.34375 L 6.953125 -18.34375 L 6.953125 -12.96875 L 16.234375 -12.96875 L 16.234375 -9.296875 L 6.921875 -9.296875 L 6.921875 -3.8125 L 17.796875 -3.796875 L 17.796875 0 Z M 2.46875 0 "/></g></g></g><g fill="#ffffff" fill-opacity="1"><g transform="translate(393.023156, 329.045531)"><g><path d="M 19.625 0 L 14.984375 0 L 11.40625 -8.515625 L 6.921875 -8.515625 L 6.921875 0 L 2.46875 0 L 2.46875 -22.09375 L 11.796875 -22.09375 C 13.554688 -22.09375 14.992188 -21.8125 16.109375 -21.25 C 17.234375 -20.695312 18.0625 -19.921875 18.59375 -18.921875 C 19.125 -17.929688 19.390625 -16.789062 19.390625 -15.5 C 19.390625 -14.332031 19.207031 -13.347656 18.84375 -12.546875 C 18.488281 -11.753906 18.015625 -11.09375 17.421875 -10.5625 C 16.835938 -10.03125 16.203125 -9.597656 15.515625 -9.265625 Z M 11 -11.953125 C 12.195312 -11.953125 13.144531 -12.269531 13.84375 -12.90625 C 14.539062 -13.550781 14.890625 -14.378906 14.890625 -15.390625 C 14.890625 -16.410156 14.550781 -17.210938 13.875 -17.796875 C 13.195312 -18.390625 12.347656 -18.6875 11.328125 -18.6875 L 6.921875 -18.6875 L 6.921875 -11.953125 Z M 11 -11.953125 "/></g></g></g><g fill="#ffffff" fill-opacity="1"><g transform="translate(414.288081, 329.045531)"><g><path d="M 0.84375 0 L 8.75 -22.09375 L 13.46875 -22.09375 L 21.359375 0 L 16.921875 0 L 15.109375 -5.125 L 7.171875 -5.125 L 5.3125 0 Z M 8.15625 -9.015625 L 14.046875 -9.015625 L 11.125 -17.78125 Z M 8.15625 -9.015625 "/></g></g></g><g fill="#ffffff" fill-opacity="1"><g transform="translate(436.484875, 329.045531)"><g><path d="M 2.46875 -22.09375 L 6.96875 -22.09375 L 6.96875 -3.78125 L 16.5625 -3.78125 L 16.5625 0 L 2.46875 0 Z M 2.46875 -22.09375 "/></g></g></g><g fill="#ffffff" fill-opacity="1"><g transform="translate(122.972008, 371.081838)"><g><path d="M 8.078125 -15.78125 C 9.253906 -15.78125 10.296875 -15.546875 11.203125 -15.078125 C 12.117188 -14.609375 12.859375 -13.96875 13.421875 -13.15625 C 13.992188 -12.34375 14.328125 -11.425781 14.421875 -10.40625 L 11.125 -10.40625 C 11.03125 -10.945312 10.847656 -11.425781 10.578125 -11.84375 C 10.316406 -12.269531 9.96875 -12.601562 9.53125 -12.84375 C 9.101562 -13.082031 8.585938 -13.203125 7.984375 -13.203125 C 7.265625 -13.203125 6.640625 -13.023438 6.109375 -12.671875 C 5.585938 -12.316406 5.1875 -11.75 4.90625 -10.96875 C 4.625 -10.1875 4.484375 -9.15625 4.484375 -7.875 C 4.484375 -5.9375 4.796875 -4.535156 5.421875 -3.671875 C 6.046875 -2.804688 6.898438 -2.375 7.984375 -2.375 C 8.585938 -2.375 9.101562 -2.507812 9.53125 -2.78125 C 9.96875 -3.0625 10.316406 -3.425781 10.578125 -3.875 C 10.847656 -4.332031 11.03125 -4.832031 11.125 -5.375 L 14.421875 -5.375 C 14.328125 -4.644531 14.144531 -3.941406 13.875 -3.265625 C 13.613281 -2.597656 13.238281 -2 12.75 -1.46875 C 12.269531 -0.945312 11.644531 -0.535156 10.875 -0.234375 C 10.101562 0.0664062 9.171875 0.21875 8.078125 0.21875 C 6.628906 0.21875 5.378906 -0.117188 4.328125 -0.796875 C 3.273438 -1.472656 2.460938 -2.421875 1.890625 -3.640625 C 1.316406 -4.859375 1.03125 -6.28125 1.03125 -7.90625 C 1.03125 -9.550781 1.3125 -10.957031 1.875 -12.125 C 2.445312 -13.300781 3.257812 -14.203125 4.3125 -14.828125 C 5.375 -15.460938 6.628906 -15.78125 8.078125 -15.78125 Z M 8.078125 -15.78125 "/></g></g></g><g fill="#ffffff" fill-opacity="1"><g transform="translate(138.4337, 371.081838)"><g><path d="M 6.125 0.21875 C 5.03125 0.21875 4.078125 -0.015625 3.265625 -0.484375 C 2.460938 -0.953125 1.84375 -1.613281 1.40625 -2.46875 C 0.96875 -3.320312 0.75 -4.332031 0.75 -5.5 C 0.75 -6.664062 0.96875 -7.6875 1.40625 -8.5625 C 1.84375 -9.4375 2.460938 -10.117188 3.265625 -10.609375 C 4.078125 -11.097656 5.035156 -11.34375 6.140625 -11.34375 C 7.234375 -11.34375 8.179688 -11.101562 8.984375 -10.625 C 9.785156 -10.15625 10.40625 -9.476562 10.84375 -8.59375 C 11.289062 -7.71875 11.515625 -6.6875 11.515625 -5.5 C 11.515625 -4.382812 11.300781 -3.394531 10.875 -2.53125 C 10.445312 -1.675781 9.832031 -1.003906 9.03125 -0.515625 C 8.226562 -0.0234375 7.257812 0.21875 6.125 0.21875 Z M 6.140625 -2.125 C 6.691406 -2.125 7.132812 -2.285156 7.46875 -2.609375 C 7.8125 -2.929688 8.054688 -3.351562 8.203125 -3.875 C 8.359375 -4.40625 8.4375 -4.984375 8.4375 -5.609375 C 8.4375 -6.191406 8.363281 -6.742188 8.21875 -7.265625 C 8.082031 -7.796875 7.847656 -8.222656 7.515625 -8.546875 C 7.179688 -8.867188 6.722656 -9.03125 6.140625 -9.03125 C 5.585938 -9.03125 5.140625 -8.878906 4.796875 -8.578125 C 4.453125 -8.273438 4.203125 -7.863281 4.046875 -7.34375 C 3.890625 -6.820312 3.8125 -6.242188 3.8125 -5.609375 C 3.8125 -5.023438 3.878906 -4.460938 4.015625 -3.921875 C 4.160156 -3.390625 4.398438 -2.957031 4.734375 -2.625 C 5.078125 -2.289062 5.546875 -2.125 6.140625 -2.125 Z M 6.140625 -2.125 "/></g></g></g><g fill="#ffffff" fill-opacity="1"><g transform="translate(150.686766, 371.081838)"><g><path d="M 1.34375 0 L 1.34375 -11.125 L 4.4375 -11.125 L 4.4375 -9.5625 C 4.601562 -9.832031 4.820312 -10.09375 5.09375 -10.34375 C 5.375 -10.601562 5.726562 -10.816406 6.15625 -10.984375 C 6.582031 -11.148438 7.085938 -11.234375 7.671875 -11.234375 C 8.347656 -11.234375 8.984375 -11.097656 9.578125 -10.828125 C 10.171875 -10.566406 10.648438 -10.148438 11.015625 -9.578125 C 11.378906 -9.003906 11.5625 -8.257812 11.5625 -7.34375 L 11.5625 0 L 8.421875 0 L 8.421875 -6.953125 C 8.421875 -7.554688 8.238281 -8.007812 7.875 -8.3125 C 7.519531 -8.613281 7.082031 -8.765625 6.5625 -8.765625 C 6.21875 -8.765625 5.882812 -8.703125 5.5625 -8.578125 C 5.25 -8.453125 4.988281 -8.269531 4.78125 -8.03125 C 4.582031 -7.789062 4.484375 -7.488281 4.484375 -7.125 L 4.484375 0 Z M 1.34375 0 "/></g></g></g><g fill="#ffffff" fill-opacity="1"><g transform="translate(163.456658, 371.081838)"><g><path d="M 5.75 0.21875 C 4.976562 0.21875 4.234375 0.09375 3.515625 -0.15625 C 2.796875 -0.414062 2.1875 -0.820312 1.6875 -1.375 C 1.195312 -1.925781 0.882812 -2.640625 0.75 -3.515625 L 3.46875 -3.515625 C 3.5625 -3.117188 3.726562 -2.804688 3.96875 -2.578125 C 4.21875 -2.347656 4.5 -2.179688 4.8125 -2.078125 C 5.132812 -1.984375 5.441406 -1.9375 5.734375 -1.9375 C 6.328125 -1.9375 6.804688 -2.03125 7.171875 -2.21875 C 7.546875 -2.414062 7.734375 -2.707031 7.734375 -3.09375 C 7.734375 -3.394531 7.625 -3.632812 7.40625 -3.8125 C 7.1875 -4 6.828125 -4.140625 6.328125 -4.234375 L 4.375 -4.640625 C 3.382812 -4.847656 2.59375 -5.203125 2 -5.703125 C 1.40625 -6.203125 1.101562 -6.910156 1.09375 -7.828125 C 1.09375 -8.492188 1.269531 -9.09375 1.625 -9.625 C 1.976562 -10.15625 2.5 -10.570312 3.1875 -10.875 C 3.882812 -11.1875 4.742188 -11.34375 5.765625 -11.34375 C 7.128906 -11.34375 8.222656 -11.039062 9.046875 -10.4375 C 9.867188 -9.832031 10.285156 -8.984375 10.296875 -7.890625 L 7.671875 -7.890625 C 7.597656 -8.316406 7.382812 -8.644531 7.03125 -8.875 C 6.6875 -9.113281 6.253906 -9.234375 5.734375 -9.234375 C 5.179688 -9.234375 4.726562 -9.132812 4.375 -8.9375 C 4.03125 -8.75 3.859375 -8.457031 3.859375 -8.0625 C 3.859375 -7.769531 4 -7.535156 4.28125 -7.359375 C 4.570312 -7.191406 5.019531 -7.050781 5.625 -6.9375 L 7.421875 -6.53125 C 8.046875 -6.375 8.550781 -6.164062 8.9375 -5.90625 C 9.332031 -5.644531 9.640625 -5.359375 9.859375 -5.046875 C 10.078125 -4.742188 10.226562 -4.4375 10.3125 -4.125 C 10.394531 -3.8125 10.4375 -3.523438 10.4375 -3.265625 C 10.4375 -2.523438 10.238281 -1.894531 9.84375 -1.375 C 9.445312 -0.863281 8.894531 -0.46875 8.1875 -0.1875 C 7.488281 0.0820312 6.675781 0.21875 5.75 0.21875 Z M 5.75 0.21875 "/></g></g></g><g fill="#ffffff" fill-opacity="1"><g transform="translate(174.740687, 371.081838)"><g><path d="M 3.921875 -4.84375 C 3.921875 -4.28125 4.015625 -3.785156 4.203125 -3.359375 C 4.390625 -2.941406 4.660156 -2.617188 5.015625 -2.390625 C 5.367188 -2.171875 5.796875 -2.0625 6.296875 -2.0625 C 6.835938 -2.0625 7.3125 -2.175781 7.71875 -2.40625 C 8.125 -2.632812 8.40625 -3.007812 8.5625 -3.53125 L 11.390625 -3.53125 C 11.265625 -2.738281 10.945312 -2.0625 10.4375 -1.5 C 9.9375 -0.945312 9.328125 -0.519531 8.609375 -0.21875 C 7.890625 0.0703125 7.144531 0.21875 6.375 0.21875 C 5.269531 0.21875 4.300781 -0.0078125 3.46875 -0.46875 C 2.632812 -0.9375 1.984375 -1.59375 1.515625 -2.4375 C 1.046875 -3.289062 0.8125 -4.289062 0.8125 -5.4375 C 0.8125 -6.550781 1.023438 -7.550781 1.453125 -8.4375 C 1.878906 -9.332031 2.492188 -10.039062 3.296875 -10.5625 C 4.109375 -11.082031 5.082031 -11.34375 6.21875 -11.34375 C 7.34375 -11.34375 8.289062 -11.101562 9.0625 -10.625 C 9.84375 -10.15625 10.425781 -9.492188 10.8125 -8.640625 C 11.207031 -7.785156 11.40625 -6.800781 11.40625 -5.6875 L 11.40625 -4.84375 Z M 3.921875 -6.71875 L 8.46875 -6.71875 C 8.46875 -7.164062 8.382812 -7.570312 8.21875 -7.9375 C 8.050781 -8.3125 7.800781 -8.609375 7.46875 -8.828125 C 7.132812 -9.046875 6.71875 -9.15625 6.21875 -9.15625 C 5.726562 -9.15625 5.3125 -9.035156 4.96875 -8.796875 C 4.625 -8.566406 4.363281 -8.265625 4.1875 -7.890625 C 4.007812 -7.515625 3.921875 -7.125 3.921875 -6.71875 Z M 3.921875 -6.71875 "/></g></g></g><g fill="#ffffff" fill-opacity="1"><g transform="translate(186.982995, 371.081838)"><g><path d="M 4.890625 0.1875 C 4.078125 0.1875 3.429688 0.09375 2.953125 -0.09375 C 2.472656 -0.289062 2.117188 -0.546875 1.890625 -0.859375 C 1.660156 -1.179688 1.507812 -1.535156 1.4375 -1.921875 C 1.375 -2.316406 1.34375 -2.71875 1.34375 -3.125 L 1.34375 -16 L 4.421875 -16 L 4.421875 -3.515625 C 4.421875 -3.097656 4.507812 -2.757812 4.6875 -2.5 C 4.863281 -2.25 5.195312 -2.097656 5.6875 -2.046875 L 6.21875 -2.015625 L 6.21875 -0.078125 C 6 -0.00390625 5.773438 0.0546875 5.546875 0.109375 C 5.328125 0.160156 5.109375 0.1875 4.890625 0.1875 Z M 4.890625 0.1875 "/></g></g></g><g fill="#ffffff" fill-opacity="1"><g transform="translate(193.981674, 371.081838)"><g><path d="M 1.34375 0 L 1.34375 -16 L 4.46875 -16 L 4.46875 -9.53125 C 4.644531 -9.789062 4.867188 -10.046875 5.140625 -10.296875 C 5.421875 -10.546875 5.765625 -10.757812 6.171875 -10.9375 C 6.578125 -11.113281 7.078125 -11.203125 7.671875 -11.203125 C 8.378906 -11.203125 9.023438 -11.0625 9.609375 -10.78125 C 10.191406 -10.507812 10.660156 -10.109375 11.015625 -9.578125 C 11.367188 -9.054688 11.546875 -8.421875 11.546875 -7.671875 L 11.546875 0 L 8.390625 0 L 8.390625 -7.203125 C 8.390625 -7.703125 8.207031 -8.085938 7.84375 -8.359375 C 7.488281 -8.628906 7.050781 -8.765625 6.53125 -8.765625 C 6.195312 -8.765625 5.867188 -8.703125 5.546875 -8.578125 C 5.234375 -8.453125 4.976562 -8.265625 4.78125 -8.015625 C 4.582031 -7.773438 4.484375 -7.472656 4.484375 -7.109375 L 4.484375 0 Z M 1.34375 0 "/></g></g></g><g fill="#ffffff" fill-opacity="1"><g transform="translate(206.740807, 371.081838)"><g><path d="M 6.125 0.21875 C 5.03125 0.21875 4.078125 -0.015625 3.265625 -0.484375 C 2.460938 -0.953125 1.84375 -1.613281 1.40625 -2.46875 C 0.96875 -3.320312 0.75 -4.332031 0.75 -5.5 C 0.75 -6.664062 0.96875 -7.6875 1.40625 -8.5625 C 1.84375 -9.4375 2.460938 -10.117188 3.265625 -10.609375 C 4.078125 -11.097656 5.035156 -11.34375 6.140625 -11.34375 C 7.234375 -11.34375 8.179688 -11.101562 8.984375 -10.625 C 9.785156 -10.15625 10.40625 -9.476562 10.84375 -8.59375 C 11.289062 -7.71875 11.515625 -6.6875 11.515625 -5.5 C 11.515625 -4.382812 11.300781 -3.394531 10.875 -2.53125 C 10.445312 -1.675781 9.832031 -1.003906 9.03125 -0.515625 C 8.226562 -0.0234375 7.257812 0.21875 6.125 0.21875 Z M 6.140625 -2.125 C 6.691406 -2.125 7.132812 -2.285156 7.46875 -2.609375 C 7.8125 -2.929688 8.054688 -3.351562 8.203125 -3.875 C 8.359375 -4.40625 8.4375 -4.984375 8.4375 -5.609375 C 8.4375 -6.191406 8.363281 -6.742188 8.21875 -7.265625 C 8.082031 -7.796875 7.847656 -8.222656 7.515625 -8.546875 C 7.179688 -8.867188 6.722656 -9.03125 6.140625 -9.03125 C 5.585938 -9.03125 5.140625 -8.878906 4.796875 -8.578125 C 4.453125 -8.273438 4.203125 -7.863281 4.046875 -7.34375 C 3.890625 -6.820312 3.8125 -6.242188 3.8125 -5.609375 C 3.8125 -5.023438 3.878906 -4.460938 4.015625 -3.921875 C 4.160156 -3.390625 4.398438 -2.957031 4.734375 -2.625 C 5.078125 -2.289062 5.546875 -2.125 6.140625 -2.125 Z M 6.140625 -2.125 "/></g></g></g><g fill="#ffffff" fill-opacity="1"><g transform="translate(218.993874, 371.081838)"><g/></g></g><g fill="#ffffff" fill-opacity="1"><g transform="translate(223.559171, 371.081838)"><g><path d="M 5.484375 0.21875 C 3.984375 0.21875 2.816406 -0.296875 1.984375 -1.328125 C 1.160156 -2.359375 0.75 -3.789062 0.75 -5.625 C 0.75 -6.789062 0.914062 -7.800781 1.25 -8.65625 C 1.582031 -9.507812 2.078125 -10.171875 2.734375 -10.640625 C 3.398438 -11.109375 4.210938 -11.34375 5.171875 -11.34375 C 5.566406 -11.34375 5.9375 -11.296875 6.28125 -11.203125 C 6.632812 -11.117188 6.953125 -11 7.234375 -10.84375 C 7.523438 -10.6875 7.78125 -10.503906 8 -10.296875 C 8.21875 -10.085938 8.394531 -9.863281 8.53125 -9.625 L 8.53125 -16 L 11.6875 -16 L 11.6875 0 L 9.390625 0 L 9.046875 -2.28125 C 8.941406 -1.96875 8.800781 -1.664062 8.625 -1.375 C 8.445312 -1.082031 8.21875 -0.816406 7.9375 -0.578125 C 7.65625 -0.335938 7.3125 -0.144531 6.90625 0 C 6.5 0.144531 6.023438 0.21875 5.484375 0.21875 Z M 6.171875 -2.046875 C 6.960938 -2.046875 7.550781 -2.320312 7.9375 -2.875 C 8.332031 -3.425781 8.53125 -4.359375 8.53125 -5.671875 C 8.519531 -6.429688 8.425781 -7.0625 8.25 -7.5625 C 8.082031 -8.070312 7.828125 -8.445312 7.484375 -8.6875 C 7.140625 -8.9375 6.707031 -9.0625 6.1875 -9.0625 C 5.507812 -9.0625 4.941406 -8.800781 4.484375 -8.28125 C 4.035156 -7.757812 3.8125 -6.890625 3.8125 -5.671875 C 3.8125 -4.429688 4.019531 -3.515625 4.4375 -2.921875 C 4.863281 -2.335938 5.441406 -2.046875 6.171875 -2.046875 Z M 6.171875 -2.046875 "/></g></g></g><g fill="#ffffff" fill-opacity="1"><g transform="translate(236.587482, 371.081838)"><g><path d="M 3.921875 -4.84375 C 3.921875 -4.28125 4.015625 -3.785156 4.203125 -3.359375 C 4.390625 -2.941406 4.660156 -2.617188 5.015625 -2.390625 C 5.367188 -2.171875 5.796875 -2.0625 6.296875 -2.0625 C 6.835938 -2.0625 7.3125 -2.175781 7.71875 -2.40625 C 8.125 -2.632812 8.40625 -3.007812 8.5625 -3.53125 L 11.390625 -3.53125 C 11.265625 -2.738281 10.945312 -2.0625 10.4375 -1.5 C 9.9375 -0.945312 9.328125 -0.519531 8.609375 -0.21875 C 7.890625 0.0703125 7.144531 0.21875 6.375 0.21875 C 5.269531 0.21875 4.300781 -0.0078125 3.46875 -0.46875 C 2.632812 -0.9375 1.984375 -1.59375 1.515625 -2.4375 C 1.046875 -3.289062 0.8125 -4.289062 0.8125 -5.4375 C 0.8125 -6.550781 1.023438 -7.550781 1.453125 -8.4375 C 1.878906 -9.332031 2.492188 -10.039062 3.296875 -10.5625 C 4.109375 -11.082031 5.082031 -11.34375 6.21875 -11.34375 C 7.34375 -11.34375 8.289062 -11.101562 9.0625 -10.625 C 9.84375 -10.15625 10.425781 -9.492188 10.8125 -8.640625 C 11.207031 -7.785156 11.40625 -6.800781 11.40625 -5.6875 L 11.40625 -4.84375 Z M 3.921875 -6.71875 L 8.46875 -6.71875 C 8.46875 -7.164062 8.382812 -7.570312 8.21875 -7.9375 C 8.050781 -8.3125 7.800781 -8.609375 7.46875 -8.828125 C 7.132812 -9.046875 6.71875 -9.15625 6.21875 -9.15625 C 5.726562 -9.15625 5.3125 -9.035156 4.96875 -8.796875 C 4.625 -8.566406 4.363281 -8.265625 4.1875 -7.890625 C 4.007812 -7.515625 3.921875 -7.125 3.921875 -6.71875 Z M 3.921875 -6.71875 "/></g></g></g><g fill="#ffffff" fill-opacity="1"><g transform="translate(110.655926, 394.265052)"><g><path d="M 0.59375 0 L 6.171875 -15.5625 L 9.484375 -15.5625 L 15.046875 0 L 11.921875 0 L 10.640625 -3.609375 L 5.046875 -3.609375 L 3.75 0 Z M 5.75 -6.359375 L 9.890625 -6.359375 L 7.84375 -12.53125 Z M 5.75 -6.359375 "/></g></g></g><g fill="#ffffff" fill-opacity="1"><g transform="translate(126.300665, 394.265052)"><g><path d="M 5.484375 0.21875 C 3.984375 0.21875 2.816406 -0.296875 1.984375 -1.328125 C 1.160156 -2.359375 0.75 -3.789062 0.75 -5.625 C 0.75 -6.789062 0.914062 -7.800781 1.25 -8.65625 C 1.582031 -9.507812 2.078125 -10.171875 2.734375 -10.640625 C 3.398438 -11.109375 4.210938 -11.34375 5.171875 -11.34375 C 5.566406 -11.34375 5.9375 -11.296875 6.28125 -11.203125 C 6.632812 -11.117188 6.953125 -11 7.234375 -10.84375 C 7.523438 -10.6875 7.78125 -10.503906 8 -10.296875 C 8.21875 -10.085938 8.394531 -9.863281 8.53125 -9.625 L 8.53125 -16 L 11.6875 -16 L 11.6875 0 L 9.390625 0 L 9.046875 -2.28125 C 8.941406 -1.96875 8.800781 -1.664062 8.625 -1.375 C 8.445312 -1.082031 8.21875 -0.816406 7.9375 -0.578125 C 7.65625 -0.335938 7.3125 -0.144531 6.90625 0 C 6.5 0.144531 6.023438 0.21875 5.484375 0.21875 Z M 6.171875 -2.046875 C 6.960938 -2.046875 7.550781 -2.320312 7.9375 -2.875 C 8.332031 -3.425781 8.53125 -4.359375 8.53125 -5.671875 C 8.519531 -6.429688 8.425781 -7.0625 8.25 -7.5625 C 8.082031 -8.070312 7.828125 -8.445312 7.484375 -8.6875 C 7.140625 -8.9375 6.707031 -9.0625 6.1875 -9.0625 C 5.507812 -9.0625 4.941406 -8.800781 4.484375 -8.28125 C 4.035156 -7.757812 3.8125 -6.890625 3.8125 -5.671875 C 3.8125 -4.429688 4.019531 -3.515625 4.4375 -2.921875 C 4.863281 -2.335938 5.441406 -2.046875 6.171875 -2.046875 Z M 6.171875 -2.046875 "/></g></g></g><g fill="#ffffff" fill-opacity="1"><g transform="translate(139.328975, 394.265052)"><g><path d="M 1.34375 0 L 1.34375 -11.125 L 4.421875 -11.125 L 4.421875 -9.5625 C 4.765625 -10.050781 5.21875 -10.46875 5.78125 -10.8125 C 6.351562 -11.164062 7.070312 -11.34375 7.9375 -11.34375 C 8.320312 -11.34375 8.710938 -11.273438 9.109375 -11.140625 C 9.503906 -11.003906 9.875 -10.804688 10.21875 -10.546875 C 10.570312 -10.285156 10.851562 -9.957031 11.0625 -9.5625 C 11.425781 -10.070312 11.898438 -10.492188 12.484375 -10.828125 C 13.066406 -11.171875 13.71875 -11.34375 14.4375 -11.34375 C 14.851562 -11.34375 15.273438 -11.273438 15.703125 -11.140625 C 16.128906 -11.003906 16.519531 -10.78125 16.875 -10.46875 C 17.238281 -10.164062 17.53125 -9.753906 17.75 -9.234375 C 17.96875 -8.722656 18.078125 -8.09375 18.078125 -7.34375 L 18.078125 0 L 14.9375 0 L 14.9375 -6.953125 C 14.9375 -7.398438 14.847656 -7.753906 14.671875 -8.015625 C 14.492188 -8.285156 14.269531 -8.476562 14 -8.59375 C 13.726562 -8.71875 13.441406 -8.78125 13.140625 -8.78125 C 12.859375 -8.78125 12.570312 -8.722656 12.28125 -8.609375 C 12 -8.503906 11.757812 -8.328125 11.5625 -8.078125 C 11.363281 -7.835938 11.265625 -7.519531 11.265625 -7.125 L 11.265625 0 L 8.125 0 L 8.125 -7.234375 C 8.125 -7.566406 8.035156 -7.847656 7.859375 -8.078125 C 7.679688 -8.304688 7.457031 -8.476562 7.1875 -8.59375 C 6.914062 -8.71875 6.640625 -8.78125 6.359375 -8.78125 C 6.078125 -8.78125 5.789062 -8.71875 5.5 -8.59375 C 5.21875 -8.476562 4.976562 -8.296875 4.78125 -8.046875 C 4.582031 -7.804688 4.484375 -7.5 4.484375 -7.125 L 4.484375 0 Z M 1.34375 0 "/></g></g></g><g fill="#ffffff" fill-opacity="1"><g transform="translate(158.613022, 394.265052)"><g><path d="M 4.515625 -11.125 L 4.515625 0 L 1.5 0 L 1.5 -11.125 Z M 4.546875 -15.5625 L 4.546875 -12.71875 L 1.484375 -12.71875 L 1.484375 -15.5625 Z M 4.546875 -15.5625 "/></g></g></g><g fill="#ffffff" fill-opacity="1"><g transform="translate(164.631882, 394.265052)"><g><path d="M 1.34375 0 L 1.34375 -11.125 L 4.4375 -11.125 L 4.4375 -9.5625 C 4.601562 -9.832031 4.820312 -10.09375 5.09375 -10.34375 C 5.375 -10.601562 5.726562 -10.816406 6.15625 -10.984375 C 6.582031 -11.148438 7.085938 -11.234375 7.671875 -11.234375 C 8.347656 -11.234375 8.984375 -11.097656 9.578125 -10.828125 C 10.171875 -10.566406 10.648438 -10.148438 11.015625 -9.578125 C 11.378906 -9.003906 11.5625 -8.257812 11.5625 -7.34375 L 11.5625 0 L 8.421875 0 L 8.421875 -6.953125 C 8.421875 -7.554688 8.238281 -8.007812 7.875 -8.3125 C 7.519531 -8.613281 7.082031 -8.765625 6.5625 -8.765625 C 6.21875 -8.765625 5.882812 -8.703125 5.5625 -8.578125 C 5.25 -8.453125 4.988281 -8.269531 4.78125 -8.03125 C 4.582031 -7.789062 4.484375 -7.488281 4.484375 -7.125 L 4.484375 0 Z M 1.34375 0 "/></g></g></g><g fill="#ffffff" fill-opacity="1"><g transform="translate(177.401774, 394.265052)"><g><path d="M 4.515625 -11.125 L 4.515625 0 L 1.5 0 L 1.5 -11.125 Z M 4.546875 -15.5625 L 4.546875 -12.71875 L 1.484375 -12.71875 L 1.484375 -15.5625 Z M 4.546875 -15.5625 "/></g></g></g><g fill="#ffffff" fill-opacity="1"><g transform="translate(183.420633, 394.265052)"><g><path d="M 5.75 0.21875 C 4.976562 0.21875 4.234375 0.09375 3.515625 -0.15625 C 2.796875 -0.414062 2.1875 -0.820312 1.6875 -1.375 C 1.195312 -1.925781 0.882812 -2.640625 0.75 -3.515625 L 3.46875 -3.515625 C 3.5625 -3.117188 3.726562 -2.804688 3.96875 -2.578125 C 4.21875 -2.347656 4.5 -2.179688 4.8125 -2.078125 C 5.132812 -1.984375 5.441406 -1.9375 5.734375 -1.9375 C 6.328125 -1.9375 6.804688 -2.03125 7.171875 -2.21875 C 7.546875 -2.414062 7.734375 -2.707031 7.734375 -3.09375 C 7.734375 -3.394531 7.625 -3.632812 7.40625 -3.8125 C 7.1875 -4 6.828125 -4.140625 6.328125 -4.234375 L 4.375 -4.640625 C 3.382812 -4.847656 2.59375 -5.203125 2 -5.703125 C 1.40625 -6.203125 1.101562 -6.910156 1.09375 -7.828125 C 1.09375 -8.492188 1.269531 -9.09375 1.625 -9.625 C 1.976562 -10.15625 2.5 -10.570312 3.1875 -10.875 C 3.882812 -11.1875 4.742188 -11.34375 5.765625 -11.34375 C 7.128906 -11.34375 8.222656 -11.039062 9.046875 -10.4375 C 9.867188 -9.832031 10.285156 -8.984375 10.296875 -7.890625 L 7.671875 -7.890625 C 7.597656 -8.316406 7.382812 -8.644531 7.03125 -8.875 C 6.6875 -9.113281 6.253906 -9.234375 5.734375 -9.234375 C 5.179688 -9.234375 4.726562 -9.132812 4.375 -8.9375 C 4.03125 -8.75 3.859375 -8.457031 3.859375 -8.0625 C 3.859375 -7.769531 4 -7.535156 4.28125 -7.359375 C 4.570312 -7.191406 5.019531 -7.050781 5.625 -6.9375 L 7.421875 -6.53125 C 8.046875 -6.375 8.550781 -6.164062 8.9375 -5.90625 C 9.332031 -5.644531 9.640625 -5.359375 9.859375 -5.046875 C 10.078125 -4.742188 10.226562 -4.4375 10.3125 -4.125 C 10.394531 -3.8125 10.4375 -3.523438 10.4375 -3.265625 C 10.4375 -2.523438 10.238281 -1.894531 9.84375 -1.375 C 9.445312 -0.863281 8.894531 -0.46875 8.1875 -0.1875 C 7.488281 0.0820312 6.675781 0.21875 5.75 0.21875 Z M 5.75 0.21875 "/></g></g></g><g fill="#ffffff" fill-opacity="1"><g transform="translate(194.704662, 394.265052)"><g><path d="M 8.125 -8.953125 L 5.65625 -8.953125 L 5.671875 -3.015625 C 5.671875 -2.742188 5.703125 -2.539062 5.765625 -2.40625 C 5.835938 -2.269531 5.945312 -2.179688 6.09375 -2.140625 C 6.238281 -2.109375 6.425781 -2.09375 6.65625 -2.09375 L 8.15625 -2.09375 L 8.15625 -0.15625 C 8.007812 -0.0820312 7.785156 -0.0195312 7.484375 0.03125 C 7.179688 0.09375 6.757812 0.125 6.21875 0.125 C 5.238281 0.125 4.476562 0 3.9375 -0.25 C 3.40625 -0.507812 3.035156 -0.863281 2.828125 -1.3125 C 2.617188 -1.757812 2.515625 -2.285156 2.515625 -2.890625 L 2.515625 -8.953125 L 0.703125 -8.953125 L 0.703125 -11.125 L 2.625 -11.125 L 3.40625 -14.484375 L 5.65625 -14.484375 L 5.65625 -11.140625 L 8.125 -11.140625 Z M 8.125 -8.953125 "/></g></g></g><g fill="#ffffff" fill-opacity="1"><g transform="translate(203.802945, 394.265052)"><g><path d="M 1.34375 0 L 1.34375 -11.125 L 4.375 -11.125 L 4.375 -8.5 C 4.550781 -9.0625 4.800781 -9.554688 5.125 -9.984375 C 5.457031 -10.410156 5.851562 -10.742188 6.3125 -10.984375 C 6.78125 -11.222656 7.3125 -11.34375 7.90625 -11.34375 C 8 -11.34375 8.09375 -11.335938 8.1875 -11.328125 C 8.28125 -11.316406 8.347656 -11.300781 8.390625 -11.28125 L 8.390625 -8.296875 C 8.328125 -8.316406 8.25 -8.332031 8.15625 -8.34375 C 8.0625 -8.351562 7.976562 -8.359375 7.90625 -8.359375 C 7.289062 -8.410156 6.765625 -8.394531 6.328125 -8.3125 C 5.890625 -8.226562 5.535156 -8.082031 5.265625 -7.875 C 4.992188 -7.664062 4.796875 -7.410156 4.671875 -7.109375 C 4.546875 -6.804688 4.484375 -6.46875 4.484375 -6.09375 L 4.484375 0 Z M 1.34375 0 "/></g></g></g><g fill="#ffffff" fill-opacity="1"><g transform="translate(212.556677, 394.265052)"><g><path d="M 4.578125 0.21875 C 3.867188 0.21875 3.226562 0.0859375 2.65625 -0.171875 C 2.09375 -0.441406 1.644531 -0.828125 1.3125 -1.328125 C 0.976562 -1.835938 0.8125 -2.457031 0.8125 -3.1875 C 0.8125 -4.40625 1.265625 -5.332031 2.171875 -5.96875 C 3.085938 -6.601562 4.53125 -6.929688 6.5 -6.953125 L 7.890625 -6.96875 L 7.890625 -7.640625 C 7.890625 -8.148438 7.738281 -8.539062 7.4375 -8.8125 C 7.144531 -9.09375 6.6875 -9.226562 6.0625 -9.21875 C 5.601562 -9.21875 5.164062 -9.113281 4.75 -8.90625 C 4.34375 -8.695312 4.0625 -8.332031 3.90625 -7.8125 L 1.296875 -7.8125 C 1.335938 -8.613281 1.566406 -9.273438 1.984375 -9.796875 C 2.410156 -10.316406 2.988281 -10.703125 3.71875 -10.953125 C 4.445312 -11.210938 5.273438 -11.34375 6.203125 -11.34375 C 7.335938 -11.34375 8.25 -11.203125 8.9375 -10.921875 C 9.632812 -10.640625 10.132812 -10.234375 10.4375 -9.703125 C 10.75 -9.171875 10.90625 -8.546875 10.90625 -7.828125 L 10.90625 0 L 8.28125 0 L 8.015625 -1.921875 C 7.640625 -1.109375 7.164062 -0.546875 6.59375 -0.234375 C 6.019531 0.0664062 5.347656 0.21875 4.578125 0.21875 Z M 5.625 -1.859375 C 5.914062 -1.859375 6.195312 -1.90625 6.46875 -2 C 6.738281 -2.101562 6.976562 -2.242188 7.1875 -2.421875 C 7.394531 -2.597656 7.5625 -2.796875 7.6875 -3.015625 C 7.820312 -3.242188 7.890625 -3.476562 7.890625 -3.71875 L 7.890625 -5.359375 L 6.765625 -5.34375 C 6.234375 -5.332031 5.742188 -5.265625 5.296875 -5.140625 C 4.847656 -5.023438 4.484375 -4.832031 4.203125 -4.5625 C 3.929688 -4.300781 3.796875 -3.945312 3.796875 -3.5 C 3.796875 -2.976562 3.972656 -2.570312 4.328125 -2.28125 C 4.679688 -2 5.113281 -1.859375 5.625 -1.859375 Z M 5.625 -1.859375 "/></g></g></g><g fill="#ffffff" fill-opacity="1"><g transform="translate(224.906658, 394.265052)"><g><path d="M 6.109375 -11.34375 C 7.046875 -11.34375 7.851562 -11.148438 8.53125 -10.765625 C 9.207031 -10.390625 9.738281 -9.878906 10.125 -9.234375 C 10.519531 -8.585938 10.75 -7.867188 10.8125 -7.078125 L 8.1875 -7.078125 C 8.144531 -7.367188 8.039062 -7.660156 7.875 -7.953125 C 7.71875 -8.242188 7.492188 -8.484375 7.203125 -8.671875 C 6.921875 -8.859375 6.566406 -8.953125 6.140625 -8.953125 C 5.398438 -8.953125 4.800781 -8.671875 4.34375 -8.109375 C 3.894531 -7.546875 3.671875 -6.691406 3.671875 -5.546875 C 3.671875 -4.460938 3.890625 -3.601562 4.328125 -2.96875 C 4.773438 -2.332031 5.398438 -2.015625 6.203125 -2.015625 C 6.628906 -2.015625 6.984375 -2.117188 7.265625 -2.328125 C 7.546875 -2.535156 7.765625 -2.785156 7.921875 -3.078125 C 8.078125 -3.367188 8.175781 -3.640625 8.21875 -3.890625 L 10.78125 -3.890625 C 10.726562 -3.117188 10.503906 -2.421875 10.109375 -1.796875 C 9.710938 -1.179688 9.175781 -0.691406 8.5 -0.328125 C 7.820312 0.0351562 7.023438 0.21875 6.109375 0.21875 C 5.078125 0.21875 4.15625 -0.0078125 3.34375 -0.46875 C 2.53125 -0.925781 1.894531 -1.582031 1.4375 -2.4375 C 0.976562 -3.300781 0.75 -4.328125 0.75 -5.515625 C 0.75 -6.671875 0.96875 -7.6875 1.40625 -8.5625 C 1.851562 -9.4375 2.476562 -10.117188 3.28125 -10.609375 C 4.09375 -11.097656 5.035156 -11.34375 6.109375 -11.34375 Z M 8.59375 2.828125 C 8.59375 3.191406 8.472656 3.503906 8.234375 3.765625 C 7.992188 4.035156 7.675781 4.238281 7.28125 4.375 C 6.894531 4.507812 6.472656 4.578125 6.015625 4.578125 C 5.566406 4.578125 5.128906 4.53125 4.703125 4.4375 C 4.285156 4.351562 3.898438 4.207031 3.546875 4 L 3.96875 2.9375 C 4.195312 3.070312 4.453125 3.191406 4.734375 3.296875 C 5.015625 3.410156 5.3125 3.46875 5.625 3.46875 C 5.96875 3.46875 6.234375 3.40625 6.421875 3.28125 C 6.609375 3.164062 6.703125 3.003906 6.703125 2.796875 C 6.703125 2.515625 6.566406 2.296875 6.296875 2.140625 C 6.023438 1.992188 5.550781 1.921875 4.875 1.921875 C 4.789062 1.921875 4.734375 1.90625 4.703125 1.875 C 4.671875 1.851562 4.671875 1.800781 4.703125 1.71875 L 5.484375 -0.109375 L 6.890625 -0.109375 L 6.40625 1.15625 C 6.945312 1.164062 7.375 1.253906 7.6875 1.421875 C 8.007812 1.597656 8.238281 1.8125 8.375 2.0625 C 8.519531 2.320312 8.59375 2.578125 8.59375 2.828125 Z M 8.59375 2.828125 "/></g></g></g><g fill="#ffffff" fill-opacity="1"><g transform="translate(236.535238, 394.265052)"><g><path d="M 4.578125 0.21875 C 3.867188 0.21875 3.226562 0.0859375 2.65625 -0.171875 C 2.09375 -0.441406 1.644531 -0.828125 1.3125 -1.328125 C 0.976562 -1.835938 0.8125 -2.457031 0.8125 -3.1875 C 0.8125 -4.40625 1.265625 -5.332031 2.171875 -5.96875 C 3.085938 -6.601562 4.53125 -6.929688 6.5 -6.953125 L 7.890625 -6.96875 L 7.890625 -7.640625 C 7.890625 -8.148438 7.738281 -8.539062 7.4375 -8.8125 C 7.144531 -9.09375 6.6875 -9.226562 6.0625 -9.21875 C 5.601562 -9.21875 5.164062 -9.113281 4.75 -8.90625 C 4.34375 -8.695312 4.0625 -8.332031 3.90625 -7.8125 L 1.296875 -7.8125 C 1.335938 -8.613281 1.566406 -9.273438 1.984375 -9.796875 C 2.410156 -10.316406 2.988281 -10.703125 3.71875 -10.953125 C 4.445312 -11.210938 5.273438 -11.34375 6.203125 -11.34375 C 7.335938 -11.34375 8.25 -11.203125 8.9375 -10.921875 C 9.632812 -10.640625 10.132812 -10.234375 10.4375 -9.703125 C 10.75 -9.171875 10.90625 -8.546875 10.90625 -7.828125 L 10.90625 0 L 8.28125 0 L 8.015625 -1.921875 C 7.640625 -1.109375 7.164062 -0.546875 6.59375 -0.234375 C 6.019531 0.0664062 5.347656 0.21875 4.578125 0.21875 Z M 5.625 -1.859375 C 5.914062 -1.859375 6.195312 -1.90625 6.46875 -2 C 6.738281 -2.101562 6.976562 -2.242188 7.1875 -2.421875 C 7.394531 -2.597656 7.5625 -2.796875 7.6875 -3.015625 C 7.820312 -3.242188 7.890625 -3.476562 7.890625 -3.71875 L 7.890625 -5.359375 L 6.765625 -5.34375 C 6.234375 -5.332031 5.742188 -5.265625 5.296875 -5.140625 C 4.847656 -5.023438 4.484375 -4.832031 4.203125 -4.5625 C 3.929688 -4.300781 3.796875 -3.945312 3.796875 -3.5 C 3.796875 -2.976562 3.972656 -2.570312 4.328125 -2.28125 C 4.679688 -2 5.113281 -1.859375 5.625 -1.859375 Z M 10.015625 -13.671875 C 9.785156 -13.492188 9.484375 -13.320312 9.109375 -13.15625 C 8.742188 -13 8.316406 -12.921875 7.828125 -12.921875 C 7.429688 -12.921875 7.066406 -12.96875 6.734375 -13.0625 C 6.410156 -13.164062 6.085938 -13.265625 5.765625 -13.359375 C 5.453125 -13.460938 5.113281 -13.515625 4.75 -13.515625 C 4.382812 -13.515625 4.082031 -13.457031 3.84375 -13.34375 C 3.601562 -13.226562 3.34375 -13.054688 3.0625 -12.828125 L 2.578125 -14.46875 C 2.835938 -14.738281 3.125 -14.96875 3.4375 -15.15625 C 3.757812 -15.351562 4.160156 -15.453125 4.640625 -15.453125 C 5.046875 -15.453125 5.429688 -15.394531 5.796875 -15.28125 C 6.160156 -15.175781 6.507812 -15.066406 6.84375 -14.953125 C 7.175781 -14.847656 7.503906 -14.796875 7.828125 -14.796875 C 8.203125 -14.796875 8.535156 -14.875 8.828125 -15.03125 C 9.128906 -15.195312 9.394531 -15.363281 9.625 -15.53125 Z M 10.015625 -13.671875 "/></g></g></g><g fill="#ffffff" fill-opacity="1"><g transform="translate(248.885219, 394.265052)"><g><path d="M 6.125 0.21875 C 5.03125 0.21875 4.078125 -0.015625 3.265625 -0.484375 C 2.460938 -0.953125 1.84375 -1.613281 1.40625 -2.46875 C 0.96875 -3.320312 0.75 -4.332031 0.75 -5.5 C 0.75 -6.664062 0.96875 -7.6875 1.40625 -8.5625 C 1.84375 -9.4375 2.460938 -10.117188 3.265625 -10.609375 C 4.078125 -11.097656 5.035156 -11.34375 6.140625 -11.34375 C 7.234375 -11.34375 8.179688 -11.101562 8.984375 -10.625 C 9.785156 -10.15625 10.40625 -9.476562 10.84375 -8.59375 C 11.289062 -7.71875 11.515625 -6.6875 11.515625 -5.5 C 11.515625 -4.382812 11.300781 -3.394531 10.875 -2.53125 C 10.445312 -1.675781 9.832031 -1.003906 9.03125 -0.515625 C 8.226562 -0.0234375 7.257812 0.21875 6.125 0.21875 Z M 6.140625 -2.125 C 6.691406 -2.125 7.132812 -2.285156 7.46875 -2.609375 C 7.8125 -2.929688 8.054688 -3.351562 8.203125 -3.875 C 8.359375 -4.40625 8.4375 -4.984375 8.4375 -5.609375 C 8.4375 -6.191406 8.363281 -6.742188 8.21875 -7.265625 C 8.082031 -7.796875 7.847656 -8.222656 7.515625 -8.546875 C 7.179688 -8.867188 6.722656 -9.03125 6.140625 -9.03125 C 5.585938 -9.03125 5.140625 -8.878906 4.796875 -8.578125 C 4.453125 -8.273438 4.203125 -7.863281 4.046875 -7.34375 C 3.890625 -6.820312 3.8125 -6.242188 3.8125 -5.609375 C 3.8125 -5.023438 3.878906 -4.460938 4.015625 -3.921875 C 4.160156 -3.390625 4.398438 -2.957031 4.734375 -2.625 C 5.078125 -2.289062 5.546875 -2.125 6.140625 -2.125 Z M 6.140625 -2.125 "/></g></g></g><g clip-path="url(#6aca7b65e6)"><g clip-path="url(#f8aeb08d90)"><path fill="#21cc7a" d="M 521.398438 295.324219 L 694.238281 295.324219 L 694.238281 468.164062 L 521.398438 468.164062 Z M 521.398438 295.324219 " fill-opacity="1" fill-rule="nonzero"/></g></g><g clip-path="url(#4f33d71360)"><g clip-path="url(#1ac52dde45)"><path stroke-linecap="butt" transform="matrix(0.75, 0, 0, 0.75, 521.399162, 295.323759)" fill="none" stroke-linejoin="miter" d="M 115.228205 0.00061314 C 51.587577 0.00061314 -0.000966367 51.589157 -0.000966367 115.224576 C -0.000966367 178.865204 51.587577 230.453748 115.228205 230.453748 C 178.863624 230.453748 230.452168 178.865204 230.452168 115.224576 C 230.452168 51.589157 178.863624 0.00061314 115.228205 0.00061314 Z M 115.228205 0.00061314 " stroke="#ffffff" stroke-width="10" stroke-opacity="1" stroke-miterlimit="4"/></g></g><g fill="#ffffff" fill-opacity="1"><g transform="translate(561.540716, 381.4396)"><g><path d="M 8.40625 -16.40625 C 9.625 -16.40625 10.707031 -16.160156 11.65625 -15.671875 C 12.613281 -15.191406 13.382812 -14.53125 13.96875 -13.6875 C 14.550781 -12.84375 14.894531 -11.890625 15 -10.828125 L 11.578125 -10.828125 C 11.472656 -11.390625 11.28125 -11.882812 11 -12.3125 C 10.726562 -12.75 10.367188 -13.09375 9.921875 -13.34375 C 9.472656 -13.59375 8.9375 -13.71875 8.3125 -13.71875 C 7.550781 -13.71875 6.898438 -13.535156 6.359375 -13.171875 C 5.816406 -12.804688 5.398438 -12.21875 5.109375 -11.40625 C 4.816406 -10.59375 4.671875 -9.519531 4.671875 -8.1875 C 4.671875 -6.164062 4.992188 -4.707031 5.640625 -3.8125 C 6.285156 -2.914062 7.175781 -2.46875 8.3125 -2.46875 C 8.9375 -2.46875 9.472656 -2.609375 9.921875 -2.890625 C 10.367188 -3.179688 10.726562 -3.5625 11 -4.03125 C 11.28125 -4.507812 11.472656 -5.03125 11.578125 -5.59375 L 15 -5.59375 C 14.90625 -4.820312 14.71875 -4.085938 14.4375 -3.390625 C 14.164062 -2.691406 13.773438 -2.070312 13.265625 -1.53125 C 12.753906 -0.988281 12.097656 -0.5625 11.296875 -0.25 C 10.503906 0.0625 9.539062 0.21875 8.40625 0.21875 C 6.894531 0.21875 5.59375 -0.128906 4.5 -0.828125 C 3.40625 -1.523438 2.5625 -2.507812 1.96875 -3.78125 C 1.375 -5.050781 1.078125 -6.535156 1.078125 -8.234375 C 1.078125 -9.929688 1.367188 -11.390625 1.953125 -12.609375 C 2.546875 -13.828125 3.390625 -14.765625 4.484375 -15.421875 C 5.585938 -16.078125 6.894531 -16.40625 8.40625 -16.40625 Z M 8.40625 -16.40625 "/></g></g></g><g fill="#ffffff" fill-opacity="1"><g transform="translate(577.612208, 381.4396)"><g><path d="M 6.375 0.21875 C 5.238281 0.21875 4.25 -0.0195312 3.40625 -0.5 C 2.570312 -0.988281 1.921875 -1.675781 1.453125 -2.5625 C 0.992188 -3.445312 0.765625 -4.5 0.765625 -5.71875 C 0.765625 -6.9375 0.992188 -8 1.453125 -8.90625 C 1.921875 -9.820312 2.570312 -10.53125 3.40625 -11.03125 C 4.25 -11.539062 5.238281 -11.796875 6.375 -11.796875 C 7.519531 -11.796875 8.507812 -11.546875 9.34375 -11.046875 C 10.1875 -10.554688 10.832031 -9.851562 11.28125 -8.9375 C 11.738281 -8.03125 11.96875 -6.957031 11.96875 -5.71875 C 11.96875 -4.550781 11.742188 -3.519531 11.296875 -2.625 C 10.859375 -1.738281 10.222656 -1.039062 9.390625 -0.53125 C 8.554688 -0.03125 7.550781 0.21875 6.375 0.21875 Z M 6.375 -2.203125 C 6.957031 -2.203125 7.421875 -2.367188 7.765625 -2.703125 C 8.117188 -3.046875 8.375 -3.488281 8.53125 -4.03125 C 8.695312 -4.582031 8.78125 -5.179688 8.78125 -5.828125 C 8.78125 -6.441406 8.707031 -7.019531 8.5625 -7.5625 C 8.414062 -8.113281 8.164062 -8.554688 7.8125 -8.890625 C 7.457031 -9.222656 6.976562 -9.390625 6.375 -9.390625 C 5.800781 -9.390625 5.335938 -9.226562 4.984375 -8.90625 C 4.628906 -8.59375 4.367188 -8.164062 4.203125 -7.625 C 4.046875 -7.082031 3.96875 -6.484375 3.96875 -5.828125 C 3.96875 -5.222656 4.039062 -4.644531 4.1875 -4.09375 C 4.332031 -3.539062 4.582031 -3.085938 4.9375 -2.734375 C 5.289062 -2.378906 5.769531 -2.203125 6.375 -2.203125 Z M 6.375 -2.203125 "/></g></g></g><g fill="#ffffff" fill-opacity="1"><g transform="translate(590.348531, 381.4396)"><g><path d="M 1.40625 0 L 1.40625 -11.578125 L 4.609375 -11.578125 L 4.609375 -9.9375 C 4.785156 -10.21875 5.019531 -10.488281 5.3125 -10.75 C 5.601562 -11.019531 5.96875 -11.238281 6.40625 -11.40625 C 6.84375 -11.582031 7.363281 -11.671875 7.96875 -11.671875 C 8.675781 -11.671875 9.335938 -11.53125 9.953125 -11.25 C 10.566406 -10.976562 11.066406 -10.546875 11.453125 -9.953125 C 11.835938 -9.359375 12.03125 -8.585938 12.03125 -7.640625 L 12.03125 0 L 8.75 0 L 8.75 -7.234375 C 8.75 -7.859375 8.5625 -8.328125 8.1875 -8.640625 C 7.820312 -8.953125 7.367188 -9.109375 6.828125 -9.109375 C 6.472656 -9.109375 6.128906 -9.046875 5.796875 -8.921875 C 5.460938 -8.796875 5.191406 -8.601562 4.984375 -8.34375 C 4.773438 -8.09375 4.671875 -7.78125 4.671875 -7.40625 L 4.671875 0 Z M 1.40625 0 "/></g></g></g><g fill="#ffffff" fill-opacity="1"><g transform="translate(603.622061, 381.4396)"><g><path d="M 5.984375 0.21875 C 5.171875 0.21875 4.390625 0.0859375 3.640625 -0.171875 C 2.898438 -0.441406 2.269531 -0.859375 1.75 -1.421875 C 1.238281 -1.992188 0.910156 -2.738281 0.765625 -3.65625 L 3.609375 -3.65625 C 3.703125 -3.238281 3.875 -2.910156 4.125 -2.671875 C 4.382812 -2.429688 4.679688 -2.257812 5.015625 -2.15625 C 5.347656 -2.0625 5.660156 -2.015625 5.953125 -2.015625 C 6.578125 -2.015625 7.082031 -2.113281 7.46875 -2.3125 C 7.851562 -2.507812 8.046875 -2.8125 8.046875 -3.21875 C 8.046875 -3.53125 7.929688 -3.78125 7.703125 -3.96875 C 7.472656 -4.15625 7.097656 -4.300781 6.578125 -4.40625 L 4.546875 -4.828125 C 3.523438 -5.046875 2.703125 -5.410156 2.078125 -5.921875 C 1.460938 -6.441406 1.144531 -7.179688 1.125 -8.140625 C 1.125 -8.835938 1.304688 -9.460938 1.671875 -10.015625 C 2.046875 -10.566406 2.59375 -11 3.3125 -11.3125 C 4.039062 -11.632812 4.929688 -11.796875 5.984375 -11.796875 C 7.410156 -11.796875 8.550781 -11.484375 9.40625 -10.859375 C 10.257812 -10.234375 10.695312 -9.347656 10.71875 -8.203125 L 7.984375 -8.203125 C 7.898438 -8.648438 7.675781 -8.992188 7.3125 -9.234375 C 6.945312 -9.484375 6.492188 -9.609375 5.953125 -9.609375 C 5.390625 -9.609375 4.925781 -9.503906 4.5625 -9.296875 C 4.195312 -9.097656 4.015625 -8.796875 4.015625 -8.390625 C 4.015625 -8.078125 4.160156 -7.832031 4.453125 -7.65625 C 4.753906 -7.488281 5.21875 -7.335938 5.84375 -7.203125 L 7.71875 -6.78125 C 8.375 -6.625 8.90625 -6.410156 9.3125 -6.140625 C 9.71875 -5.867188 10.03125 -5.570312 10.25 -5.25 C 10.476562 -4.925781 10.632812 -4.601562 10.71875 -4.28125 C 10.800781 -3.957031 10.84375 -3.664062 10.84375 -3.40625 C 10.84375 -2.632812 10.632812 -1.976562 10.21875 -1.4375 C 9.8125 -0.894531 9.242188 -0.484375 8.515625 -0.203125 C 7.785156 0.078125 6.941406 0.21875 5.984375 0.21875 Z M 5.984375 0.21875 "/></g></g></g><g fill="#ffffff" fill-opacity="1"><g transform="translate(615.351117, 381.4396)"><g><path d="M 4.09375 -5.03125 C 4.082031 -4.445312 4.171875 -3.9375 4.359375 -3.5 C 4.554688 -3.0625 4.835938 -2.722656 5.203125 -2.484375 C 5.578125 -2.253906 6.023438 -2.140625 6.546875 -2.140625 C 7.109375 -2.140625 7.597656 -2.257812 8.015625 -2.5 C 8.441406 -2.738281 8.738281 -3.128906 8.90625 -3.671875 L 11.84375 -3.671875 C 11.71875 -2.847656 11.390625 -2.144531 10.859375 -1.5625 C 10.335938 -0.976562 9.703125 -0.535156 8.953125 -0.234375 C 8.210938 0.0664062 7.4375 0.21875 6.625 0.21875 C 5.488281 0.21875 4.484375 -0.0195312 3.609375 -0.5 C 2.742188 -0.976562 2.066406 -1.65625 1.578125 -2.53125 C 1.085938 -3.414062 0.84375 -4.457031 0.84375 -5.65625 C 0.84375 -6.8125 1.0625 -7.851562 1.5 -8.78125 C 1.945312 -9.707031 2.585938 -10.441406 3.421875 -10.984375 C 4.265625 -11.523438 5.273438 -11.796875 6.453125 -11.796875 C 7.640625 -11.796875 8.632812 -11.546875 9.4375 -11.046875 C 10.238281 -10.554688 10.84375 -9.867188 11.25 -8.984375 C 11.65625 -8.097656 11.859375 -7.078125 11.859375 -5.921875 L 11.859375 -5.03125 Z M 4.078125 -6.984375 L 8.796875 -6.984375 C 8.796875 -7.453125 8.707031 -7.878906 8.53125 -8.265625 C 8.363281 -8.648438 8.109375 -8.953125 7.765625 -9.171875 C 7.421875 -9.398438 6.984375 -9.515625 6.453125 -9.515625 C 5.953125 -9.515625 5.523438 -9.390625 5.171875 -9.140625 C 4.816406 -8.898438 4.546875 -8.585938 4.359375 -8.203125 C 4.171875 -7.816406 4.078125 -7.410156 4.078125 -6.984375 Z M 4.078125 -6.984375 "/></g></g></g><g fill="#ffffff" fill-opacity="1"><g transform="translate(628.076254, 381.4396)"><g><path d="M 5.09375 0.203125 C 4.238281 0.203125 3.5625 0.101562 3.0625 -0.09375 C 2.5625 -0.300781 2.191406 -0.570312 1.953125 -0.90625 C 1.710938 -1.238281 1.5625 -1.609375 1.5 -2.015625 C 1.4375 -2.421875 1.40625 -2.832031 1.40625 -3.25 L 1.40625 -16.640625 L 4.59375 -16.640625 L 4.59375 -3.65625 C 4.59375 -3.226562 4.6875 -2.878906 4.875 -2.609375 C 5.0625 -2.347656 5.40625 -2.1875 5.90625 -2.125 L 6.453125 -2.09375 L 6.453125 -0.078125 C 6.234375 -0.00390625 6.007812 0.0546875 5.78125 0.109375 C 5.550781 0.171875 5.320312 0.203125 5.09375 0.203125 Z M 5.09375 0.203125 "/></g></g></g><g fill="#ffffff" fill-opacity="1"><g transform="translate(635.350955, 381.4396)"><g><path d="M 1.40625 0 L 1.40625 -16.640625 L 4.640625 -16.640625 L 4.640625 -9.90625 C 4.828125 -10.175781 5.0625 -10.441406 5.34375 -10.703125 C 5.632812 -10.972656 5.988281 -11.195312 6.40625 -11.375 C 6.832031 -11.550781 7.351562 -11.640625 7.96875 -11.640625 C 8.707031 -11.640625 9.378906 -11.492188 9.984375 -11.203125 C 10.597656 -10.921875 11.085938 -10.503906 11.453125 -9.953125 C 11.828125 -9.410156 12.015625 -8.75 12.015625 -7.96875 L 12.015625 0 L 8.734375 0 L 8.734375 -7.484375 C 8.734375 -8.003906 8.546875 -8.40625 8.171875 -8.6875 C 7.796875 -8.96875 7.335938 -9.109375 6.796875 -9.109375 C 6.441406 -9.109375 6.097656 -9.046875 5.765625 -8.921875 C 5.441406 -8.796875 5.175781 -8.601562 4.96875 -8.34375 C 4.769531 -8.082031 4.671875 -7.765625 4.671875 -7.390625 L 4.671875 0 Z M 1.40625 0 "/></g></g></g><g fill="#ffffff" fill-opacity="1"><g transform="translate(648.6133, 381.4396)"><g><path d="M 6.375 0.21875 C 5.238281 0.21875 4.25 -0.0195312 3.40625 -0.5 C 2.570312 -0.988281 1.921875 -1.675781 1.453125 -2.5625 C 0.992188 -3.445312 0.765625 -4.5 0.765625 -5.71875 C 0.765625 -6.9375 0.992188 -8 1.453125 -8.90625 C 1.921875 -9.820312 2.570312 -10.53125 3.40625 -11.03125 C 4.25 -11.539062 5.238281 -11.796875 6.375 -11.796875 C 7.519531 -11.796875 8.507812 -11.546875 9.34375 -11.046875 C 10.1875 -10.554688 10.832031 -9.851562 11.28125 -8.9375 C 11.738281 -8.03125 11.96875 -6.957031 11.96875 -5.71875 C 11.96875 -4.550781 11.742188 -3.519531 11.296875 -2.625 C 10.859375 -1.738281 10.222656 -1.039062 9.390625 -0.53125 C 8.554688 -0.03125 7.550781 0.21875 6.375 0.21875 Z M 6.375 -2.203125 C 6.957031 -2.203125 7.421875 -2.367188 7.765625 -2.703125 C 8.117188 -3.046875 8.375 -3.488281 8.53125 -4.03125 C 8.695312 -4.582031 8.78125 -5.179688 8.78125 -5.828125 C 8.78125 -6.441406 8.707031 -7.019531 8.5625 -7.5625 C 8.414062 -8.113281 8.164062 -8.554688 7.8125 -8.890625 C 7.457031 -9.222656 6.976562 -9.390625 6.375 -9.390625 C 5.800781 -9.390625 5.335938 -9.226562 4.984375 -8.90625 C 4.628906 -8.59375 4.367188 -8.164062 4.203125 -7.625 C 4.046875 -7.082031 3.96875 -6.484375 3.96875 -5.828125 C 3.96875 -5.222656 4.039062 -4.644531 4.1875 -4.09375 C 4.332031 -3.539062 4.582031 -3.085938 4.9375 -2.734375 C 5.289062 -2.378906 5.769531 -2.203125 6.375 -2.203125 Z M 6.375 -2.203125 "/></g></g></g><g fill="#ffffff" fill-opacity="1"><g transform="translate(579.477728, 405.422234)"><g><path d="M 1.8125 -16.1875 L 12.828125 -16.1875 L 12.8125 -13.453125 L 5.109375 -13.453125 L 5.109375 -9.390625 L 11.78125 -9.390625 L 11.78125 -6.71875 L 5.109375 -6.71875 L 5.109375 0 L 1.8125 0 Z M 1.8125 -16.1875 "/></g></g></g><g fill="#ffffff" fill-opacity="1"><g transform="translate(593.210131, 405.422234)"><g><path d="M 4.6875 -11.578125 L 4.6875 0 L 1.5625 0 L 1.5625 -11.578125 Z M 4.71875 -16.171875 L 4.71875 -13.234375 L 1.546875 -13.234375 L 1.546875 -16.171875 Z M 4.71875 -16.171875 "/></g></g></g><g fill="#ffffff" fill-opacity="1"><g transform="translate(599.46638, 405.422234)"><g><path d="M 5.984375 0.21875 C 5.171875 0.21875 4.390625 0.0859375 3.640625 -0.171875 C 2.898438 -0.441406 2.269531 -0.859375 1.75 -1.421875 C 1.238281 -1.992188 0.910156 -2.738281 0.765625 -3.65625 L 3.609375 -3.65625 C 3.703125 -3.238281 3.875 -2.910156 4.125 -2.671875 C 4.382812 -2.429688 4.679688 -2.257812 5.015625 -2.15625 C 5.347656 -2.0625 5.660156 -2.015625 5.953125 -2.015625 C 6.578125 -2.015625 7.082031 -2.113281 7.46875 -2.3125 C 7.851562 -2.507812 8.046875 -2.8125 8.046875 -3.21875 C 8.046875 -3.53125 7.929688 -3.78125 7.703125 -3.96875 C 7.472656 -4.15625 7.097656 -4.300781 6.578125 -4.40625 L 4.546875 -4.828125 C 3.523438 -5.046875 2.703125 -5.410156 2.078125 -5.921875 C 1.460938 -6.441406 1.144531 -7.179688 1.125 -8.140625 C 1.125 -8.835938 1.304688 -9.460938 1.671875 -10.015625 C 2.046875 -10.566406 2.59375 -11 3.3125 -11.3125 C 4.039062 -11.632812 4.929688 -11.796875 5.984375 -11.796875 C 7.410156 -11.796875 8.550781 -11.484375 9.40625 -10.859375 C 10.257812 -10.234375 10.695312 -9.347656 10.71875 -8.203125 L 7.984375 -8.203125 C 7.898438 -8.648438 7.675781 -8.992188 7.3125 -9.234375 C 6.945312 -9.484375 6.492188 -9.609375 5.953125 -9.609375 C 5.390625 -9.609375 4.925781 -9.503906 4.5625 -9.296875 C 4.195312 -9.097656 4.015625 -8.796875 4.015625 -8.390625 C 4.015625 -8.078125 4.160156 -7.832031 4.453125 -7.65625 C 4.753906 -7.488281 5.21875 -7.335938 5.84375 -7.203125 L 7.71875 -6.78125 C 8.375 -6.625 8.90625 -6.410156 9.3125 -6.140625 C 9.71875 -5.867188 10.03125 -5.570312 10.25 -5.25 C 10.476562 -4.925781 10.632812 -4.601562 10.71875 -4.28125 C 10.800781 -3.957031 10.84375 -3.664062 10.84375 -3.40625 C 10.84375 -2.632812 10.632812 -1.976562 10.21875 -1.4375 C 9.8125 -0.894531 9.242188 -0.484375 8.515625 -0.203125 C 7.785156 0.078125 6.941406 0.21875 5.984375 0.21875 Z M 5.984375 0.21875 "/></g></g></g><g fill="#ffffff" fill-opacity="1"><g transform="translate(611.195436, 405.422234)"><g><path d="M 6.359375 -11.796875 C 7.328125 -11.796875 8.164062 -11.597656 8.875 -11.203125 C 9.582031 -10.804688 10.140625 -10.269531 10.546875 -9.59375 C 10.953125 -8.925781 11.179688 -8.179688 11.234375 -7.359375 L 8.515625 -7.359375 C 8.460938 -7.660156 8.351562 -7.960938 8.1875 -8.265625 C 8.03125 -8.566406 7.800781 -8.816406 7.5 -9.015625 C 7.195312 -9.210938 6.820312 -9.3125 6.375 -9.3125 C 5.613281 -9.3125 4.992188 -9.019531 4.515625 -8.4375 C 4.046875 -7.851562 3.8125 -6.960938 3.8125 -5.765625 C 3.8125 -4.640625 4.039062 -3.742188 4.5 -3.078125 C 4.96875 -2.421875 5.617188 -2.09375 6.453125 -2.09375 C 6.890625 -2.09375 7.253906 -2.203125 7.546875 -2.421875 C 7.847656 -2.640625 8.078125 -2.898438 8.234375 -3.203125 C 8.398438 -3.503906 8.503906 -3.785156 8.546875 -4.046875 L 11.203125 -4.046875 C 11.148438 -3.242188 10.914062 -2.519531 10.5 -1.875 C 10.09375 -1.226562 9.535156 -0.71875 8.828125 -0.34375 C 8.128906 0.03125 7.304688 0.21875 6.359375 0.21875 C 5.285156 0.21875 4.328125 -0.015625 3.484375 -0.484375 C 2.640625 -0.960938 1.972656 -1.648438 1.484375 -2.546875 C 1.003906 -3.441406 0.765625 -4.507812 0.765625 -5.75 C 0.765625 -6.9375 0.992188 -7.984375 1.453125 -8.890625 C 1.921875 -9.804688 2.570312 -10.519531 3.40625 -11.03125 C 4.25 -11.539062 5.234375 -11.796875 6.359375 -11.796875 Z M 6.359375 -11.796875 "/></g></g></g><g fill="#ffffff" fill-opacity="1"><g transform="translate(623.282631, 405.422234)"><g><path d="M 4.765625 0.21875 C 4.023438 0.21875 3.359375 0.0820312 2.765625 -0.1875 C 2.171875 -0.46875 1.703125 -0.867188 1.359375 -1.390625 C 1.015625 -1.921875 0.84375 -2.5625 0.84375 -3.3125 C 0.84375 -4.582031 1.316406 -5.546875 2.265625 -6.203125 C 3.210938 -6.867188 4.710938 -7.210938 6.765625 -7.234375 L 8.203125 -7.25 L 8.203125 -7.953125 C 8.203125 -8.484375 8.046875 -8.890625 7.734375 -9.171875 C 7.429688 -9.460938 6.953125 -9.601562 6.296875 -9.59375 C 5.828125 -9.582031 5.375 -9.46875 4.9375 -9.25 C 4.507812 -9.039062 4.21875 -8.664062 4.0625 -8.125 L 1.34375 -8.125 C 1.382812 -8.957031 1.625 -9.644531 2.0625 -10.1875 C 2.507812 -10.726562 3.109375 -11.128906 3.859375 -11.390625 C 4.617188 -11.660156 5.484375 -11.796875 6.453125 -11.796875 C 7.640625 -11.796875 8.585938 -11.648438 9.296875 -11.359375 C 10.015625 -11.066406 10.535156 -10.644531 10.859375 -10.09375 C 11.179688 -9.539062 11.34375 -8.890625 11.34375 -8.140625 L 11.34375 0 L 8.609375 0 L 8.34375 -2 C 7.945312 -1.15625 7.453125 -0.570312 6.859375 -0.25 C 6.265625 0.0625 5.566406 0.21875 4.765625 0.21875 Z M 5.859375 -1.921875 C 6.148438 -1.921875 6.4375 -1.972656 6.71875 -2.078125 C 7 -2.191406 7.25 -2.335938 7.46875 -2.515625 C 7.6875 -2.703125 7.863281 -2.910156 8 -3.140625 C 8.132812 -3.378906 8.203125 -3.617188 8.203125 -3.859375 L 8.203125 -5.578125 L 7.03125 -5.546875 C 6.488281 -5.546875 5.976562 -5.484375 5.5 -5.359375 C 5.03125 -5.234375 4.648438 -5.03125 4.359375 -4.75 C 4.078125 -4.476562 3.9375 -4.109375 3.9375 -3.640625 C 3.9375 -3.097656 4.125 -2.675781 4.5 -2.375 C 4.875 -2.070312 5.328125 -1.921875 5.859375 -1.921875 Z M 5.859375 -1.921875 "/></g></g></g><g fill="#ffffff" fill-opacity="1"><g transform="translate(636.119686, 405.422234)"><g><path d="M 5.09375 0.203125 C 4.238281 0.203125 3.5625 0.101562 3.0625 -0.09375 C 2.5625 -0.300781 2.191406 -0.570312 1.953125 -0.90625 C 1.710938 -1.238281 1.5625 -1.609375 1.5 -2.015625 C 1.4375 -2.421875 1.40625 -2.832031 1.40625 -3.25 L 1.40625 -16.640625 L 4.59375 -16.640625 L 4.59375 -3.65625 C 4.59375 -3.226562 4.6875 -2.878906 4.875 -2.609375 C 5.0625 -2.347656 5.40625 -2.1875 5.90625 -2.125 L 6.453125 -2.09375 L 6.453125 -0.078125 C 6.234375 -0.00390625 6.007812 0.0546875 5.78125 0.109375 C 5.550781 0.171875 5.320312 0.203125 5.09375 0.203125 Z M 5.09375 0.203125 "/></g></g></g><g fill="#ffffff" fill-opacity="1"><g transform="translate(261.865354, 214.096197)"><g><path d="M -17.296875 -13.96875 C -17.234375 -14.0625 -17.0625 -14.328125 -16.78125 -14.765625 C -16.507812 -15.203125 -16.1875 -15.710938 -15.8125 -16.296875 C -15.4375 -16.890625 -15.054688 -17.476562 -14.671875 -18.0625 C -14.285156 -18.65625 -13.960938 -19.144531 -13.703125 -19.53125 C -12.210938 -21.75 -10.632812 -23.328125 -8.96875 -24.265625 C -7.300781 -25.210938 -5.578125 -25.582031 -3.796875 -25.375 C -2.015625 -25.175781 -0.203125 -24.484375 1.640625 -23.296875 C 3.578125 -22.066406 5.019531 -20.648438 5.96875 -19.046875 C 6.925781 -17.453125 7.328125 -15.6875 7.171875 -13.75 C 7.015625 -11.8125 6.222656 -9.734375 4.796875 -7.515625 L 1.328125 -2.078125 Z M -11.828125 -15.828125 L 0.703125 -7.8125 L 1.8125 -9.53125 C 2.488281 -10.59375 2.898438 -11.691406 3.046875 -12.828125 C 3.191406 -13.972656 2.960938 -15.101562 2.359375 -16.21875 C 1.765625 -17.34375 0.6875 -18.40625 -0.875 -19.40625 C -2.320312 -20.320312 -3.644531 -20.84375 -4.84375 -20.96875 C -6.050781 -21.09375 -7.140625 -20.859375 -8.109375 -20.265625 C -9.078125 -19.671875 -9.9375 -18.785156 -10.6875 -17.609375 Z M -11.828125 -15.828125 "/></g></g></g><g fill="#ffffff" fill-opacity="1"><g transform="translate(273.391572, 196.520381)"><g><path d="M -15.90625 -15.546875 L -13.171875 -19.046875 L 4.25 -5.453125 L 1.515625 -1.953125 Z M -15.90625 -15.546875 "/></g></g></g><g fill="#ffffff" fill-opacity="1"><g transform="translate(278.346862, 189.653048)"><g><path d="M 13.4375 -14.296875 L 10.265625 -10.921875 L 1.609375 -14.140625 L -1.46875 -10.875 L 4.734375 -5.046875 L 1.6875 -1.796875 L -14.421875 -16.921875 L -8.03125 -23.71875 C -6.820312 -25 -5.628906 -25.859375 -4.453125 -26.296875 C -3.285156 -26.734375 -2.15625 -26.800781 -1.0625 -26.5 C 0.03125 -26.207031 1.046875 -25.617188 1.984375 -24.734375 C 2.835938 -23.941406 3.425781 -23.140625 3.75 -22.328125 C 4.082031 -21.523438 4.238281 -20.726562 4.21875 -19.9375 C 4.207031 -19.144531 4.09375 -18.382812 3.875 -17.65625 Z M -1.1875 -16.203125 C -0.363281 -17.078125 0.0507812 -17.988281 0.0625 -18.9375 C 0.0820312 -19.882812 -0.273438 -20.703125 -1.015625 -21.390625 C -1.753906 -22.097656 -2.570312 -22.40625 -3.46875 -22.3125 C -4.363281 -22.21875 -5.164062 -21.796875 -5.875 -21.046875 L -8.890625 -17.84375 L -3.984375 -13.234375 Z M -1.1875 -16.203125 "/></g></g></g><g fill="#ffffff" fill-opacity="1"><g transform="translate(292.039871, 175.046997)"><g><path d="M 1.890625 -1.578125 L -12.25 -18.546875 L -0.578125 -28.28125 L 1.796875 -25.390625 L -6.40625 -18.546875 L -2.96875 -14.40625 L 4.15625 -20.34375 L 6.515625 -17.53125 L -0.640625 -11.578125 L 2.875 -7.359375 L 11.234375 -14.3125 L 13.671875 -11.390625 Z M 1.890625 -1.578125 "/></g></g></g><g fill="#ffffff" fill-opacity="1"><g transform="translate(305.997717, 163.344465)"><g><path d="M -9.453125 -15.46875 L -11.640625 -18.78125 L 3.140625 -28.484375 L 5.328125 -25.171875 L -0.125 -21.59375 L 9.8125 -6.4375 L 6.078125 -3.984375 L -3.859375 -19.140625 Z M -9.453125 -15.46875 "/></g></g></g><g fill="#ffffff" fill-opacity="1"><g transform="translate(320.548226, 153.536201)"><g><path d="M 10.609375 -4.84375 C 8.734375 -3.925781 6.90625 -3.539062 5.125 -3.6875 C 3.351562 -3.84375 1.726562 -4.492188 0.25 -5.640625 C -1.226562 -6.785156 -2.484375 -8.410156 -3.515625 -10.515625 C -4.554688 -12.628906 -5.070312 -14.632812 -5.0625 -16.53125 C -5.050781 -18.4375 -4.5625 -20.140625 -3.59375 -21.640625 C -2.625 -23.140625 -1.21875 -24.34375 0.625 -25.25 C 2.46875 -26.144531 4.269531 -26.515625 6.03125 -26.359375 C 7.800781 -26.203125 9.429688 -25.539062 10.921875 -24.375 C 12.421875 -23.207031 13.691406 -21.5625 14.734375 -19.4375 C 15.753906 -17.34375 16.265625 -15.359375 16.265625 -13.484375 C 16.265625 -11.609375 15.785156 -9.925781 14.828125 -8.4375 C 13.878906 -6.945312 12.472656 -5.75 10.609375 -4.84375 Z M 9 -8.140625 C 9.976562 -8.609375 10.703125 -9.25 11.171875 -10.0625 C 11.648438 -10.875 11.835938 -11.875 11.734375 -13.0625 C 11.640625 -14.25 11.195312 -15.648438 10.40625 -17.265625 C 9.601562 -18.921875 8.75 -20.164062 7.84375 -21 C 6.945312 -21.832031 6.03125 -22.316406 5.09375 -22.453125 C 4.15625 -22.585938 3.203125 -22.421875 2.234375 -21.953125 C 1.285156 -21.484375 0.566406 -20.832031 0.078125 -20 C -0.398438 -19.175781 -0.582031 -18.148438 -0.46875 -16.921875 C -0.351562 -15.703125 0.101562 -14.269531 0.90625 -12.625 C 1.695312 -11 2.53125 -9.785156 3.40625 -8.984375 C 4.289062 -8.179688 5.207031 -7.722656 6.15625 -7.609375 C 7.101562 -7.492188 8.050781 -7.671875 9 -8.140625 Z M 9 -8.140625 "/></g></g></g><g fill="#ffffff" fill-opacity="1"><g transform="translate(340.190241, 143.900524)"><g><path d="M 18.625 -6.203125 L 14.21875 -4.734375 L 8.140625 -11.6875 L 3.875 -10.265625 L 6.5625 -2.1875 L 2.34375 -0.78125 L -4.640625 -21.734375 L 4.203125 -24.6875 C 5.878906 -25.238281 7.335938 -25.425781 8.578125 -25.25 C 9.816406 -25.082031 10.84375 -24.609375 11.65625 -23.828125 C 12.46875 -23.054688 13.078125 -22.054688 13.484375 -20.828125 C 13.859375 -19.722656 14 -18.738281 13.90625 -17.875 C 13.820312 -17.007812 13.582031 -16.226562 13.1875 -15.53125 C 12.800781 -14.84375 12.332031 -14.234375 11.78125 -13.703125 Z M 6.65625 -14.828125 C 7.789062 -15.203125 8.585938 -15.800781 9.046875 -16.625 C 9.503906 -17.445312 9.578125 -18.335938 9.265625 -19.296875 C 8.941406 -20.265625 8.363281 -20.921875 7.53125 -21.265625 C 6.707031 -21.617188 5.8125 -21.632812 4.84375 -21.3125 L 0.65625 -19.921875 L 2.78125 -13.53125 Z M 6.65625 -14.828125 "/></g></g></g><g fill="#ffffff" fill-opacity="1"><g transform="translate(359.527034, 137.695409)"><g><path d="M -2.625 -22.078125 L 1.703125 -23.09375 L 6.734375 -1.578125 L 2.40625 -0.5625 Z M -2.625 -22.078125 "/></g></g></g><g fill="#ffffff" fill-opacity="1"><g transform="translate(367.661034, 135.432613)"><g><path d="M 0.84375 -0.109375 L 5.6875 -23.078125 L 10.359375 -23.703125 L 21.15625 -2.890625 L 16.765625 -2.28125 L 14.28125 -7.125 L 6.421875 -6.046875 L 5.265625 -0.71875 Z M 6.859375 -10.046875 L 12.703125 -10.828125 L 8.609375 -19.125 Z M 6.859375 -10.046875 "/></g></g></g><g fill="#ffffff" fill-opacity="1"><g transform="translate(388.802485, 132.850096)"><g/></g></g><g fill="#ffffff" fill-opacity="1"><g transform="translate(394.467759, 132.287018)"><g><path d="M 2.46875 0.0625 L 3.078125 -22.015625 L 18.265625 -21.59375 L 18.140625 -17.859375 L 7.453125 -18.15625 L 7.3125 -12.78125 L 16.59375 -12.515625 L 16.484375 -8.84375 L 7.171875 -9.109375 L 7.03125 -3.625 L 17.90625 -3.3125 L 17.796875 0.484375 Z M 2.46875 0.0625 "/></g></g></g><g fill="#ffffff" fill-opacity="1"><g transform="translate(412.595455, 132.631667)"><g><path d="M 20.84375 3.171875 L 15.34375 2.328125 L 11.609375 -6.3125 L 5.578125 0.84375 L 0.828125 0.125 L 9.78125 -9.859375 L 4.375 -21.6875 L 9.84375 -20.84375 L 13.125 -13.109375 L 18.53125 -19.53125 L 23.203125 -18.8125 L 14.921875 -9.65625 Z M 20.84375 3.171875 "/></g></g></g><g fill="#ffffff" fill-opacity="1"><g transform="translate(433.001513, 135.739133)"><g><path d="M 2.375 0.671875 L 8.359375 -20.59375 L 22.984375 -16.484375 L 21.953125 -12.875 L 11.65625 -15.765625 L 10.203125 -10.59375 L 19.140625 -8.078125 L 18.140625 -4.546875 L 9.171875 -7.078125 L 7.6875 -1.796875 L 18.15625 1.171875 L 17.125 4.828125 Z M 2.375 0.671875 "/></g></g></g><g fill="#ffffff" fill-opacity="1"><g transform="translate(450.494377, 140.503366)"><g><path d="M 19.265625 -16.203125 C 20.796875 -15.554688 22.03125 -14.675781 22.96875 -13.5625 C 23.90625 -12.445312 24.519531 -11.203125 24.8125 -9.828125 C 25.101562 -8.453125 25.035156 -7.070312 24.609375 -5.6875 L 20.296875 -7.5 C 20.460938 -8.25 20.484375 -8.96875 20.359375 -9.65625 C 20.242188 -10.351562 19.972656 -10.976562 19.546875 -11.53125 C 19.117188 -12.09375 18.507812 -12.535156 17.71875 -12.859375 C 16.769531 -13.265625 15.851562 -13.378906 14.96875 -13.203125 C 14.09375 -13.035156 13.253906 -12.515625 12.453125 -11.640625 C 11.660156 -10.773438 10.910156 -9.503906 10.203125 -7.828125 C 9.140625 -5.296875 8.773438 -3.289062 9.109375 -1.8125 C 9.441406 -0.332031 10.320312 0.707031 11.75 1.3125 C 12.539062 1.632812 13.289062 1.734375 14 1.609375 C 14.71875 1.492188 15.378906 1.207031 15.984375 0.75 C 16.585938 0.289062 17.101562 -0.265625 17.53125 -0.921875 L 21.84375 0.890625 C 21.300781 1.804688 20.671875 2.628906 19.953125 3.359375 C 19.242188 4.097656 18.425781 4.671875 17.5 5.078125 C 16.570312 5.492188 15.519531 5.6875 14.34375 5.65625 C 13.175781 5.632812 11.878906 5.328125 10.453125 4.734375 C 8.554688 3.929688 7.101562 2.800781 6.09375 1.34375 C 5.09375 -0.113281 4.554688 -1.800781 4.484375 -3.71875 C 4.410156 -5.632812 4.820312 -7.660156 5.71875 -9.796875 C 6.613281 -11.929688 7.753906 -13.609375 9.140625 -14.828125 C 10.523438 -16.054688 12.082031 -16.789062 13.8125 -17.03125 C 15.539062 -17.28125 17.359375 -17.003906 19.265625 -16.203125 Z M 19.265625 -16.203125 "/></g></g></g><g fill="#ffffff" fill-opacity="1"><g transform="translate(469.515729, 148.405785)"><g><path d="M 21.65625 2.921875 C 20.75 4.460938 19.710938 5.648438 18.546875 6.484375 C 17.378906 7.328125 16.054688 7.722656 14.578125 7.671875 C 13.109375 7.628906 11.453125 7.066406 9.609375 5.984375 C 7.742188 4.890625 6.4375 3.707031 5.6875 2.4375 C 4.9375 1.164062 4.644531 -0.1875 4.8125 -1.625 C 4.988281 -3.0625 5.539062 -4.570312 6.46875 -6.15625 L 13.296875 -17.8125 L 17.21875 -15.515625 L 10.203125 -3.5625 C 9.378906 -2.132812 9.117188 -0.894531 9.421875 0.15625 C 9.722656 1.21875 10.425781 2.070312 11.53125 2.71875 C 12.257812 3.144531 12.984375 3.375 13.703125 3.40625 C 14.429688 3.445312 15.132812 3.257812 15.8125 2.84375 C 16.488281 2.4375 17.101562 1.753906 17.65625 0.796875 L 24.671875 -11.15625 L 28.5625 -8.875 Z M 21.65625 2.921875 "/></g></g></g><g fill="#ffffff" fill-opacity="1"><g transform="translate(487.504793, 158.974465)"><g><path d="M 11.453125 -14.0625 L 13.875 -17.203125 L 27.9375 -6.453125 L 25.515625 -3.3125 L 20.328125 -7.28125 L 9.328125 7.125 L 5.765625 4.40625 L 16.765625 -10 Z M 11.453125 -14.0625 "/></g></g></g><g fill="#ffffff" fill-opacity="1"><g transform="translate(501.661998, 169.993823)"><g><path d="M 16.671875 -14.703125 L 19.96875 -11.703125 L 5.125 4.65625 L 1.828125 1.65625 Z M 16.671875 -14.703125 "/></g></g></g><g fill="#ffffff" fill-opacity="1"><g transform="translate(508.140187, 175.441823)"><g><path d="M 30.375 0.4375 L 8.921875 9.734375 L 5.5 6 L 16.6875 -14.5 L 19.5625 -11.34375 L 11.046875 4.375 L 27.484375 -2.703125 Z M 30.375 0.4375 "/></g></g></g><g fill="#ffffff" fill-opacity="1"><g transform="translate(521.787712, 190.16615)"><g><path d="M 0.484375 0.6875 L 23.109375 -5.515625 L 25.828125 -1.65625 L 12.265625 17.484375 L 9.71875 13.859375 L 12.875 9.4375 L 8.3125 2.9375 L 3.046875 4.34375 Z M 12.078125 1.5 L 15.453125 6.328125 L 20.953125 -1.09375 Z M 12.078125 1.5 "/></g></g></g><g fill="#ffffff" fill-opacity="1"><g transform="translate(533.760118, 207.763064)"><g/></g></g><g fill="#ffffff" fill-opacity="1"><g transform="translate(334.568883, 66.658299)"><g><path d="M 5.78125 -24.484375 C 7.394531 -24.890625 8.910156 -24.921875 10.328125 -24.578125 C 11.753906 -24.242188 12.992188 -23.613281 14.046875 -22.6875 C 15.097656 -21.769531 15.867188 -20.625 16.359375 -19.25 L 11.8125 -18.140625 C 11.5 -18.828125 11.082031 -19.414062 10.5625 -19.90625 C 10.050781 -20.394531 9.460938 -20.734375 8.796875 -20.921875 C 8.128906 -21.109375 7.378906 -21.097656 6.546875 -20.890625 C 5.546875 -20.648438 4.738281 -20.195312 4.125 -19.53125 C 3.519531 -18.875 3.15625 -17.957031 3.03125 -16.78125 C 2.914062 -15.601562 3.078125 -14.128906 3.515625 -12.359375 C 4.171875 -9.691406 5.070312 -7.867188 6.21875 -6.890625 C 7.375 -5.910156 8.707031 -5.601562 10.21875 -5.96875 C 11.050781 -6.175781 11.710938 -6.539062 12.203125 -7.0625 C 12.703125 -7.59375 13.054688 -8.21875 13.265625 -8.9375 C 13.484375 -9.65625 13.566406 -10.410156 13.515625 -11.203125 L 18.0625 -12.3125 C 18.175781 -11.257812 18.164062 -10.222656 18.03125 -9.203125 C 17.894531 -8.191406 17.578125 -7.242188 17.078125 -6.359375 C 16.578125 -5.472656 15.847656 -4.691406 14.890625 -4.015625 C 13.941406 -3.335938 12.71875 -2.8125 11.21875 -2.4375 C 9.21875 -1.945312 7.375 -1.984375 5.6875 -2.546875 C 4.007812 -3.117188 2.566406 -4.148438 1.359375 -5.640625 C 0.160156 -7.140625 -0.710938 -9.007812 -1.265625 -11.25 C -1.816406 -13.507812 -1.898438 -15.539062 -1.515625 -17.34375 C -1.140625 -19.15625 -0.332031 -20.675781 0.90625 -21.90625 C 2.144531 -23.132812 3.769531 -23.992188 5.78125 -24.484375 Z M 5.78125 -24.484375 "/></g></g></g><g fill="#ffffff" fill-opacity="1"><g transform="translate(354.950699, 61.56947)"><g><path d="M 11.578125 -1.4375 C 9.515625 -1.125 7.660156 -1.304688 6.015625 -1.984375 C 4.367188 -2.660156 3.007812 -3.769531 1.9375 -5.3125 C 0.863281 -6.851562 0.148438 -8.78125 -0.203125 -11.09375 C -0.546875 -13.414062 -0.429688 -15.484375 0.140625 -17.296875 C 0.710938 -19.109375 1.6875 -20.582031 3.0625 -21.71875 C 4.4375 -22.863281 6.140625 -23.59375 8.171875 -23.90625 C 10.191406 -24.207031 12.019531 -24.019531 13.65625 -23.34375 C 15.289062 -22.664062 16.644531 -21.546875 17.71875 -19.984375 C 18.800781 -18.421875 19.519531 -16.472656 19.875 -14.140625 C 20.226562 -11.835938 20.125 -9.785156 19.5625 -7.984375 C 19.007812 -6.191406 18.050781 -4.726562 16.6875 -3.59375 C 15.320312 -2.46875 13.617188 -1.75 11.578125 -1.4375 Z M 11.03125 -5.078125 C 12.09375 -5.234375 12.972656 -5.625 13.671875 -6.25 C 14.378906 -6.875 14.863281 -7.769531 15.125 -8.9375 C 15.382812 -10.101562 15.378906 -11.570312 15.109375 -13.34375 C 14.835938 -15.164062 14.398438 -16.609375 13.796875 -17.671875 C 13.191406 -18.742188 12.457031 -19.484375 11.59375 -19.890625 C 10.726562 -20.296875 9.769531 -20.421875 8.71875 -20.265625 C 7.664062 -20.109375 6.785156 -19.707031 6.078125 -19.0625 C 5.367188 -18.414062 4.882812 -17.488281 4.625 -16.28125 C 4.363281 -15.082031 4.367188 -13.578125 4.640625 -11.765625 C 4.910156 -9.984375 5.34375 -8.578125 5.9375 -7.546875 C 6.539062 -6.515625 7.273438 -5.804688 8.140625 -5.421875 C 9.015625 -5.035156 9.976562 -4.921875 11.03125 -5.078125 Z M 11.03125 -5.078125 "/></g></g></g><g fill="#ffffff" fill-opacity="1"><g transform="translate(376.864057, 58.066932)"><g><path d="M 2.46875 -0.109375 L 1.421875 -22.171875 L 7.890625 -22.484375 L 13.703125 -7.015625 L 18.046875 -22.96875 L 24.5 -23.28125 L 25.546875 -1.21875 L 21.046875 -1 L 20.25 -17.890625 L 15.734375 -0.75 L 12.234375 -0.578125 L 6.15625 -17.140625 L 6.953125 -0.328125 Z M 2.46875 -0.109375 "/></g></g></g><g fill="#ffffff" fill-opacity="1"><g transform="translate(404.092093, 57.094697)"><g><path d="M 3.078125 -22.015625 L 7.53125 -21.890625 L 6.921875 0.1875 L 2.46875 0.0625 Z M 3.078125 -22.015625 "/></g></g></g><g fill="#ffffff" fill-opacity="1"><g transform="translate(412.903751, 57.189038)"><g><path d="M 2.109375 -18.015625 L 2.4375 -21.96875 L 20.0625 -20.46875 L 19.734375 -16.515625 L 13.21875 -17.078125 L 11.6875 0.984375 L 7.234375 0.609375 L 8.765625 -17.453125 Z M 2.109375 -18.015625 "/></g></g></g><g fill="#ffffff" fill-opacity="1"><g transform="translate(430.872588, 58.668777)"><g><path d="M 2.4375 0.390625 L 5.984375 -21.421875 L 20.96875 -18.984375 L 20.34375 -15.28125 L 9.796875 -17 L 8.9375 -11.6875 L 18.109375 -10.1875 L 17.53125 -6.5625 L 8.328125 -8.0625 L 7.4375 -2.65625 L 18.171875 -0.890625 L 17.5625 2.859375 Z M 15.78125 -21.703125 L 14.140625 -24.125 L 11.578125 -22.375 L 8.3125 -22.90625 L 12.9375 -26.171875 L 15.96875 -25.671875 L 19.21875 -21.140625 Z M 15.78125 -21.703125 "/></g></g></g><g fill="#ffffff" fill-opacity="1"><g transform="translate(449.191791, 61.575066)"><g><path d="M 10.375 2.890625 C 9.320312 2.628906 8.316406 2.238281 7.359375 1.71875 C 6.410156 1.195312 5.582031 0.566406 4.875 -0.171875 C 4.164062 -0.921875 3.632812 -1.757812 3.28125 -2.6875 C 2.9375 -3.625 2.84375 -4.644531 3 -5.75 L 7.4375 -4.65625 C 7.414062 -3.96875 7.554688 -3.347656 7.859375 -2.796875 C 8.171875 -2.253906 8.613281 -1.785156 9.1875 -1.390625 C 9.757812 -0.992188 10.4375 -0.695312 11.21875 -0.5 C 12.007812 -0.3125 12.753906 -0.238281 13.453125 -0.28125 C 14.160156 -0.320312 14.757812 -0.492188 15.25 -0.796875 C 15.738281 -1.097656 16.054688 -1.546875 16.203125 -2.140625 C 16.335938 -2.679688 16.285156 -3.164062 16.046875 -3.59375 C 15.816406 -4.019531 15.457031 -4.410156 14.96875 -4.765625 C 14.476562 -5.117188 13.898438 -5.453125 13.234375 -5.765625 L 9.734375 -7.421875 C 8.179688 -8.140625 7.050781 -9.101562 6.34375 -10.3125 C 5.644531 -11.53125 5.484375 -12.972656 5.859375 -14.640625 C 6.179688 -15.984375 6.828125 -17.050781 7.796875 -17.84375 C 8.773438 -18.644531 9.953125 -19.160156 11.328125 -19.390625 C 12.703125 -19.617188 14.171875 -19.539062 15.734375 -19.15625 C 17.585938 -18.695312 19.070312 -18.019531 20.1875 -17.125 C 21.300781 -16.226562 22.0625 -15.207031 22.46875 -14.0625 C 22.882812 -12.925781 22.953125 -11.75 22.671875 -10.53125 L 18.328125 -11.609375 C 18.441406 -12.378906 18.363281 -13.035156 18.09375 -13.578125 C 17.820312 -14.117188 17.421875 -14.5625 16.890625 -14.90625 C 16.359375 -15.25 15.71875 -15.515625 14.96875 -15.703125 C 14.382812 -15.835938 13.835938 -15.894531 13.328125 -15.875 C 12.828125 -15.863281 12.382812 -15.78125 12 -15.625 C 11.613281 -15.476562 11.289062 -15.269531 11.03125 -15 C 10.78125 -14.738281 10.609375 -14.410156 10.515625 -14.015625 C 10.359375 -13.390625 10.441406 -12.832031 10.765625 -12.34375 C 11.085938 -11.851562 11.785156 -11.34375 12.859375 -10.8125 L 16.34375 -9.15625 C 17.601562 -8.5625 18.554688 -7.914062 19.203125 -7.21875 C 19.859375 -6.519531 20.300781 -5.804688 20.53125 -5.078125 C 20.769531 -4.347656 20.867188 -3.640625 20.828125 -2.953125 C 20.796875 -2.265625 20.707031 -1.644531 20.5625 -1.09375 C 20.28125 0.0625 19.660156 1.007812 18.703125 1.75 C 17.742188 2.5 16.550781 2.984375 15.125 3.203125 C 13.695312 3.421875 12.113281 3.316406 10.375 2.890625 Z M 10.375 2.890625 "/></g></g></g><g fill="#ffffff" fill-opacity="1"><g transform="translate(329.845661, 511.19668)"><g><path d="M 18.59375 -16.96875 C 20.144531 -16.382812 21.410156 -15.550781 22.390625 -14.46875 C 23.378906 -13.394531 24.046875 -12.175781 24.390625 -10.8125 C 24.742188 -9.457031 24.734375 -8.078125 24.359375 -6.671875 L 19.96875 -8.3125 C 20.113281 -9.070312 20.109375 -9.796875 19.953125 -10.484375 C 19.804688 -11.171875 19.507812 -11.78125 19.0625 -12.3125 C 18.613281 -12.851562 17.988281 -13.273438 17.1875 -13.578125 C 16.21875 -13.929688 15.296875 -14.003906 14.421875 -13.796875 C 13.546875 -13.597656 12.726562 -13.046875 11.96875 -12.140625 C 11.21875 -11.242188 10.519531 -9.941406 9.875 -8.234375 C 8.914062 -5.648438 8.628906 -3.628906 9.015625 -2.171875 C 9.410156 -0.710938 10.335938 0.285156 11.796875 0.828125 C 12.597656 1.128906 13.351562 1.203125 14.0625 1.046875 C 14.769531 0.890625 15.414062 0.570312 16 0.09375 C 16.582031 -0.382812 17.070312 -0.957031 17.46875 -1.625 L 21.859375 0.015625 C 21.367188 0.960938 20.773438 1.8125 20.078125 2.5625 C 19.390625 3.320312 18.59375 3.925781 17.6875 4.375 C 16.78125 4.820312 15.738281 5.054688 14.5625 5.078125 C 13.394531 5.109375 12.085938 4.851562 10.640625 4.3125 C 8.710938 3.59375 7.210938 2.519531 6.140625 1.09375 C 5.066406 -0.332031 4.457031 -2 4.3125 -3.90625 C 4.164062 -5.8125 4.5 -7.84375 5.3125 -10 C 6.125 -12.175781 7.195312 -13.90625 8.53125 -15.1875 C 9.863281 -16.46875 11.390625 -17.265625 13.109375 -17.578125 C 14.828125 -17.890625 16.65625 -17.6875 18.59375 -16.96875 Z M 18.59375 -16.96875 "/></g></g></g><g fill="#ffffff" fill-opacity="1"><g transform="translate(351.759511, 519.332981)"><g><path d="M 11.3125 2.890625 C 9.269531 2.429688 7.609375 1.582031 6.328125 0.34375 C 5.046875 -0.882812 4.1875 -2.410156 3.75 -4.234375 C 3.3125 -6.054688 3.351562 -8.113281 3.875 -10.40625 C 4.394531 -12.695312 5.25 -14.582031 6.4375 -16.0625 C 7.632812 -17.539062 9.078125 -18.554688 10.765625 -19.109375 C 12.460938 -19.671875 14.316406 -19.722656 16.328125 -19.265625 C 18.328125 -18.804688 19.960938 -17.960938 21.234375 -16.734375 C 22.503906 -15.515625 23.359375 -13.984375 23.796875 -12.140625 C 24.234375 -10.296875 24.191406 -8.222656 23.671875 -5.921875 C 23.148438 -3.640625 22.300781 -1.765625 21.125 -0.296875 C 19.957031 1.171875 18.535156 2.179688 16.859375 2.734375 C 15.179688 3.296875 13.332031 3.347656 11.3125 2.890625 Z M 12.125 -0.703125 C 13.175781 -0.460938 14.140625 -0.503906 15.015625 -0.828125 C 15.890625 -1.148438 16.660156 -1.804688 17.328125 -2.796875 C 18.003906 -3.796875 18.539062 -5.171875 18.9375 -6.921875 C 19.34375 -8.710938 19.457031 -10.210938 19.28125 -11.421875 C 19.113281 -12.640625 18.703125 -13.59375 18.046875 -14.28125 C 17.398438 -14.976562 16.554688 -15.445312 15.515625 -15.6875 C 14.472656 -15.914062 13.503906 -15.859375 12.609375 -15.515625 C 11.722656 -15.171875 10.9375 -14.488281 10.25 -13.46875 C 9.570312 -12.445312 9.03125 -11.046875 8.625 -9.265625 C 8.226562 -7.503906 8.117188 -6.03125 8.296875 -4.84375 C 8.472656 -3.664062 8.894531 -2.738281 9.5625 -2.0625 C 10.226562 -1.382812 11.082031 -0.929688 12.125 -0.703125 Z M 12.125 -0.703125 "/></g></g></g><g fill="#ffffff" fill-opacity="1"><g transform="translate(376.018051, 524.897264)"><g><path d="M 2.46875 0.171875 L 4.015625 -21.859375 L 10.484375 -21.40625 L 14.4375 -5.34375 L 20.609375 -20.6875 L 27.0625 -20.234375 L 25.515625 1.796875 L 21.03125 1.484375 L 22.21875 -15.375 L 15.703125 1.109375 L 12.21875 0.859375 L 8.140625 -16.296875 L 6.953125 0.484375 Z M 2.46875 0.171875 "/></g></g></g><g fill="#ffffff" fill-opacity="1"><g transform="translate(405.171945, 526.367028)"><g><path d="M 1.5625 -22.171875 L 6.015625 -22.359375 L 6.921875 -0.28125 L 2.46875 -0.09375 Z M 1.5625 -22.171875 "/></g></g></g><g fill="#ffffff" fill-opacity="1"><g transform="translate(415.458552, 526.104264)"><g><path d="M -1.6875 -18.0625 L -2.1875 -22 L 15.359375 -24.203125 L 15.859375 -20.265625 L 9.375 -19.453125 L 11.640625 -1.46875 L 7.203125 -0.90625 L 4.9375 -18.890625 Z M -1.6875 -18.0625 "/></g></g></g><g fill="#ffffff" fill-opacity="1"><g transform="translate(435.323611, 523.550111)"><g><path d="M 2.40625 -0.578125 L -2.828125 -22.046875 L 11.921875 -25.65625 L 12.796875 -22 L 2.40625 -19.46875 L 3.671875 -14.234375 L 12.6875 -16.4375 L 13.5625 -12.875 L 4.515625 -10.671875 L 5.8125 -5.34375 L 16.390625 -7.90625 L 17.296875 -4.21875 Z M 6.078125 -26.125 L 3.625 -27.734375 L 1.953125 -25.125 L -1.265625 -24.34375 L 1.703125 -29.140625 L 4.703125 -29.859375 L 9.46875 -26.953125 Z M 6.078125 -26.125 "/></g></g></g><g fill="#ffffff" fill-opacity="1"><g transform="translate(455.403668, 518.63319)"><g><path d="M 10.1875 -3.5 C 9.175781 -3.113281 8.125 -2.863281 7.03125 -2.75 C 5.945312 -2.644531 4.90625 -2.695312 3.90625 -2.90625 C 2.90625 -3.113281 1.992188 -3.503906 1.171875 -4.078125 C 0.359375 -4.648438 -0.289062 -5.441406 -0.78125 -6.453125 L 3.484375 -8.046875 C 3.867188 -7.472656 4.34375 -7.046875 4.90625 -6.765625 C 5.46875 -6.492188 6.09375 -6.359375 6.78125 -6.359375 C 7.476562 -6.359375 8.203125 -6.5 8.953125 -6.78125 C 9.710938 -7.0625 10.367188 -7.414062 10.921875 -7.84375 C 11.484375 -8.28125 11.878906 -8.757812 12.109375 -9.28125 C 12.347656 -9.8125 12.359375 -10.367188 12.140625 -10.953125 C 11.941406 -11.472656 11.625 -11.84375 11.1875 -12.0625 C 10.757812 -12.289062 10.242188 -12.410156 9.640625 -12.421875 C 9.035156 -12.429688 8.367188 -12.375 7.640625 -12.25 L 3.8125 -11.640625 C 2.132812 -11.347656 0.660156 -11.5 -0.609375 -12.09375 C -1.878906 -12.695312 -2.832031 -13.789062 -3.46875 -15.375 C -3.96875 -16.664062 -4.039062 -17.914062 -3.6875 -19.125 C -3.34375 -20.332031 -2.664062 -21.421875 -1.65625 -22.390625 C -0.644531 -23.359375 0.609375 -24.128906 2.109375 -24.703125 C 3.890625 -25.367188 5.492188 -25.648438 6.921875 -25.546875 C 8.347656 -25.453125 9.550781 -25.050781 10.53125 -24.34375 C 11.519531 -23.632812 12.25 -22.695312 12.71875 -21.53125 L 8.515625 -19.953125 C 8.171875 -20.660156 7.734375 -21.15625 7.203125 -21.4375 C 6.679688 -21.726562 6.101562 -21.863281 5.46875 -21.84375 C 4.832031 -21.820312 4.15625 -21.675781 3.4375 -21.40625 C 2.882812 -21.195312 2.40625 -20.941406 2 -20.640625 C 1.59375 -20.347656 1.269531 -20.03125 1.03125 -19.6875 C 0.800781 -19.34375 0.65625 -18.984375 0.59375 -18.609375 C 0.539062 -18.242188 0.582031 -17.875 0.71875 -17.5 C 0.945312 -16.894531 1.332031 -16.484375 1.875 -16.265625 C 2.414062 -16.046875 3.28125 -16.019531 4.46875 -16.1875 L 8.28125 -16.796875 C 9.644531 -17.023438 10.796875 -17.035156 11.734375 -16.828125 C 12.671875 -16.628906 13.441406 -16.296875 14.046875 -15.828125 C 14.648438 -15.359375 15.128906 -14.828125 15.484375 -14.234375 C 15.835938 -13.648438 16.117188 -13.085938 16.328125 -12.546875 C 16.742188 -11.441406 16.765625 -10.304688 16.390625 -9.140625 C 16.023438 -7.984375 15.316406 -6.910156 14.265625 -5.921875 C 13.222656 -4.929688 11.863281 -4.125 10.1875 -3.5 Z M 10.1875 -3.5 "/></g></g></g><g clip-path="url(#44809532f3)"><g clip-path="url(#40e7cacb93)"><g clip-path="url(#32eae4a420)"><path fill="#ffffff" d="M 556.898438 331.335938 L 532.945312 381.683594 L 498.574219 365.332031 L 522.527344 314.984375 Z M 556.898438 331.335938 " fill-opacity="1" fill-rule="nonzero"/></g></g></g><g clip-path="url(#ddb5217c33)"><g clip-path="url(#5da4b339b3)"><g clip-path="url(#2927ef2b24)"><path fill="#ffffff" d="M 266.4375 378.570312 L 239.878906 329.546875 L 273.347656 311.414062 L 299.902344 360.441406 Z M 266.4375 378.570312 " fill-opacity="1" fill-rule="nonzero"/></g></g></g></svg>